<?xml version="1.0" encoding="UTF-8" standalone="no"?>
<svg
   viewBox="0 0 8 8"
   shape-rendering="crispEdges"
   width="500mm"
   height="500mm"
   version="1.1"
   id="svg139"
   sodipodi:docname="6x6_1000-96.svg"
   inkscape:version="1.2.2 (1:1.2.2+202212051550+b0a8486541)"
   inkscape:export-filename="6x6_1000-96.png"
   inkscape:export-xdpi="96"
   inkscape:export-ydpi="96"
   xmlns:inkscape="http://www.inkscape.org/namespaces/inkscape"
   xmlns:sodipodi="http://sodipodi.sourceforge.net/DTD/sodipodi-0.dtd"
   xmlns="http://www.w3.org/2000/svg"
   xmlns:svg="http://www.w3.org/2000/svg">
  <defs
     id="defs143" />
  <sodipodi:namedview
     id="namedview141"
     pagecolor="#ffffff"
     bordercolor="#000000"
     borderopacity="0.25"
     inkscape:showpageshadow="2"
     inkscape:pageopacity="0.0"
     inkscape:pagecheckerboard="0"
     inkscape:deskcolor="#d1d1d1"
     inkscape:document-units="mm"
     showgrid="false"
     inkscape:zoom="0.14340417"
     inkscape:cx="561.35048"
     inkscape:cy="1105.2677"
     inkscape:window-width="1848"
     inkscape:window-height="1016"
     inkscape:window-x="72"
     inkscape:window-y="27"
     inkscape:window-maximized="1"
     inkscape:current-layer="svg139" />
  <rect
     style="fill:#ffffff;stroke-width:0.00423333"
     id="rect334"
     width="8.5608788"
     height="8.4723177"
     x="-0.20664191"
     y="-0.2952027" />
  <g
     id="g280">
    <rect
       x="0"
       y="0"
       width="8"
       height="8"
       fill="#000000"
       id="rect77" />
    <rect
       width="1"
       height="1"
       x="2"
       y="1"
       fill="#ffffff"
       id="rect79" />
    <rect
       width="1"
       height="1.5"
       x="2"
       y="1"
       fill="#ffffff"
       id="rect81" />
    <rect
       width="1"
       height="1"
       x="4"
       y="1"
       fill="#ffffff"
       id="rect83" />
    <rect
       width="1"
       height="1"
       x="6"
       y="1"
       fill="#ffffff"
       id="rect85" />
    <rect
       width="1"
       height="1.5"
       x="6"
       y="1"
       fill="#ffffff"
       id="rect87" />
    <rect
       width="1.5"
       height="1"
       x="1"
       y="2"
       fill="#ffffff"
       id="rect89" />
    <rect
       width="1.5"
       height="1"
       x="2"
       y="2"
       fill="#ffffff"
       id="rect91" />
    <rect
       width="1"
       height="1.5"
       x="2"
       y="2"
       fill="#ffffff"
       id="rect93" />
    <rect
       width="1"
       height="1"
       x="3"
       y="2"
       fill="#ffffff"
       id="rect95" />
    <rect
       width="1"
       height="1.5"
       x="3"
       y="2"
       fill="#ffffff"
       id="rect97" />
    <rect
       width="1.5"
       height="1"
       x="5"
       y="2"
       fill="#ffffff"
       id="rect99" />
    <rect
       width="1"
       height="1"
       x="6"
       y="2"
       fill="#ffffff"
       id="rect101" />
    <rect
       width="1"
       height="1.5"
       x="6"
       y="2"
       fill="#ffffff"
       id="rect103" />
    <rect
       width="1.5"
       height="1"
       x="2"
       y="3"
       fill="#ffffff"
       id="rect105" />
    <rect
       width="1"
       height="1.5"
       x="2"
       y="3"
       fill="#ffffff"
       id="rect107" />
    <rect
       width="1.5"
       height="1"
       x="3"
       y="3"
       fill="#ffffff"
       id="rect109" />
    <rect
       width="1"
       height="1"
       x="4"
       y="3"
       fill="#ffffff"
       id="rect111" />
    <rect
       width="1"
       height="1.5"
       x="4"
       y="3"
       fill="#ffffff"
       id="rect113" />
    <rect
       width="1"
       height="1"
       x="6"
       y="3"
       fill="#ffffff"
       id="rect115" />
    <rect
       width="1.5"
       height="1"
       x="1"
       y="4"
       fill="#ffffff"
       id="rect117" />
    <rect
       width="1"
       height="1"
       x="2"
       y="4"
       fill="#ffffff"
       id="rect119" />
    <rect
       width="1.5"
       height="1"
       x="4"
       y="4"
       fill="#ffffff"
       id="rect121" />
    <rect
       width="1"
       height="1.5"
       x="4"
       y="4"
       fill="#ffffff"
       id="rect123" />
    <rect
       width="1"
       height="1"
       x="5"
       y="4"
       fill="#ffffff"
       id="rect125" />
    <rect
       width="1"
       height="1"
       x="4"
       y="5"
       fill="#ffffff"
       id="rect127" />
    <rect
       width="1"
       height="1.5"
       x="4"
       y="5"
       fill="#ffffff"
       id="rect129" />
    <rect
       width="1.5"
       height="1"
       x="3"
       y="6"
       fill="#ffffff"
       id="rect131" />
    <rect
       width="1.5"
       height="1"
       x="4"
       y="6"
       fill="#ffffff"
       id="rect133" />
    <rect
       width="1.5"
       height="1"
       x="5"
       y="6"
       fill="#ffffff"
       id="rect135" />
    <rect
       width="1"
       height="1"
       x="6"
       y="6"
       fill="#ffffff"
       id="rect137" />
  </g>
</svg>
