<?xml version="1.0" encoding="UTF-8" standalone="no"?>
<svg
   viewBox="0 0 8 8"
   shape-rendering="crispEdges"
   width="500mm"
   height="500mm"
   version="1.1"
   id="svg893"
   sodipodi:docname="6x6_1000-99.svg"
   inkscape:export-filename="6x6_1000-99.png"
   inkscape:export-xdpi="96"
   inkscape:export-ydpi="96"
   inkscape:version="1.2.2 (732a01da63, 2022-12-09)"
   xmlns:inkscape="http://www.inkscape.org/namespaces/inkscape"
   xmlns:sodipodi="http://sodipodi.sourceforge.net/DTD/sodipodi-0.dtd"
   xmlns="http://www.w3.org/2000/svg"
   xmlns:svg="http://www.w3.org/2000/svg">
  <defs
     id="defs897" />
  <sodipodi:namedview
     id="namedview895"
     pagecolor="#ffffff"
     bordercolor="#000000"
     borderopacity="0.25"
     inkscape:showpageshadow="2"
     inkscape:pageopacity="0.0"
     inkscape:pagecheckerboard="0"
     inkscape:deskcolor="#d1d1d1"
     inkscape:document-units="mm"
     showgrid="false"
     inkscape:zoom="0.14948958"
     inkscape:cx="568.6015"
     inkscape:cy="1137.203"
     inkscape:window-width="1366"
     inkscape:window-height="745"
     inkscape:window-x="-8"
     inkscape:window-y="-8"
     inkscape:window-maximized="1"
     inkscape:current-layer="svg893" />
  <rect
     style="fill:#ffffff;stroke-width:0.00423333"
     id="rect190"
     width="9.118577"
     height="8.6088428"
     x="-0.45309699"
     y="-0.16991138" />
  <g
     id="g927"
     transform="matrix(0.89999999,0,0,0.89999999,0.40000001,0.40000001)">
    <rect
       x="0"
       y="0"
       width="8"
       height="8"
       fill="#000000"
       id="rect837" />
    <rect
       width="1"
       height="1"
       x="2"
       y="1"
       fill="#ffffff"
       id="rect839" />
    <rect
       width="1.5"
       height="1"
       x="4"
       y="1"
       fill="#ffffff"
       id="rect841" />
    <rect
       width="1"
       height="1.5"
       x="4"
       y="1"
       fill="#ffffff"
       id="rect843" />
    <rect
       width="1.5"
       height="1"
       x="5"
       y="1"
       fill="#ffffff"
       id="rect845" />
    <rect
       width="1"
       height="1.5"
       x="5"
       y="1"
       fill="#ffffff"
       id="rect847" />
    <rect
       width="1"
       height="1"
       x="6"
       y="1"
       fill="#ffffff"
       id="rect849" />
    <rect
       width="1"
       height="1"
       x="1"
       y="2"
       fill="#ffffff"
       id="rect851" />
    <rect
       width="1"
       height="1.5"
       x="1"
       y="2"
       fill="#ffffff"
       id="rect853" />
    <rect
       width="1.5"
       height="1"
       x="4"
       y="2"
       fill="#ffffff"
       id="rect855" />
    <rect
       width="1"
       height="1"
       x="5"
       y="2"
       fill="#ffffff"
       id="rect857" />
    <rect
       width="1"
       height="1.5"
       x="5"
       y="2"
       fill="#ffffff"
       id="rect859" />
    <rect
       width="1.5"
       height="1"
       x="1"
       y="3"
       fill="#ffffff"
       id="rect861" />
    <rect
       width="1"
       height="1.5"
       x="1"
       y="3"
       fill="#ffffff"
       id="rect863" />
    <rect
       width="1.5"
       height="1"
       x="2"
       y="3"
       fill="#ffffff"
       id="rect865" />
    <rect
       width="1"
       height="1"
       x="3"
       y="3"
       fill="#ffffff"
       id="rect867" />
    <rect
       width="1"
       height="1.5"
       x="3"
       y="3"
       fill="#ffffff"
       id="rect869" />
    <rect
       width="1.5"
       height="1"
       x="5"
       y="3"
       fill="#ffffff"
       id="rect871" />
    <rect
       width="1"
       height="1.5"
       x="5"
       y="3"
       fill="#ffffff"
       id="rect873" />
    <rect
       width="1"
       height="1"
       x="6"
       y="3"
       fill="#ffffff"
       id="rect875" />
    <rect
       width="1"
       height="1.5"
       x="6"
       y="3"
       fill="#ffffff"
       id="rect877" />
    <rect
       width="1"
       height="1"
       x="1"
       y="4"
       fill="#ffffff"
       id="rect879" />
    <rect
       width="1.5"
       height="1"
       x="3"
       y="4"
       fill="#ffffff"
       id="rect881" />
    <rect
       width="1.5"
       height="1"
       x="4"
       y="4"
       fill="#ffffff"
       id="rect883" />
    <rect
       width="1.5"
       height="1"
       x="5"
       y="4"
       fill="#ffffff"
       id="rect885" />
    <rect
       width="1"
       height="1"
       x="6"
       y="4"
       fill="#ffffff"
       id="rect887" />
    <rect
       width="1"
       height="1"
       x="2"
       y="5"
       fill="#ffffff"
       id="rect889" />
    <rect
       width="1"
       height="1"
       x="5"
       y="6"
       fill="#ffffff"
       id="rect891" />
  </g>
</svg>
