<?xml version="1.0" encoding="UTF-8" standalone="no"?>
<svg
   viewBox="0 0 8 8"
   shape-rendering="crispEdges"
   width="500mm"
   height="500mm"
   version="1.1"
   id="svg131"
   sodipodi:docname="6x6_1000-97.svg"
   inkscape:version="1.2.2 (732a01da63, 2022-12-09)"
   inkscape:export-filename="6x6_1000-97.png"
   inkscape:export-xdpi="96"
   inkscape:export-ydpi="96"
   xmlns:inkscape="http://www.inkscape.org/namespaces/inkscape"
   xmlns:sodipodi="http://sodipodi.sourceforge.net/DTD/sodipodi-0.dtd"
   xmlns="http://www.w3.org/2000/svg"
   xmlns:svg="http://www.w3.org/2000/svg">
  <defs
     id="defs135" />
  <sodipodi:namedview
     id="namedview133"
     pagecolor="#ffffff"
     bordercolor="#000000"
     borderopacity="0.25"
     inkscape:showpageshadow="2"
     inkscape:pageopacity="0.0"
     inkscape:pagecheckerboard="0"
     inkscape:deskcolor="#d1d1d1"
     inkscape:document-units="mm"
     showgrid="false"
     inkscape:zoom="0.20280412"
     inkscape:cx="1015.7585"
     inkscape:cy="1094.6523"
     inkscape:window-width="1366"
     inkscape:window-height="745"
     inkscape:window-x="-8"
     inkscape:window-y="-8"
     inkscape:window-maximized="1"
     inkscape:current-layer="svg131" />
  <rect
     style="fill:#ffffff;stroke-width:0.00423333"
     id="rect378"
     width="9.2471752"
     height="8.8088217"
     x="-0.50097561"
     y="-0.35485774" />
  <g
     id="g270"
     transform="matrix(0.89999999,0,0,0.89999999,0.40000001,0.40000001)">
    <rect
       x="0"
       y="0"
       width="8"
       height="8"
       fill="#000000"
       id="rect73" />
    <rect
       width="1"
       height="1"
       x="2"
       y="1"
       fill="#ffffff"
       id="rect75" />
    <rect
       width="1.5"
       height="1"
       x="4"
       y="1"
       fill="#ffffff"
       id="rect77" />
    <rect
       width="1.5"
       height="1"
       x="5"
       y="1"
       fill="#ffffff"
       id="rect79" />
    <rect
       width="1"
       height="1.5"
       x="5"
       y="1"
       fill="#ffffff"
       id="rect81" />
    <rect
       width="1"
       height="1"
       x="6"
       y="1"
       fill="#ffffff"
       id="rect83" />
    <rect
       width="1"
       height="1.5"
       x="6"
       y="1"
       fill="#ffffff"
       id="rect85" />
    <rect
       width="1.5"
       height="1"
       x="5"
       y="2"
       fill="#ffffff"
       id="rect87" />
    <rect
       width="1"
       height="1"
       x="6"
       y="2"
       fill="#ffffff"
       id="rect89" />
    <rect
       width="1"
       height="1"
       x="2"
       y="3"
       fill="#ffffff"
       id="rect91" />
    <rect
       width="1"
       height="1.5"
       x="2"
       y="3"
       fill="#ffffff"
       id="rect93" />
    <rect
       width="1.5"
       height="1"
       x="1"
       y="4"
       fill="#ffffff"
       id="rect95" />
    <rect
       width="1"
       height="1.5"
       x="1"
       y="4"
       fill="#ffffff"
       id="rect97" />
    <rect
       width="1"
       height="1"
       x="2"
       y="4"
       fill="#ffffff"
       id="rect99" />
    <rect
       width="1"
       height="1.5"
       x="2"
       y="4"
       fill="#ffffff"
       id="rect101" />
    <rect
       width="1.5"
       height="1"
       x="4"
       y="4"
       fill="#ffffff"
       id="rect103" />
    <rect
       width="1"
       height="1.5"
       x="4"
       y="4"
       fill="#ffffff"
       id="rect105" />
    <rect
       width="1"
       height="1"
       x="5"
       y="4"
       fill="#ffffff"
       id="rect107" />
    <rect
       width="1"
       height="1.5"
       x="5"
       y="4"
       fill="#ffffff"
       id="rect109" />
    <rect
       width="1.5"
       height="1"
       x="1"
       y="5"
       fill="#ffffff"
       id="rect111" />
    <rect
       width="1"
       height="1.5"
       x="1"
       y="5"
       fill="#ffffff"
       id="rect113" />
    <rect
       width="1.5"
       height="1"
       x="2"
       y="5"
       fill="#ffffff"
       id="rect115" />
    <rect
       width="1.5"
       height="1"
       x="3"
       y="5"
       fill="#ffffff"
       id="rect117" />
    <rect
       width="1.5"
       height="1"
       x="4"
       y="5"
       fill="#ffffff"
       id="rect119" />
    <rect
       width="1"
       height="1.5"
       x="4"
       y="5"
       fill="#ffffff"
       id="rect121" />
    <rect
       width="1.5"
       height="1"
       x="5"
       y="5"
       fill="#ffffff"
       id="rect123" />
    <rect
       width="1"
       height="1"
       x="6"
       y="5"
       fill="#ffffff"
       id="rect125" />
    <rect
       width="1"
       height="1"
       x="1"
       y="6"
       fill="#ffffff"
       id="rect127" />
    <rect
       width="1"
       height="1"
       x="4"
       y="6"
       fill="#ffffff"
       id="rect129" />
  </g>
</svg>
