<?xml version="1.0" encoding="UTF-8" standalone="no"?>
<svg
   viewBox="0 0 8 8"
   shape-rendering="crispEdges"
   width="500mm"
   height="500mm"
   version="1.1"
   id="svg666"
   sodipodi:docname="6x6_1000-98.svg"
   inkscape:export-filename="6x6_1000-98.png"
   inkscape:export-xdpi="96"
   inkscape:export-ydpi="96"
   inkscape:version="1.2.2 (732a01da63, 2022-12-09)"
   xmlns:inkscape="http://www.inkscape.org/namespaces/inkscape"
   xmlns:sodipodi="http://sodipodi.sourceforge.net/DTD/sodipodi-0.dtd"
   xmlns="http://www.w3.org/2000/svg"
   xmlns:svg="http://www.w3.org/2000/svg">
  <defs
     id="defs670" />
  <sodipodi:namedview
     id="namedview668"
     pagecolor="#ffffff"
     bordercolor="#000000"
     borderopacity="0.25"
     inkscape:showpageshadow="2"
     inkscape:pageopacity="0.0"
     inkscape:pagecheckerboard="0"
     inkscape:deskcolor="#d1d1d1"
     inkscape:document-units="mm"
     showgrid="false"
     inkscape:zoom="0.2114102"
     inkscape:cx="827.77464"
     inkscape:cy="1021.7104"
     inkscape:window-width="1366"
     inkscape:window-height="745"
     inkscape:window-x="-8"
     inkscape:window-y="-8"
     inkscape:window-maximized="1"
     inkscape:current-layer="svg666" />
  <rect
     style="fill:#ffffff;stroke-width:0.00423333"
     id="rect738"
     width="8.5703773"
     height="8.4101839"
     x="-0.3404122"
     y="-0.20024246" />
  <g
     id="g736"
     transform="matrix(0.89999999,0,0,0.89999999,0.40000001,0.40000001)">
    <rect
       x="0"
       y="0"
       width="8"
       height="8"
       fill="#000000"
       id="rect606" />
    <rect
       width="1"
       height="1"
       x="2"
       y="1"
       fill="#ffffff"
       id="rect608" />
    <rect
       width="1.5"
       height="1"
       x="4"
       y="1"
       fill="#ffffff"
       id="rect610" />
    <rect
       width="1"
       height="1.5"
       x="4"
       y="1"
       fill="#ffffff"
       id="rect612" />
    <rect
       width="1.5"
       height="1"
       x="5"
       y="1"
       fill="#ffffff"
       id="rect614" />
    <rect
       width="1"
       height="1"
       x="6"
       y="1"
       fill="#ffffff"
       id="rect616" />
    <rect
       width="1"
       height="1"
       x="4"
       y="2"
       fill="#ffffff"
       id="rect618" />
    <rect
       width="1"
       height="1"
       x="1"
       y="3"
       fill="#ffffff"
       id="rect620" />
    <rect
       width="1"
       height="1.5"
       x="1"
       y="3"
       fill="#ffffff"
       id="rect622" />
    <rect
       width="1.5"
       height="1"
       x="5"
       y="3"
       fill="#ffffff"
       id="rect624" />
    <rect
       width="1"
       height="1"
       x="6"
       y="3"
       fill="#ffffff"
       id="rect626" />
    <rect
       width="1.5"
       height="1"
       x="1"
       y="4"
       fill="#ffffff"
       id="rect628" />
    <rect
       width="1.5"
       height="1"
       x="2"
       y="4"
       fill="#ffffff"
       id="rect630" />
    <rect
       width="1"
       height="1.5"
       x="2"
       y="4"
       fill="#ffffff"
       id="rect632" />
    <rect
       width="1.5"
       height="1"
       x="3"
       y="4"
       fill="#ffffff"
       id="rect634" />
    <rect
       width="1"
       height="1.5"
       x="3"
       y="4"
       fill="#ffffff"
       id="rect636" />
    <rect
       width="1"
       height="1"
       x="4"
       y="4"
       fill="#ffffff"
       id="rect638" />
    <rect
       width="1"
       height="1.5"
       x="4"
       y="4"
       fill="#ffffff"
       id="rect640" />
    <rect
       width="1.5"
       height="1"
       x="2"
       y="5"
       fill="#ffffff"
       id="rect642" />
    <rect
       width="1"
       height="1.5"
       x="2"
       y="5"
       fill="#ffffff"
       id="rect644" />
    <rect
       width="1.5"
       height="1"
       x="3"
       y="5"
       fill="#ffffff"
       id="rect646" />
    <rect
       width="1"
       height="1.5"
       x="3"
       y="5"
       fill="#ffffff"
       id="rect648" />
    <rect
       width="1"
       height="1"
       x="4"
       y="5"
       fill="#ffffff"
       id="rect650" />
    <rect
       width="1"
       height="1.5"
       x="4"
       y="5"
       fill="#ffffff"
       id="rect652" />
    <rect
       width="1"
       height="1"
       x="6"
       y="5"
       fill="#ffffff"
       id="rect654" />
    <rect
       width="1.5"
       height="1"
       x="1"
       y="6"
       fill="#ffffff"
       id="rect656" />
    <rect
       width="1.5"
       height="1"
       x="2"
       y="6"
       fill="#ffffff"
       id="rect658" />
    <rect
       width="1.5"
       height="1"
       x="3"
       y="6"
       fill="#ffffff"
       id="rect660" />
    <rect
       width="1.5"
       height="1"
       x="4"
       y="6"
       fill="#ffffff"
       id="rect662" />
    <rect
       width="1"
       height="1"
       x="5"
       y="6"
       fill="#ffffff"
       id="rect664" />
  </g>
</svg>
