<?xml version="1.0" encoding="UTF-8" standalone="no"?>
<svg
   viewBox="0 0 8 8"
   shape-rendering="crispEdges"
   width="250mm"
   height="250mm"
   version="1.1"
   id="svg54"
   sodipodi:docname="6x6_1000-2.svg"
   inkscape:version="1.2.2 (b0a8486541, 2022-12-01, custom)"
   inkscape:export-filename="../462ea508/6x6_2.png"
   inkscape:export-xdpi="101.6"
   inkscape:export-ydpi="101.6"
   xmlns:inkscape="http://www.inkscape.org/namespaces/inkscape"
   xmlns:sodipodi="http://sodipodi.sourceforge.net/DTD/sodipodi-0.dtd"
   xmlns="http://www.w3.org/2000/svg"
   xmlns:svg="http://www.w3.org/2000/svg">
  <defs
     id="defs58" />
  <sodipodi:namedview
     id="namedview56"
     pagecolor="#ffffff"
     bordercolor="#000000"
     borderopacity="0.25"
     inkscape:showpageshadow="2"
     inkscape:pageopacity="0.0"
     inkscape:pagecheckerboard="0"
     inkscape:deskcolor="#d1d1d1"
     inkscape:document-units="mm"
     showgrid="false"
     inkscape:zoom="0.40261482"
     inkscape:cx="452.04496"
     inkscape:cy="425.96545"
     inkscape:window-width="1366"
     inkscape:window-height="704"
     inkscape:window-x="0"
     inkscape:window-y="27"
     inkscape:window-maximized="1"
     inkscape:current-layer="svg54" />
  <rect
     style="fill:#ffffff;stroke-width:0.00846667"
     id="rect216"
     width="8.6578341"
     height="8.5428295"
     x="-0.32732511"
     y="-0.14425394" />
  <g
     id="g298"
     transform="matrix(0.83599999,0,0,0.83599999,0.65600001,0.65600001)">
    <rect
       x="0"
       y="0"
       width="8"
       height="8"
       fill="#000000"
       id="rect2" />
    <rect
       width="1"
       height="1"
       x="4"
       y="1"
       fill="#ffffff"
       id="rect4" />
    <rect
       width="1"
       height="1"
       x="6"
       y="1"
       fill="#ffffff"
       id="rect6" />
    <rect
       width="1"
       height="1.5"
       x="6"
       y="1"
       fill="#ffffff"
       id="rect8" />
    <rect
       width="1.5"
       height="1"
       x="2"
       y="2"
       fill="#ffffff"
       id="rect10" />
    <rect
       width="1"
       height="1"
       x="3"
       y="2"
       fill="#ffffff"
       id="rect12" />
    <rect
       width="1"
       height="1"
       x="6"
       y="2"
       fill="#ffffff"
       id="rect14" />
    <rect
       width="1"
       height="1.5"
       x="6"
       y="2"
       fill="#ffffff"
       id="rect16" />
    <rect
       width="1"
       height="1"
       x="6"
       y="3"
       fill="#ffffff"
       id="rect18" />
    <rect
       width="1.5"
       height="1"
       x="1"
       y="4"
       fill="#ffffff"
       id="rect20" />
    <rect
       width="1"
       height="1.5"
       x="1"
       y="4"
       fill="#ffffff"
       id="rect22" />
    <rect
       width="1.5"
       height="1"
       x="2"
       y="4"
       fill="#ffffff"
       id="rect24" />
    <rect
       width="1.5"
       height="1"
       x="3"
       y="4"
       fill="#ffffff"
       id="rect26" />
    <rect
       width="1"
       height="1.5"
       x="3"
       y="4"
       fill="#ffffff"
       id="rect28" />
    <rect
       width="1.5"
       height="1"
       x="4"
       y="4"
       fill="#ffffff"
       id="rect30" />
    <rect
       width="1"
       height="1"
       x="5"
       y="4"
       fill="#ffffff"
       id="rect32" />
    <rect
       width="1"
       height="1.5"
       x="5"
       y="4"
       fill="#ffffff"
       id="rect34" />
    <rect
       width="1"
       height="1"
       x="1"
       y="5"
       fill="#ffffff"
       id="rect36" />
    <rect
       width="1"
       height="1"
       x="3"
       y="5"
       fill="#ffffff"
       id="rect38" />
    <rect
       width="1"
       height="1.5"
       x="3"
       y="5"
       fill="#ffffff"
       id="rect40" />
    <rect
       width="1.5"
       height="1"
       x="5"
       y="5"
       fill="#ffffff"
       id="rect42" />
    <rect
       width="1"
       height="1"
       x="6"
       y="5"
       fill="#ffffff"
       id="rect44" />
    <rect
       width="1"
       height="1.5"
       x="6"
       y="5"
       fill="#ffffff"
       id="rect46" />
    <rect
       width="1.5"
       height="1"
       x="3"
       y="6"
       fill="#ffffff"
       id="rect48" />
    <rect
       width="1"
       height="1"
       x="4"
       y="6"
       fill="#ffffff"
       id="rect50" />
    <rect
       width="1"
       height="1"
       x="6"
       y="6"
       fill="#ffffff"
       id="rect52" />
  </g>
</svg>
