<?xml version="1.0" encoding="UTF-8" standalone="no"?>
<svg
   viewBox="0 0 8 8"
   shape-rendering="crispEdges"
   width="250mm"
   height="250mm"
   version="1.1"
   id="svg83"
   sodipodi:docname="6x6_1000-1.svg"
   inkscape:version="1.2.2 (b0a8486541, 2022-12-01, custom)"
   inkscape:export-filename="../d384c7db/6x6_1.png"
   inkscape:export-xdpi="101.6"
   inkscape:export-ydpi="101.6"
   xmlns:inkscape="http://www.inkscape.org/namespaces/inkscape"
   xmlns:sodipodi="http://sodipodi.sourceforge.net/DTD/sodipodi-0.dtd"
   xmlns="http://www.w3.org/2000/svg"
   xmlns:svg="http://www.w3.org/2000/svg">
  <defs
     id="defs87" />
  <sodipodi:namedview
     id="namedview85"
     pagecolor="#ffffff"
     bordercolor="#000000"
     borderopacity="0.25"
     inkscape:showpageshadow="2"
     inkscape:pageopacity="0.0"
     inkscape:pagecheckerboard="0"
     inkscape:deskcolor="#d1d1d1"
     inkscape:document-units="mm"
     showgrid="false"
     inkscape:zoom="0.2651125"
     inkscape:cx="571.45551"
     inkscape:cy="677.07105"
     inkscape:window-width="1366"
     inkscape:window-height="704"
     inkscape:window-x="0"
     inkscape:window-y="27"
     inkscape:window-maximized="1"
     inkscape:current-layer="svg83" />
  <rect
     style="fill:#ffffff;stroke-width:0.00846667"
     id="rect330"
     width="8.7732935"
     height="8.4679565"
     x="-0.31808335"
     y="-0.18935868" />
  <g
     id="g222"
     transform="matrix(0.83599999,0,0,0.83599999,0.65600001,0.65600001)">
    <rect
       x="0"
       y="0"
       width="8"
       height="8"
       fill="#000000"
       id="rect25" />
    <rect
       width="1.5"
       height="1"
       x="5"
       y="1"
       fill="#ffffff"
       id="rect27" />
    <rect
       width="1"
       height="1.5"
       x="5"
       y="1"
       fill="#ffffff"
       id="rect29" />
    <rect
       width="1"
       height="1"
       x="6"
       y="1"
       fill="#ffffff"
       id="rect31" />
    <rect
       width="1"
       height="1.5"
       x="6"
       y="1"
       fill="#ffffff"
       id="rect33" />
    <rect
       width="1"
       height="1"
       x="1"
       y="2"
       fill="#ffffff"
       id="rect35" />
    <rect
       width="1"
       height="1.5"
       x="1"
       y="2"
       fill="#ffffff"
       id="rect37" />
    <rect
       width="1.5"
       height="1"
       x="3"
       y="2"
       fill="#ffffff"
       id="rect39" />
    <rect
       width="1"
       height="1.5"
       x="3"
       y="2"
       fill="#ffffff"
       id="rect41" />
    <rect
       width="1.5"
       height="1"
       x="4"
       y="2"
       fill="#ffffff"
       id="rect43" />
    <rect
       width="1"
       height="1.5"
       x="4"
       y="2"
       fill="#ffffff"
       id="rect45" />
    <rect
       width="1.5"
       height="1"
       x="5"
       y="2"
       fill="#ffffff"
       id="rect47" />
    <rect
       width="1"
       height="1.5"
       x="5"
       y="2"
       fill="#ffffff"
       id="rect49" />
    <rect
       width="1"
       height="1"
       x="6"
       y="2"
       fill="#ffffff"
       id="rect51" />
    <rect
       width="1"
       height="1"
       x="1"
       y="3"
       fill="#ffffff"
       id="rect53" />
    <rect
       width="1"
       height="1.5"
       x="1"
       y="3"
       fill="#ffffff"
       id="rect55" />
    <rect
       width="1.5"
       height="1"
       x="3"
       y="3"
       fill="#ffffff"
       id="rect57" />
    <rect
       width="1.5"
       height="1"
       x="4"
       y="3"
       fill="#ffffff"
       id="rect59" />
    <rect
       width="1"
       height="1"
       x="5"
       y="3"
       fill="#ffffff"
       id="rect61" />
    <rect
       width="1"
       height="1.5"
       x="5"
       y="3"
       fill="#ffffff"
       id="rect63" />
    <rect
       width="1"
       height="1"
       x="1"
       y="4"
       fill="#ffffff"
       id="rect65" />
    <rect
       width="1"
       height="1.5"
       x="1"
       y="4"
       fill="#ffffff"
       id="rect67" />
    <rect
       width="1.5"
       height="1"
       x="5"
       y="4"
       fill="#ffffff"
       id="rect69" />
    <rect
       width="1"
       height="1.5"
       x="5"
       y="4"
       fill="#ffffff"
       id="rect71" />
    <rect
       width="1"
       height="1"
       x="6"
       y="4"
       fill="#ffffff"
       id="rect73" />
    <rect
       width="1"
       height="1"
       x="1"
       y="5"
       fill="#ffffff"
       id="rect75" />
    <rect
       width="1"
       height="1"
       x="5"
       y="5"
       fill="#ffffff"
       id="rect77" />
    <rect
       width="1"
       height="1"
       x="2"
       y="6"
       fill="#ffffff"
       id="rect79" />
    <rect
       width="1"
       height="1"
       x="6"
       y="6"
       fill="#ffffff"
       id="rect81" />
  </g>
</svg>
