<?xml version="1.0" encoding="UTF-8" standalone="no"?>
<svg
   viewBox="0 0 8 8"
   shape-rendering="crispEdges"
   width="250mm"
   height="250mm"
   version="1.1"
   id="svg702"
   sodipodi:docname="6x6_1000-4.svg"
   inkscape:version="1.2.2 (b0a8486541, 2022-12-01, custom)"
   inkscape:export-filename="../f6ff956f/6x6_4.png"
   inkscape:export-xdpi="96"
   inkscape:export-ydpi="96"
   xmlns:inkscape="http://www.inkscape.org/namespaces/inkscape"
   xmlns:sodipodi="http://sodipodi.sourceforge.net/DTD/sodipodi-0.dtd"
   xmlns="http://www.w3.org/2000/svg"
   xmlns:svg="http://www.w3.org/2000/svg">
  <defs
     id="defs706" />
  <sodipodi:namedview
     id="namedview704"
     pagecolor="#ffffff"
     bordercolor="#000000"
     borderopacity="0.25"
     inkscape:showpageshadow="2"
     inkscape:pageopacity="0.0"
     inkscape:pagecheckerboard="0"
     inkscape:deskcolor="#d1d1d1"
     inkscape:document-units="mm"
     showgrid="false"
     inkscape:zoom="0.40261482"
     inkscape:cx="407.33722"
     inkscape:cy="545.1861"
     inkscape:window-width="1366"
     inkscape:window-height="704"
     inkscape:window-x="0"
     inkscape:window-y="27"
     inkscape:window-maximized="1"
     inkscape:current-layer="svg702" />
  <rect
     style="fill:#ffffff;stroke-width:0.00846667"
     id="rect736"
     width="9.3704004"
     height="8.8890619"
     x="-0.5300864"
     y="-0.149174" />
  <g
     id="g734"
     transform="matrix(0.83599999,0,0,0.83599999,0.65600001,0.65600001)">
    <rect
       x="0"
       y="0"
       width="8"
       height="8"
       fill="#000000"
       id="rect650" />
    <rect
       width="1.5"
       height="1"
       x="1"
       y="1"
       fill="#ffffff"
       id="rect652" />
    <rect
       width="1"
       height="1.5"
       x="1"
       y="1"
       fill="#ffffff"
       id="rect654" />
    <rect
       width="1"
       height="1"
       x="2"
       y="1"
       fill="#ffffff"
       id="rect656" />
    <rect
       width="1"
       height="1"
       x="4"
       y="1"
       fill="#ffffff"
       id="rect658" />
    <rect
       width="1"
       height="1"
       x="6"
       y="1"
       fill="#ffffff"
       id="rect660" />
    <rect
       width="1"
       height="1"
       x="1"
       y="2"
       fill="#ffffff"
       id="rect662" />
    <rect
       width="1.5"
       height="1"
       x="2"
       y="3"
       fill="#ffffff"
       id="rect664" />
    <rect
       width="1"
       height="1.5"
       x="2"
       y="3"
       fill="#ffffff"
       id="rect666" />
    <rect
       width="1.5"
       height="1"
       x="3"
       y="3"
       fill="#ffffff"
       id="rect668" />
    <rect
       width="1.5"
       height="1"
       x="4"
       y="3"
       fill="#ffffff"
       id="rect670" />
    <rect
       width="1"
       height="1.5"
       x="4"
       y="3"
       fill="#ffffff"
       id="rect672" />
    <rect
       width="1.5"
       height="1"
       x="5"
       y="3"
       fill="#ffffff"
       id="rect674" />
    <rect
       width="1"
       height="1.5"
       x="5"
       y="3"
       fill="#ffffff"
       id="rect676" />
    <rect
       width="1"
       height="1"
       x="6"
       y="3"
       fill="#ffffff"
       id="rect678" />
    <rect
       width="1"
       height="1"
       x="2"
       y="4"
       fill="#ffffff"
       id="rect680" />
    <rect
       width="1"
       height="1.5"
       x="2"
       y="4"
       fill="#ffffff"
       id="rect682" />
    <rect
       width="1.5"
       height="1"
       x="4"
       y="4"
       fill="#ffffff"
       id="rect684" />
    <rect
       width="1"
       height="1"
       x="5"
       y="4"
       fill="#ffffff"
       id="rect686" />
    <rect
       width="1.5"
       height="1"
       x="1"
       y="5"
       fill="#ffffff"
       id="rect688" />
    <rect
       width="1.5"
       height="1"
       x="2"
       y="5"
       fill="#ffffff"
       id="rect690" />
    <rect
       width="1"
       height="1.5"
       x="2"
       y="5"
       fill="#ffffff"
       id="rect692" />
    <rect
       width="1"
       height="1"
       x="3"
       y="5"
       fill="#ffffff"
       id="rect694" />
    <rect
       width="1"
       height="1"
       x="2"
       y="6"
       fill="#ffffff"
       id="rect696" />
    <rect
       width="1"
       height="1"
       x="4"
       y="6"
       fill="#ffffff"
       id="rect698" />
    <rect
       width="1"
       height="1"
       x="6"
       y="6"
       fill="#ffffff"
       id="rect700" />
  </g>
</svg>
