<?xml version="1.0" encoding="UTF-8" standalone="no"?>
<svg
   viewBox="0 0 8 8"
   shape-rendering="crispEdges"
   width="250mm"
   height="250mm"
   version="1.1"
   id="svg526"
   sodipodi:docname="6x6_1000-3.svg"
   inkscape:version="1.2.2 (b0a8486541, 2022-12-01, custom)"
   inkscape:export-filename="../622af0b2/6x6_3.png"
   inkscape:export-xdpi="96"
   inkscape:export-ydpi="96"
   xmlns:inkscape="http://www.inkscape.org/namespaces/inkscape"
   xmlns:sodipodi="http://sodipodi.sourceforge.net/DTD/sodipodi-0.dtd"
   xmlns="http://www.w3.org/2000/svg"
   xmlns:svg="http://www.w3.org/2000/svg">
  <defs
     id="defs530" />
  <sodipodi:namedview
     id="namedview528"
     pagecolor="#ffffff"
     bordercolor="#000000"
     borderopacity="0.25"
     inkscape:showpageshadow="2"
     inkscape:pageopacity="0.0"
     inkscape:pagecheckerboard="0"
     inkscape:deskcolor="#d1d1d1"
     inkscape:document-units="mm"
     showgrid="false"
     inkscape:zoom="0.40261482"
     inkscape:cx="196.21732"
     inkscape:cy="532.76728"
     inkscape:window-width="1366"
     inkscape:window-height="704"
     inkscape:window-x="0"
     inkscape:window-y="27"
     inkscape:window-maximized="1"
     inkscape:current-layer="svg526" />
  <rect
     style="fill:#ffffff;stroke-width:0.00846667"
     id="rect558"
     width="8.7714624"
     height="8.5518484"
     x="-0.36137277"
     y="-0.25169554" />
  <g
     id="g556"
     transform="matrix(0.83599999,0,0,0.83599999,0.65600001,0.65600001)">
    <rect
       x="0"
       y="0"
       width="8"
       height="8"
       fill="#000000"
       id="rect478" />
    <rect
       width="1.5"
       height="1"
       x="1"
       y="1"
       fill="#ffffff"
       id="rect480" />
    <rect
       width="1"
       height="1"
       x="2"
       y="1"
       fill="#ffffff"
       id="rect482" />
    <rect
       width="1"
       height="1.5"
       x="2"
       y="1"
       fill="#ffffff"
       id="rect484" />
    <rect
       width="1"
       height="1"
       x="5"
       y="1"
       fill="#ffffff"
       id="rect486" />
    <rect
       width="1"
       height="1"
       x="2"
       y="2"
       fill="#ffffff"
       id="rect488" />
    <rect
       width="1"
       height="1"
       x="6"
       y="2"
       fill="#ffffff"
       id="rect490" />
    <rect
       width="1"
       height="1"
       x="1"
       y="3"
       fill="#ffffff"
       id="rect492" />
    <rect
       width="1"
       height="1.5"
       x="1"
       y="3"
       fill="#ffffff"
       id="rect494" />
    <rect
       width="1.5"
       height="1"
       x="3"
       y="3"
       fill="#ffffff"
       id="rect496" />
    <rect
       width="1"
       height="1"
       x="4"
       y="3"
       fill="#ffffff"
       id="rect498" />
    <rect
       width="1.5"
       height="1"
       x="1"
       y="4"
       fill="#ffffff"
       id="rect500" />
    <rect
       width="1"
       height="1"
       x="2"
       y="4"
       fill="#ffffff"
       id="rect502" />
    <rect
       width="1"
       height="1.5"
       x="2"
       y="4"
       fill="#ffffff"
       id="rect504" />
    <rect
       width="1.5"
       height="1"
       x="2"
       y="5"
       fill="#ffffff"
       id="rect506" />
    <rect
       width="1"
       height="1.5"
       x="2"
       y="5"
       fill="#ffffff"
       id="rect508" />
    <rect
       width="1"
       height="1"
       x="3"
       y="5"
       fill="#ffffff"
       id="rect510" />
    <rect
       width="1"
       height="1.5"
       x="3"
       y="5"
       fill="#ffffff"
       id="rect512" />
    <rect
       width="1"
       height="1"
       x="5"
       y="5"
       fill="#ffffff"
       id="rect514" />
    <rect
       width="1"
       height="1.5"
       x="5"
       y="5"
       fill="#ffffff"
       id="rect516" />
    <rect
       width="1.5"
       height="1"
       x="2"
       y="6"
       fill="#ffffff"
       id="rect518" />
    <rect
       width="1.5"
       height="1"
       x="3"
       y="6"
       fill="#ffffff"
       id="rect520" />
    <rect
       width="1.5"
       height="1"
       x="4"
       y="6"
       fill="#ffffff"
       id="rect522" />
    <rect
       width="1"
       height="1"
       x="5"
       y="6"
       fill="#ffffff"
       id="rect524" />
  </g>
</svg>
