<?xml version="1.0" encoding="UTF-8" standalone="no"?>
<svg
   viewBox="0 0 8 8"
   shape-rendering="crispEdges"
   width="500mm"
   height="500mm"
   version="1.1"
   id="svg54"
   sodipodi:docname="6x6_2.svg"
   inkscape:version="1.2.2 (1:1.2.2+202212051550+b0a8486541)"
   inkscape:export-filename="6x6_2.png"
   inkscape:export-xdpi="96"
   inkscape:export-ydpi="96"
   xmlns:inkscape="http://www.inkscape.org/namespaces/inkscape"
   xmlns:sodipodi="http://sodipodi.sourceforge.net/DTD/sodipodi-0.dtd"
   xmlns="http://www.w3.org/2000/svg"
   xmlns:svg="http://www.w3.org/2000/svg">
  <defs
     id="defs58" />
  <sodipodi:namedview
     id="namedview56"
     pagecolor="#ffffff"
     bordercolor="#000000"
     borderopacity="0.25"
     inkscape:showpageshadow="2"
     inkscape:pageopacity="0.0"
     inkscape:pagecheckerboard="0"
     inkscape:deskcolor="#d1d1d1"
     inkscape:document-units="mm"
     showgrid="false"
     inkscape:zoom="0.31805074"
     inkscape:cx="828.48416"
     inkscape:cy="1120.8903"
     inkscape:window-width="1848"
     inkscape:window-height="1016"
     inkscape:window-x="72"
     inkscape:window-y="27"
     inkscape:window-maximized="1"
     inkscape:current-layer="svg54" />
  <rect
     style="fill:#ffffff;stroke-width:0.00423333"
     id="rect298"
     width="8.7448244"
     height="8.731514"
     x="-0.37268659"
     y="-0.38599682" />
  <g
     id="g244"
     transform="matrix(0.83999999,0,0,0.83999999,0.64000001,0.64000001)">
    <rect
       x="0"
       y="0"
       width="8"
       height="8"
       fill="#000000"
       id="rect2" />
    <rect
       width="1"
       height="1"
       x="4"
       y="1"
       fill="#ffffff"
       id="rect4" />
    <rect
       width="1"
       height="1"
       x="6"
       y="1"
       fill="#ffffff"
       id="rect6" />
    <rect
       width="1"
       height="1.5"
       x="6"
       y="1"
       fill="#ffffff"
       id="rect8" />
    <rect
       width="1.5"
       height="1"
       x="2"
       y="2"
       fill="#ffffff"
       id="rect10" />
    <rect
       width="1"
       height="1"
       x="3"
       y="2"
       fill="#ffffff"
       id="rect12" />
    <rect
       width="1"
       height="1"
       x="6"
       y="2"
       fill="#ffffff"
       id="rect14" />
    <rect
       width="1"
       height="1.5"
       x="6"
       y="2"
       fill="#ffffff"
       id="rect16" />
    <rect
       width="1"
       height="1"
       x="6"
       y="3"
       fill="#ffffff"
       id="rect18" />
    <rect
       width="1.5"
       height="1"
       x="1"
       y="4"
       fill="#ffffff"
       id="rect20" />
    <rect
       width="1"
       height="1.5"
       x="1"
       y="4"
       fill="#ffffff"
       id="rect22" />
    <rect
       width="1.5"
       height="1"
       x="2"
       y="4"
       fill="#ffffff"
       id="rect24" />
    <rect
       width="1.5"
       height="1"
       x="3"
       y="4"
       fill="#ffffff"
       id="rect26" />
    <rect
       width="1"
       height="1.5"
       x="3"
       y="4"
       fill="#ffffff"
       id="rect28" />
    <rect
       width="1.5"
       height="1"
       x="4"
       y="4"
       fill="#ffffff"
       id="rect30" />
    <rect
       width="1"
       height="1"
       x="5"
       y="4"
       fill="#ffffff"
       id="rect32" />
    <rect
       width="1"
       height="1.5"
       x="5"
       y="4"
       fill="#ffffff"
       id="rect34" />
    <rect
       width="1"
       height="1"
       x="1"
       y="5"
       fill="#ffffff"
       id="rect36" />
    <rect
       width="1"
       height="1"
       x="3"
       y="5"
       fill="#ffffff"
       id="rect38" />
    <rect
       width="1"
       height="1.5"
       x="3"
       y="5"
       fill="#ffffff"
       id="rect40" />
    <rect
       width="1.5"
       height="1"
       x="5"
       y="5"
       fill="#ffffff"
       id="rect42" />
    <rect
       width="1"
       height="1"
       x="6"
       y="5"
       fill="#ffffff"
       id="rect44" />
    <rect
       width="1"
       height="1.5"
       x="6"
       y="5"
       fill="#ffffff"
       id="rect46" />
    <rect
       width="1.5"
       height="1"
       x="3"
       y="6"
       fill="#ffffff"
       id="rect48" />
    <rect
       width="1"
       height="1"
       x="4"
       y="6"
       fill="#ffffff"
       id="rect50" />
    <rect
       width="1"
       height="1"
       x="6"
       y="6"
       fill="#ffffff"
       id="rect52" />
  </g>
</svg>
