<?xml version="1.0" encoding="utf-8" standalone="no"?>
<!DOCTYPE svg PUBLIC "-//W3C//DTD SVG 1.1//EN"
  "http://www.w3.org/Graphics/SVG/1.1/DTD/svg11.dtd">
<svg xmlns:xlink="http://www.w3.org/1999/xlink" width="847.259375pt" height="215.28pt" viewBox="0 0 847.259375 215.28" xmlns="http://www.w3.org/2000/svg" version="1.1">
 <metadata>
  <rdf:RDF xmlns:dc="http://purl.org/dc/elements/1.1/" xmlns:cc="http://creativecommons.org/ns#" xmlns:rdf="http://www.w3.org/1999/02/22-rdf-syntax-ns#">
   <cc:Work>
    <dc:type rdf:resource="http://purl.org/dc/dcmitype/StillImage"/>
    <dc:date>2023-09-13T15:43:57.728522</dc:date>
    <dc:format>image/svg+xml</dc:format>
    <dc:creator>
     <cc:Agent>
      <dc:title>Matplotlib v3.7.1, https://matplotlib.org/</dc:title>
     </cc:Agent>
    </dc:creator>
   </cc:Work>
  </rdf:RDF>
 </metadata>
 <defs>
  <style type="text/css">*{stroke-linejoin: round; stroke-linecap: butt}</style>
 </defs>
 <g id="figure_1">
  <g id="patch_1">
   <path d="M 0 215.28 
L 847.259375 215.28 
L 847.259375 0 
L 0 0 
L 0 215.28 
z
" style="fill: none"/>
  </g>
  <g id="axes_1">
   <g id="patch_2">
    <path d="M 26.925 191.401875 
L 144.297138 191.401875 
L 144.297138 51.211875 
L 26.925 51.211875 
L 26.925 191.401875 
z
" style="fill: none"/>
   </g>
   <g id="matplotlib.axis_1">
    <g id="xtick_1">
     <g id="line2d_1">
      <defs>
       <path id="me66d20cf4e" d="M 0 0 
L 0 3.5 
" style="stroke: #000000; stroke-width: 0.8"/>
      </defs>
      <g>
       <use xlink:href="#me66d20cf4e" x="26.925" y="191.401875" style="stroke: #000000; stroke-width: 0.8"/>
      </g>
     </g>
     <g id="text_1">
      <!-- 0.00 -->
      <g transform="translate(15.792188 206.000313) scale(0.1 -0.1)">
       <defs>
        <path id="DejaVuSans-30" d="M 2034 4250 
Q 1547 4250 1301 3770 
Q 1056 3291 1056 2328 
Q 1056 1369 1301 889 
Q 1547 409 2034 409 
Q 2525 409 2770 889 
Q 3016 1369 3016 2328 
Q 3016 3291 2770 3770 
Q 2525 4250 2034 4250 
z
M 2034 4750 
Q 2819 4750 3233 4129 
Q 3647 3509 3647 2328 
Q 3647 1150 3233 529 
Q 2819 -91 2034 -91 
Q 1250 -91 836 529 
Q 422 1150 422 2328 
Q 422 3509 836 4129 
Q 1250 4750 2034 4750 
z
" transform="scale(0.015625)"/>
        <path id="DejaVuSans-2e" d="M 684 794 
L 1344 794 
L 1344 0 
L 684 0 
L 684 794 
z
" transform="scale(0.015625)"/>
       </defs>
       <use xlink:href="#DejaVuSans-30"/>
       <use xlink:href="#DejaVuSans-2e" x="63.623047"/>
       <use xlink:href="#DejaVuSans-30" x="95.410156"/>
       <use xlink:href="#DejaVuSans-30" x="159.033203"/>
      </g>
     </g>
    </g>
    <g id="xtick_2">
     <g id="line2d_2">
      <g>
       <use xlink:href="#me66d20cf4e" x="56.268034" y="191.401875" style="stroke: #000000; stroke-width: 0.8"/>
      </g>
     </g>
     <g id="text_2">
      <!-- 3.09 -->
      <g transform="translate(45.135222 206.000313) scale(0.1 -0.1)">
       <defs>
        <path id="DejaVuSans-33" d="M 2597 2516 
Q 3050 2419 3304 2112 
Q 3559 1806 3559 1356 
Q 3559 666 3084 287 
Q 2609 -91 1734 -91 
Q 1441 -91 1130 -33 
Q 819 25 488 141 
L 488 750 
Q 750 597 1062 519 
Q 1375 441 1716 441 
Q 2309 441 2620 675 
Q 2931 909 2931 1356 
Q 2931 1769 2642 2001 
Q 2353 2234 1838 2234 
L 1294 2234 
L 1294 2753 
L 1863 2753 
Q 2328 2753 2575 2939 
Q 2822 3125 2822 3475 
Q 2822 3834 2567 4026 
Q 2313 4219 1838 4219 
Q 1578 4219 1281 4162 
Q 984 4106 628 3988 
L 628 4550 
Q 988 4650 1302 4700 
Q 1616 4750 1894 4750 
Q 2613 4750 3031 4423 
Q 3450 4097 3450 3541 
Q 3450 3153 3228 2886 
Q 3006 2619 2597 2516 
z
" transform="scale(0.015625)"/>
        <path id="DejaVuSans-39" d="M 703 97 
L 703 672 
Q 941 559 1184 500 
Q 1428 441 1663 441 
Q 2288 441 2617 861 
Q 2947 1281 2994 2138 
Q 2813 1869 2534 1725 
Q 2256 1581 1919 1581 
Q 1219 1581 811 2004 
Q 403 2428 403 3163 
Q 403 3881 828 4315 
Q 1253 4750 1959 4750 
Q 2769 4750 3195 4129 
Q 3622 3509 3622 2328 
Q 3622 1225 3098 567 
Q 2575 -91 1691 -91 
Q 1453 -91 1209 -44 
Q 966 3 703 97 
z
M 1959 2075 
Q 2384 2075 2632 2365 
Q 2881 2656 2881 3163 
Q 2881 3666 2632 3958 
Q 2384 4250 1959 4250 
Q 1534 4250 1286 3958 
Q 1038 3666 1038 3163 
Q 1038 2656 1286 2365 
Q 1534 2075 1959 2075 
z
" transform="scale(0.015625)"/>
       </defs>
       <use xlink:href="#DejaVuSans-33"/>
       <use xlink:href="#DejaVuSans-2e" x="63.623047"/>
       <use xlink:href="#DejaVuSans-30" x="95.410156"/>
       <use xlink:href="#DejaVuSans-39" x="159.033203"/>
      </g>
     </g>
    </g>
    <g id="xtick_3">
     <g id="line2d_3">
      <g>
       <use xlink:href="#me66d20cf4e" x="85.611069" y="191.401875" style="stroke: #000000; stroke-width: 0.8"/>
      </g>
     </g>
     <g id="text_3">
      <!-- 6.17 -->
      <g transform="translate(74.478256 206.000313) scale(0.1 -0.1)">
       <defs>
        <path id="DejaVuSans-36" d="M 2113 2584 
Q 1688 2584 1439 2293 
Q 1191 2003 1191 1497 
Q 1191 994 1439 701 
Q 1688 409 2113 409 
Q 2538 409 2786 701 
Q 3034 994 3034 1497 
Q 3034 2003 2786 2293 
Q 2538 2584 2113 2584 
z
M 3366 4563 
L 3366 3988 
Q 3128 4100 2886 4159 
Q 2644 4219 2406 4219 
Q 1781 4219 1451 3797 
Q 1122 3375 1075 2522 
Q 1259 2794 1537 2939 
Q 1816 3084 2150 3084 
Q 2853 3084 3261 2657 
Q 3669 2231 3669 1497 
Q 3669 778 3244 343 
Q 2819 -91 2113 -91 
Q 1303 -91 875 529 
Q 447 1150 447 2328 
Q 447 3434 972 4092 
Q 1497 4750 2381 4750 
Q 2619 4750 2861 4703 
Q 3103 4656 3366 4563 
z
" transform="scale(0.015625)"/>
        <path id="DejaVuSans-31" d="M 794 531 
L 1825 531 
L 1825 4091 
L 703 3866 
L 703 4441 
L 1819 4666 
L 2450 4666 
L 2450 531 
L 3481 531 
L 3481 0 
L 794 0 
L 794 531 
z
" transform="scale(0.015625)"/>
        <path id="DejaVuSans-37" d="M 525 4666 
L 3525 4666 
L 3525 4397 
L 1831 0 
L 1172 0 
L 2766 4134 
L 525 4134 
L 525 4666 
z
" transform="scale(0.015625)"/>
       </defs>
       <use xlink:href="#DejaVuSans-36"/>
       <use xlink:href="#DejaVuSans-2e" x="63.623047"/>
       <use xlink:href="#DejaVuSans-31" x="95.410156"/>
       <use xlink:href="#DejaVuSans-37" x="159.033203"/>
      </g>
     </g>
    </g>
    <g id="xtick_4">
     <g id="line2d_4">
      <g>
       <use xlink:href="#me66d20cf4e" x="114.954103" y="191.401875" style="stroke: #000000; stroke-width: 0.8"/>
      </g>
     </g>
     <g id="text_4">
      <!-- 9.26 -->
      <g transform="translate(103.821291 206.000313) scale(0.1 -0.1)">
       <defs>
        <path id="DejaVuSans-32" d="M 1228 531 
L 3431 531 
L 3431 0 
L 469 0 
L 469 531 
Q 828 903 1448 1529 
Q 2069 2156 2228 2338 
Q 2531 2678 2651 2914 
Q 2772 3150 2772 3378 
Q 2772 3750 2511 3984 
Q 2250 4219 1831 4219 
Q 1534 4219 1204 4116 
Q 875 4013 500 3803 
L 500 4441 
Q 881 4594 1212 4672 
Q 1544 4750 1819 4750 
Q 2544 4750 2975 4387 
Q 3406 4025 3406 3419 
Q 3406 3131 3298 2873 
Q 3191 2616 2906 2266 
Q 2828 2175 2409 1742 
Q 1991 1309 1228 531 
z
" transform="scale(0.015625)"/>
       </defs>
       <use xlink:href="#DejaVuSans-39"/>
       <use xlink:href="#DejaVuSans-2e" x="63.623047"/>
       <use xlink:href="#DejaVuSans-32" x="95.410156"/>
       <use xlink:href="#DejaVuSans-36" x="159.033203"/>
      </g>
     </g>
    </g>
    <g id="xtick_5">
     <g id="line2d_5">
      <g>
       <use xlink:href="#me66d20cf4e" x="144.297138" y="191.401875" style="stroke: #000000; stroke-width: 0.8"/>
      </g>
     </g>
     <g id="text_5">
      <!-- 12.34 -->
      <g transform="translate(129.983075 206.000313) scale(0.1 -0.1)">
       <defs>
        <path id="DejaVuSans-34" d="M 2419 4116 
L 825 1625 
L 2419 1625 
L 2419 4116 
z
M 2253 4666 
L 3047 4666 
L 3047 1625 
L 3713 1625 
L 3713 1100 
L 3047 1100 
L 3047 0 
L 2419 0 
L 2419 1100 
L 313 1100 
L 313 1709 
L 2253 4666 
z
" transform="scale(0.015625)"/>
       </defs>
       <use xlink:href="#DejaVuSans-31"/>
       <use xlink:href="#DejaVuSans-32" x="63.623047"/>
       <use xlink:href="#DejaVuSans-2e" x="127.246094"/>
       <use xlink:href="#DejaVuSans-33" x="159.033203"/>
       <use xlink:href="#DejaVuSans-34" x="222.65625"/>
      </g>
     </g>
    </g>
   </g>
   <g id="matplotlib.axis_2">
    <g id="ytick_1">
     <g id="line2d_6">
      <defs>
       <path id="m669eb07b2a" d="M 0 0 
L -3.5 0 
" style="stroke: #000000; stroke-width: 0.8"/>
      </defs>
      <g>
       <use xlink:href="#m669eb07b2a" x="26.925" y="185.076125" style="stroke: #000000; stroke-width: 0.8"/>
      </g>
     </g>
     <g id="text_6">
      <!-- 0 -->
      <g transform="translate(13.5625 188.875344) scale(0.1 -0.1)">
       <use xlink:href="#DejaVuSans-30"/>
      </g>
     </g>
    </g>
    <g id="ytick_2">
     <g id="line2d_7">
      <g>
       <use xlink:href="#m669eb07b2a" x="26.925" y="162.939027" style="stroke: #000000; stroke-width: 0.8"/>
      </g>
     </g>
     <g id="text_7">
      <!-- 2 -->
      <g transform="translate(13.5625 166.738246) scale(0.1 -0.1)">
       <use xlink:href="#DejaVuSans-32"/>
      </g>
     </g>
    </g>
    <g id="ytick_3">
     <g id="line2d_8">
      <g>
       <use xlink:href="#m669eb07b2a" x="26.925" y="140.801928" style="stroke: #000000; stroke-width: 0.8"/>
      </g>
     </g>
     <g id="text_8">
      <!-- 4 -->
      <g transform="translate(13.5625 144.601147) scale(0.1 -0.1)">
       <use xlink:href="#DejaVuSans-34"/>
      </g>
     </g>
    </g>
    <g id="ytick_4">
     <g id="line2d_9">
      <g>
       <use xlink:href="#m669eb07b2a" x="26.925" y="118.66483" style="stroke: #000000; stroke-width: 0.8"/>
      </g>
     </g>
     <g id="text_9">
      <!-- 6 -->
      <g transform="translate(13.5625 122.464049) scale(0.1 -0.1)">
       <use xlink:href="#DejaVuSans-36"/>
      </g>
     </g>
    </g>
    <g id="ytick_5">
     <g id="line2d_10">
      <g>
       <use xlink:href="#m669eb07b2a" x="26.925" y="96.527731" style="stroke: #000000; stroke-width: 0.8"/>
      </g>
     </g>
     <g id="text_10">
      <!-- 8 -->
      <g transform="translate(13.5625 100.32695) scale(0.1 -0.1)">
       <defs>
        <path id="DejaVuSans-38" d="M 2034 2216 
Q 1584 2216 1326 1975 
Q 1069 1734 1069 1313 
Q 1069 891 1326 650 
Q 1584 409 2034 409 
Q 2484 409 2743 651 
Q 3003 894 3003 1313 
Q 3003 1734 2745 1975 
Q 2488 2216 2034 2216 
z
M 1403 2484 
Q 997 2584 770 2862 
Q 544 3141 544 3541 
Q 544 4100 942 4425 
Q 1341 4750 2034 4750 
Q 2731 4750 3128 4425 
Q 3525 4100 3525 3541 
Q 3525 3141 3298 2862 
Q 3072 2584 2669 2484 
Q 3125 2378 3379 2068 
Q 3634 1759 3634 1313 
Q 3634 634 3220 271 
Q 2806 -91 2034 -91 
Q 1263 -91 848 271 
Q 434 634 434 1313 
Q 434 1759 690 2068 
Q 947 2378 1403 2484 
z
M 1172 3481 
Q 1172 3119 1398 2916 
Q 1625 2713 2034 2713 
Q 2441 2713 2670 2916 
Q 2900 3119 2900 3481 
Q 2900 3844 2670 4047 
Q 2441 4250 2034 4250 
Q 1625 4250 1398 4047 
Q 1172 3844 1172 3481 
z
" transform="scale(0.015625)"/>
       </defs>
       <use xlink:href="#DejaVuSans-38"/>
      </g>
     </g>
    </g>
    <g id="ytick_6">
     <g id="line2d_11">
      <g>
       <use xlink:href="#m669eb07b2a" x="26.925" y="74.390633" style="stroke: #000000; stroke-width: 0.8"/>
      </g>
     </g>
     <g id="text_11">
      <!-- 10 -->
      <g transform="translate(7.2 78.189852) scale(0.1 -0.1)">
       <use xlink:href="#DejaVuSans-31"/>
       <use xlink:href="#DejaVuSans-30" x="63.623047"/>
      </g>
     </g>
    </g>
    <g id="ytick_7">
     <g id="line2d_12">
      <g>
       <use xlink:href="#m669eb07b2a" x="26.925" y="52.253534" style="stroke: #000000; stroke-width: 0.8"/>
      </g>
     </g>
     <g id="text_12">
      <!-- 12 -->
      <g transform="translate(7.2 56.052753) scale(0.1 -0.1)">
       <use xlink:href="#DejaVuSans-31"/>
       <use xlink:href="#DejaVuSans-32" x="63.623047"/>
      </g>
     </g>
    </g>
   </g>
   <g id="line2d_13">
    <path d="M 26.925 97.91285 
L 27.115227 97.882411 
L 27.400568 98.964251 
L 27.590796 99.080139 
L 27.685909 99.468091 
L 27.876136 99.069513 
L 28.066364 99.102055 
L 28.161477 99.395039 
L 28.256591 99.102055 
L 28.351705 99.362719 
L 28.541932 99.069513 
L 28.922387 99.130722 
L 29.0175 99.424039 
L 29.112614 99.130722 
L 29.302841 99.473404 
L 29.493068 99.534171 
L 29.683296 99.893788 
L 29.778409 99.854052 
L 29.968637 100.183673 
L 30.349091 100.264252 
L 30.634432 100.891175 
L 30.824659 100.931796 
L 31.11 101.585726 
L 31.300228 101.692427 
L 31.585569 102.613995 
L 31.680682 102.633143 
L 32.536705 104.955325 
L 32.631819 105.089586 
L 32.822046 105.687952 
L 33.392728 107.727664 
L 33.773182 109.244166 
L 34.248751 110.897365 
L 34.724319 113.640151 
L 34.819432 113.290164 
L 35.104764 114.658236 
L 35.294991 115.531877 
L 35.580332 116.857336 
L 35.960787 118.342514 
L 36.911933 122.989533 
L 37.197273 124.101037 
L 37.482614 125.685611 
L 37.767955 126.648574 
L 38.433751 129.5575 
L 39.670228 135.063882 
L 39.765342 135.281821 
L 40.24091 137.359167 
L 40.431137 137.844965 
L 40.811592 139.536904 
L 42.238297 145.00045 
L 42.33341 145.157845 
L 42.808978 147.101925 
L 43.094319 148.055481 
L 43.760115 150.575568 
L 45.947729 157.812518 
L 46.042842 157.914459 
L 46.51841 159.37595 
L 47.089092 161.11659 
L 47.850002 163.195928 
L 48.135342 164.061378 
L 49.466933 167.568558 
L 49.847388 168.420504 
L 50.132729 169.113396 
L 52.986138 175.092261 
L 54.507957 177.525338 
L 54.793297 177.980466 
L 54.983525 178.239038 
L 56.600457 180.162907 
L 56.69557 180.176322 
L 57.076025 180.674872 
L 57.74182 181.199576 
L 58.027161 181.558485 
L 58.312502 181.684788 
L 60.500116 183.09822 
L 60.880571 183.212812 
L 62.782843 183.900889 
L 62.973071 183.906346 
L 63.163298 184.093691 
L 63.924207 184.203345 
L 64.78023 184.347196 
L 65.160685 184.442016 
L 65.636253 184.541527 
L 66.967844 184.651587 
L 67.158071 184.740662 
L 69.726235 184.894698 
L 69.821348 57.633956 
L 69.916462 57.647238 
L 71.723621 57.699261 
L 72.008962 57.870823 
L 72.104076 57.840938 
L 72.389417 58.062309 
L 73.721103 59.511182 
L 74.767353 61.589856 
L 76.764834 68.461211 
L 77.620857 72.412683 
L 78.667107 77.501559 
L 78.857335 78.324395 
L 79.903585 83.626784 
L 80.759607 88.04878 
L 80.94993 88.825903 
L 81.615725 92.460704 
L 81.901066 93.786162 
L 84.08868 103.97598 
L 84.374021 105.263141 
L 85.325252 109.475167 
L 85.895934 111.937255 
L 86.276389 113.461062 
L 86.656843 115.161413 
L 87.037298 116.719975 
L 87.417753 118.181466 
L 92.363757 136.946863 
L 96.548853 150.306049 
L 96.73908 150.841435 
L 97.690311 153.78268 
L 97.880539 154.159232 
L 99.021902 157.343432 
L 100.353493 160.832239 
L 100.829062 162.039929 
L 101.68518 164.023191 
L 101.875407 164.399079 
L 102.73143 166.282946 
L 104.158134 169.315175 
L 105.299498 171.501767 
L 105.394612 171.583896 
L 105.679953 172.19012 
L 106.631184 173.815758 
L 108.628571 176.712342 
L 109.294366 177.521287 
L 111.767416 180.137726 
L 113.099007 181.237519 
L 115.857398 182.856449 
L 117.379216 183.460416 
L 118.140125 183.686989 
L 118.996243 183.973723 
L 119.18647 184.450264 
L 121.278971 184.58428 
L 125.84414 184.829549 
L 131.742137 184.987088 
L 139.161001 185.029024 
L 144.297138 185.024571 
L 144.297138 185.024571 
" clip-path="url(#p1421e1ce14)" style="fill: none; stroke: #ff0000; stroke-width: 1.5; stroke-linecap: square"/>
   </g>
   <g id="patch_3">
    <path d="M 26.925 191.401875 
L 26.925 51.211875 
" style="fill: none; stroke: #000000; stroke-width: 0.8; stroke-linejoin: miter; stroke-linecap: square"/>
   </g>
   <g id="patch_4">
    <path d="M 144.297138 191.401875 
L 144.297138 51.211875 
" style="fill: none; stroke: #000000; stroke-width: 0.8; stroke-linejoin: miter; stroke-linecap: square"/>
   </g>
   <g id="patch_5">
    <path d="M 26.925 191.401875 
L 144.297138 191.401875 
" style="fill: none; stroke: #000000; stroke-width: 0.8; stroke-linejoin: miter; stroke-linecap: square"/>
   </g>
   <g id="patch_6">
    <path d="M 26.925 51.211875 
L 144.297138 51.211875 
" style="fill: none; stroke: #000000; stroke-width: 0.8; stroke-linejoin: miter; stroke-linecap: square"/>
   </g>
   <g id="text_13">
    <!-- Drone 1 (Leader) -->
    <g transform="translate(34.606381 45.211875) scale(0.12 -0.12)">
     <defs>
      <path id="DejaVuSans-44" d="M 1259 4147 
L 1259 519 
L 2022 519 
Q 2988 519 3436 956 
Q 3884 1394 3884 2338 
Q 3884 3275 3436 3711 
Q 2988 4147 2022 4147 
L 1259 4147 
z
M 628 4666 
L 1925 4666 
Q 3281 4666 3915 4102 
Q 4550 3538 4550 2338 
Q 4550 1131 3912 565 
Q 3275 0 1925 0 
L 628 0 
L 628 4666 
z
" transform="scale(0.015625)"/>
      <path id="DejaVuSans-72" d="M 2631 2963 
Q 2534 3019 2420 3045 
Q 2306 3072 2169 3072 
Q 1681 3072 1420 2755 
Q 1159 2438 1159 1844 
L 1159 0 
L 581 0 
L 581 3500 
L 1159 3500 
L 1159 2956 
Q 1341 3275 1631 3429 
Q 1922 3584 2338 3584 
Q 2397 3584 2469 3576 
Q 2541 3569 2628 3553 
L 2631 2963 
z
" transform="scale(0.015625)"/>
      <path id="DejaVuSans-6f" d="M 1959 3097 
Q 1497 3097 1228 2736 
Q 959 2375 959 1747 
Q 959 1119 1226 758 
Q 1494 397 1959 397 
Q 2419 397 2687 759 
Q 2956 1122 2956 1747 
Q 2956 2369 2687 2733 
Q 2419 3097 1959 3097 
z
M 1959 3584 
Q 2709 3584 3137 3096 
Q 3566 2609 3566 1747 
Q 3566 888 3137 398 
Q 2709 -91 1959 -91 
Q 1206 -91 779 398 
Q 353 888 353 1747 
Q 353 2609 779 3096 
Q 1206 3584 1959 3584 
z
" transform="scale(0.015625)"/>
      <path id="DejaVuSans-6e" d="M 3513 2113 
L 3513 0 
L 2938 0 
L 2938 2094 
Q 2938 2591 2744 2837 
Q 2550 3084 2163 3084 
Q 1697 3084 1428 2787 
Q 1159 2491 1159 1978 
L 1159 0 
L 581 0 
L 581 3500 
L 1159 3500 
L 1159 2956 
Q 1366 3272 1645 3428 
Q 1925 3584 2291 3584 
Q 2894 3584 3203 3211 
Q 3513 2838 3513 2113 
z
" transform="scale(0.015625)"/>
      <path id="DejaVuSans-65" d="M 3597 1894 
L 3597 1613 
L 953 1613 
Q 991 1019 1311 708 
Q 1631 397 2203 397 
Q 2534 397 2845 478 
Q 3156 559 3463 722 
L 3463 178 
Q 3153 47 2828 -22 
Q 2503 -91 2169 -91 
Q 1331 -91 842 396 
Q 353 884 353 1716 
Q 353 2575 817 3079 
Q 1281 3584 2069 3584 
Q 2775 3584 3186 3129 
Q 3597 2675 3597 1894 
z
M 3022 2063 
Q 3016 2534 2758 2815 
Q 2500 3097 2075 3097 
Q 1594 3097 1305 2825 
Q 1016 2553 972 2059 
L 3022 2063 
z
" transform="scale(0.015625)"/>
      <path id="DejaVuSans-20" transform="scale(0.015625)"/>
      <path id="DejaVuSans-28" d="M 1984 4856 
Q 1566 4138 1362 3434 
Q 1159 2731 1159 2009 
Q 1159 1288 1364 580 
Q 1569 -128 1984 -844 
L 1484 -844 
Q 1016 -109 783 600 
Q 550 1309 550 2009 
Q 550 2706 781 3412 
Q 1013 4119 1484 4856 
L 1984 4856 
z
" transform="scale(0.015625)"/>
      <path id="DejaVuSans-4c" d="M 628 4666 
L 1259 4666 
L 1259 531 
L 3531 531 
L 3531 0 
L 628 0 
L 628 4666 
z
" transform="scale(0.015625)"/>
      <path id="DejaVuSans-61" d="M 2194 1759 
Q 1497 1759 1228 1600 
Q 959 1441 959 1056 
Q 959 750 1161 570 
Q 1363 391 1709 391 
Q 2188 391 2477 730 
Q 2766 1069 2766 1631 
L 2766 1759 
L 2194 1759 
z
M 3341 1997 
L 3341 0 
L 2766 0 
L 2766 531 
Q 2569 213 2275 61 
Q 1981 -91 1556 -91 
Q 1019 -91 701 211 
Q 384 513 384 1019 
Q 384 1609 779 1909 
Q 1175 2209 1959 2209 
L 2766 2209 
L 2766 2266 
Q 2766 2663 2505 2880 
Q 2244 3097 1772 3097 
Q 1472 3097 1187 3025 
Q 903 2953 641 2809 
L 641 3341 
Q 956 3463 1253 3523 
Q 1550 3584 1831 3584 
Q 2591 3584 2966 3190 
Q 3341 2797 3341 1997 
z
" transform="scale(0.015625)"/>
      <path id="DejaVuSans-64" d="M 2906 2969 
L 2906 4863 
L 3481 4863 
L 3481 0 
L 2906 0 
L 2906 525 
Q 2725 213 2448 61 
Q 2172 -91 1784 -91 
Q 1150 -91 751 415 
Q 353 922 353 1747 
Q 353 2572 751 3078 
Q 1150 3584 1784 3584 
Q 2172 3584 2448 3432 
Q 2725 3281 2906 2969 
z
M 947 1747 
Q 947 1113 1208 752 
Q 1469 391 1925 391 
Q 2381 391 2643 752 
Q 2906 1113 2906 1747 
Q 2906 2381 2643 2742 
Q 2381 3103 1925 3103 
Q 1469 3103 1208 2742 
Q 947 2381 947 1747 
z
" transform="scale(0.015625)"/>
      <path id="DejaVuSans-29" d="M 513 4856 
L 1013 4856 
Q 1481 4119 1714 3412 
Q 1947 2706 1947 2009 
Q 1947 1309 1714 600 
Q 1481 -109 1013 -844 
L 513 -844 
Q 928 -128 1133 580 
Q 1338 1288 1338 2009 
Q 1338 2731 1133 3434 
Q 928 4138 513 4856 
z
" transform="scale(0.015625)"/>
     </defs>
     <use xlink:href="#DejaVuSans-44"/>
     <use xlink:href="#DejaVuSans-72" x="77.001953"/>
     <use xlink:href="#DejaVuSans-6f" x="115.865234"/>
     <use xlink:href="#DejaVuSans-6e" x="177.046875"/>
     <use xlink:href="#DejaVuSans-65" x="240.425781"/>
     <use xlink:href="#DejaVuSans-20" x="301.949219"/>
     <use xlink:href="#DejaVuSans-31" x="333.736328"/>
     <use xlink:href="#DejaVuSans-20" x="397.359375"/>
     <use xlink:href="#DejaVuSans-28" x="429.146484"/>
     <use xlink:href="#DejaVuSans-4c" x="468.160156"/>
     <use xlink:href="#DejaVuSans-65" x="522.123047"/>
     <use xlink:href="#DejaVuSans-61" x="583.646484"/>
     <use xlink:href="#DejaVuSans-64" x="644.925781"/>
     <use xlink:href="#DejaVuSans-65" x="708.402344"/>
     <use xlink:href="#DejaVuSans-72" x="769.925781"/>
     <use xlink:href="#DejaVuSans-29" x="811.039062"/>
    </g>
   </g>
  </g>
  <g id="axes_2">
   <g id="patch_7">
    <path d="M 228.741442 191.401875 
L 346.11358 191.401875 
L 346.11358 51.211875 
L 228.741442 51.211875 
L 228.741442 191.401875 
z
" style="fill: none"/>
   </g>
   <g id="matplotlib.axis_3">
    <g id="xtick_6">
     <g id="line2d_14">
      <g>
       <use xlink:href="#me66d20cf4e" x="228.741442" y="191.401875" style="stroke: #000000; stroke-width: 0.8"/>
      </g>
     </g>
     <g id="text_14">
      <!-- 0.00 -->
      <g transform="translate(217.60863 206.000313) scale(0.1 -0.1)">
       <use xlink:href="#DejaVuSans-30"/>
       <use xlink:href="#DejaVuSans-2e" x="63.623047"/>
       <use xlink:href="#DejaVuSans-30" x="95.410156"/>
       <use xlink:href="#DejaVuSans-30" x="159.033203"/>
      </g>
     </g>
    </g>
    <g id="xtick_7">
     <g id="line2d_15">
      <g>
       <use xlink:href="#me66d20cf4e" x="258.084477" y="191.401875" style="stroke: #000000; stroke-width: 0.8"/>
      </g>
     </g>
     <g id="text_15">
      <!-- 3.08 -->
      <g transform="translate(246.951664 206.000313) scale(0.1 -0.1)">
       <use xlink:href="#DejaVuSans-33"/>
       <use xlink:href="#DejaVuSans-2e" x="63.623047"/>
       <use xlink:href="#DejaVuSans-30" x="95.410156"/>
       <use xlink:href="#DejaVuSans-38" x="159.033203"/>
      </g>
     </g>
    </g>
    <g id="xtick_8">
     <g id="line2d_16">
      <g>
       <use xlink:href="#me66d20cf4e" x="287.427511" y="191.401875" style="stroke: #000000; stroke-width: 0.8"/>
      </g>
     </g>
     <g id="text_16">
      <!-- 6.17 -->
      <g transform="translate(276.294699 206.000313) scale(0.1 -0.1)">
       <use xlink:href="#DejaVuSans-36"/>
       <use xlink:href="#DejaVuSans-2e" x="63.623047"/>
       <use xlink:href="#DejaVuSans-31" x="95.410156"/>
       <use xlink:href="#DejaVuSans-37" x="159.033203"/>
      </g>
     </g>
    </g>
    <g id="xtick_9">
     <g id="line2d_17">
      <g>
       <use xlink:href="#me66d20cf4e" x="316.770546" y="191.401875" style="stroke: #000000; stroke-width: 0.8"/>
      </g>
     </g>
     <g id="text_17">
      <!-- 9.25 -->
      <g transform="translate(305.637733 206.000313) scale(0.1 -0.1)">
       <defs>
        <path id="DejaVuSans-35" d="M 691 4666 
L 3169 4666 
L 3169 4134 
L 1269 4134 
L 1269 2991 
Q 1406 3038 1543 3061 
Q 1681 3084 1819 3084 
Q 2600 3084 3056 2656 
Q 3513 2228 3513 1497 
Q 3513 744 3044 326 
Q 2575 -91 1722 -91 
Q 1428 -91 1123 -41 
Q 819 9 494 109 
L 494 744 
Q 775 591 1075 516 
Q 1375 441 1709 441 
Q 2250 441 2565 725 
Q 2881 1009 2881 1497 
Q 2881 1984 2565 2268 
Q 2250 2553 1709 2553 
Q 1456 2553 1204 2497 
Q 953 2441 691 2322 
L 691 4666 
z
" transform="scale(0.015625)"/>
       </defs>
       <use xlink:href="#DejaVuSans-39"/>
       <use xlink:href="#DejaVuSans-2e" x="63.623047"/>
       <use xlink:href="#DejaVuSans-32" x="95.410156"/>
       <use xlink:href="#DejaVuSans-35" x="159.033203"/>
      </g>
     </g>
    </g>
    <g id="xtick_10">
     <g id="line2d_18">
      <g>
       <use xlink:href="#me66d20cf4e" x="346.11358" y="191.401875" style="stroke: #000000; stroke-width: 0.8"/>
      </g>
     </g>
     <g id="text_18">
      <!-- 12.33 -->
      <g transform="translate(331.799518 206.000313) scale(0.1 -0.1)">
       <use xlink:href="#DejaVuSans-31"/>
       <use xlink:href="#DejaVuSans-32" x="63.623047"/>
       <use xlink:href="#DejaVuSans-2e" x="127.246094"/>
       <use xlink:href="#DejaVuSans-33" x="159.033203"/>
       <use xlink:href="#DejaVuSans-33" x="222.65625"/>
      </g>
     </g>
    </g>
   </g>
   <g id="matplotlib.axis_4">
    <g id="ytick_8">
     <g id="line2d_19">
      <g>
       <use xlink:href="#m669eb07b2a" x="228.741442" y="185.086383" style="stroke: #000000; stroke-width: 0.8"/>
      </g>
     </g>
     <g id="text_19">
      <!-- 0 -->
      <g transform="translate(215.378942 188.885602) scale(0.1 -0.1)">
       <use xlink:href="#DejaVuSans-30"/>
      </g>
     </g>
    </g>
    <g id="ytick_9">
     <g id="line2d_20">
      <g>
       <use xlink:href="#m669eb07b2a" x="228.741442" y="161.804044" style="stroke: #000000; stroke-width: 0.8"/>
      </g>
     </g>
     <g id="text_20">
      <!-- 2 -->
      <g transform="translate(215.378942 165.603263) scale(0.1 -0.1)">
       <use xlink:href="#DejaVuSans-32"/>
      </g>
     </g>
    </g>
    <g id="ytick_10">
     <g id="line2d_21">
      <g>
       <use xlink:href="#m669eb07b2a" x="228.741442" y="138.521706" style="stroke: #000000; stroke-width: 0.8"/>
      </g>
     </g>
     <g id="text_21">
      <!-- 4 -->
      <g transform="translate(215.378942 142.320924) scale(0.1 -0.1)">
       <use xlink:href="#DejaVuSans-34"/>
      </g>
     </g>
    </g>
    <g id="ytick_11">
     <g id="line2d_22">
      <g>
       <use xlink:href="#m669eb07b2a" x="228.741442" y="115.239367" style="stroke: #000000; stroke-width: 0.8"/>
      </g>
     </g>
     <g id="text_22">
      <!-- 6 -->
      <g transform="translate(215.378942 119.038586) scale(0.1 -0.1)">
       <use xlink:href="#DejaVuSans-36"/>
      </g>
     </g>
    </g>
    <g id="ytick_12">
     <g id="line2d_23">
      <g>
       <use xlink:href="#m669eb07b2a" x="228.741442" y="91.957028" style="stroke: #000000; stroke-width: 0.8"/>
      </g>
     </g>
     <g id="text_23">
      <!-- 8 -->
      <g transform="translate(215.378942 95.756247) scale(0.1 -0.1)">
       <use xlink:href="#DejaVuSans-38"/>
      </g>
     </g>
    </g>
    <g id="ytick_13">
     <g id="line2d_24">
      <g>
       <use xlink:href="#m669eb07b2a" x="228.741442" y="68.67469" style="stroke: #000000; stroke-width: 0.8"/>
      </g>
     </g>
     <g id="text_24">
      <!-- 10 -->
      <g transform="translate(209.016442 72.473908) scale(0.1 -0.1)">
       <use xlink:href="#DejaVuSans-31"/>
       <use xlink:href="#DejaVuSans-30" x="63.623047"/>
      </g>
     </g>
    </g>
   </g>
   <g id="line2d_25">
    <path d="M 228.741442 93.375272 
L 229.502968 95.475572 
L 229.598159 95.376855 
L 229.788541 95.08827 
L 229.883731 95.151016 
L 229.978922 95.410265 
L 230.074113 94.844271 
L 230.169304 95.376855 
L 230.359685 95.187686 
L 230.454876 95.187686 
L 230.645258 95.465793 
L 230.740448 95.510845 
L 230.93083 95.251479 
L 231.026021 95.537037 
L 231.121212 95.251479 
L 231.311593 95.799662 
L 231.406784 95.859963 
L 231.501975 96.101168 
L 231.597165 95.931673 
L 231.787547 96.23574 
L 232.073119 96.29802 
L 232.263501 96.661108 
L 232.453883 96.755635 
L 233.40579 98.785738 
L 233.500981 98.877005 
L 233.976935 100.242863 
L 234.167317 100.614915 
L 236.737458 110.409329 
L 237.023031 112.088219 
L 237.118221 112.309052 
L 237.689366 115.08908 
L 237.784557 115.241579 
L 238.070129 116.872274 
L 241.211434 131.582405 
L 244.923875 146.396258 
L 245.209447 147.535347 
L 246.827691 153.392252 
L 246.922881 153.585262 
L 247.208454 154.63355 
L 247.589217 155.968908 
L 250.635322 165.123174 
L 251.396848 166.99426 
L 251.872802 168.324496 
L 252.063184 168.718666 
L 252.348756 169.436693 
L 253.015091 170.921524 
L 253.871808 172.870373 
L 254.06219 173.171297 
L 254.442953 173.960906 
L 255.204479 175.361106 
L 255.775624 176.34972 
L 259.012111 180.583776 
L 259.297683 180.809499 
L 259.583255 181.100551 
L 260.059209 181.542939 
L 260.249591 181.600109 
L 260.725545 182.045488 
L 261.582262 182.570598 
L 262.53417 183.104101 
L 262.819742 183.212073 
L 263.105314 183.358554 
L 263.676459 183.622296 
L 264.152413 183.67545 
L 264.342794 183.87002 
L 265.00913 183.986304 
L 266.056229 184.284068 
L 266.912946 184.438476 
L 269.768669 184.739244 
L 270.911054 184.862331 
L 271.291817 184.901775 
L 271.577389 184.905895 
L 271.67258 57.608594 
L 271.767771 57.614415 
L 272.814869 57.665636 
L 273.576396 57.855387 
L 273.766777 57.883326 
L 274.052349 58.074241 
L 274.337922 58.255843 
L 275.480306 59.594578 
L 275.765879 60.153354 
L 277.003359 63.26271 
L 278.526411 68.82812 
L 280.620704 78.973632 
L 282.524519 89.008204 
L 282.714901 89.793168 
L 283.857286 95.723878 
L 284.238049 97.417784 
L 284.999575 101.097209 
L 285.856292 105.119349 
L 286.046674 105.947502 
L 286.713009 109.06233 
L 287.189058 111.021539 
L 287.950584 114.395499 
L 288.521729 116.782055 
L 289.092874 119.171172 
L 289.949591 122.611603 
L 290.330354 124.026238 
L 292.424646 132.245486 
L 292.9006 133.752086 
L 293.566936 136.127932 
L 294.233271 138.511112 
L 294.709225 140.327949 
L 297.755425 149.859972 
L 297.850616 149.98267 
L 298.516952 152.153515 
L 299.468955 154.846001 
L 300.611244 158.035216 
L 302.419869 162.700414 
L 304.133398 166.636294 
L 304.799734 167.857336 
L 305.180497 168.699574 
L 306.417977 171.135955 
L 306.608358 171.47157 
L 306.893931 171.951884 
L 307.845839 173.783401 
L 309.083414 175.532941 
L 311.653565 178.746427 
L 313.081522 180.200817 
L 313.367094 180.426434 
L 314.794956 181.533521 
L 315.175719 181.755425 
L 316.413295 182.480519 
L 318.697873 183.433791 
L 320.506593 183.94285 
L 320.696975 184.127123 
L 322.029646 184.2872 
L 325.170656 184.632594 
L 326.788899 184.743958 
L 327.931189 184.816906 
L 330.50134 184.922686 
L 332.215726 184.975148 
L 341.163659 185.028814 
L 346.11358 185.013309 
L 346.11358 185.013309 
" clip-path="url(#p98edc6a3d3)" style="fill: none; stroke: #ff0000; stroke-width: 1.5; stroke-linecap: square"/>
   </g>
   <g id="patch_8">
    <path d="M 228.741442 191.401875 
L 228.741442 51.211875 
" style="fill: none; stroke: #000000; stroke-width: 0.8; stroke-linejoin: miter; stroke-linecap: square"/>
   </g>
   <g id="patch_9">
    <path d="M 346.11358 191.401875 
L 346.11358 51.211875 
" style="fill: none; stroke: #000000; stroke-width: 0.8; stroke-linejoin: miter; stroke-linecap: square"/>
   </g>
   <g id="patch_10">
    <path d="M 228.741442 191.401875 
L 346.11358 191.401875 
" style="fill: none; stroke: #000000; stroke-width: 0.8; stroke-linejoin: miter; stroke-linecap: square"/>
   </g>
   <g id="patch_11">
    <path d="M 228.741442 51.211875 
L 346.11358 51.211875 
" style="fill: none; stroke: #000000; stroke-width: 0.8; stroke-linejoin: miter; stroke-linecap: square"/>
   </g>
   <g id="text_25">
    <!-- Drone 2 (Follower) -->
    <g transform="translate(232.022199 45.211875) scale(0.12 -0.12)">
     <defs>
      <path id="DejaVuSans-46" d="M 628 4666 
L 3309 4666 
L 3309 4134 
L 1259 4134 
L 1259 2759 
L 3109 2759 
L 3109 2228 
L 1259 2228 
L 1259 0 
L 628 0 
L 628 4666 
z
" transform="scale(0.015625)"/>
      <path id="DejaVuSans-6c" d="M 603 4863 
L 1178 4863 
L 1178 0 
L 603 0 
L 603 4863 
z
" transform="scale(0.015625)"/>
      <path id="DejaVuSans-77" d="M 269 3500 
L 844 3500 
L 1563 769 
L 2278 3500 
L 2956 3500 
L 3675 769 
L 4391 3500 
L 4966 3500 
L 4050 0 
L 3372 0 
L 2619 2869 
L 1863 0 
L 1184 0 
L 269 3500 
z
" transform="scale(0.015625)"/>
     </defs>
     <use xlink:href="#DejaVuSans-44"/>
     <use xlink:href="#DejaVuSans-72" x="77.001953"/>
     <use xlink:href="#DejaVuSans-6f" x="115.865234"/>
     <use xlink:href="#DejaVuSans-6e" x="177.046875"/>
     <use xlink:href="#DejaVuSans-65" x="240.425781"/>
     <use xlink:href="#DejaVuSans-20" x="301.949219"/>
     <use xlink:href="#DejaVuSans-32" x="333.736328"/>
     <use xlink:href="#DejaVuSans-20" x="397.359375"/>
     <use xlink:href="#DejaVuSans-28" x="429.146484"/>
     <use xlink:href="#DejaVuSans-46" x="468.160156"/>
     <use xlink:href="#DejaVuSans-6f" x="522.054688"/>
     <use xlink:href="#DejaVuSans-6c" x="583.236328"/>
     <use xlink:href="#DejaVuSans-6c" x="611.019531"/>
     <use xlink:href="#DejaVuSans-6f" x="638.802734"/>
     <use xlink:href="#DejaVuSans-77" x="699.984375"/>
     <use xlink:href="#DejaVuSans-65" x="781.771484"/>
     <use xlink:href="#DejaVuSans-72" x="843.294922"/>
     <use xlink:href="#DejaVuSans-29" x="884.408203"/>
    </g>
   </g>
  </g>
  <g id="axes_3">
   <g id="patch_12">
    <path d="M 430.557884 191.401875 
L 547.930022 191.401875 
L 547.930022 51.211875 
L 430.557884 51.211875 
L 430.557884 191.401875 
z
" style="fill: none"/>
   </g>
   <g id="matplotlib.axis_5">
    <g id="xtick_11">
     <g id="line2d_26">
      <g>
       <use xlink:href="#me66d20cf4e" x="430.557884" y="191.401875" style="stroke: #000000; stroke-width: 0.8"/>
      </g>
     </g>
     <g id="text_26">
      <!-- 0.00 -->
      <g transform="translate(419.425072 206.000313) scale(0.1 -0.1)">
       <use xlink:href="#DejaVuSans-30"/>
       <use xlink:href="#DejaVuSans-2e" x="63.623047"/>
       <use xlink:href="#DejaVuSans-30" x="95.410156"/>
       <use xlink:href="#DejaVuSans-30" x="159.033203"/>
      </g>
     </g>
    </g>
    <g id="xtick_12">
     <g id="line2d_27">
      <g>
       <use xlink:href="#me66d20cf4e" x="459.900919" y="191.401875" style="stroke: #000000; stroke-width: 0.8"/>
      </g>
     </g>
     <g id="text_27">
      <!-- 3.09 -->
      <g transform="translate(448.768106 206.000313) scale(0.1 -0.1)">
       <use xlink:href="#DejaVuSans-33"/>
       <use xlink:href="#DejaVuSans-2e" x="63.623047"/>
       <use xlink:href="#DejaVuSans-30" x="95.410156"/>
       <use xlink:href="#DejaVuSans-39" x="159.033203"/>
      </g>
     </g>
    </g>
    <g id="xtick_13">
     <g id="line2d_28">
      <g>
       <use xlink:href="#me66d20cf4e" x="489.243953" y="191.401875" style="stroke: #000000; stroke-width: 0.8"/>
      </g>
     </g>
     <g id="text_28">
      <!-- 6.17 -->
      <g transform="translate(478.111141 206.000313) scale(0.1 -0.1)">
       <use xlink:href="#DejaVuSans-36"/>
       <use xlink:href="#DejaVuSans-2e" x="63.623047"/>
       <use xlink:href="#DejaVuSans-31" x="95.410156"/>
       <use xlink:href="#DejaVuSans-37" x="159.033203"/>
      </g>
     </g>
    </g>
    <g id="xtick_14">
     <g id="line2d_29">
      <g>
       <use xlink:href="#me66d20cf4e" x="518.586988" y="191.401875" style="stroke: #000000; stroke-width: 0.8"/>
      </g>
     </g>
     <g id="text_29">
      <!-- 9.26 -->
      <g transform="translate(507.454175 206.000313) scale(0.1 -0.1)">
       <use xlink:href="#DejaVuSans-39"/>
       <use xlink:href="#DejaVuSans-2e" x="63.623047"/>
       <use xlink:href="#DejaVuSans-32" x="95.410156"/>
       <use xlink:href="#DejaVuSans-36" x="159.033203"/>
      </g>
     </g>
    </g>
    <g id="xtick_15">
     <g id="line2d_30">
      <g>
       <use xlink:href="#me66d20cf4e" x="547.930022" y="191.401875" style="stroke: #000000; stroke-width: 0.8"/>
      </g>
     </g>
     <g id="text_30">
      <!-- 12.34 -->
      <g transform="translate(533.61596 206.000313) scale(0.1 -0.1)">
       <use xlink:href="#DejaVuSans-31"/>
       <use xlink:href="#DejaVuSans-32" x="63.623047"/>
       <use xlink:href="#DejaVuSans-2e" x="127.246094"/>
       <use xlink:href="#DejaVuSans-33" x="159.033203"/>
       <use xlink:href="#DejaVuSans-34" x="222.65625"/>
      </g>
     </g>
    </g>
   </g>
   <g id="matplotlib.axis_6">
    <g id="ytick_14">
     <g id="line2d_31">
      <g>
       <use xlink:href="#m669eb07b2a" x="430.557884" y="185.089349" style="stroke: #000000; stroke-width: 0.8"/>
      </g>
     </g>
     <g id="text_31">
      <!-- 0.0 -->
      <g transform="translate(407.654759 188.888568) scale(0.1 -0.1)">
       <use xlink:href="#DejaVuSans-30"/>
       <use xlink:href="#DejaVuSans-2e" x="63.623047"/>
       <use xlink:href="#DejaVuSans-30" x="95.410156"/>
      </g>
     </g>
    </g>
    <g id="ytick_15">
     <g id="line2d_32">
      <g>
       <use xlink:href="#m669eb07b2a" x="430.557884" y="162.914377" style="stroke: #000000; stroke-width: 0.8"/>
      </g>
     </g>
     <g id="text_32">
      <!-- 0.1 -->
      <g transform="translate(407.654759 166.713596) scale(0.1 -0.1)">
       <use xlink:href="#DejaVuSans-30"/>
       <use xlink:href="#DejaVuSans-2e" x="63.623047"/>
       <use xlink:href="#DejaVuSans-31" x="95.410156"/>
      </g>
     </g>
    </g>
    <g id="ytick_16">
     <g id="line2d_33">
      <g>
       <use xlink:href="#m669eb07b2a" x="430.557884" y="140.739406" style="stroke: #000000; stroke-width: 0.8"/>
      </g>
     </g>
     <g id="text_33">
      <!-- 0.2 -->
      <g transform="translate(407.654759 144.538624) scale(0.1 -0.1)">
       <use xlink:href="#DejaVuSans-30"/>
       <use xlink:href="#DejaVuSans-2e" x="63.623047"/>
       <use xlink:href="#DejaVuSans-32" x="95.410156"/>
      </g>
     </g>
    </g>
    <g id="ytick_17">
     <g id="line2d_34">
      <g>
       <use xlink:href="#m669eb07b2a" x="430.557884" y="118.564434" style="stroke: #000000; stroke-width: 0.8"/>
      </g>
     </g>
     <g id="text_34">
      <!-- 0.3 -->
      <g transform="translate(407.654759 122.363652) scale(0.1 -0.1)">
       <use xlink:href="#DejaVuSans-30"/>
       <use xlink:href="#DejaVuSans-2e" x="63.623047"/>
       <use xlink:href="#DejaVuSans-33" x="95.410156"/>
      </g>
     </g>
    </g>
    <g id="ytick_18">
     <g id="line2d_35">
      <g>
       <use xlink:href="#m669eb07b2a" x="430.557884" y="96.389462" style="stroke: #000000; stroke-width: 0.8"/>
      </g>
     </g>
     <g id="text_35">
      <!-- 0.4 -->
      <g transform="translate(407.654759 100.18868) scale(0.1 -0.1)">
       <use xlink:href="#DejaVuSans-30"/>
       <use xlink:href="#DejaVuSans-2e" x="63.623047"/>
       <use xlink:href="#DejaVuSans-34" x="95.410156"/>
      </g>
     </g>
    </g>
    <g id="ytick_19">
     <g id="line2d_36">
      <g>
       <use xlink:href="#m669eb07b2a" x="430.557884" y="74.21449" style="stroke: #000000; stroke-width: 0.8"/>
      </g>
     </g>
     <g id="text_36">
      <!-- 0.5 -->
      <g transform="translate(407.654759 78.013708) scale(0.1 -0.1)">
       <use xlink:href="#DejaVuSans-30"/>
       <use xlink:href="#DejaVuSans-2e" x="63.623047"/>
       <use xlink:href="#DejaVuSans-35" x="95.410156"/>
      </g>
     </g>
    </g>
    <g id="ytick_20">
     <g id="line2d_37">
      <g>
       <use xlink:href="#m669eb07b2a" x="430.557884" y="52.039518" style="stroke: #000000; stroke-width: 0.8"/>
      </g>
     </g>
     <g id="text_37">
      <!-- 0.6 -->
      <g transform="translate(407.654759 55.838736) scale(0.1 -0.1)">
       <use xlink:href="#DejaVuSans-30"/>
       <use xlink:href="#DejaVuSans-2e" x="63.623047"/>
       <use xlink:href="#DejaVuSans-36" x="95.410156"/>
      </g>
     </g>
    </g>
   </g>
   <g id="line2d_38">
    <path d="M 430.557884 59.237735 
L 430.652998 58.980284 
L 430.748111 61.121721 
L 431.128566 57.584148 
L 431.318793 59.318896 
L 431.50902 59.482547 
L 431.699248 59.274102 
L 432.555271 60.241375 
L 433.31618 62.048635 
L 433.791748 64.200051 
L 433.981975 64.867517 
L 435.123339 72.873569 
L 436.169589 82.867607 
L 436.835385 90.377161 
L 437.881635 102.754122 
L 440.069239 128.676886 
L 440.830158 136.004827 
L 441.400839 140.402568 
L 442.066635 145.28217 
L 442.827544 149.212241 
L 443.017771 150.006548 
L 443.49334 151.540391 
L 443.683567 152.163508 
L 443.873794 153.02434 
L 443.968908 152.856919 
L 444.064021 153.046071 
L 444.254249 153.626169 
L 444.349362 153.655661 
L 444.444476 153.941275 
L 444.53959 153.864328 
L 444.634703 154.496758 
L 444.729817 154.057915 
L 444.824931 154.642226 
L 444.920044 154.586345 
L 445.015158 154.563505 
L 445.110271 155.037384 
L 445.205385 154.907217 
L 445.300499 155.401053 
L 445.58584 154.948019 
L 445.871181 155.352047 
L 445.966294 155.546965 
L 446.156522 155.33852 
L 446.346749 155.756962 
L 446.441862 155.641652 
L 446.727203 155.583997 
L 446.822317 155.861849 
L 446.917431 155.667153 
L 447.012544 155.719264 
L 447.107658 155.654735 
L 447.297885 155.876263 
L 447.392999 155.646309 
L 447.583226 155.830361 
L 447.868567 155.638991 
L 448.153908 155.72126 
L 448.249022 155.619699 
L 448.344135 155.793772 
L 448.439249 155.556722 
L 448.534363 155.722812 
L 448.629476 155.444073 
L 448.72459 155.62746 
L 449.009931 155.501728 
L 449.200158 155.408371 
L 449.295272 155.29284 
L 449.485499 155.597524 
L 450.056181 155.158016 
L 450.246408 155.419015 
L 450.531749 155.165999 
L 450.912204 155.175756 
L 451.482886 155.050245 
L 451.577999 155.168216 
L 451.673113 154.890807 
L 451.768226 155.103022 
L 452.148681 154.892581 
L 452.338908 154.873954 
L 452.624249 154.738244 
L 452.814477 154.962433 
L 453.099817 154.699881 
L 453.290045 154.927174 
L 453.385158 154.735583 
L 453.575386 154.88482 
L 453.765613 154.720725 
L 454.050954 154.90633 
L 454.146068 154.750662 
L 454.241181 154.873289 
L 454.336295 154.683471 
L 454.526522 154.841579 
L 455.00209 154.715182 
L 455.667886 154.778602 
L 455.858113 154.633578 
L 456.04834 154.890586 
L 456.143454 154.853332 
L 456.238568 154.979507 
L 456.428795 154.868189 
L 456.80925 154.76441 
L 456.999477 154.955337 
L 457.284818 154.946688 
L 457.950613 155.018757 
L 458.045727 155.149589 
L 458.140841 155.045145 
L 458.331068 155.110561 
L 458.616409 155.184404 
L 459.377318 155.307697 
L 459.472432 155.462922 
L 459.662659 155.44873 
L 460.518682 155.710394 
L 460.899136 155.842114 
L 461.469818 156.151898 
L 461.660045 156.217979 
L 462.991636 157.15332 
L 464.513455 158.867002 
L 466.320614 162.185264 
L 467.27175 164.475917 
L 467.842432 166.161969 
L 468.793569 168.912973 
L 469.554478 172.130784 
L 470.12516 175.101077 
L 471.837205 181.42447 
L 472.312869 182.399281 
L 472.407982 182.47849 
L 472.978664 183.582285 
L 473.739573 184.32879 
L 474.024914 184.277479 
L 474.69071 184.432593 
L 475.071164 184.438926 
L 475.832073 183.853093 
L 476.212528 183.245851 
L 476.307737 183.182974 
L 477.734441 179.87506 
L 478.305123 178.329043 
L 481.729309 168.420955 
L 483.346241 165.609878 
L 485.153496 163.898858 
L 485.343723 163.846369 
L 485.724178 163.675023 
L 485.914405 163.678727 
L 486.294859 163.38034 
L 486.5802 163.22241 
L 486.865541 163.167815 
L 487.531337 162.901294 
L 487.911791 162.869806 
L 488.577587 162.715911 
L 489.528818 162.598162 
L 490.194614 162.412558 
L 491.14575 162.399475 
L 491.431091 162.316984 
L 491.621319 162.309001 
L 491.811546 162.413223 
L 492.953005 162.363108 
L 493.143232 162.465334 
L 494.569937 162.319201 
L 494.66505 162.211653 
L 495.045505 162.48884 
L 495.806414 162.571109 
L 495.996641 162.624107 
L 496.377096 162.587518 
L 502.369446 162.587518 
L 502.559673 164.726827 
L 502.845014 164.726827 
L 502.940127 165.325928 
L 503.035241 165.175138 
L 503.225468 165.471263 
L 503.605923 165.944521 
L 503.891264 166.163854 
L 503.986378 166.060696 
L 504.271718 166.369105 
L 504.366832 166.335776 
L 504.557059 166.615314 
L 504.652173 166.613651 
L 504.937514 166.895761 
L 505.222855 167.027968 
L 505.318064 167.005261 
L 505.508291 167.170908 
L 505.603405 167.143322 
L 505.888745 167.308903 
L 506.459427 167.44193 
L 506.744768 167.554668 
L 506.934996 167.74881 
L 507.030109 167.73668 
L 507.125223 167.865494 
L 507.31545 167.797528 
L 507.695905 167.998455 
L 508.3617 168.205791 
L 508.551927 168.080636 
L 508.932382 168.601526 
L 509.122609 168.669426 
L 509.40795 168.930603 
L 509.598178 168.929871 
L 510.168955 170.221607 
L 510.549409 171.202739 
L 511.500546 173.313863 
L 511.690773 173.522862 
L 512.356568 174.896491 
L 512.832137 175.452284 
L 512.92725 175.413278 
L 513.212591 175.760583 
L 513.688159 176.621881 
L 513.878482 176.823695 
L 514.163823 177.224264 
L 514.258936 177.201468 
L 514.544277 177.61339 
L 514.639391 177.646852 
L 515.019845 178.136875 
L 515.305186 178.299085 
L 515.495414 178.618803 
L 515.590527 178.529261 
L 515.875868 178.980145 
L 515.970982 178.998262 
L 516.44655 179.656016 
L 517.397687 180.182095 
L 518.348918 181.103287 
L 518.634259 181.22811 
L 518.824486 181.455648 
L 518.9196 181.458553 
L 519.204941 181.705427 
L 519.395168 181.82342 
L 519.680509 182.055237 
L 520.726759 182.667754 
L 520.916986 182.77293 
L 521.297441 183.019254 
L 521.487668 183.12904 
L 523.104695 183.983457 
L 523.865605 183.477222 
L 524.150945 183.672839 
L 524.246059 183.695482 
L 524.436286 183.604243 
L 524.626514 183.568463 
L 524.816741 183.700507 
L 525.197196 183.879157 
L 525.672478 184.220204 
L 525.767592 184.14429 
L 525.957819 184.323492 
L 526.148047 184.332686 
L 526.338274 184.47648 
L 527.194297 184.812486 
L 527.764979 184.900684 
L 528.240547 185.024007 
L 528.430774 184.946267 
L 528.621001 184.7486 
L 528.716115 184.756845 
L 529.001456 184.585354 
L 529.38191 184.545087 
L 529.952592 184.878375 
L 530.333047 184.85166 
L 530.713501 184.805596 
L 530.903729 184.911299 
L 531.18907 184.83443 
L 531.379297 184.58678 
L 532.23532 184.951287 
L 532.425547 184.820804 
L 532.616725 184.531704 
L 532.902066 184.51816 
L 533.187407 184.796496 
L 533.377635 185.027891 
L 534.04343 184.322869 
L 534.138544 184.297565 
L 534.518998 184.969111 
L 534.614112 185.010515 
L 535.279907 184.505695 
L 535.375021 184.488483 
L 535.660362 184.753616 
L 535.755476 184.731927 
L 535.850589 184.862247 
L 536.516385 184.422761 
L 536.801726 184.574127 
L 537.087067 184.930363 
L 537.18218 184.918661 
L 537.467521 184.586235 
L 537.752862 184.595342 
L 538.133317 184.760872 
L 538.323544 184.926797 
L 538.98934 184.361503 
L 539.084453 184.459418 
L 539.27468 184.807523 
L 539.369794 184.758009 
L 539.560021 184.992874 
L 540.03559 184.401014 
L 540.606272 184.52067 
L 540.796499 184.907343 
L 540.986726 184.799886 
L 541.462294 184.269862 
L 541.557408 184.215944 
L 541.842749 184.576507 
L 542.032976 184.815404 
L 542.508544 184.525061 
L 542.698772 184.326333 
L 543.17434 184.382912 
L 543.459681 184.858767 
L 543.554794 184.746974 
L 543.649908 184.855756 
L 543.840135 184.55279 
L 544.410817 184.461438 
L 544.696158 184.813012 
L 545.171726 184.681374 
L 545.361954 184.435833 
L 545.552181 184.344031 
L 545.837522 184.5504 
L 545.932636 184.894114 
L 546.027749 184.860402 
L 546.31309 184.81175 
L 546.503317 184.613812 
L 546.598431 184.647903 
L 546.788658 184.472699 
L 547.073999 184.71369 
L 547.264227 184.82156 
L 547.834908 184.536126 
L 547.930022 184.489989 
L 547.930022 184.489989 
" clip-path="url(#p5575d455e7)" style="fill: none; stroke: #ff0000; stroke-width: 1.5; stroke-linecap: square"/>
   </g>
   <g id="patch_13">
    <path d="M 430.557884 191.401875 
L 430.557884 51.211875 
" style="fill: none; stroke: #000000; stroke-width: 0.8; stroke-linejoin: miter; stroke-linecap: square"/>
   </g>
   <g id="patch_14">
    <path d="M 547.930022 191.401875 
L 547.930022 51.211875 
" style="fill: none; stroke: #000000; stroke-width: 0.8; stroke-linejoin: miter; stroke-linecap: square"/>
   </g>
   <g id="patch_15">
    <path d="M 430.557884 191.401875 
L 547.930022 191.401875 
" style="fill: none; stroke: #000000; stroke-width: 0.8; stroke-linejoin: miter; stroke-linecap: square"/>
   </g>
   <g id="patch_16">
    <path d="M 430.557884 51.211875 
L 547.930022 51.211875 
" style="fill: none; stroke: #000000; stroke-width: 0.8; stroke-linejoin: miter; stroke-linecap: square"/>
   </g>
   <g id="text_38">
    <!-- Drone 3 (Follower) -->
    <g transform="translate(433.838641 45.211875) scale(0.12 -0.12)">
     <use xlink:href="#DejaVuSans-44"/>
     <use xlink:href="#DejaVuSans-72" x="77.001953"/>
     <use xlink:href="#DejaVuSans-6f" x="115.865234"/>
     <use xlink:href="#DejaVuSans-6e" x="177.046875"/>
     <use xlink:href="#DejaVuSans-65" x="240.425781"/>
     <use xlink:href="#DejaVuSans-20" x="301.949219"/>
     <use xlink:href="#DejaVuSans-33" x="333.736328"/>
     <use xlink:href="#DejaVuSans-20" x="397.359375"/>
     <use xlink:href="#DejaVuSans-28" x="429.146484"/>
     <use xlink:href="#DejaVuSans-46" x="468.160156"/>
     <use xlink:href="#DejaVuSans-6f" x="522.054688"/>
     <use xlink:href="#DejaVuSans-6c" x="583.236328"/>
     <use xlink:href="#DejaVuSans-6c" x="611.019531"/>
     <use xlink:href="#DejaVuSans-6f" x="638.802734"/>
     <use xlink:href="#DejaVuSans-77" x="699.984375"/>
     <use xlink:href="#DejaVuSans-65" x="781.771484"/>
     <use xlink:href="#DejaVuSans-72" x="843.294922"/>
     <use xlink:href="#DejaVuSans-29" x="884.408203"/>
    </g>
   </g>
  </g>
  <g id="axes_4">
   <g id="patch_17">
    <path d="M 632.374326 191.401875 
L 749.746464 191.401875 
L 749.746464 51.211875 
L 632.374326 51.211875 
L 632.374326 191.401875 
z
" style="fill: none"/>
   </g>
   <g id="matplotlib.axis_7">
    <g id="xtick_16">
     <g id="line2d_39">
      <g>
       <use xlink:href="#me66d20cf4e" x="632.374326" y="191.401875" style="stroke: #000000; stroke-width: 0.8"/>
      </g>
     </g>
     <g id="text_39">
      <!-- 0.00 -->
      <g transform="translate(621.241514 206.000313) scale(0.1 -0.1)">
       <use xlink:href="#DejaVuSans-30"/>
       <use xlink:href="#DejaVuSans-2e" x="63.623047"/>
       <use xlink:href="#DejaVuSans-30" x="95.410156"/>
       <use xlink:href="#DejaVuSans-30" x="159.033203"/>
      </g>
     </g>
    </g>
    <g id="xtick_17">
     <g id="line2d_40">
      <g>
       <use xlink:href="#me66d20cf4e" x="661.717361" y="191.401875" style="stroke: #000000; stroke-width: 0.8"/>
      </g>
     </g>
     <g id="text_40">
      <!-- 3.08 -->
      <g transform="translate(650.584548 206.000313) scale(0.1 -0.1)">
       <use xlink:href="#DejaVuSans-33"/>
       <use xlink:href="#DejaVuSans-2e" x="63.623047"/>
       <use xlink:href="#DejaVuSans-30" x="95.410156"/>
       <use xlink:href="#DejaVuSans-38" x="159.033203"/>
      </g>
     </g>
    </g>
    <g id="xtick_18">
     <g id="line2d_41">
      <g>
       <use xlink:href="#me66d20cf4e" x="691.060395" y="191.401875" style="stroke: #000000; stroke-width: 0.8"/>
      </g>
     </g>
     <g id="text_41">
      <!-- 6.17 -->
      <g transform="translate(679.927583 206.000313) scale(0.1 -0.1)">
       <use xlink:href="#DejaVuSans-36"/>
       <use xlink:href="#DejaVuSans-2e" x="63.623047"/>
       <use xlink:href="#DejaVuSans-31" x="95.410156"/>
       <use xlink:href="#DejaVuSans-37" x="159.033203"/>
      </g>
     </g>
    </g>
    <g id="xtick_19">
     <g id="line2d_42">
      <g>
       <use xlink:href="#me66d20cf4e" x="720.40343" y="191.401875" style="stroke: #000000; stroke-width: 0.8"/>
      </g>
     </g>
     <g id="text_42">
      <!-- 9.25 -->
      <g transform="translate(709.270617 206.000313) scale(0.1 -0.1)">
       <use xlink:href="#DejaVuSans-39"/>
       <use xlink:href="#DejaVuSans-2e" x="63.623047"/>
       <use xlink:href="#DejaVuSans-32" x="95.410156"/>
       <use xlink:href="#DejaVuSans-35" x="159.033203"/>
      </g>
     </g>
    </g>
    <g id="xtick_20">
     <g id="line2d_43">
      <g>
       <use xlink:href="#me66d20cf4e" x="749.746464" y="191.401875" style="stroke: #000000; stroke-width: 0.8"/>
      </g>
     </g>
     <g id="text_43">
      <!-- 12.33 -->
      <g transform="translate(735.432402 206.000313) scale(0.1 -0.1)">
       <use xlink:href="#DejaVuSans-31"/>
       <use xlink:href="#DejaVuSans-32" x="63.623047"/>
       <use xlink:href="#DejaVuSans-2e" x="127.246094"/>
       <use xlink:href="#DejaVuSans-33" x="159.033203"/>
       <use xlink:href="#DejaVuSans-33" x="222.65625"/>
      </g>
     </g>
    </g>
   </g>
   <g id="matplotlib.axis_8">
    <g id="ytick_21">
     <g id="line2d_44">
      <g>
       <use xlink:href="#m669eb07b2a" x="632.374326" y="185.075219" style="stroke: #000000; stroke-width: 0.8"/>
      </g>
     </g>
     <g id="text_44">
      <!-- 0.0 -->
      <g transform="translate(609.471201 188.874438) scale(0.1 -0.1)">
       <use xlink:href="#DejaVuSans-30"/>
       <use xlink:href="#DejaVuSans-2e" x="63.623047"/>
       <use xlink:href="#DejaVuSans-30" x="95.410156"/>
      </g>
     </g>
    </g>
    <g id="ytick_22">
     <g id="line2d_45">
      <g>
       <use xlink:href="#m669eb07b2a" x="632.374326" y="162.904594" style="stroke: #000000; stroke-width: 0.8"/>
      </g>
     </g>
     <g id="text_45">
      <!-- 0.2 -->
      <g transform="translate(609.471201 166.703813) scale(0.1 -0.1)">
       <use xlink:href="#DejaVuSans-30"/>
       <use xlink:href="#DejaVuSans-2e" x="63.623047"/>
       <use xlink:href="#DejaVuSans-32" x="95.410156"/>
      </g>
     </g>
    </g>
    <g id="ytick_23">
     <g id="line2d_46">
      <g>
       <use xlink:href="#m669eb07b2a" x="632.374326" y="140.733969" style="stroke: #000000; stroke-width: 0.8"/>
      </g>
     </g>
     <g id="text_46">
      <!-- 0.4 -->
      <g transform="translate(609.471201 144.533188) scale(0.1 -0.1)">
       <use xlink:href="#DejaVuSans-30"/>
       <use xlink:href="#DejaVuSans-2e" x="63.623047"/>
       <use xlink:href="#DejaVuSans-34" x="95.410156"/>
      </g>
     </g>
    </g>
    <g id="ytick_24">
     <g id="line2d_47">
      <g>
       <use xlink:href="#m669eb07b2a" x="632.374326" y="118.563344" style="stroke: #000000; stroke-width: 0.8"/>
      </g>
     </g>
     <g id="text_47">
      <!-- 0.6 -->
      <g transform="translate(609.471201 122.362562) scale(0.1 -0.1)">
       <use xlink:href="#DejaVuSans-30"/>
       <use xlink:href="#DejaVuSans-2e" x="63.623047"/>
       <use xlink:href="#DejaVuSans-36" x="95.410156"/>
      </g>
     </g>
    </g>
    <g id="ytick_25">
     <g id="line2d_48">
      <g>
       <use xlink:href="#m669eb07b2a" x="632.374326" y="96.392719" style="stroke: #000000; stroke-width: 0.8"/>
      </g>
     </g>
     <g id="text_48">
      <!-- 0.8 -->
      <g transform="translate(609.471201 100.191937) scale(0.1 -0.1)">
       <use xlink:href="#DejaVuSans-30"/>
       <use xlink:href="#DejaVuSans-2e" x="63.623047"/>
       <use xlink:href="#DejaVuSans-38" x="95.410156"/>
      </g>
     </g>
    </g>
    <g id="ytick_26">
     <g id="line2d_49">
      <g>
       <use xlink:href="#m669eb07b2a" x="632.374326" y="74.222093" style="stroke: #000000; stroke-width: 0.8"/>
      </g>
     </g>
     <g id="text_49">
      <!-- 1.0 -->
      <g transform="translate(609.471201 78.021312) scale(0.1 -0.1)">
       <use xlink:href="#DejaVuSans-31"/>
       <use xlink:href="#DejaVuSans-2e" x="63.623047"/>
       <use xlink:href="#DejaVuSans-30" x="95.410156"/>
      </g>
     </g>
    </g>
    <g id="ytick_27">
     <g id="line2d_50">
      <g>
       <use xlink:href="#m669eb07b2a" x="632.374326" y="52.051468" style="stroke: #000000; stroke-width: 0.8"/>
      </g>
     </g>
     <g id="text_50">
      <!-- 1.2 -->
      <g transform="translate(609.471201 55.850687) scale(0.1 -0.1)">
       <use xlink:href="#DejaVuSans-31"/>
       <use xlink:href="#DejaVuSans-2e" x="63.623047"/>
       <use xlink:href="#DejaVuSans-32" x="95.410156"/>
      </g>
     </g>
    </g>
   </g>
   <g id="line2d_51">
    <path d="M 632.374326 58.949858 
L 632.469517 59.251379 
L 632.564708 61.244518 
L 632.755089 58.792447 
L 632.85028 57.584148 
L 632.945471 57.648443 
L 633.231043 59.158262 
L 633.421425 59.120572 
L 633.611806 58.964269 
L 634.182951 59.698117 
L 634.849286 61.326549 
L 635.610813 64.392747 
L 636.181957 68.255978 
L 637.514628 80.636055 
L 638.466536 91.168654 
L 638.94249 97.13621 
L 639.418444 103.167396 
L 639.513635 103.167396 
L 639.799207 107.578464 
L 642.940503 139.693169 
L 643.226075 141.145567 
L 643.321266 141.145567 
L 643.511648 144.136938 
L 643.702029 144.136938 
L 643.892411 146.971342 
L 644.939509 153.816855 
L 646.081799 159.45817 
L 647.128897 163.318409 
L 647.890424 165.24559 
L 647.985614 165.24559 
L 648.271187 166.052712 
L 649.032713 167.245713 
L 649.603858 167.922139 
L 649.88943 168.181203 
L 650.555765 168.658536 
L 650.936529 168.7889 
L 652.2692 169.245171 
L 652.459581 169.254261 
L 653.221107 169.381742 
L 653.316298 169.333078 
L 653.50668 169.377086 
L 654.458587 169.370435 
L 654.934541 169.336514 
L 655.124923 169.387285 
L 655.410495 169.453686 
L 655.696068 169.368994 
L 656.172022 169.449806 
L 661.978659 169.674838 
L 662.264232 169.74523 
L 663.216139 169.853201 
L 663.977666 169.986335 
L 664.263238 170.065928 
L 664.739192 170.20915 
L 665.024764 170.316788 
L 667.023771 171.483739 
L 667.690106 172.138881 
L 668.070869 172.502036 
L 668.927586 173.651915 
L 671.307356 177.931799 
L 671.973691 179.74682 
L 672.164073 180.134362 
L 673.02079 182.074469 
L 674.353556 183.857742 
L 675.591036 184.635613 
L 676.447753 184.763165 
L 676.828516 184.791758 
L 677.494852 184.563679 
L 677.780424 184.385454 
L 678.637236 183.560966 
L 678.732427 183.551244 
L 680.160289 181.497656 
L 681.302578 179.392068 
L 681.49296 179.260108 
L 681.968914 178.463362 
L 682.349772 177.83876 
L 682.635345 177.582634 
L 683.396871 176.573028 
L 683.492062 176.573982 
L 683.872825 175.930224 
L 683.968015 176.002545 
L 684.063206 176.045755 
L 684.634351 175.322383 
L 684.729542 175.473654 
L 684.919923 175.39752 
L 685.205496 175.092474 
L 685.491068 175.033223 
L 685.967022 174.819797 
L 686.538262 174.68347 
L 686.728643 174.520306 
L 687.014216 174.54813 
L 687.204597 174.588369 
L 687.58536 174.467307 
L 687.775742 174.56611 
L 687.870933 174.56611 
L 688.061314 174.385497 
L 688.72765 174.350501 
L 688.918031 174.315083 
L 690.060321 174.277526 
L 690.155511 174.17246 
L 690.441084 174.25438 
L 691.678659 174.164933 
L 691.964232 174.126788 
L 692.154613 174.198543 
L 692.535376 174.179155 
L 692.725758 174.218375 
L 692.916139 174.168214 
L 693.106521 174.27501 
L 693.677666 174.071816 
L 694.24881 174.218475 
L 694.915241 174.168668 
L 697.770964 174.305982 
L 698.4373 174.289809 
L 704.815273 174.289809 
L 705.005654 175.86563 
L 705.67199 176.196394 
L 706.147944 176.238063 
L 707.575901 176.323842 
L 710.050861 176.814788 
L 710.431624 176.854041 
L 711.097959 177.453889 
L 711.383532 177.801547 
L 711.574009 177.924095 
L 711.954772 178.25477 
L 713.00187 179.125377 
L 713.668206 179.521123 
L 713.858587 179.745091 
L 714.334541 180.124496 
L 716.143261 181.015368 
L 716.238452 181.029124 
L 716.524024 181.231365 
L 716.904788 181.37135 
L 717.095169 181.472592 
L 717.285551 181.516923 
L 717.475932 181.631467 
L 717.856695 181.852808 
L 718.237459 182.062874 
L 718.523031 182.184702 
L 724.901004 184.382971 
L 725.186576 184.341349 
L 725.376958 184.271394 
L 725.567339 184.305443 
L 726.709628 184.266939 
L 726.90001 184.358617 
L 727.280773 184.388616 
L 727.471155 184.509473 
L 728.517968 184.874722 
L 728.898731 184.959107 
L 729.660257 184.97068 
L 730.04102 184.959776 
L 731.088119 184.888793 
L 731.373691 184.956398 
L 733.182316 184.92726 
L 733.65827 184.995541 
L 733.848652 184.883477 
L 734.229415 184.79913 
L 734.515939 184.817566 
L 735.277465 184.932859 
L 736.229373 184.792915 
L 736.895708 185.029602 
L 737.466853 184.902674 
L 738.037998 185.007712 
L 738.513952 184.988316 
L 741.369675 184.813454 
L 742.511965 184.856485 
L 742.702346 184.786834 
L 743.083109 184.72828 
L 743.939826 185.028922 
L 744.510971 184.666527 
L 744.891734 184.695456 
L 745.082116 184.762058 
L 745.177307 184.762058 
L 745.367688 184.937345 
L 745.65326 184.9709 
L 745.843642 184.777756 
L 746.224405 184.687462 
L 747.461885 184.8817 
L 747.747458 184.812715 
L 748.03303 184.902736 
L 748.223412 184.810044 
L 748.413793 184.918533 
L 748.794556 184.953306 
L 749.175319 184.948625 
L 749.746464 184.857619 
L 749.746464 184.857619 
" clip-path="url(#pd5fab625dd)" style="fill: none; stroke: #ff0000; stroke-width: 1.5; stroke-linecap: square"/>
   </g>
   <g id="patch_18">
    <path d="M 632.374326 191.401875 
L 632.374326 51.211875 
" style="fill: none; stroke: #000000; stroke-width: 0.8; stroke-linejoin: miter; stroke-linecap: square"/>
   </g>
   <g id="patch_19">
    <path d="M 749.746464 191.401875 
L 749.746464 51.211875 
" style="fill: none; stroke: #000000; stroke-width: 0.8; stroke-linejoin: miter; stroke-linecap: square"/>
   </g>
   <g id="patch_20">
    <path d="M 632.374326 191.401875 
L 749.746464 191.401875 
" style="fill: none; stroke: #000000; stroke-width: 0.8; stroke-linejoin: miter; stroke-linecap: square"/>
   </g>
   <g id="patch_21">
    <path d="M 632.374326 51.211875 
L 749.746464 51.211875 
" style="fill: none; stroke: #000000; stroke-width: 0.8; stroke-linejoin: miter; stroke-linecap: square"/>
   </g>
   <g id="text_51">
    <!-- Drone 4 (Follower) -->
    <g transform="translate(635.655083 45.211875) scale(0.12 -0.12)">
     <use xlink:href="#DejaVuSans-44"/>
     <use xlink:href="#DejaVuSans-72" x="77.001953"/>
     <use xlink:href="#DejaVuSans-6f" x="115.865234"/>
     <use xlink:href="#DejaVuSans-6e" x="177.046875"/>
     <use xlink:href="#DejaVuSans-65" x="240.425781"/>
     <use xlink:href="#DejaVuSans-20" x="301.949219"/>
     <use xlink:href="#DejaVuSans-34" x="333.736328"/>
     <use xlink:href="#DejaVuSans-20" x="397.359375"/>
     <use xlink:href="#DejaVuSans-28" x="429.146484"/>
     <use xlink:href="#DejaVuSans-46" x="468.160156"/>
     <use xlink:href="#DejaVuSans-6f" x="522.054688"/>
     <use xlink:href="#DejaVuSans-6c" x="583.236328"/>
     <use xlink:href="#DejaVuSans-6c" x="611.019531"/>
     <use xlink:href="#DejaVuSans-6f" x="638.802734"/>
     <use xlink:href="#DejaVuSans-77" x="699.984375"/>
     <use xlink:href="#DejaVuSans-65" x="781.771484"/>
     <use xlink:href="#DejaVuSans-72" x="843.294922"/>
     <use xlink:href="#DejaVuSans-29" x="884.408203"/>
    </g>
   </g>
  </g>
  <g id="axes_5">
   <g id="legend_1">
    <g id="patch_22">
     <path d="M 776.689062 130.145938 
L 833.059375 130.145938 
Q 835.059375 130.145938 835.059375 128.145938 
L 835.059375 114.467813 
Q 835.059375 112.467813 833.059375 112.467813 
L 776.689062 112.467813 
Q 774.689062 112.467813 774.689062 114.467813 
L 774.689062 128.145938 
Q 774.689062 130.145938 776.689062 130.145938 
z
" style="fill: #ffffff; opacity: 0.8; stroke: #cccccc; stroke-linejoin: miter"/>
    </g>
    <g id="line2d_52">
     <path d="M 778.689062 120.56625 
L 788.689062 120.56625 
L 798.689062 120.56625 
" style="fill: none; stroke: #ff0000; stroke-width: 1.5; stroke-linecap: square"/>
    </g>
    <g id="text_52">
     <!-- Error -->
     <g transform="translate(806.689062 124.06625) scale(0.1 -0.1)">
      <defs>
       <path id="DejaVuSans-45" d="M 628 4666 
L 3578 4666 
L 3578 4134 
L 1259 4134 
L 1259 2753 
L 3481 2753 
L 3481 2222 
L 1259 2222 
L 1259 531 
L 3634 531 
L 3634 0 
L 628 0 
L 628 4666 
z
" transform="scale(0.015625)"/>
      </defs>
      <use xlink:href="#DejaVuSans-45"/>
      <use xlink:href="#DejaVuSans-72" x="63.183594"/>
      <use xlink:href="#DejaVuSans-72" x="102.546875"/>
      <use xlink:href="#DejaVuSans-6f" x="141.410156"/>
      <use xlink:href="#DejaVuSans-72" x="202.591797"/>
     </g>
    </g>
   </g>
  </g>
  <g id="text_53">
   <!-- Feedback Control Error -->
   <g transform="translate(350.165 16.318125) scale(0.12 -0.12)">
    <defs>
     <path id="DejaVuSans-62" d="M 3116 1747 
Q 3116 2381 2855 2742 
Q 2594 3103 2138 3103 
Q 1681 3103 1420 2742 
Q 1159 2381 1159 1747 
Q 1159 1113 1420 752 
Q 1681 391 2138 391 
Q 2594 391 2855 752 
Q 3116 1113 3116 1747 
z
M 1159 2969 
Q 1341 3281 1617 3432 
Q 1894 3584 2278 3584 
Q 2916 3584 3314 3078 
Q 3713 2572 3713 1747 
Q 3713 922 3314 415 
Q 2916 -91 2278 -91 
Q 1894 -91 1617 61 
Q 1341 213 1159 525 
L 1159 0 
L 581 0 
L 581 4863 
L 1159 4863 
L 1159 2969 
z
" transform="scale(0.015625)"/>
     <path id="DejaVuSans-63" d="M 3122 3366 
L 3122 2828 
Q 2878 2963 2633 3030 
Q 2388 3097 2138 3097 
Q 1578 3097 1268 2742 
Q 959 2388 959 1747 
Q 959 1106 1268 751 
Q 1578 397 2138 397 
Q 2388 397 2633 464 
Q 2878 531 3122 666 
L 3122 134 
Q 2881 22 2623 -34 
Q 2366 -91 2075 -91 
Q 1284 -91 818 406 
Q 353 903 353 1747 
Q 353 2603 823 3093 
Q 1294 3584 2113 3584 
Q 2378 3584 2631 3529 
Q 2884 3475 3122 3366 
z
" transform="scale(0.015625)"/>
     <path id="DejaVuSans-6b" d="M 581 4863 
L 1159 4863 
L 1159 1991 
L 2875 3500 
L 3609 3500 
L 1753 1863 
L 3688 0 
L 2938 0 
L 1159 1709 
L 1159 0 
L 581 0 
L 581 4863 
z
" transform="scale(0.015625)"/>
     <path id="DejaVuSans-43" d="M 4122 4306 
L 4122 3641 
Q 3803 3938 3442 4084 
Q 3081 4231 2675 4231 
Q 1875 4231 1450 3742 
Q 1025 3253 1025 2328 
Q 1025 1406 1450 917 
Q 1875 428 2675 428 
Q 3081 428 3442 575 
Q 3803 722 4122 1019 
L 4122 359 
Q 3791 134 3420 21 
Q 3050 -91 2638 -91 
Q 1578 -91 968 557 
Q 359 1206 359 2328 
Q 359 3453 968 4101 
Q 1578 4750 2638 4750 
Q 3056 4750 3426 4639 
Q 3797 4528 4122 4306 
z
" transform="scale(0.015625)"/>
     <path id="DejaVuSans-74" d="M 1172 4494 
L 1172 3500 
L 2356 3500 
L 2356 3053 
L 1172 3053 
L 1172 1153 
Q 1172 725 1289 603 
Q 1406 481 1766 481 
L 2356 481 
L 2356 0 
L 1766 0 
Q 1100 0 847 248 
Q 594 497 594 1153 
L 594 3053 
L 172 3053 
L 172 3500 
L 594 3500 
L 594 4494 
L 1172 4494 
z
" transform="scale(0.015625)"/>
    </defs>
    <use xlink:href="#DejaVuSans-46"/>
    <use xlink:href="#DejaVuSans-65" x="52.019531"/>
    <use xlink:href="#DejaVuSans-65" x="113.542969"/>
    <use xlink:href="#DejaVuSans-64" x="175.066406"/>
    <use xlink:href="#DejaVuSans-62" x="238.542969"/>
    <use xlink:href="#DejaVuSans-61" x="302.019531"/>
    <use xlink:href="#DejaVuSans-63" x="363.298828"/>
    <use xlink:href="#DejaVuSans-6b" x="418.279297"/>
    <use xlink:href="#DejaVuSans-20" x="476.189453"/>
    <use xlink:href="#DejaVuSans-43" x="507.976562"/>
    <use xlink:href="#DejaVuSans-6f" x="577.800781"/>
    <use xlink:href="#DejaVuSans-6e" x="638.982422"/>
    <use xlink:href="#DejaVuSans-74" x="702.361328"/>
    <use xlink:href="#DejaVuSans-72" x="741.570312"/>
    <use xlink:href="#DejaVuSans-6f" x="780.433594"/>
    <use xlink:href="#DejaVuSans-6c" x="841.615234"/>
    <use xlink:href="#DejaVuSans-20" x="869.398438"/>
    <use xlink:href="#DejaVuSans-45" x="901.185547"/>
    <use xlink:href="#DejaVuSans-72" x="964.369141"/>
    <use xlink:href="#DejaVuSans-72" x="1003.732422"/>
    <use xlink:href="#DejaVuSans-6f" x="1042.595703"/>
    <use xlink:href="#DejaVuSans-72" x="1103.777344"/>
   </g>
  </g>
 </g>
 <defs>
  <clipPath id="p1421e1ce14">
   <rect x="26.925" y="51.211875" width="117.372138" height="140.19"/>
  </clipPath>
  <clipPath id="p98edc6a3d3">
   <rect x="228.741442" y="51.211875" width="117.372138" height="140.19"/>
  </clipPath>
  <clipPath id="p5575d455e7">
   <rect x="430.557884" y="51.211875" width="117.372138" height="140.19"/>
  </clipPath>
  <clipPath id="pd5fab625dd">
   <rect x="632.374326" y="51.211875" width="117.372138" height="140.19"/>
  </clipPath>
 </defs>
</svg>
