<?xml version="1.0" encoding="utf-8" standalone="no"?>
<!DOCTYPE svg PUBLIC "-//W3C//DTD SVG 1.1//EN"
  "http://www.w3.org/Graphics/SVG/1.1/DTD/svg11.dtd">
<svg xmlns:xlink="http://www.w3.org/1999/xlink" width="1144.8pt" height="208.8pt" viewBox="0 0 1144.8 208.8" xmlns="http://www.w3.org/2000/svg" version="1.1">
 <metadata>
  <rdf:RDF xmlns:dc="http://purl.org/dc/elements/1.1/" xmlns:cc="http://creativecommons.org/ns#" xmlns:rdf="http://www.w3.org/1999/02/22-rdf-syntax-ns#">
   <cc:Work>
    <dc:type rdf:resource="http://purl.org/dc/dcmitype/StillImage"/>
    <dc:date>2023-09-14T11:15:26.137043</dc:date>
    <dc:format>image/svg+xml</dc:format>
    <dc:creator>
     <cc:Agent>
      <dc:title>Matplotlib v3.7.1, https://matplotlib.org/</dc:title>
     </cc:Agent>
    </dc:creator>
   </cc:Work>
  </rdf:RDF>
 </metadata>
 <defs>
  <style type="text/css">*{stroke-linejoin: round; stroke-linecap: butt}</style>
 </defs>
 <g id="figure_1">
  <g id="patch_1">
   <path d="M 0 208.8 
L 1144.8 208.8 
L 1144.8 0 
L 0 0 
L 0 208.8 
z
" style="fill: none"/>
  </g>
  <g id="axes_1">
   <g id="patch_2">
    <path d="M 26.925 184.921875 
L 250.922481 184.921875 
L 250.922481 22.318125 
L 26.925 22.318125 
L 26.925 184.921875 
z
" style="fill: none"/>
   </g>
   <g id="matplotlib.axis_1">
    <g id="xtick_1">
     <g id="line2d_1">
      <defs>
       <path id="mbd1d6a70ef" d="M 0 0 
L 0 3.5 
" style="stroke: #000000; stroke-width: 0.8"/>
      </defs>
      <g>
       <use xlink:href="#mbd1d6a70ef" x="35.32688" y="184.921875" style="stroke: #000000; stroke-width: 0.8"/>
      </g>
     </g>
     <g id="text_1">
      <!-- 0.00 -->
      <g transform="translate(24.194067 199.520313) scale(0.1 -0.1)">
       <defs>
        <path id="DejaVuSans-30" d="M 2034 4250 
Q 1547 4250 1301 3770 
Q 1056 3291 1056 2328 
Q 1056 1369 1301 889 
Q 1547 409 2034 409 
Q 2525 409 2770 889 
Q 3016 1369 3016 2328 
Q 3016 3291 2770 3770 
Q 2525 4250 2034 4250 
z
M 2034 4750 
Q 2819 4750 3233 4129 
Q 3647 3509 3647 2328 
Q 3647 1150 3233 529 
Q 2819 -91 2034 -91 
Q 1250 -91 836 529 
Q 422 1150 422 2328 
Q 422 3509 836 4129 
Q 1250 4750 2034 4750 
z
" transform="scale(0.015625)"/>
        <path id="DejaVuSans-2e" d="M 684 794 
L 1344 794 
L 1344 0 
L 684 0 
L 684 794 
z
" transform="scale(0.015625)"/>
       </defs>
       <use xlink:href="#DejaVuSans-30"/>
       <use xlink:href="#DejaVuSans-2e" x="63.623047"/>
       <use xlink:href="#DejaVuSans-30" x="95.410156"/>
       <use xlink:href="#DejaVuSans-30" x="159.033203"/>
      </g>
     </g>
    </g>
    <g id="xtick_2">
     <g id="line2d_2">
      <g>
       <use xlink:href="#mbd1d6a70ef" x="76.765624" y="184.921875" style="stroke: #000000; stroke-width: 0.8"/>
      </g>
     </g>
     <g id="text_2">
      <!-- 2.47 -->
      <g transform="translate(65.632812 199.520313) scale(0.1 -0.1)">
       <defs>
        <path id="DejaVuSans-32" d="M 1228 531 
L 3431 531 
L 3431 0 
L 469 0 
L 469 531 
Q 828 903 1448 1529 
Q 2069 2156 2228 2338 
Q 2531 2678 2651 2914 
Q 2772 3150 2772 3378 
Q 2772 3750 2511 3984 
Q 2250 4219 1831 4219 
Q 1534 4219 1204 4116 
Q 875 4013 500 3803 
L 500 4441 
Q 881 4594 1212 4672 
Q 1544 4750 1819 4750 
Q 2544 4750 2975 4387 
Q 3406 4025 3406 3419 
Q 3406 3131 3298 2873 
Q 3191 2616 2906 2266 
Q 2828 2175 2409 1742 
Q 1991 1309 1228 531 
z
" transform="scale(0.015625)"/>
        <path id="DejaVuSans-34" d="M 2419 4116 
L 825 1625 
L 2419 1625 
L 2419 4116 
z
M 2253 4666 
L 3047 4666 
L 3047 1625 
L 3713 1625 
L 3713 1100 
L 3047 1100 
L 3047 0 
L 2419 0 
L 2419 1100 
L 313 1100 
L 313 1709 
L 2253 4666 
z
" transform="scale(0.015625)"/>
        <path id="DejaVuSans-37" d="M 525 4666 
L 3525 4666 
L 3525 4397 
L 1831 0 
L 1172 0 
L 2766 4134 
L 525 4134 
L 525 4666 
z
" transform="scale(0.015625)"/>
       </defs>
       <use xlink:href="#DejaVuSans-32"/>
       <use xlink:href="#DejaVuSans-2e" x="63.623047"/>
       <use xlink:href="#DejaVuSans-34" x="95.410156"/>
       <use xlink:href="#DejaVuSans-37" x="159.033203"/>
      </g>
     </g>
    </g>
    <g id="xtick_3">
     <g id="line2d_3">
      <g>
       <use xlink:href="#mbd1d6a70ef" x="118.204369" y="184.921875" style="stroke: #000000; stroke-width: 0.8"/>
      </g>
     </g>
     <g id="text_3">
      <!-- 4.93 -->
      <g transform="translate(107.071556 199.520313) scale(0.1 -0.1)">
       <defs>
        <path id="DejaVuSans-39" d="M 703 97 
L 703 672 
Q 941 559 1184 500 
Q 1428 441 1663 441 
Q 2288 441 2617 861 
Q 2947 1281 2994 2138 
Q 2813 1869 2534 1725 
Q 2256 1581 1919 1581 
Q 1219 1581 811 2004 
Q 403 2428 403 3163 
Q 403 3881 828 4315 
Q 1253 4750 1959 4750 
Q 2769 4750 3195 4129 
Q 3622 3509 3622 2328 
Q 3622 1225 3098 567 
Q 2575 -91 1691 -91 
Q 1453 -91 1209 -44 
Q 966 3 703 97 
z
M 1959 2075 
Q 2384 2075 2632 2365 
Q 2881 2656 2881 3163 
Q 2881 3666 2632 3958 
Q 2384 4250 1959 4250 
Q 1534 4250 1286 3958 
Q 1038 3666 1038 3163 
Q 1038 2656 1286 2365 
Q 1534 2075 1959 2075 
z
" transform="scale(0.015625)"/>
        <path id="DejaVuSans-33" d="M 2597 2516 
Q 3050 2419 3304 2112 
Q 3559 1806 3559 1356 
Q 3559 666 3084 287 
Q 2609 -91 1734 -91 
Q 1441 -91 1130 -33 
Q 819 25 488 141 
L 488 750 
Q 750 597 1062 519 
Q 1375 441 1716 441 
Q 2309 441 2620 675 
Q 2931 909 2931 1356 
Q 2931 1769 2642 2001 
Q 2353 2234 1838 2234 
L 1294 2234 
L 1294 2753 
L 1863 2753 
Q 2328 2753 2575 2939 
Q 2822 3125 2822 3475 
Q 2822 3834 2567 4026 
Q 2313 4219 1838 4219 
Q 1578 4219 1281 4162 
Q 984 4106 628 3988 
L 628 4550 
Q 988 4650 1302 4700 
Q 1616 4750 1894 4750 
Q 2613 4750 3031 4423 
Q 3450 4097 3450 3541 
Q 3450 3153 3228 2886 
Q 3006 2619 2597 2516 
z
" transform="scale(0.015625)"/>
       </defs>
       <use xlink:href="#DejaVuSans-34"/>
       <use xlink:href="#DejaVuSans-2e" x="63.623047"/>
       <use xlink:href="#DejaVuSans-39" x="95.410156"/>
       <use xlink:href="#DejaVuSans-33" x="159.033203"/>
      </g>
     </g>
    </g>
    <g id="xtick_4">
     <g id="line2d_4">
      <g>
       <use xlink:href="#mbd1d6a70ef" x="159.643113" y="184.921875" style="stroke: #000000; stroke-width: 0.8"/>
      </g>
     </g>
     <g id="text_4">
      <!-- 7.40 -->
      <g transform="translate(148.5103 199.520313) scale(0.1 -0.1)">
       <use xlink:href="#DejaVuSans-37"/>
       <use xlink:href="#DejaVuSans-2e" x="63.623047"/>
       <use xlink:href="#DejaVuSans-34" x="95.410156"/>
       <use xlink:href="#DejaVuSans-30" x="159.033203"/>
      </g>
     </g>
    </g>
    <g id="xtick_5">
     <g id="line2d_5">
      <g>
       <use xlink:href="#mbd1d6a70ef" x="201.081857" y="184.921875" style="stroke: #000000; stroke-width: 0.8"/>
      </g>
     </g>
     <g id="text_5">
      <!-- 9.86 -->
      <g transform="translate(189.949045 199.520313) scale(0.1 -0.1)">
       <defs>
        <path id="DejaVuSans-38" d="M 2034 2216 
Q 1584 2216 1326 1975 
Q 1069 1734 1069 1313 
Q 1069 891 1326 650 
Q 1584 409 2034 409 
Q 2484 409 2743 651 
Q 3003 894 3003 1313 
Q 3003 1734 2745 1975 
Q 2488 2216 2034 2216 
z
M 1403 2484 
Q 997 2584 770 2862 
Q 544 3141 544 3541 
Q 544 4100 942 4425 
Q 1341 4750 2034 4750 
Q 2731 4750 3128 4425 
Q 3525 4100 3525 3541 
Q 3525 3141 3298 2862 
Q 3072 2584 2669 2484 
Q 3125 2378 3379 2068 
Q 3634 1759 3634 1313 
Q 3634 634 3220 271 
Q 2806 -91 2034 -91 
Q 1263 -91 848 271 
Q 434 634 434 1313 
Q 434 1759 690 2068 
Q 947 2378 1403 2484 
z
M 1172 3481 
Q 1172 3119 1398 2916 
Q 1625 2713 2034 2713 
Q 2441 2713 2670 2916 
Q 2900 3119 2900 3481 
Q 2900 3844 2670 4047 
Q 2441 4250 2034 4250 
Q 1625 4250 1398 4047 
Q 1172 3844 1172 3481 
z
" transform="scale(0.015625)"/>
        <path id="DejaVuSans-36" d="M 2113 2584 
Q 1688 2584 1439 2293 
Q 1191 2003 1191 1497 
Q 1191 994 1439 701 
Q 1688 409 2113 409 
Q 2538 409 2786 701 
Q 3034 994 3034 1497 
Q 3034 2003 2786 2293 
Q 2538 2584 2113 2584 
z
M 3366 4563 
L 3366 3988 
Q 3128 4100 2886 4159 
Q 2644 4219 2406 4219 
Q 1781 4219 1451 3797 
Q 1122 3375 1075 2522 
Q 1259 2794 1537 2939 
Q 1816 3084 2150 3084 
Q 2853 3084 3261 2657 
Q 3669 2231 3669 1497 
Q 3669 778 3244 343 
Q 2819 -91 2113 -91 
Q 1303 -91 875 529 
Q 447 1150 447 2328 
Q 447 3434 972 4092 
Q 1497 4750 2381 4750 
Q 2619 4750 2861 4703 
Q 3103 4656 3366 4563 
z
" transform="scale(0.015625)"/>
       </defs>
       <use xlink:href="#DejaVuSans-39"/>
       <use xlink:href="#DejaVuSans-2e" x="63.623047"/>
       <use xlink:href="#DejaVuSans-38" x="95.410156"/>
       <use xlink:href="#DejaVuSans-36" x="159.033203"/>
      </g>
     </g>
    </g>
    <g id="xtick_6">
     <g id="line2d_6">
      <g>
       <use xlink:href="#mbd1d6a70ef" x="242.520601" y="184.921875" style="stroke: #000000; stroke-width: 0.8"/>
      </g>
     </g>
     <g id="text_6">
      <!-- 12.33 -->
      <g transform="translate(228.206539 199.520313) scale(0.1 -0.1)">
       <defs>
        <path id="DejaVuSans-31" d="M 794 531 
L 1825 531 
L 1825 4091 
L 703 3866 
L 703 4441 
L 1819 4666 
L 2450 4666 
L 2450 531 
L 3481 531 
L 3481 0 
L 794 0 
L 794 531 
z
" transform="scale(0.015625)"/>
       </defs>
       <use xlink:href="#DejaVuSans-31"/>
       <use xlink:href="#DejaVuSans-32" x="63.623047"/>
       <use xlink:href="#DejaVuSans-2e" x="127.246094"/>
       <use xlink:href="#DejaVuSans-33" x="159.033203"/>
       <use xlink:href="#DejaVuSans-33" x="222.65625"/>
      </g>
     </g>
    </g>
   </g>
   <g id="matplotlib.axis_2">
    <g id="ytick_1">
     <g id="line2d_7">
      <defs>
       <path id="mb7a9a82ddc" d="M 0 0 
L -3.5 0 
" style="stroke: #000000; stroke-width: 0.8"/>
      </defs>
      <g>
       <use xlink:href="#mb7a9a82ddc" x="26.925" y="177.584757" style="stroke: #000000; stroke-width: 0.8"/>
      </g>
     </g>
     <g id="text_7">
      <!-- 0 -->
      <g transform="translate(13.5625 181.383975) scale(0.1 -0.1)">
       <use xlink:href="#DejaVuSans-30"/>
      </g>
     </g>
    </g>
    <g id="ytick_2">
     <g id="line2d_8">
      <g>
       <use xlink:href="#mb7a9a82ddc" x="26.925" y="151.908352" style="stroke: #000000; stroke-width: 0.8"/>
      </g>
     </g>
     <g id="text_8">
      <!-- 2 -->
      <g transform="translate(13.5625 155.70757) scale(0.1 -0.1)">
       <use xlink:href="#DejaVuSans-32"/>
      </g>
     </g>
    </g>
    <g id="ytick_3">
     <g id="line2d_9">
      <g>
       <use xlink:href="#mb7a9a82ddc" x="26.925" y="126.231946" style="stroke: #000000; stroke-width: 0.8"/>
      </g>
     </g>
     <g id="text_9">
      <!-- 4 -->
      <g transform="translate(13.5625 130.031165) scale(0.1 -0.1)">
       <use xlink:href="#DejaVuSans-34"/>
      </g>
     </g>
    </g>
    <g id="ytick_4">
     <g id="line2d_10">
      <g>
       <use xlink:href="#mb7a9a82ddc" x="26.925" y="100.555541" style="stroke: #000000; stroke-width: 0.8"/>
      </g>
     </g>
     <g id="text_10">
      <!-- 6 -->
      <g transform="translate(13.5625 104.35476) scale(0.1 -0.1)">
       <use xlink:href="#DejaVuSans-36"/>
      </g>
     </g>
    </g>
    <g id="ytick_5">
     <g id="line2d_11">
      <g>
       <use xlink:href="#mb7a9a82ddc" x="26.925" y="74.879136" style="stroke: #000000; stroke-width: 0.8"/>
      </g>
     </g>
     <g id="text_11">
      <!-- 8 -->
      <g transform="translate(13.5625 78.678355) scale(0.1 -0.1)">
       <use xlink:href="#DejaVuSans-38"/>
      </g>
     </g>
    </g>
    <g id="ytick_6">
     <g id="line2d_12">
      <g>
       <use xlink:href="#mb7a9a82ddc" x="26.925" y="49.202731" style="stroke: #000000; stroke-width: 0.8"/>
      </g>
     </g>
     <g id="text_12">
      <!-- 10 -->
      <g transform="translate(7.2 53.00195) scale(0.1 -0.1)">
       <use xlink:href="#DejaVuSans-31"/>
       <use xlink:href="#DejaVuSans-30" x="63.623047"/>
      </g>
     </g>
    </g>
    <g id="ytick_7">
     <g id="line2d_13">
      <g>
       <use xlink:href="#mb7a9a82ddc" x="26.925" y="23.526326" style="stroke: #000000; stroke-width: 0.8"/>
      </g>
     </g>
     <g id="text_13">
      <!-- 12 -->
      <g transform="translate(7.2 27.325545) scale(0.1 -0.1)">
       <use xlink:href="#DejaVuSans-31"/>
       <use xlink:href="#DejaVuSans-32" x="63.623047"/>
      </g>
     </g>
    </g>
   </g>
   <g id="line2d_14">
    <path d="M 35.32688 76.485709 
L 35.662955 76.450404 
L 35.99903 77.421999 
L 36.335106 77.813308 
L 36.503143 77.839626 
L 36.671181 78.289605 
L 36.839218 77.827301 
L 37.343331 77.865045 
L 37.511369 78.204873 
L 37.679406 77.865045 
L 37.847444 78.167385 
L 38.015482 77.827301 
L 38.85567 77.898296 
L 39.023707 78.238509 
L 39.191745 77.898296 
L 39.359782 78.31695 
L 39.695858 78.295767 
L 39.863895 78.366249 
L 40.19997 78.783362 
L 40.368008 78.737273 
L 40.536046 79.119595 
L 41.376234 79.213057 
L 41.544271 79.537992 
L 41.712309 79.561742 
L 41.880346 79.940213 
L 42.216422 79.987329 
L 42.720534 80.74581 
L 43.05661 80.86957 
L 43.560722 81.938479 
L 43.72876 81.960689 
L 44.568948 83.544666 
L 44.736986 83.607317 
L 46.585399 87.415384 
L 47.9297 90.792217 
L 48.265775 91.546204 
L 48.769888 93.118242 
L 48.937926 93.516868 
L 49.105963 94.727511 
L 49.274001 94.321567 
L 49.442022 95.088521 
L 49.610059 95.231539 
L 50.28221 97.62612 
L 50.450247 97.91896 
L 51.122398 99.719261 
L 51.458473 100.792791 
L 51.794548 102.112302 
L 51.962586 102.121032 
L 52.634753 104.501491 
L 53.138866 105.946303 
L 53.306903 106.712487 
L 53.474941 106.860896 
L 53.642978 107.844303 
L 53.811016 107.891034 
L 54.147091 109.004362 
L 57.843918 119.576494 
L 58.011956 119.829278 
L 58.348031 120.756967 
L 59.86037 124.764668 
L 60.700558 126.860505 
L 60.868595 127.097498 
L 63.557197 134.065818 
L 63.725234 134.123076 
L 64.229347 135.418579 
L 64.901498 136.981502 
L 65.237573 137.943725 
L 65.40561 138.182644 
L 65.909723 139.346684 
L 66.245798 140.025183 
L 66.413836 140.567212 
L 66.581874 140.70381 
L 66.917949 141.495029 
L 68.094212 144.034297 
L 68.598325 145.074448 
L 68.766362 145.884795 
L 69.102438 146.080449 
L 69.774588 147.571607 
L 69.942626 147.775606 
L 70.614776 149.237235 
L 71.454964 150.690391 
L 71.623002 151.20148 
L 71.791039 151.347836 
L 72.127114 152.072809 
L 72.295152 152.206326 
L 72.46319 152.709327 
L 72.631227 152.852473 
L 73.471415 154.466492 
L 74.479641 156.141107 
L 74.983754 157.084972 
L 75.487866 157.714172 
L 76.328054 159.069886 
L 76.832167 159.957519 
L 77.504318 160.965447 
L 81.369182 166.004659 
L 83.385634 168.06903 
L 83.889746 168.674864 
L 86.914423 171.291958 
L 87.250498 171.487894 
L 88.258724 172.234038 
L 88.426762 172.297381 
L 88.762837 172.556084 
L 88.930874 172.570989 
L 89.26695 172.827137 
L 90.275175 173.504712 
L 90.779288 173.651208 
L 94.644153 175.290621 
L 94.980228 175.408476 
L 95.652378 175.512555 
L 96.828642 175.882796 
L 98.34098 176.217026 
L 99.01313 176.227951 
L 99.349206 176.445249 
L 100.021356 176.500427 
L 100.525469 176.572435 
L 101.029582 176.621142 
L 101.365657 176.686724 
L 102.54192 176.74488 
L 102.877995 176.849265 
L 103.21407 176.897202 
L 103.550146 176.902668 
L 103.886221 176.970087 
L 104.558371 177.014941 
L 104.894446 177.081991 
L 106.238747 177.192659 
L 110.943968 177.374323 
L 111.112006 29.766976 
L 112.288269 29.781098 
L 114.30472 29.781098 
L 116.489377 30.64511 
L 118.33779 32.328198 
L 119.514054 33.918851 
L 120.690317 35.94472 
L 121.86658 38.5727 
L 122.202655 39.221029 
L 124.723387 46.225552 
L 125.2275 47.862423 
L 132.78936 72.757238 
L 133.125435 73.666055 
L 134.133661 76.858402 
L 135.814037 82.12964 
L 136.486187 83.878716 
L 136.822262 85.011174 
L 137.326375 86.511447 
L 137.998526 88.581863 
L 138.502806 89.896624 
L 139.006919 91.221141 
L 140.687295 96.158072 
L 141.02337 96.873545 
L 141.863558 99.295087 
L 142.703746 101.314151 
L 143.543934 103.526173 
L 144.048047 104.968674 
L 144.384122 105.594022 
L 148.081118 115.047561 
L 148.585231 116.180276 
L 149.257381 117.902264 
L 149.425419 118.160312 
L 149.929531 119.405617 
L 150.097569 119.603454 
L 150.601682 120.987284 
L 154.298677 129.107704 
L 154.466715 129.285256 
L 155.138865 130.905052 
L 156.651203 133.922158 
L 156.819241 134.124231 
L 157.491391 135.621166 
L 157.827467 136.172567 
L 158.331579 137.255597 
L 158.667655 137.876581 
L 159.67588 139.949823 
L 160.180161 140.914999 
L 160.516236 141.411966 
L 164.717176 149.005891 
L 165.389327 150.020109 
L 167.405946 153.165853 
L 167.573983 153.307844 
L 168.582209 154.936884 
L 169.086322 155.533218 
L 171.270811 158.717991 
L 171.606886 159.083751 
L 172.615111 160.325334 
L 172.783149 160.440878 
L 173.455299 161.395655 
L 174.7996 163.104676 
L 177.152295 165.529274 
L 178.664633 166.881111 
L 180.176971 168.324189 
L 180.681084 168.688871 
L 183.369854 170.719926 
L 183.873967 171.053449 
L 184.378079 171.364108 
L 187.570794 173.132429 
L 192.107977 174.90043 
L 194.796579 175.639371 
L 197.989461 176.306101 
L 198.157499 176.827592 
L 198.997687 176.887975 
L 218.659262 177.464175 
L 228.573481 177.527664 
L 242.688639 177.524959 
L 242.688639 177.524959 
" clip-path="url(#paac339f928)" style="fill: none; stroke: #ff0000; stroke-width: 1.5; stroke-linecap: square"/>
   </g>
   <g id="patch_3">
    <path d="M 26.925 184.921875 
L 26.925 22.318125 
" style="fill: none; stroke: #000000; stroke-width: 0.8; stroke-linejoin: miter; stroke-linecap: square"/>
   </g>
   <g id="patch_4">
    <path d="M 250.922481 184.921875 
L 250.922481 22.318125 
" style="fill: none; stroke: #000000; stroke-width: 0.8; stroke-linejoin: miter; stroke-linecap: square"/>
   </g>
   <g id="patch_5">
    <path d="M 26.925 184.921875 
L 250.922481 184.921875 
" style="fill: none; stroke: #000000; stroke-width: 0.8; stroke-linejoin: miter; stroke-linecap: square"/>
   </g>
   <g id="patch_6">
    <path d="M 26.925 22.318125 
L 250.922481 22.318125 
" style="fill: none; stroke: #000000; stroke-width: 0.8; stroke-linejoin: miter; stroke-linecap: square"/>
   </g>
   <g id="text_14">
    <!-- Drone 1 (Leader) -->
    <g transform="translate(87.919053 16.318125) scale(0.12 -0.12)">
     <defs>
      <path id="DejaVuSans-44" d="M 1259 4147 
L 1259 519 
L 2022 519 
Q 2988 519 3436 956 
Q 3884 1394 3884 2338 
Q 3884 3275 3436 3711 
Q 2988 4147 2022 4147 
L 1259 4147 
z
M 628 4666 
L 1925 4666 
Q 3281 4666 3915 4102 
Q 4550 3538 4550 2338 
Q 4550 1131 3912 565 
Q 3275 0 1925 0 
L 628 0 
L 628 4666 
z
" transform="scale(0.015625)"/>
      <path id="DejaVuSans-72" d="M 2631 2963 
Q 2534 3019 2420 3045 
Q 2306 3072 2169 3072 
Q 1681 3072 1420 2755 
Q 1159 2438 1159 1844 
L 1159 0 
L 581 0 
L 581 3500 
L 1159 3500 
L 1159 2956 
Q 1341 3275 1631 3429 
Q 1922 3584 2338 3584 
Q 2397 3584 2469 3576 
Q 2541 3569 2628 3553 
L 2631 2963 
z
" transform="scale(0.015625)"/>
      <path id="DejaVuSans-6f" d="M 1959 3097 
Q 1497 3097 1228 2736 
Q 959 2375 959 1747 
Q 959 1119 1226 758 
Q 1494 397 1959 397 
Q 2419 397 2687 759 
Q 2956 1122 2956 1747 
Q 2956 2369 2687 2733 
Q 2419 3097 1959 3097 
z
M 1959 3584 
Q 2709 3584 3137 3096 
Q 3566 2609 3566 1747 
Q 3566 888 3137 398 
Q 2709 -91 1959 -91 
Q 1206 -91 779 398 
Q 353 888 353 1747 
Q 353 2609 779 3096 
Q 1206 3584 1959 3584 
z
" transform="scale(0.015625)"/>
      <path id="DejaVuSans-6e" d="M 3513 2113 
L 3513 0 
L 2938 0 
L 2938 2094 
Q 2938 2591 2744 2837 
Q 2550 3084 2163 3084 
Q 1697 3084 1428 2787 
Q 1159 2491 1159 1978 
L 1159 0 
L 581 0 
L 581 3500 
L 1159 3500 
L 1159 2956 
Q 1366 3272 1645 3428 
Q 1925 3584 2291 3584 
Q 2894 3584 3203 3211 
Q 3513 2838 3513 2113 
z
" transform="scale(0.015625)"/>
      <path id="DejaVuSans-65" d="M 3597 1894 
L 3597 1613 
L 953 1613 
Q 991 1019 1311 708 
Q 1631 397 2203 397 
Q 2534 397 2845 478 
Q 3156 559 3463 722 
L 3463 178 
Q 3153 47 2828 -22 
Q 2503 -91 2169 -91 
Q 1331 -91 842 396 
Q 353 884 353 1716 
Q 353 2575 817 3079 
Q 1281 3584 2069 3584 
Q 2775 3584 3186 3129 
Q 3597 2675 3597 1894 
z
M 3022 2063 
Q 3016 2534 2758 2815 
Q 2500 3097 2075 3097 
Q 1594 3097 1305 2825 
Q 1016 2553 972 2059 
L 3022 2063 
z
" transform="scale(0.015625)"/>
      <path id="DejaVuSans-20" transform="scale(0.015625)"/>
      <path id="DejaVuSans-28" d="M 1984 4856 
Q 1566 4138 1362 3434 
Q 1159 2731 1159 2009 
Q 1159 1288 1364 580 
Q 1569 -128 1984 -844 
L 1484 -844 
Q 1016 -109 783 600 
Q 550 1309 550 2009 
Q 550 2706 781 3412 
Q 1013 4119 1484 4856 
L 1984 4856 
z
" transform="scale(0.015625)"/>
      <path id="DejaVuSans-4c" d="M 628 4666 
L 1259 4666 
L 1259 531 
L 3531 531 
L 3531 0 
L 628 0 
L 628 4666 
z
" transform="scale(0.015625)"/>
      <path id="DejaVuSans-61" d="M 2194 1759 
Q 1497 1759 1228 1600 
Q 959 1441 959 1056 
Q 959 750 1161 570 
Q 1363 391 1709 391 
Q 2188 391 2477 730 
Q 2766 1069 2766 1631 
L 2766 1759 
L 2194 1759 
z
M 3341 1997 
L 3341 0 
L 2766 0 
L 2766 531 
Q 2569 213 2275 61 
Q 1981 -91 1556 -91 
Q 1019 -91 701 211 
Q 384 513 384 1019 
Q 384 1609 779 1909 
Q 1175 2209 1959 2209 
L 2766 2209 
L 2766 2266 
Q 2766 2663 2505 2880 
Q 2244 3097 1772 3097 
Q 1472 3097 1187 3025 
Q 903 2953 641 2809 
L 641 3341 
Q 956 3463 1253 3523 
Q 1550 3584 1831 3584 
Q 2591 3584 2966 3190 
Q 3341 2797 3341 1997 
z
" transform="scale(0.015625)"/>
      <path id="DejaVuSans-64" d="M 2906 2969 
L 2906 4863 
L 3481 4863 
L 3481 0 
L 2906 0 
L 2906 525 
Q 2725 213 2448 61 
Q 2172 -91 1784 -91 
Q 1150 -91 751 415 
Q 353 922 353 1747 
Q 353 2572 751 3078 
Q 1150 3584 1784 3584 
Q 2172 3584 2448 3432 
Q 2725 3281 2906 2969 
z
M 947 1747 
Q 947 1113 1208 752 
Q 1469 391 1925 391 
Q 2381 391 2643 752 
Q 2906 1113 2906 1747 
Q 2906 2381 2643 2742 
Q 2381 3103 1925 3103 
Q 1469 3103 1208 2742 
Q 947 2381 947 1747 
z
" transform="scale(0.015625)"/>
      <path id="DejaVuSans-29" d="M 513 4856 
L 1013 4856 
Q 1481 4119 1714 3412 
Q 1947 2706 1947 2009 
Q 1947 1309 1714 600 
Q 1481 -109 1013 -844 
L 513 -844 
Q 928 -128 1133 580 
Q 1338 1288 1338 2009 
Q 1338 2731 1133 3434 
Q 928 4138 513 4856 
z
" transform="scale(0.015625)"/>
     </defs>
     <use xlink:href="#DejaVuSans-44"/>
     <use xlink:href="#DejaVuSans-72" x="77.001953"/>
     <use xlink:href="#DejaVuSans-6f" x="115.865234"/>
     <use xlink:href="#DejaVuSans-6e" x="177.046875"/>
     <use xlink:href="#DejaVuSans-65" x="240.425781"/>
     <use xlink:href="#DejaVuSans-20" x="301.949219"/>
     <use xlink:href="#DejaVuSans-31" x="333.736328"/>
     <use xlink:href="#DejaVuSans-20" x="397.359375"/>
     <use xlink:href="#DejaVuSans-28" x="429.146484"/>
     <use xlink:href="#DejaVuSans-4c" x="468.160156"/>
     <use xlink:href="#DejaVuSans-65" x="522.123047"/>
     <use xlink:href="#DejaVuSans-61" x="583.646484"/>
     <use xlink:href="#DejaVuSans-64" x="644.925781"/>
     <use xlink:href="#DejaVuSans-65" x="708.402344"/>
     <use xlink:href="#DejaVuSans-72" x="769.925781"/>
     <use xlink:href="#DejaVuSans-29" x="811.039062"/>
    </g>
   </g>
  </g>
  <g id="axes_2">
   <g id="patch_7">
    <path d="M 290.593907 184.921875 
L 514.591389 184.921875 
L 514.591389 22.318125 
L 290.593907 22.318125 
L 290.593907 184.921875 
z
" style="fill: none"/>
   </g>
   <g id="matplotlib.axis_3">
    <g id="xtick_7">
     <g id="line2d_15">
      <g>
       <use xlink:href="#mbd1d6a70ef" x="298.995787" y="184.921875" style="stroke: #000000; stroke-width: 0.8"/>
      </g>
     </g>
     <g id="text_15">
      <!-- 0.00 -->
      <g transform="translate(287.862975 199.520313) scale(0.1 -0.1)">
       <use xlink:href="#DejaVuSans-30"/>
       <use xlink:href="#DejaVuSans-2e" x="63.623047"/>
       <use xlink:href="#DejaVuSans-30" x="95.410156"/>
       <use xlink:href="#DejaVuSans-30" x="159.033203"/>
      </g>
     </g>
    </g>
    <g id="xtick_8">
     <g id="line2d_16">
      <g>
       <use xlink:href="#mbd1d6a70ef" x="340.434532" y="184.921875" style="stroke: #000000; stroke-width: 0.8"/>
      </g>
     </g>
     <g id="text_16">
      <!-- 2.47 -->
      <g transform="translate(329.301719 199.520313) scale(0.1 -0.1)">
       <use xlink:href="#DejaVuSans-32"/>
       <use xlink:href="#DejaVuSans-2e" x="63.623047"/>
       <use xlink:href="#DejaVuSans-34" x="95.410156"/>
       <use xlink:href="#DejaVuSans-37" x="159.033203"/>
      </g>
     </g>
    </g>
    <g id="xtick_9">
     <g id="line2d_17">
      <g>
       <use xlink:href="#mbd1d6a70ef" x="381.873276" y="184.921875" style="stroke: #000000; stroke-width: 0.8"/>
      </g>
     </g>
     <g id="text_17">
      <!-- 4.93 -->
      <g transform="translate(370.740463 199.520313) scale(0.1 -0.1)">
       <use xlink:href="#DejaVuSans-34"/>
       <use xlink:href="#DejaVuSans-2e" x="63.623047"/>
       <use xlink:href="#DejaVuSans-39" x="95.410156"/>
       <use xlink:href="#DejaVuSans-33" x="159.033203"/>
      </g>
     </g>
    </g>
    <g id="xtick_10">
     <g id="line2d_18">
      <g>
       <use xlink:href="#mbd1d6a70ef" x="423.31202" y="184.921875" style="stroke: #000000; stroke-width: 0.8"/>
      </g>
     </g>
     <g id="text_18">
      <!-- 7.40 -->
      <g transform="translate(412.179208 199.520313) scale(0.1 -0.1)">
       <use xlink:href="#DejaVuSans-37"/>
       <use xlink:href="#DejaVuSans-2e" x="63.623047"/>
       <use xlink:href="#DejaVuSans-34" x="95.410156"/>
       <use xlink:href="#DejaVuSans-30" x="159.033203"/>
      </g>
     </g>
    </g>
    <g id="xtick_11">
     <g id="line2d_19">
      <g>
       <use xlink:href="#mbd1d6a70ef" x="464.750764" y="184.921875" style="stroke: #000000; stroke-width: 0.8"/>
      </g>
     </g>
     <g id="text_19">
      <!-- 9.86 -->
      <g transform="translate(453.617952 199.520313) scale(0.1 -0.1)">
       <use xlink:href="#DejaVuSans-39"/>
       <use xlink:href="#DejaVuSans-2e" x="63.623047"/>
       <use xlink:href="#DejaVuSans-38" x="95.410156"/>
       <use xlink:href="#DejaVuSans-36" x="159.033203"/>
      </g>
     </g>
    </g>
    <g id="xtick_12">
     <g id="line2d_20">
      <g>
       <use xlink:href="#mbd1d6a70ef" x="506.189509" y="184.921875" style="stroke: #000000; stroke-width: 0.8"/>
      </g>
     </g>
     <g id="text_20">
      <!-- 12.33 -->
      <g transform="translate(491.875446 199.520313) scale(0.1 -0.1)">
       <use xlink:href="#DejaVuSans-31"/>
       <use xlink:href="#DejaVuSans-32" x="63.623047"/>
       <use xlink:href="#DejaVuSans-2e" x="127.246094"/>
       <use xlink:href="#DejaVuSans-33" x="159.033203"/>
       <use xlink:href="#DejaVuSans-33" x="222.65625"/>
      </g>
     </g>
    </g>
   </g>
   <g id="matplotlib.axis_4">
    <g id="ytick_8">
     <g id="line2d_21">
      <g>
       <use xlink:href="#mb7a9a82ddc" x="290.593907" y="177.596654" style="stroke: #000000; stroke-width: 0.8"/>
      </g>
     </g>
     <g id="text_21">
      <!-- 0 -->
      <g transform="translate(277.231407 181.395873) scale(0.1 -0.1)">
       <use xlink:href="#DejaVuSans-30"/>
      </g>
     </g>
    </g>
    <g id="ytick_9">
     <g id="line2d_22">
      <g>
       <use xlink:href="#mb7a9a82ddc" x="290.593907" y="150.591907" style="stroke: #000000; stroke-width: 0.8"/>
      </g>
     </g>
     <g id="text_22">
      <!-- 2 -->
      <g transform="translate(277.231407 154.391125) scale(0.1 -0.1)">
       <use xlink:href="#DejaVuSans-32"/>
      </g>
     </g>
    </g>
    <g id="ytick_10">
     <g id="line2d_23">
      <g>
       <use xlink:href="#mb7a9a82ddc" x="290.593907" y="123.587159" style="stroke: #000000; stroke-width: 0.8"/>
      </g>
     </g>
     <g id="text_23">
      <!-- 4 -->
      <g transform="translate(277.231407 127.386378) scale(0.1 -0.1)">
       <use xlink:href="#DejaVuSans-34"/>
      </g>
     </g>
    </g>
    <g id="ytick_11">
     <g id="line2d_24">
      <g>
       <use xlink:href="#mb7a9a82ddc" x="290.593907" y="96.582411" style="stroke: #000000; stroke-width: 0.8"/>
      </g>
     </g>
     <g id="text_24">
      <!-- 6 -->
      <g transform="translate(277.231407 100.38163) scale(0.1 -0.1)">
       <use xlink:href="#DejaVuSans-36"/>
      </g>
     </g>
    </g>
    <g id="ytick_12">
     <g id="line2d_25">
      <g>
       <use xlink:href="#mb7a9a82ddc" x="290.593907" y="69.577664" style="stroke: #000000; stroke-width: 0.8"/>
      </g>
     </g>
     <g id="text_25">
      <!-- 8 -->
      <g transform="translate(277.231407 73.376882) scale(0.1 -0.1)">
       <use xlink:href="#DejaVuSans-38"/>
      </g>
     </g>
    </g>
    <g id="ytick_13">
     <g id="line2d_26">
      <g>
       <use xlink:href="#mb7a9a82ddc" x="290.593907" y="42.572916" style="stroke: #000000; stroke-width: 0.8"/>
      </g>
     </g>
     <g id="text_26">
      <!-- 10 -->
      <g transform="translate(270.868907 46.372135) scale(0.1 -0.1)">
       <use xlink:href="#DejaVuSans-31"/>
       <use xlink:href="#DejaVuSans-30" x="63.623047"/>
      </g>
     </g>
    </g>
   </g>
   <g id="line2d_27">
    <path d="M 298.995787 71.222658 
L 300.004013 73.39654 
L 300.172051 73.150257 
L 300.340088 73.658756 
L 300.508126 73.544256 
L 300.676163 73.243423 
L 301.012239 73.28231 
L 301.180276 73.583008 
L 301.348314 72.926522 
L 301.516351 73.544256 
L 301.684389 73.324842 
L 302.020464 73.324842 
L 302.188502 73.647414 
L 302.524577 73.699668 
L 302.692615 73.398835 
L 302.860652 73.398835 
L 303.02869 73.730049 
L 303.196727 73.398835 
L 303.364765 74.034662 
L 303.70084 74.104605 
L 303.868878 74.384374 
L 304.036915 74.187779 
L 304.204953 74.488882 
L 304.877103 74.612699 
L 305.213179 75.033838 
L 305.549254 75.143477 
L 305.717291 75.399617 
L 305.885329 75.875036 
L 306.221404 75.927425 
L 306.893555 77.070266 
L 307.061592 77.138858 
L 307.565705 78.008141 
L 307.733743 78.037306 
L 308.237855 79.188248 
L 308.405893 79.329888 
L 308.741968 80.032147 
L 309.414119 81.659048 
L 309.582156 81.741952 
L 309.750194 82.396142 
L 309.918231 82.49417 
L 310.086269 83.213306 
L 310.254307 83.34833 
L 312.270758 88.730916 
L 312.774871 90.403455 
L 312.942908 90.590193 
L 313.110929 90.980141 
L 313.278967 91.845914 
L 313.447004 92.038457 
L 313.615042 92.927454 
L 313.783079 93.183594 
L 314.45523 95.346269 
L 314.959343 96.584977 
L 315.295418 97.906724 
L 317.479923 104.967791 
L 317.647961 105.13792 
L 318.488149 107.989352 
L 318.656187 108.044306 
L 318.992262 109.414257 
L 321.176751 115.990994 
L 321.344788 116.191909 
L 321.680863 117.16543 
L 322.353014 119.105181 
L 322.689089 120.384801 
L 322.857127 120.486744 
L 323.865352 123.209228 
L 325.713766 128.235081 
L 326.049841 128.85646 
L 326.385916 129.944347 
L 326.553954 130.125008 
L 326.721991 131.167257 
L 326.890029 131.245975 
L 328.90648 136.001647 
L 329.410593 137.466924 
L 329.578631 137.53079 
L 329.914706 138.525915 
L 335.459947 150.379919 
L 335.964059 151.164947 
L 336.468172 152.571355 
L 336.63621 152.548536 
L 336.804247 152.780101 
L 337.30836 153.843548 
L 337.812473 154.686636 
L 338.652661 156.087643 
L 339.156774 156.966782 
L 339.324811 157.15055 
L 339.828924 158.154856 
L 339.996962 158.286234 
L 340.669112 159.444873 
L 341.005187 160.033441 
L 342.517526 162.139272 
L 343.021639 162.963322 
L 343.861827 164.071326 
L 344.029864 164.327372 
L 344.197902 164.359075 
L 344.702015 165.134085 
L 345.206127 165.710731 
L 345.71024 166.316488 
L 346.214353 166.870558 
L 346.550428 167.213194 
L 347.054541 167.777877 
L 347.726691 168.496338 
L 348.230804 168.957889 
L 351.255481 171.486695 
L 352.767819 172.568411 
L 352.935857 172.635977 
L 353.103895 172.825037 
L 353.271932 172.841577 
L 353.944083 173.30352 
L 354.616233 173.55299 
L 355.120346 173.879694 
L 355.792496 174.177165 
L 357.64091 174.930165 
L 357.976985 175.004698 
L 358.481098 175.226542 
L 359.489323 175.53734 
L 361.001662 175.947636 
L 361.505775 175.96014 
L 361.84185 176.185818 
L 363.018113 176.320693 
L 364.866527 176.666064 
L 366.210827 176.795197 
L 366.882978 176.91021 
L 368.059241 177.009548 
L 368.563354 177.079742 
L 370.91588 177.188981 
L 371.251955 177.253044 
L 371.588031 177.19616 
L 372.596424 177.268067 
L 372.932499 177.331958 
L 374.612875 177.387309 
L 374.780913 29.73756 
L 377.469515 29.921192 
L 377.973627 30.014358 
L 378.47774 30.056216 
L 378.645778 30.187189 
L 378.813815 30.172336 
L 380.998472 31.669749 
L 381.502585 32.041065 
L 381.670623 32.370522 
L 381.83866 32.402928 
L 382.342773 33.079397 
L 383.182961 34.397229 
L 384.863337 37.581088 
L 385.36745 38.777399 
L 388.224257 46.711799 
L 390.576783 54.518466 
L 392.761272 62.116792 
L 393.265385 63.748284 
L 393.937535 66.157377 
L 394.105573 66.487916 
L 396.794343 75.47226 
L 397.466493 77.472097 
L 398.642756 81.336071 
L 398.978831 82.344023 
L 401.16332 89.033774 
L 402.003676 91.151757 
L 403.179939 94.619706 
L 403.684052 95.990062 
L 404.020127 97.099417 
L 404.52424 98.371746 
L 405.364428 100.765582 
L 406.540691 103.617418 
L 407.044804 105.13333 
L 407.380879 105.918358 
L 410.7418 114.69004 
L 412.590213 119.07102 
L 413.262364 120.586391 
L 413.598439 121.152546 
L 415.61489 126.035139 
L 416.791321 128.45814 
L 418.135622 131.273385 
L 418.639735 132.475907 
L 418.807772 132.645496 
L 420.824224 136.738201 
L 420.992261 136.880516 
L 421.664412 138.379145 
L 421.832449 138.567233 
L 422.672637 140.409091 
L 424.857294 144.478707 
L 425.697482 145.898752 
L 427.041783 148.248435 
L 430.06646 153.207316 
L 432.419154 156.657983 
L 432.587192 156.748449 
L 433.763455 158.441917 
L 434.09953 158.823899 
L 435.611868 160.884631 
L 435.779906 160.974827 
L 436.452056 161.805088 
L 436.956169 162.362196 
L 438.132432 163.894445 
L 443.341766 168.834923 
L 443.677841 169.049463 
L 445.86233 170.625352 
L 448.215024 172.090373 
L 449.8954 172.978518 
L 451.239701 173.627969 
L 451.743814 173.809414 
L 453.088115 174.352074 
L 458.297449 175.793372 
L 460.3139 176.154074 
L 460.986218 176.270292 
L 461.322293 176.484026 
L 463.338745 176.637058 
L 467.875256 176.98283 
L 474.260684 177.2839 
L 491.234162 177.517172 
L 506.189509 177.511897 
L 506.189509 177.511897 
" clip-path="url(#p632ff4258f)" style="fill: none; stroke: #ff0000; stroke-width: 1.5; stroke-linecap: square"/>
   </g>
   <g id="patch_8">
    <path d="M 290.593907 184.921875 
L 290.593907 22.318125 
" style="fill: none; stroke: #000000; stroke-width: 0.8; stroke-linejoin: miter; stroke-linecap: square"/>
   </g>
   <g id="patch_9">
    <path d="M 514.591389 184.921875 
L 514.591389 22.318125 
" style="fill: none; stroke: #000000; stroke-width: 0.8; stroke-linejoin: miter; stroke-linecap: square"/>
   </g>
   <g id="patch_10">
    <path d="M 290.593907 184.921875 
L 514.591389 184.921875 
" style="fill: none; stroke: #000000; stroke-width: 0.8; stroke-linejoin: miter; stroke-linecap: square"/>
   </g>
   <g id="patch_11">
    <path d="M 290.593907 22.318125 
L 514.591389 22.318125 
" style="fill: none; stroke: #000000; stroke-width: 0.8; stroke-linejoin: miter; stroke-linecap: square"/>
   </g>
   <g id="text_27">
    <!-- Drone 2 (Leader) -->
    <g transform="translate(351.587961 16.318125) scale(0.12 -0.12)">
     <use xlink:href="#DejaVuSans-44"/>
     <use xlink:href="#DejaVuSans-72" x="77.001953"/>
     <use xlink:href="#DejaVuSans-6f" x="115.865234"/>
     <use xlink:href="#DejaVuSans-6e" x="177.046875"/>
     <use xlink:href="#DejaVuSans-65" x="240.425781"/>
     <use xlink:href="#DejaVuSans-20" x="301.949219"/>
     <use xlink:href="#DejaVuSans-32" x="333.736328"/>
     <use xlink:href="#DejaVuSans-20" x="397.359375"/>
     <use xlink:href="#DejaVuSans-28" x="429.146484"/>
     <use xlink:href="#DejaVuSans-4c" x="468.160156"/>
     <use xlink:href="#DejaVuSans-65" x="522.123047"/>
     <use xlink:href="#DejaVuSans-61" x="583.646484"/>
     <use xlink:href="#DejaVuSans-64" x="644.925781"/>
     <use xlink:href="#DejaVuSans-65" x="708.402344"/>
     <use xlink:href="#DejaVuSans-72" x="769.925781"/>
     <use xlink:href="#DejaVuSans-29" x="811.039062"/>
    </g>
   </g>
  </g>
  <g id="axes_3">
   <g id="patch_12">
    <path d="M 554.262815 184.921875 
L 778.260296 184.921875 
L 778.260296 22.318125 
L 554.262815 22.318125 
L 554.262815 184.921875 
z
" style="fill: none"/>
   </g>
   <g id="matplotlib.axis_5">
    <g id="xtick_13">
     <g id="line2d_28">
      <g>
       <use xlink:href="#mbd1d6a70ef" x="562.664695" y="184.921875" style="stroke: #000000; stroke-width: 0.8"/>
      </g>
     </g>
     <g id="text_28">
      <!-- 0.00 -->
      <g transform="translate(551.531882 199.520313) scale(0.1 -0.1)">
       <use xlink:href="#DejaVuSans-30"/>
       <use xlink:href="#DejaVuSans-2e" x="63.623047"/>
       <use xlink:href="#DejaVuSans-30" x="95.410156"/>
       <use xlink:href="#DejaVuSans-30" x="159.033203"/>
      </g>
     </g>
    </g>
    <g id="xtick_14">
     <g id="line2d_29">
      <g>
       <use xlink:href="#mbd1d6a70ef" x="604.103439" y="184.921875" style="stroke: #000000; stroke-width: 0.8"/>
      </g>
     </g>
     <g id="text_29">
      <!-- 2.47 -->
      <g transform="translate(592.970627 199.520313) scale(0.1 -0.1)">
       <use xlink:href="#DejaVuSans-32"/>
       <use xlink:href="#DejaVuSans-2e" x="63.623047"/>
       <use xlink:href="#DejaVuSans-34" x="95.410156"/>
       <use xlink:href="#DejaVuSans-37" x="159.033203"/>
      </g>
     </g>
    </g>
    <g id="xtick_15">
     <g id="line2d_30">
      <g>
       <use xlink:href="#mbd1d6a70ef" x="645.542183" y="184.921875" style="stroke: #000000; stroke-width: 0.8"/>
      </g>
     </g>
     <g id="text_30">
      <!-- 4.93 -->
      <g transform="translate(634.409371 199.520313) scale(0.1 -0.1)">
       <use xlink:href="#DejaVuSans-34"/>
       <use xlink:href="#DejaVuSans-2e" x="63.623047"/>
       <use xlink:href="#DejaVuSans-39" x="95.410156"/>
       <use xlink:href="#DejaVuSans-33" x="159.033203"/>
      </g>
     </g>
    </g>
    <g id="xtick_16">
     <g id="line2d_31">
      <g>
       <use xlink:href="#mbd1d6a70ef" x="686.980928" y="184.921875" style="stroke: #000000; stroke-width: 0.8"/>
      </g>
     </g>
     <g id="text_31">
      <!-- 7.40 -->
      <g transform="translate(675.848115 199.520313) scale(0.1 -0.1)">
       <use xlink:href="#DejaVuSans-37"/>
       <use xlink:href="#DejaVuSans-2e" x="63.623047"/>
       <use xlink:href="#DejaVuSans-34" x="95.410156"/>
       <use xlink:href="#DejaVuSans-30" x="159.033203"/>
      </g>
     </g>
    </g>
    <g id="xtick_17">
     <g id="line2d_32">
      <g>
       <use xlink:href="#mbd1d6a70ef" x="728.419672" y="184.921875" style="stroke: #000000; stroke-width: 0.8"/>
      </g>
     </g>
     <g id="text_32">
      <!-- 9.86 -->
      <g transform="translate(717.286859 199.520313) scale(0.1 -0.1)">
       <use xlink:href="#DejaVuSans-39"/>
       <use xlink:href="#DejaVuSans-2e" x="63.623047"/>
       <use xlink:href="#DejaVuSans-38" x="95.410156"/>
       <use xlink:href="#DejaVuSans-36" x="159.033203"/>
      </g>
     </g>
    </g>
    <g id="xtick_18">
     <g id="line2d_33">
      <g>
       <use xlink:href="#mbd1d6a70ef" x="769.858416" y="184.921875" style="stroke: #000000; stroke-width: 0.8"/>
      </g>
     </g>
     <g id="text_33">
      <!-- 12.33 -->
      <g transform="translate(755.544354 199.520313) scale(0.1 -0.1)">
       <use xlink:href="#DejaVuSans-31"/>
       <use xlink:href="#DejaVuSans-32" x="63.623047"/>
       <use xlink:href="#DejaVuSans-2e" x="127.246094"/>
       <use xlink:href="#DejaVuSans-33" x="159.033203"/>
       <use xlink:href="#DejaVuSans-33" x="222.65625"/>
      </g>
     </g>
    </g>
   </g>
   <g id="matplotlib.axis_6">
    <g id="ytick_14">
     <g id="line2d_34">
      <g>
       <use xlink:href="#mb7a9a82ddc" x="554.262815" y="177.600095" style="stroke: #000000; stroke-width: 0.8"/>
      </g>
     </g>
     <g id="text_34">
      <!-- 0.0 -->
      <g transform="translate(531.35969 181.399314) scale(0.1 -0.1)">
       <use xlink:href="#DejaVuSans-30"/>
       <use xlink:href="#DejaVuSans-2e" x="63.623047"/>
       <use xlink:href="#DejaVuSans-30" x="95.410156"/>
      </g>
     </g>
    </g>
    <g id="ytick_15">
     <g id="line2d_35">
      <g>
       <use xlink:href="#mb7a9a82ddc" x="554.262815" y="151.879761" style="stroke: #000000; stroke-width: 0.8"/>
      </g>
     </g>
     <g id="text_35">
      <!-- 0.1 -->
      <g transform="translate(531.35969 155.67898) scale(0.1 -0.1)">
       <use xlink:href="#DejaVuSans-30"/>
       <use xlink:href="#DejaVuSans-2e" x="63.623047"/>
       <use xlink:href="#DejaVuSans-31" x="95.410156"/>
      </g>
     </g>
    </g>
    <g id="ytick_16">
     <g id="line2d_36">
      <g>
       <use xlink:href="#mb7a9a82ddc" x="554.262815" y="126.159427" style="stroke: #000000; stroke-width: 0.8"/>
      </g>
     </g>
     <g id="text_36">
      <!-- 0.2 -->
      <g transform="translate(531.35969 129.958646) scale(0.1 -0.1)">
       <use xlink:href="#DejaVuSans-30"/>
       <use xlink:href="#DejaVuSans-2e" x="63.623047"/>
       <use xlink:href="#DejaVuSans-32" x="95.410156"/>
      </g>
     </g>
    </g>
    <g id="ytick_17">
     <g id="line2d_37">
      <g>
       <use xlink:href="#mb7a9a82ddc" x="554.262815" y="100.439094" style="stroke: #000000; stroke-width: 0.8"/>
      </g>
     </g>
     <g id="text_37">
      <!-- 0.3 -->
      <g transform="translate(531.35969 104.238312) scale(0.1 -0.1)">
       <use xlink:href="#DejaVuSans-30"/>
       <use xlink:href="#DejaVuSans-2e" x="63.623047"/>
       <use xlink:href="#DejaVuSans-33" x="95.410156"/>
      </g>
     </g>
    </g>
    <g id="ytick_18">
     <g id="line2d_38">
      <g>
       <use xlink:href="#mb7a9a82ddc" x="554.262815" y="74.71876" style="stroke: #000000; stroke-width: 0.8"/>
      </g>
     </g>
     <g id="text_38">
      <!-- 0.4 -->
      <g transform="translate(531.35969 78.517979) scale(0.1 -0.1)">
       <use xlink:href="#DejaVuSans-30"/>
       <use xlink:href="#DejaVuSans-2e" x="63.623047"/>
       <use xlink:href="#DejaVuSans-34" x="95.410156"/>
      </g>
     </g>
    </g>
    <g id="ytick_19">
     <g id="line2d_39">
      <g>
       <use xlink:href="#mb7a9a82ddc" x="554.262815" y="48.998426" style="stroke: #000000; stroke-width: 0.8"/>
      </g>
     </g>
     <g id="text_39">
      <!-- 0.5 -->
      <g transform="translate(531.35969 52.797645) scale(0.1 -0.1)">
       <defs>
        <path id="DejaVuSans-35" d="M 691 4666 
L 3169 4666 
L 3169 4134 
L 1269 4134 
L 1269 2991 
Q 1406 3038 1543 3061 
Q 1681 3084 1819 3084 
Q 2600 3084 3056 2656 
Q 3513 2228 3513 1497 
Q 3513 744 3044 326 
Q 2575 -91 1722 -91 
Q 1428 -91 1123 -41 
Q 819 9 494 109 
L 494 744 
Q 775 591 1075 516 
Q 1375 441 1709 441 
Q 2250 441 2565 725 
Q 2881 1009 2881 1497 
Q 2881 1984 2565 2268 
Q 2250 2553 1709 2553 
Q 1456 2553 1204 2497 
Q 953 2441 691 2322 
L 691 4666 
z
" transform="scale(0.015625)"/>
       </defs>
       <use xlink:href="#DejaVuSans-30"/>
       <use xlink:href="#DejaVuSans-2e" x="63.623047"/>
       <use xlink:href="#DejaVuSans-35" x="95.410156"/>
      </g>
     </g>
    </g>
    <g id="ytick_20">
     <g id="line2d_40">
      <g>
       <use xlink:href="#mb7a9a82ddc" x="554.262815" y="23.278092" style="stroke: #000000; stroke-width: 0.8"/>
      </g>
     </g>
     <g id="text_40">
      <!-- 0.6 -->
      <g transform="translate(531.35969 27.077311) scale(0.1 -0.1)">
       <use xlink:href="#DejaVuSans-30"/>
       <use xlink:href="#DejaVuSans-2e" x="63.623047"/>
       <use xlink:href="#DejaVuSans-36" x="95.410156"/>
      </g>
     </g>
    </g>
   </g>
   <g id="line2d_41">
    <path d="M 562.664695 31.62717 
L 562.832732 31.328557 
L 563.00077 33.812369 
L 563.168808 32.832167 
L 563.504883 29.783022 
L 563.67292 29.709205 
L 564.008996 31.721306 
L 564.177033 31.91781 
L 564.513108 31.804126 
L 564.681146 31.669351 
L 564.849184 31.780977 
L 565.017221 31.734681 
L 565.521334 32.149035 
L 565.857409 32.326763 
L 567.537785 34.887479 
L 567.87386 35.90549 
L 568.209936 36.752204 
L 568.546011 37.690224 
L 568.882086 38.878761 
L 569.554236 41.815251 
L 569.890312 43.296742 
L 571.234612 50.322509 
L 572.578913 59.035015 
L 573.083026 62.621972 
L 574.091252 70.213843 
L 574.93144 76.881068 
L 575.939665 84.711367 
L 576.443778 89.113916 
L 576.779836 91.471185 
L 580.47668 118.934843 
L 582.661169 129.962436 
L 583.165282 131.951132 
L 583.837432 134.447805 
L 584.00547 134.781912 
L 584.509583 136.823078 
L 584.67762 136.908212 
L 585.349771 138.458891 
L 585.685846 138.919028 
L 586.189959 140.408492 
L 586.357996 140.214304 
L 586.526034 140.433698 
L 586.694072 141.019865 
L 587.030147 141.14075 
L 587.198184 141.472028 
L 587.366222 141.382779 
L 587.53426 142.116323 
L 587.702297 141.607317 
L 587.870335 142.285048 
L 588.20641 142.193741 
L 588.374448 142.743384 
L 588.542485 142.592406 
L 588.710523 143.165198 
L 589.214636 142.639731 
L 589.550711 142.903622 
L 589.886786 143.334438 
L 590.222861 143.092666 
L 590.558936 143.578009 
L 590.726974 143.444263 
L 591.231087 143.377391 
L 591.399124 143.699666 
L 591.567162 143.473842 
L 591.7352 143.534285 
L 591.903237 143.459438 
L 592.239312 143.716385 
L 592.40735 143.449665 
L 592.575388 143.701724 
L 592.911463 143.579295 
L 593.247538 143.441177 
L 593.751651 143.536599 
L 593.919688 143.4188 
L 594.087726 143.620705 
L 594.255764 143.345754 
L 594.423801 143.5384 
L 594.591839 143.215095 
L 594.759876 143.427802 
L 595.263989 143.281968 
L 595.600064 143.173685 
L 595.768102 143.039683 
L 595.93614 143.417 
L 596.272215 143.31309 
L 597.112403 142.883303 
L 597.448478 143.186031 
L 597.952591 142.892562 
L 598.624741 142.903879 
L 599.632967 142.758302 
L 599.801004 142.895134 
L 599.969042 142.573373 
L 600.13708 142.819516 
L 600.305117 142.73824 
L 600.473155 142.532478 
L 600.977268 142.624042 
L 601.649418 142.396417 
L 601.985493 142.65645 
L 602.489606 142.351921 
L 602.657644 142.599608 
L 602.825681 142.615554 
L 602.993719 142.393331 
L 603.161756 142.612468 
L 604.001944 142.477436 
L 604.169982 142.591377 
L 604.33802 142.41082 
L 604.506057 142.553054 
L 604.674095 142.332888 
L 605.01017 142.516274 
L 605.850358 142.369668 
L 607.026621 142.443228 
L 607.362696 142.275017 
L 607.698772 142.573116 
L 607.866809 142.529906 
L 608.034847 142.676254 
L 608.202884 142.516788 
L 608.875035 142.599865 
L 609.043072 142.426767 
L 609.379148 142.648219 
L 609.88326 142.638188 
L 611.059524 142.721779 
L 611.227561 142.873529 
L 611.395599 142.752386 
L 611.563636 142.877902 
L 611.731674 142.828261 
L 612.067749 142.898478 
L 613.580088 143.056915 
L 613.748125 143.236957 
L 613.916163 143.161854 
L 614.588313 143.313861 
L 614.756351 143.273738 
L 615.764576 143.601415 
L 616.604764 143.72693 
L 617.276915 144.036088 
L 617.444952 144.009854 
L 617.949065 144.221017 
L 619.293366 144.797667 
L 621.645892 146.332142 
L 623.998419 148.657003 
L 624.670569 149.477996 
L 625.34272 150.376408 
L 627.023096 152.888821 
L 627.359171 153.428125 
L 627.863284 154.390169 
L 630.719923 159.864227 
L 631.224036 161.563364 
L 632.232261 164.910403 
L 633.240487 168.031385 
L 633.576562 168.950347 
L 634.41675 171.170963 
L 635.593013 173.34927 
L 636.265332 174.305063 
L 636.937482 175.124004 
L 637.609632 175.852079 
L 638.785896 176.667715 
L 639.290008 176.728888 
L 639.626084 176.702242 
L 639.794121 176.643584 
L 640.130196 176.827286 
L 640.298234 176.780193 
L 640.634309 176.838336 
L 640.970384 176.870265 
L 641.138422 176.772584 
L 641.30646 176.845682 
L 642.65076 176.166184 
L 643.154873 175.592103 
L 643.659154 175.152615 
L 646.01168 171.552139 
L 646.683831 170.391277 
L 648.028132 167.570219 
L 649.708508 164.202836 
L 649.876545 164.02624 
L 650.380658 162.918594 
L 650.884939 161.956782 
L 652.565315 158.985929 
L 654.077653 157.025346 
L 654.749804 156.305099 
L 655.253916 155.770013 
L 656.262142 154.73068 
L 656.598217 154.581502 
L 657.606443 153.935382 
L 657.77448 153.883864 
L 658.278761 153.473393 
L 660.127175 152.76202 
L 660.46325 152.766315 
L 660.967363 152.490748 
L 661.975588 152.173719 
L 662.479701 152.108415 
L 662.815776 151.996866 
L 663.151852 151.899695 
L 664.328115 151.767106 
L 667.016885 151.463606 
L 667.520997 151.357638 
L 668.361185 151.329346 
L 668.865298 151.352752 
L 670.041561 151.195858 
L 670.545674 151.177596 
L 670.881749 151.298482 
L 672.394088 151.350694 
L 672.730331 151.267103 
L 672.898369 151.240354 
L 673.234444 151.358924 
L 675.755008 151.189427 
L 675.923045 151.064684 
L 676.595196 151.386188 
L 677.939497 151.48161 
L 678.275572 151.543082 
L 678.779685 151.500644 
L 689.534427 151.500644 
L 689.702465 153.981987 
L 690.374615 153.981987 
L 690.542653 154.676873 
L 690.71069 154.501975 
L 690.878728 154.845444 
L 691.046765 154.845444 
L 691.550878 155.267155 
L 692.223029 155.648768 
L 692.391066 155.529117 
L 692.895179 155.886835 
L 693.063217 155.848177 
L 693.399292 156.172408 
L 693.567329 156.170479 
L 693.903405 156.419889 
L 694.575555 156.651037 
L 694.743761 156.6247 
L 695.079836 156.816831 
L 695.247873 156.784835 
L 695.583949 156.932675 
L 696.760212 157.131185 
L 697.264325 157.261947 
L 697.6004 157.487128 
L 697.768437 157.473059 
L 697.936475 157.622469 
L 698.27255 157.543636 
L 698.776663 157.715988 
L 699.280776 157.799065 
L 699.616851 157.844487 
L 700.625077 158.072317 
L 700.961152 158.282761 
L 701.129189 158.476178 
L 701.465265 158.554934 
L 701.80134 158.790712 
L 702.137415 158.837523 
L 702.305453 158.857019 
L 703.313846 160.35528 
L 703.817959 161.374628 
L 703.985997 161.493276 
L 705.666373 163.941929 
L 706.002448 164.184343 
L 707.010673 165.648679 
L 708.018899 166.422244 
L 708.186937 166.377002 
L 708.691049 166.779834 
L 709.3632 167.616953 
L 710.035518 168.218269 
L 710.203556 168.265646 
L 710.371593 168.47753 
L 710.539631 168.451089 
L 711.043744 168.92887 
L 711.211781 168.967682 
L 711.715894 169.407063 
L 712.220007 169.740758 
L 712.388045 169.724194 
L 712.72412 170.09503 
L 712.892157 169.991172 
L 713.228233 170.46404 
L 713.732345 170.722426 
L 714.068421 171.05908 
L 714.572533 171.349102 
L 714.740571 171.392415 
L 715.076646 171.623024 
L 715.244684 171.564947 
L 716.252909 172.029457 
L 716.92506 172.532058 
L 719.61383 173.812004 
L 719.949905 174.053287 
L 720.28598 174.135206 
L 720.622055 174.385002 
L 720.790093 174.356195 
L 721.630281 174.676182 
L 721.798318 174.661624 
L 722.302431 174.913323 
L 722.806544 175.138644 
L 726.167464 176.317391 
L 727.511765 175.730219 
L 728.015878 175.957111 
L 728.183915 175.983374 
L 728.351953 175.819741 
L 728.51999 175.877548 
L 728.688028 175.770224 
L 730.032329 176.283952 
L 730.200366 176.212141 
L 730.536442 176.577388 
L 731.544163 176.722456 
L 731.712201 176.905348 
L 732.048276 176.944131 
L 732.384351 177.013584 
L 732.552389 177.008291 
L 732.888464 177.231008 
L 734.400802 177.381266 
L 735.24099 177.524305 
L 735.577065 177.434137 
L 735.745103 177.196574 
L 736.081178 177.214429 
L 736.417253 177.089495 
L 736.753329 176.988527 
L 737.761554 177.109266 
L 738.097629 177.276785 
L 738.433705 177.314499 
L 740.282118 177.327871 
L 740.450156 177.304419 
L 740.786231 177.017175 
L 741.458381 177.148937 
L 741.794457 177.24696 
L 741.962494 177.377957 
L 742.634645 177.288614 
L 742.9724 176.953293 
L 743.476513 176.937583 
L 743.812588 177.247536 
L 744.148663 177.37883 
L 744.316701 177.528811 
L 744.820814 177.114241 
L 744.988851 176.808395 
L 745.661002 176.68172 
L 745.997077 177.223398 
L 746.165115 177.263398 
L 746.50119 177.508656 
L 747.509415 176.945168 
L 747.845491 176.903161 
L 748.349603 177.210684 
L 748.517641 177.185527 
L 748.685679 177.336683 
L 749.021754 177.151656 
L 749.189791 177.206641 
L 749.525867 176.968579 
L 750.029979 176.859079 
L 750.198017 177.007949 
L 750.366055 177.002499 
L 750.70213 177.331397 
L 751.038205 177.402117 
L 751.37428 177.134747 
L 751.710355 176.983247 
L 752.214468 177.054906 
L 752.550543 177.060073 
L 753.054656 177.411553 
L 754.230919 176.755879 
L 754.398957 176.86945 
L 754.566995 177.195717 
L 754.735032 177.27321 
L 754.90307 177.215779 
L 755.239145 177.488195 
L 755.911295 176.78707 
L 757.087559 176.940495 
L 757.423634 177.388989 
L 757.759709 177.264352 
L 758.263822 176.768698 
L 758.431859 176.799002 
L 758.767935 176.587048 
L 759.10401 176.727319 
L 759.440085 177.201721 
L 759.608123 177.282351 
L 759.77616 177.232572 
L 759.944198 177.320381 
L 760.784386 176.715087 
L 761.624574 176.780712 
L 762.128687 177.332647 
L 762.296724 177.202981 
L 762.464762 177.329154 
L 762.800837 176.97775 
L 763.809063 176.871793 
L 764.313175 177.279576 
L 765.153363 177.126892 
L 765.321401 176.858575 
L 766.161589 176.759313 
L 766.329627 176.974978 
L 766.497664 177.373646 
L 767.673927 177.08807 
L 768.010003 176.884854 
L 768.346078 177.103327 
L 769.018228 177.255936 
L 769.354303 177.198768 
L 769.858416 176.958422 
L 770.026454 176.904908 
L 770.026454 176.904908 
" clip-path="url(#pa0950a5790)" style="fill: none; stroke: #ff0000; stroke-width: 1.5; stroke-linecap: square"/>
   </g>
   <g id="patch_13">
    <path d="M 554.262815 184.921875 
L 554.262815 22.318125 
" style="fill: none; stroke: #000000; stroke-width: 0.8; stroke-linejoin: miter; stroke-linecap: square"/>
   </g>
   <g id="patch_14">
    <path d="M 778.260296 184.921875 
L 778.260296 22.318125 
" style="fill: none; stroke: #000000; stroke-width: 0.8; stroke-linejoin: miter; stroke-linecap: square"/>
   </g>
   <g id="patch_15">
    <path d="M 554.262815 184.921875 
L 778.260296 184.921875 
" style="fill: none; stroke: #000000; stroke-width: 0.8; stroke-linejoin: miter; stroke-linecap: square"/>
   </g>
   <g id="patch_16">
    <path d="M 554.262815 22.318125 
L 778.260296 22.318125 
" style="fill: none; stroke: #000000; stroke-width: 0.8; stroke-linejoin: miter; stroke-linecap: square"/>
   </g>
   <g id="text_41">
    <!-- Drone 3 (Follower) -->
    <g transform="translate(610.856243 16.318125) scale(0.12 -0.12)">
     <defs>
      <path id="DejaVuSans-46" d="M 628 4666 
L 3309 4666 
L 3309 4134 
L 1259 4134 
L 1259 2759 
L 3109 2759 
L 3109 2228 
L 1259 2228 
L 1259 0 
L 628 0 
L 628 4666 
z
" transform="scale(0.015625)"/>
      <path id="DejaVuSans-6c" d="M 603 4863 
L 1178 4863 
L 1178 0 
L 603 0 
L 603 4863 
z
" transform="scale(0.015625)"/>
      <path id="DejaVuSans-77" d="M 269 3500 
L 844 3500 
L 1563 769 
L 2278 3500 
L 2956 3500 
L 3675 769 
L 4391 3500 
L 4966 3500 
L 4050 0 
L 3372 0 
L 2619 2869 
L 1863 0 
L 1184 0 
L 269 3500 
z
" transform="scale(0.015625)"/>
     </defs>
     <use xlink:href="#DejaVuSans-44"/>
     <use xlink:href="#DejaVuSans-72" x="77.001953"/>
     <use xlink:href="#DejaVuSans-6f" x="115.865234"/>
     <use xlink:href="#DejaVuSans-6e" x="177.046875"/>
     <use xlink:href="#DejaVuSans-65" x="240.425781"/>
     <use xlink:href="#DejaVuSans-20" x="301.949219"/>
     <use xlink:href="#DejaVuSans-33" x="333.736328"/>
     <use xlink:href="#DejaVuSans-20" x="397.359375"/>
     <use xlink:href="#DejaVuSans-28" x="429.146484"/>
     <use xlink:href="#DejaVuSans-46" x="468.160156"/>
     <use xlink:href="#DejaVuSans-6f" x="522.054688"/>
     <use xlink:href="#DejaVuSans-6c" x="583.236328"/>
     <use xlink:href="#DejaVuSans-6c" x="611.019531"/>
     <use xlink:href="#DejaVuSans-6f" x="638.802734"/>
     <use xlink:href="#DejaVuSans-77" x="699.984375"/>
     <use xlink:href="#DejaVuSans-65" x="781.771484"/>
     <use xlink:href="#DejaVuSans-72" x="843.294922"/>
     <use xlink:href="#DejaVuSans-29" x="884.408203"/>
    </g>
   </g>
  </g>
  <g id="axes_4">
   <g id="patch_17">
    <path d="M 817.931722 184.921875 
L 1041.929204 184.921875 
L 1041.929204 22.318125 
L 817.931722 22.318125 
L 817.931722 184.921875 
z
" style="fill: none"/>
   </g>
   <g id="matplotlib.axis_7">
    <g id="xtick_19">
     <g id="line2d_42">
      <g>
       <use xlink:href="#mbd1d6a70ef" x="826.333602" y="184.921875" style="stroke: #000000; stroke-width: 0.8"/>
      </g>
     </g>
     <g id="text_42">
      <!-- 0.00 -->
      <g transform="translate(815.20079 199.520313) scale(0.1 -0.1)">
       <use xlink:href="#DejaVuSans-30"/>
       <use xlink:href="#DejaVuSans-2e" x="63.623047"/>
       <use xlink:href="#DejaVuSans-30" x="95.410156"/>
       <use xlink:href="#DejaVuSans-30" x="159.033203"/>
      </g>
     </g>
    </g>
    <g id="xtick_20">
     <g id="line2d_43">
      <g>
       <use xlink:href="#mbd1d6a70ef" x="867.772347" y="184.921875" style="stroke: #000000; stroke-width: 0.8"/>
      </g>
     </g>
     <g id="text_43">
      <!-- 2.47 -->
      <g transform="translate(856.639534 199.520313) scale(0.1 -0.1)">
       <use xlink:href="#DejaVuSans-32"/>
       <use xlink:href="#DejaVuSans-2e" x="63.623047"/>
       <use xlink:href="#DejaVuSans-34" x="95.410156"/>
       <use xlink:href="#DejaVuSans-37" x="159.033203"/>
      </g>
     </g>
    </g>
    <g id="xtick_21">
     <g id="line2d_44">
      <g>
       <use xlink:href="#mbd1d6a70ef" x="909.211091" y="184.921875" style="stroke: #000000; stroke-width: 0.8"/>
      </g>
     </g>
     <g id="text_44">
      <!-- 4.93 -->
      <g transform="translate(898.078278 199.520313) scale(0.1 -0.1)">
       <use xlink:href="#DejaVuSans-34"/>
       <use xlink:href="#DejaVuSans-2e" x="63.623047"/>
       <use xlink:href="#DejaVuSans-39" x="95.410156"/>
       <use xlink:href="#DejaVuSans-33" x="159.033203"/>
      </g>
     </g>
    </g>
    <g id="xtick_22">
     <g id="line2d_45">
      <g>
       <use xlink:href="#mbd1d6a70ef" x="950.649835" y="184.921875" style="stroke: #000000; stroke-width: 0.8"/>
      </g>
     </g>
     <g id="text_45">
      <!-- 7.40 -->
      <g transform="translate(939.517023 199.520313) scale(0.1 -0.1)">
       <use xlink:href="#DejaVuSans-37"/>
       <use xlink:href="#DejaVuSans-2e" x="63.623047"/>
       <use xlink:href="#DejaVuSans-34" x="95.410156"/>
       <use xlink:href="#DejaVuSans-30" x="159.033203"/>
      </g>
     </g>
    </g>
    <g id="xtick_23">
     <g id="line2d_46">
      <g>
       <use xlink:href="#mbd1d6a70ef" x="992.088579" y="184.921875" style="stroke: #000000; stroke-width: 0.8"/>
      </g>
     </g>
     <g id="text_46">
      <!-- 9.86 -->
      <g transform="translate(980.955767 199.520313) scale(0.1 -0.1)">
       <use xlink:href="#DejaVuSans-39"/>
       <use xlink:href="#DejaVuSans-2e" x="63.623047"/>
       <use xlink:href="#DejaVuSans-38" x="95.410156"/>
       <use xlink:href="#DejaVuSans-36" x="159.033203"/>
      </g>
     </g>
    </g>
    <g id="xtick_24">
     <g id="line2d_47">
      <g>
       <use xlink:href="#mbd1d6a70ef" x="1033.527324" y="184.921875" style="stroke: #000000; stroke-width: 0.8"/>
      </g>
     </g>
     <g id="text_47">
      <!-- 12.33 -->
      <g transform="translate(1019.213261 199.520313) scale(0.1 -0.1)">
       <use xlink:href="#DejaVuSans-31"/>
       <use xlink:href="#DejaVuSans-32" x="63.623047"/>
       <use xlink:href="#DejaVuSans-2e" x="127.246094"/>
       <use xlink:href="#DejaVuSans-33" x="159.033203"/>
       <use xlink:href="#DejaVuSans-33" x="222.65625"/>
      </g>
     </g>
    </g>
   </g>
   <g id="matplotlib.axis_8">
    <g id="ytick_21">
     <g id="line2d_48">
      <g>
       <use xlink:href="#mb7a9a82ddc" x="817.931722" y="177.583706" style="stroke: #000000; stroke-width: 0.8"/>
      </g>
     </g>
     <g id="text_48">
      <!-- 0.0 -->
      <g transform="translate(795.028597 181.382924) scale(0.1 -0.1)">
       <use xlink:href="#DejaVuSans-30"/>
       <use xlink:href="#DejaVuSans-2e" x="63.623047"/>
       <use xlink:href="#DejaVuSans-30" x="95.410156"/>
      </g>
     </g>
    </g>
    <g id="ytick_22">
     <g id="line2d_49">
      <g>
       <use xlink:href="#mb7a9a82ddc" x="817.931722" y="151.868414" style="stroke: #000000; stroke-width: 0.8"/>
      </g>
     </g>
     <g id="text_49">
      <!-- 0.2 -->
      <g transform="translate(795.028597 155.667632) scale(0.1 -0.1)">
       <use xlink:href="#DejaVuSans-30"/>
       <use xlink:href="#DejaVuSans-2e" x="63.623047"/>
       <use xlink:href="#DejaVuSans-32" x="95.410156"/>
      </g>
     </g>
    </g>
    <g id="ytick_23">
     <g id="line2d_50">
      <g>
       <use xlink:href="#mb7a9a82ddc" x="817.931722" y="126.153122" style="stroke: #000000; stroke-width: 0.8"/>
      </g>
     </g>
     <g id="text_50">
      <!-- 0.4 -->
      <g transform="translate(795.028597 129.95234) scale(0.1 -0.1)">
       <use xlink:href="#DejaVuSans-30"/>
       <use xlink:href="#DejaVuSans-2e" x="63.623047"/>
       <use xlink:href="#DejaVuSans-34" x="95.410156"/>
      </g>
     </g>
    </g>
    <g id="ytick_24">
     <g id="line2d_51">
      <g>
       <use xlink:href="#mb7a9a82ddc" x="817.931722" y="100.43783" style="stroke: #000000; stroke-width: 0.8"/>
      </g>
     </g>
     <g id="text_51">
      <!-- 0.6 -->
      <g transform="translate(795.028597 104.237048) scale(0.1 -0.1)">
       <use xlink:href="#DejaVuSans-30"/>
       <use xlink:href="#DejaVuSans-2e" x="63.623047"/>
       <use xlink:href="#DejaVuSans-36" x="95.410156"/>
      </g>
     </g>
    </g>
    <g id="ytick_25">
     <g id="line2d_52">
      <g>
       <use xlink:href="#mb7a9a82ddc" x="817.931722" y="74.722538" style="stroke: #000000; stroke-width: 0.8"/>
      </g>
     </g>
     <g id="text_52">
      <!-- 0.8 -->
      <g transform="translate(795.028597 78.521756) scale(0.1 -0.1)">
       <use xlink:href="#DejaVuSans-30"/>
       <use xlink:href="#DejaVuSans-2e" x="63.623047"/>
       <use xlink:href="#DejaVuSans-38" x="95.410156"/>
      </g>
     </g>
    </g>
    <g id="ytick_26">
     <g id="line2d_53">
      <g>
       <use xlink:href="#mb7a9a82ddc" x="817.931722" y="49.007245" style="stroke: #000000; stroke-width: 0.8"/>
      </g>
     </g>
     <g id="text_53">
      <!-- 1.0 -->
      <g transform="translate(795.028597 52.806464) scale(0.1 -0.1)">
       <use xlink:href="#DejaVuSans-31"/>
       <use xlink:href="#DejaVuSans-2e" x="63.623047"/>
       <use xlink:href="#DejaVuSans-30" x="95.410156"/>
      </g>
     </g>
    </g>
    <g id="ytick_27">
     <g id="line2d_54">
      <g>
       <use xlink:href="#mb7a9a82ddc" x="817.931722" y="23.291953" style="stroke: #000000; stroke-width: 0.8"/>
      </g>
     </g>
     <g id="text_54">
      <!-- 1.2 -->
      <g transform="translate(795.028597 27.091172) scale(0.1 -0.1)">
       <use xlink:href="#DejaVuSans-31"/>
       <use xlink:href="#DejaVuSans-2e" x="63.623047"/>
       <use xlink:href="#DejaVuSans-32" x="95.410156"/>
      </g>
     </g>
    </g>
   </g>
   <g id="line2d_55">
    <path d="M 826.333602 31.293267 
L 826.50164 31.642995 
L 826.669677 33.954799 
L 826.837715 33.054764 
L 827.17379 29.709205 
L 827.341828 29.783779 
L 827.845941 31.53499 
L 828.013978 31.579992 
L 828.518091 31.309981 
L 829.526317 32.161158 
L 830.534542 33.642358 
L 831.878843 37.157639 
L 832.214918 38.25311 
L 832.382956 38.862563 
L 832.719031 40.69092 
L 833.223144 43.040012 
L 833.559219 44.44921 
L 834.231369 48.480082 
L 835.911745 59.786582 
L 836.919971 67.653918 
L 837.088009 68.663243 
L 837.592121 73.336869 
L 838.096234 77.053114 
L 838.768385 82.580359 
L 838.936422 82.580359 
L 839.10446 85.147517 
L 839.272497 85.999465 
L 839.77661 90.447953 
L 840.280723 93.972748 
L 840.952857 99.202338 
L 841.120894 99.202338 
L 841.456969 102.91987 
L 841.625007 102.91987 
L 841.961082 105.85887 
L 842.633233 110.604627 
L 843.3054 115.12859 
L 843.473437 115.12859 
L 843.809513 118.099221 
L 843.97755 118.099221 
L 844.313625 121.237258 
L 844.817738 124.128942 
L 845.321851 126.630526 
L 845.657926 126.630526 
L 845.825964 129.231113 
L 845.994001 130.100162 
L 846.330077 130.100162 
L 846.498114 132.681977 
L 849.186716 143.693008 
L 850.194941 146.821145 
L 850.867092 148.743877 
L 852.883543 153.189923 
L 853.387656 154.071186 
L 855.236069 156.424521 
L 856.412333 157.498905 
L 858.764859 158.63925 
L 859.268972 158.736325 
L 859.605047 158.953748 
L 860.277197 159.001836 
L 861.453461 159.22273 
L 861.789536 159.233273 
L 863.133837 159.381136 
L 863.301874 159.324691 
L 863.469912 159.435781 
L 863.974025 159.351435 
L 864.646175 159.357092 
L 875.064506 159.583001 
L 875.568619 159.62016 
L 876.240769 159.617717 
L 880.609747 159.855712 
L 881.11386 159.98416 
L 882.290123 160.082392 
L 882.794236 160.234755 
L 883.298349 160.285157 
L 885.146762 160.804349 
L 885.650875 160.979856 
L 886.659101 161.400301 
L 887.499289 161.819203 
L 888.675552 162.57909 
L 889.179665 162.922261 
L 889.51574 163.131583 
L 892.036304 165.556111 
L 893.380605 167.078289 
L 895.060981 169.298187 
L 895.733131 170.529165 
L 897.91762 173.868669 
L 898.58977 174.676708 
L 899.766201 175.698942 
L 901.27854 176.663232 
L 901.782653 176.839117 
L 902.118728 177.043816 
L 902.790878 177.078668 
L 903.126953 177.053532 
L 903.463029 177.102247 
L 903.799104 177.173354 
L 904.303217 177.253614 
L 905.143405 177.192581 
L 905.47948 177.150184 
L 905.983593 176.990379 
L 906.487705 176.783661 
L 906.991818 176.523228 
L 907.496099 176.224048 
L 908.000212 175.827351 
L 908.168249 175.816075 
L 909.848625 174.267372 
L 910.520776 173.568301 
L 911.024889 173.046217 
L 912.705265 170.991925 
L 913.04134 170.838867 
L 913.71349 170.203455 
L 914.049565 169.677719 
L 914.385809 169.4366 
L 914.721884 169.115583 
L 915.225997 168.717304 
L 915.394034 168.445674 
L 915.562072 168.422826 
L 916.066185 167.811548 
L 916.234222 167.823119 
L 917.07441 167.312092 
L 917.242448 166.976598 
L 917.578523 167.1106 
L 917.746561 166.994328 
L 917.914598 167.017755 
L 918.250673 166.5336 
L 918.418711 166.48352 
L 918.586749 166.271574 
L 918.754786 166.44703 
L 919.090861 166.358724 
L 919.594974 166.004907 
L 920.099087 165.936183 
L 920.939275 165.688634 
L 921.947669 165.530511 
L 922.115706 165.326049 
L 923.291969 165.363619 
L 923.796082 165.279787 
L 924.132157 165.394387 
L 924.300195 165.394387 
L 924.63627 165.184898 
L 925.812533 165.144306 
L 925.980571 165.041625 
L 926.316646 165.103226 
L 926.652721 165.076456 
L 927.492909 165.170574 
L 928.333097 164.937799 
L 928.501135 165.014572 
L 928.669173 164.950554 
L 929.005248 165.032817 
L 929.509529 165.07454 
L 931.021867 164.929069 
L 931.52598 164.884826 
L 931.862055 164.968053 
L 932.534206 164.945565 
L 932.870281 164.991056 
L 933.206356 164.932875 
L 933.542431 165.056745 
L 933.878506 165.03832 
L 935.222807 164.895292 
L 935.558882 164.991171 
L 936.399238 164.940049 
L 937.071389 164.934199 
L 937.239426 164.898159 
L 937.575502 164.977002 
L 940.432141 165.008144 
L 941.272329 165.093775 
L 942.784667 165.07391 
L 954.21156 165.07391 
L 954.379598 166.834096 
L 955.723898 167.285323 
L 956.564086 167.333655 
L 959.084818 167.433147 
L 962.277533 167.811072 
L 964.462022 168.182053 
L 964.798097 168.394256 
L 965.806322 169.14711 
L 966.142566 169.289251 
L 966.646678 169.569316 
L 968.66313 170.682596 
L 969.33528 170.956142 
L 969.503318 170.959035 
L 970.511543 171.654299 
L 970.679581 171.622721 
L 971.183694 171.902979 
L 972.023882 172.119939 
L 972.527994 172.290251 
L 973.200145 172.621876 
L 974.544614 173.037486 
L 974.712651 173.154902 
L 975.048727 173.192665 
L 975.720877 173.293791 
L 976.056952 173.478915 
L 976.393027 173.459899 
L 976.89714 173.723056 
L 977.233215 173.846091 
L 977.905366 174.089743 
L 978.241441 174.179284 
L 981.098248 174.983092 
L 981.602361 175.068056 
L 983.114699 175.456125 
L 986.139376 176.09146 
L 988.324033 176.518464 
L 988.660108 176.658527 
L 989.164221 176.766629 
L 990.172447 176.732504 
L 990.508522 176.651364 
L 990.844597 176.690857 
L 992.861048 176.646197 
L 993.197123 176.752532 
L 993.701236 176.737224 
L 995.381108 177.136289 
L 995.549146 177.143975 
L 995.885221 177.286234 
L 996.389334 177.407116 
L 999.582048 177.370203 
L 1000.254198 177.290477 
L 1001.598499 177.511908 
L 1002.438687 177.488664 
L 1002.9428 177.289543 
L 1003.61495 177.27573 
L 1004.119063 177.427286 
L 1004.455138 177.451629 
L 1004.959251 177.497639 
L 1005.295326 177.378206 
L 1006.809345 177.314787 
L 1007.481496 177.441507 
L 1008.153646 177.3921 
L 1008.489721 177.254247 
L 1009.834022 177.308402 
L 1010.170097 177.383934 
L 1011.514398 177.482411 
L 1011.850473 177.383574 
L 1012.690661 177.423777 
L 1013.026736 177.524787 
L 1015.379263 177.34799 
L 1016.555526 177.399522 
L 1017.899827 177.231024 
L 1018.235902 177.313192 
L 1021.092541 177.249213 
L 1021.596654 177.182956 
L 1022.268804 177.211209 
L 1022.60488 177.351678 
L 1023.445068 177.432928 
L 1024.117218 177.170696 
L 1024.621331 177.092573 
L 1024.957406 177.143226 
L 1025.125444 177.253811 
L 1025.461519 177.220476 
L 1025.629556 177.423787 
L 1026.301707 177.462708 
L 1026.637782 177.238684 
L 1027.309932 177.133953 
L 1029.326384 177.386832 
L 1030.166572 177.33405 
L 1030.670684 177.309905 
L 1030.838722 177.276134 
L 1031.00676 177.414304 
L 1031.846948 177.442301 
L 1032.35106 177.452218 
L 1033.527324 177.331315 
L 1033.527324 177.331315 
" clip-path="url(#p043f525cb0)" style="fill: none; stroke: #ff0000; stroke-width: 1.5; stroke-linecap: square"/>
   </g>
   <g id="patch_18">
    <path d="M 817.931722 184.921875 
L 817.931722 22.318125 
" style="fill: none; stroke: #000000; stroke-width: 0.8; stroke-linejoin: miter; stroke-linecap: square"/>
   </g>
   <g id="patch_19">
    <path d="M 1041.929204 184.921875 
L 1041.929204 22.318125 
" style="fill: none; stroke: #000000; stroke-width: 0.8; stroke-linejoin: miter; stroke-linecap: square"/>
   </g>
   <g id="patch_20">
    <path d="M 817.931722 184.921875 
L 1041.929204 184.921875 
" style="fill: none; stroke: #000000; stroke-width: 0.8; stroke-linejoin: miter; stroke-linecap: square"/>
   </g>
   <g id="patch_21">
    <path d="M 817.931722 22.318125 
L 1041.929204 22.318125 
" style="fill: none; stroke: #000000; stroke-width: 0.8; stroke-linejoin: miter; stroke-linecap: square"/>
   </g>
   <g id="text_55">
    <!-- Drone 4 (Follower) -->
    <g transform="translate(874.52515 16.318125) scale(0.12 -0.12)">
     <use xlink:href="#DejaVuSans-44"/>
     <use xlink:href="#DejaVuSans-72" x="77.001953"/>
     <use xlink:href="#DejaVuSans-6f" x="115.865234"/>
     <use xlink:href="#DejaVuSans-6e" x="177.046875"/>
     <use xlink:href="#DejaVuSans-65" x="240.425781"/>
     <use xlink:href="#DejaVuSans-20" x="301.949219"/>
     <use xlink:href="#DejaVuSans-34" x="333.736328"/>
     <use xlink:href="#DejaVuSans-20" x="397.359375"/>
     <use xlink:href="#DejaVuSans-28" x="429.146484"/>
     <use xlink:href="#DejaVuSans-46" x="468.160156"/>
     <use xlink:href="#DejaVuSans-6f" x="522.054688"/>
     <use xlink:href="#DejaVuSans-6c" x="583.236328"/>
     <use xlink:href="#DejaVuSans-6c" x="611.019531"/>
     <use xlink:href="#DejaVuSans-6f" x="638.802734"/>
     <use xlink:href="#DejaVuSans-77" x="699.984375"/>
     <use xlink:href="#DejaVuSans-65" x="781.771484"/>
     <use xlink:href="#DejaVuSans-72" x="843.294922"/>
     <use xlink:href="#DejaVuSans-29" x="884.408203"/>
    </g>
   </g>
  </g>
  <g id="axes_5">
   <g id="legend_1">
    <g id="patch_22">
     <path d="M 1074.229688 112.459062 
L 1130.6 112.459062 
Q 1132.6 112.459062 1132.6 110.459062 
L 1132.6 96.780937 
Q 1132.6 94.780937 1130.6 94.780937 
L 1074.229688 94.780937 
Q 1072.229688 94.780937 1072.229688 96.780937 
L 1072.229688 110.459062 
Q 1072.229688 112.459062 1074.229688 112.459062 
z
" style="fill: #ffffff; opacity: 0.8; stroke: #cccccc; stroke-linejoin: miter"/>
    </g>
    <g id="line2d_56">
     <path d="M 1076.229688 102.879375 
L 1086.229688 102.879375 
L 1096.229688 102.879375 
" style="fill: none; stroke: #ff0000; stroke-width: 1.5; stroke-linecap: square"/>
    </g>
    <g id="text_56">
     <!-- Error -->
     <g transform="translate(1104.229688 106.379375) scale(0.1 -0.1)">
      <defs>
       <path id="DejaVuSans-45" d="M 628 4666 
L 3578 4666 
L 3578 4134 
L 1259 4134 
L 1259 2753 
L 3481 2753 
L 3481 2222 
L 1259 2222 
L 1259 531 
L 3634 531 
L 3634 0 
L 628 0 
L 628 4666 
z
" transform="scale(0.015625)"/>
      </defs>
      <use xlink:href="#DejaVuSans-45"/>
      <use xlink:href="#DejaVuSans-72" x="63.183594"/>
      <use xlink:href="#DejaVuSans-72" x="102.546875"/>
      <use xlink:href="#DejaVuSans-6f" x="141.410156"/>
      <use xlink:href="#DejaVuSans-72" x="202.591797"/>
     </g>
    </g>
   </g>
  </g>
 </g>
 <defs>
  <clipPath id="paac339f928">
   <rect x="26.925" y="22.318125" width="223.997481" height="162.60375"/>
  </clipPath>
  <clipPath id="p632ff4258f">
   <rect x="290.593907" y="22.318125" width="223.997481" height="162.60375"/>
  </clipPath>
  <clipPath id="pa0950a5790">
   <rect x="554.262815" y="22.318125" width="223.997481" height="162.60375"/>
  </clipPath>
  <clipPath id="p043f525cb0">
   <rect x="817.931722" y="22.318125" width="223.997481" height="162.60375"/>
  </clipPath>
 </defs>
</svg>
