<?xml version="1.0" encoding="utf-8" standalone="no"?>
<!DOCTYPE svg PUBLIC "-//W3C//DTD SVG 1.1//EN"
  "http://www.w3.org/Graphics/SVG/1.1/DTD/svg11.dtd">
<svg xmlns:xlink="http://www.w3.org/1999/xlink" width="854.597192pt" height="242.64pt" viewBox="0 0 854.597192 242.64" xmlns="http://www.w3.org/2000/svg" version="1.1">
 <metadata>
  <rdf:RDF xmlns:dc="http://purl.org/dc/elements/1.1/" xmlns:cc="http://creativecommons.org/ns#" xmlns:rdf="http://www.w3.org/1999/02/22-rdf-syntax-ns#">
   <cc:Work>
    <dc:type rdf:resource="http://purl.org/dc/dcmitype/StillImage"/>
    <dc:date>2023-10-10T15:35:11.010688</dc:date>
    <dc:format>image/svg+xml</dc:format>
    <dc:creator>
     <cc:Agent>
      <dc:title>Matplotlib v3.7.1, https://matplotlib.org/</dc:title>
     </cc:Agent>
    </dc:creator>
   </cc:Work>
  </rdf:RDF>
 </metadata>
 <defs>
  <style type="text/css">*{stroke-linejoin: round; stroke-linecap: butt}</style>
 </defs>
 <g id="figure_1">
  <g id="patch_1">
   <path d="M 0 242.64 
L 854.597192 242.64 
L 854.597192 0 
L 0 0 
L 0 242.64 
z
" style="fill: none"/>
  </g>
  <g id="axes_1">
   <g id="patch_2">
    <path d="M 21.19875 217.794062 
L 195.028272 217.794062 
L 195.028272 23.229937 
L 21.19875 23.229937 
L 21.19875 217.794062 
z
" style="fill: none"/>
   </g>
   <g id="matplotlib.axis_1">
    <g id="xtick_1">
     <g id="line2d_1">
      <defs>
       <path id="me9307164a6" d="M 0 0 
L 0 3.5 
" style="stroke: #000000; stroke-width: 0.8"/>
      </defs>
      <g>
       <use xlink:href="#me9307164a6" x="28.03694" y="217.794062" style="stroke: #000000; stroke-width: 0.8"/>
      </g>
     </g>
     <g id="text_1">
      <!-- 0.0 -->
      <g transform="translate(19.290221 233.152344) scale(0.11 -0.11)">
       <defs>
        <path id="DejaVuSans-30" d="M 2034 4250 
Q 1547 4250 1301 3770 
Q 1056 3291 1056 2328 
Q 1056 1369 1301 889 
Q 1547 409 2034 409 
Q 2525 409 2770 889 
Q 3016 1369 3016 2328 
Q 3016 3291 2770 3770 
Q 2525 4250 2034 4250 
z
M 2034 4750 
Q 2819 4750 3233 4129 
Q 3647 3509 3647 2328 
Q 3647 1150 3233 529 
Q 2819 -91 2034 -91 
Q 1250 -91 836 529 
Q 422 1150 422 2328 
Q 422 3509 836 4129 
Q 1250 4750 2034 4750 
z
" transform="scale(0.015625)"/>
        <path id="DejaVuSans-2e" d="M 684 794 
L 1344 794 
L 1344 0 
L 684 0 
L 684 794 
z
" transform="scale(0.015625)"/>
       </defs>
       <use xlink:href="#DejaVuSans-30"/>
       <use xlink:href="#DejaVuSans-2e" x="63.623047"/>
       <use xlink:href="#DejaVuSans-30" x="95.410156"/>
      </g>
     </g>
    </g>
    <g id="xtick_2">
     <g id="line2d_2">
      <g>
       <use xlink:href="#me9307164a6" x="60.067568" y="217.794062" style="stroke: #000000; stroke-width: 0.8"/>
      </g>
     </g>
     <g id="text_2">
      <!-- 2.3 -->
      <g transform="translate(51.32085 233.152344) scale(0.11 -0.11)">
       <defs>
        <path id="DejaVuSans-32" d="M 1228 531 
L 3431 531 
L 3431 0 
L 469 0 
L 469 531 
Q 828 903 1448 1529 
Q 2069 2156 2228 2338 
Q 2531 2678 2651 2914 
Q 2772 3150 2772 3378 
Q 2772 3750 2511 3984 
Q 2250 4219 1831 4219 
Q 1534 4219 1204 4116 
Q 875 4013 500 3803 
L 500 4441 
Q 881 4594 1212 4672 
Q 1544 4750 1819 4750 
Q 2544 4750 2975 4387 
Q 3406 4025 3406 3419 
Q 3406 3131 3298 2873 
Q 3191 2616 2906 2266 
Q 2828 2175 2409 1742 
Q 1991 1309 1228 531 
z
" transform="scale(0.015625)"/>
        <path id="DejaVuSans-33" d="M 2597 2516 
Q 3050 2419 3304 2112 
Q 3559 1806 3559 1356 
Q 3559 666 3084 287 
Q 2609 -91 1734 -91 
Q 1441 -91 1130 -33 
Q 819 25 488 141 
L 488 750 
Q 750 597 1062 519 
Q 1375 441 1716 441 
Q 2309 441 2620 675 
Q 2931 909 2931 1356 
Q 2931 1769 2642 2001 
Q 2353 2234 1838 2234 
L 1294 2234 
L 1294 2753 
L 1863 2753 
Q 2328 2753 2575 2939 
Q 2822 3125 2822 3475 
Q 2822 3834 2567 4026 
Q 2313 4219 1838 4219 
Q 1578 4219 1281 4162 
Q 984 4106 628 3988 
L 628 4550 
Q 988 4650 1302 4700 
Q 1616 4750 1894 4750 
Q 2613 4750 3031 4423 
Q 3450 4097 3450 3541 
Q 3450 3153 3228 2886 
Q 3006 2619 2597 2516 
z
" transform="scale(0.015625)"/>
       </defs>
       <use xlink:href="#DejaVuSans-32"/>
       <use xlink:href="#DejaVuSans-2e" x="63.623047"/>
       <use xlink:href="#DejaVuSans-33" x="95.410156"/>
      </g>
     </g>
    </g>
    <g id="xtick_3">
     <g id="line2d_3">
      <g>
       <use xlink:href="#me9307164a6" x="92.098197" y="217.794062" style="stroke: #000000; stroke-width: 0.8"/>
      </g>
     </g>
     <g id="text_3">
      <!-- 4.7 -->
      <g transform="translate(83.351478 233.152344) scale(0.11 -0.11)">
       <defs>
        <path id="DejaVuSans-34" d="M 2419 4116 
L 825 1625 
L 2419 1625 
L 2419 4116 
z
M 2253 4666 
L 3047 4666 
L 3047 1625 
L 3713 1625 
L 3713 1100 
L 3047 1100 
L 3047 0 
L 2419 0 
L 2419 1100 
L 313 1100 
L 313 1709 
L 2253 4666 
z
" transform="scale(0.015625)"/>
        <path id="DejaVuSans-37" d="M 525 4666 
L 3525 4666 
L 3525 4397 
L 1831 0 
L 1172 0 
L 2766 4134 
L 525 4134 
L 525 4666 
z
" transform="scale(0.015625)"/>
       </defs>
       <use xlink:href="#DejaVuSans-34"/>
       <use xlink:href="#DejaVuSans-2e" x="63.623047"/>
       <use xlink:href="#DejaVuSans-37" x="95.410156"/>
      </g>
     </g>
    </g>
    <g id="xtick_4">
     <g id="line2d_4">
      <g>
       <use xlink:href="#me9307164a6" x="124.128825" y="217.794062" style="stroke: #000000; stroke-width: 0.8"/>
      </g>
     </g>
     <g id="text_4">
      <!-- 7.0 -->
      <g transform="translate(115.382107 233.152344) scale(0.11 -0.11)">
       <use xlink:href="#DejaVuSans-37"/>
       <use xlink:href="#DejaVuSans-2e" x="63.623047"/>
       <use xlink:href="#DejaVuSans-30" x="95.410156"/>
      </g>
     </g>
    </g>
    <g id="xtick_5">
     <g id="line2d_5">
      <g>
       <use xlink:href="#me9307164a6" x="156.159454" y="217.794062" style="stroke: #000000; stroke-width: 0.8"/>
      </g>
     </g>
     <g id="text_5">
      <!-- 9.4 -->
      <g transform="translate(147.412735 233.152344) scale(0.11 -0.11)">
       <defs>
        <path id="DejaVuSans-39" d="M 703 97 
L 703 672 
Q 941 559 1184 500 
Q 1428 441 1663 441 
Q 2288 441 2617 861 
Q 2947 1281 2994 2138 
Q 2813 1869 2534 1725 
Q 2256 1581 1919 1581 
Q 1219 1581 811 2004 
Q 403 2428 403 3163 
Q 403 3881 828 4315 
Q 1253 4750 1959 4750 
Q 2769 4750 3195 4129 
Q 3622 3509 3622 2328 
Q 3622 1225 3098 567 
Q 2575 -91 1691 -91 
Q 1453 -91 1209 -44 
Q 966 3 703 97 
z
M 1959 2075 
Q 2384 2075 2632 2365 
Q 2881 2656 2881 3163 
Q 2881 3666 2632 3958 
Q 2384 4250 1959 4250 
Q 1534 4250 1286 3958 
Q 1038 3666 1038 3163 
Q 1038 2656 1286 2365 
Q 1534 2075 1959 2075 
z
" transform="scale(0.015625)"/>
       </defs>
       <use xlink:href="#DejaVuSans-39"/>
       <use xlink:href="#DejaVuSans-2e" x="63.623047"/>
       <use xlink:href="#DejaVuSans-34" x="95.410156"/>
      </g>
     </g>
    </g>
    <g id="xtick_6">
     <g id="line2d_6">
      <g>
       <use xlink:href="#me9307164a6" x="188.190082" y="217.794062" style="stroke: #000000; stroke-width: 0.8"/>
      </g>
     </g>
     <g id="text_6">
      <!-- 11.7 -->
      <g transform="translate(175.943988 233.152344) scale(0.11 -0.11)">
       <defs>
        <path id="DejaVuSans-31" d="M 794 531 
L 1825 531 
L 1825 4091 
L 703 3866 
L 703 4441 
L 1819 4666 
L 2450 4666 
L 2450 531 
L 3481 531 
L 3481 0 
L 794 0 
L 794 531 
z
" transform="scale(0.015625)"/>
       </defs>
       <use xlink:href="#DejaVuSans-31"/>
       <use xlink:href="#DejaVuSans-31" x="63.623047"/>
       <use xlink:href="#DejaVuSans-2e" x="127.246094"/>
       <use xlink:href="#DejaVuSans-37" x="159.033203"/>
      </g>
     </g>
    </g>
   </g>
   <g id="matplotlib.axis_2">
    <g id="ytick_1">
     <g id="line2d_7">
      <defs>
       <path id="m2e398b64d1" d="M 0 0 
L -3.5 0 
" style="stroke: #000000; stroke-width: 0.8"/>
      </defs>
      <g>
       <use xlink:href="#m2e398b64d1" x="21.19875" y="208.996377" style="stroke: #000000; stroke-width: 0.8"/>
      </g>
     </g>
     <g id="text_7">
      <!-- 0 -->
      <g transform="translate(7.2 213.175518) scale(0.11 -0.11)">
       <use xlink:href="#DejaVuSans-30"/>
      </g>
     </g>
    </g>
    <g id="ytick_2">
     <g id="line2d_8">
      <g>
       <use xlink:href="#m2e398b64d1" x="21.19875" y="169.805564" style="stroke: #000000; stroke-width: 0.8"/>
      </g>
     </g>
     <g id="text_8">
      <!-- 2 -->
      <g transform="translate(7.2 173.984705) scale(0.11 -0.11)">
       <use xlink:href="#DejaVuSans-32"/>
      </g>
     </g>
    </g>
    <g id="ytick_3">
     <g id="line2d_9">
      <g>
       <use xlink:href="#m2e398b64d1" x="21.19875" y="130.614751" style="stroke: #000000; stroke-width: 0.8"/>
      </g>
     </g>
     <g id="text_9">
      <!-- 4 -->
      <g transform="translate(7.2 134.793891) scale(0.11 -0.11)">
       <use xlink:href="#DejaVuSans-34"/>
      </g>
     </g>
    </g>
    <g id="ytick_4">
     <g id="line2d_10">
      <g>
       <use xlink:href="#m2e398b64d1" x="21.19875" y="91.423937" style="stroke: #000000; stroke-width: 0.8"/>
      </g>
     </g>
     <g id="text_10">
      <!-- 6 -->
      <g transform="translate(7.2 95.603078) scale(0.11 -0.11)">
       <defs>
        <path id="DejaVuSans-36" d="M 2113 2584 
Q 1688 2584 1439 2293 
Q 1191 2003 1191 1497 
Q 1191 994 1439 701 
Q 1688 409 2113 409 
Q 2538 409 2786 701 
Q 3034 994 3034 1497 
Q 3034 2003 2786 2293 
Q 2538 2584 2113 2584 
z
M 3366 4563 
L 3366 3988 
Q 3128 4100 2886 4159 
Q 2644 4219 2406 4219 
Q 1781 4219 1451 3797 
Q 1122 3375 1075 2522 
Q 1259 2794 1537 2939 
Q 1816 3084 2150 3084 
Q 2853 3084 3261 2657 
Q 3669 2231 3669 1497 
Q 3669 778 3244 343 
Q 2819 -91 2113 -91 
Q 1303 -91 875 529 
Q 447 1150 447 2328 
Q 447 3434 972 4092 
Q 1497 4750 2381 4750 
Q 2619 4750 2861 4703 
Q 3103 4656 3366 4563 
z
" transform="scale(0.015625)"/>
       </defs>
       <use xlink:href="#DejaVuSans-36"/>
      </g>
     </g>
    </g>
    <g id="ytick_5">
     <g id="line2d_11">
      <g>
       <use xlink:href="#m2e398b64d1" x="21.19875" y="52.233124" style="stroke: #000000; stroke-width: 0.8"/>
      </g>
     </g>
     <g id="text_11">
      <!-- 8 -->
      <g transform="translate(7.2 56.412264) scale(0.11 -0.11)">
       <defs>
        <path id="DejaVuSans-38" d="M 2034 2216 
Q 1584 2216 1326 1975 
Q 1069 1734 1069 1313 
Q 1069 891 1326 650 
Q 1584 409 2034 409 
Q 2484 409 2743 651 
Q 3003 894 3003 1313 
Q 3003 1734 2745 1975 
Q 2488 2216 2034 2216 
z
M 1403 2484 
Q 997 2584 770 2862 
Q 544 3141 544 3541 
Q 544 4100 942 4425 
Q 1341 4750 2034 4750 
Q 2731 4750 3128 4425 
Q 3525 4100 3525 3541 
Q 3525 3141 3298 2862 
Q 3072 2584 2669 2484 
Q 3125 2378 3379 2068 
Q 3634 1759 3634 1313 
Q 3634 634 3220 271 
Q 2806 -91 2034 -91 
Q 1263 -91 848 271 
Q 434 634 434 1313 
Q 434 1759 690 2068 
Q 947 2378 1403 2484 
z
M 1172 3481 
Q 1172 3119 1398 2916 
Q 1625 2713 2034 2713 
Q 2441 2713 2670 2916 
Q 2900 3119 2900 3481 
Q 2900 3844 2670 4047 
Q 2441 4250 2034 4250 
Q 1625 4250 1398 4047 
Q 1172 3844 1172 3481 
z
" transform="scale(0.015625)"/>
       </defs>
       <use xlink:href="#DejaVuSans-38"/>
      </g>
     </g>
    </g>
   </g>
   <g id="line2d_12">
    <path d="M 28.03694 32.073761 
L 28.173704 32.766655 
L 28.310467 32.129608 
L 28.857523 35.085183 
L 28.994286 34.823977 
L 29.13105 33.10252 
L 29.267814 34.213972 
L 29.814869 34.323314 
L 29.951633 35.107914 
L 30.088397 34.213972 
L 30.498688 34.213972 
L 30.635452 34.493794 
L 30.772216 34.493794 
L 31.045743 34.63057 
L 31.182507 35.445739 
L 31.319271 35.274867 
L 31.456035 35.374608 
L 31.592799 34.757744 
L 31.866326 36.09082 
L 32.00309 36.09082 
L 32.139854 34.580602 
L 32.276618 36.19252 
L 32.686909 36.29324 
L 32.823673 36.621267 
L 32.960437 36.29324 
L 33.0972 37.773673 
L 33.233964 37.870279 
L 33.370728 37.262233 
L 33.507492 38.139911 
L 33.917783 38.756775 
L 34.054547 39.527658 
L 34.191311 38.728166 
L 34.464838 40.410431 
L 34.601602 40.301285 
L 34.738366 41.291441 
L 34.87513 40.973799 
L 35.148657 42.474415 
L 35.285421 42.694276 
L 35.422185 42.527519 
L 35.558949 44.177648 
L 35.695713 44.393981 
L 35.96924 45.659257 
L 36.106004 45.659061 
L 36.242768 46.366847 
L 36.379532 45.087855 
L 36.653059 48.142583 
L 36.789823 48.469826 
L 36.926587 49.422555 
L 37.063351 49.518572 
L 37.200114 51.011742 
L 37.336878 51.092279 
L 37.473642 52.838426 
L 37.610406 52.297201 
L 37.883933 54.151906 
L 38.020697 54.840489 
L 38.157461 56.387938 
L 38.294225 56.504335 
L 38.567752 58.152896 
L 38.704516 58.931814 
L 38.84128 58.523641 
L 39.251571 61.858388 
L 39.798613 65.076541 
L 39.935377 65.596995 
L 40.208904 67.837534 
L 40.345668 68.334082 
L 40.619196 70.114128 
L 40.755959 69.927384 
L 41.166251 74.10924 
L 41.713306 76.470095 
L 42.397139 81.70344 
L 42.533902 82.133167 
L 42.944194 85.159286 
L 43.354485 87.752542 
L 43.628013 88.726434 
L 44.311832 93.511828 
L 44.448596 93.481063 
L 44.585359 95.135111 
L 44.722123 95.330282 
L 45.405942 99.988698 
L 45.542706 100.337692 
L 45.816234 101.994875 
L 45.952997 102.523168 
L 46.226525 104.216211 
L 46.500053 106.224152 
L 46.636816 106.506718 
L 46.77358 106.047597 
L 47.183872 109.867526 
L 47.320635 110.260806 
L 47.730927 113.112917 
L 48.004454 114.032334 
L 48.277982 116.245439 
L 48.414746 116.582676 
L 49.64562 122.784622 
L 49.782384 123.119508 
L 49.919148 124.679498 
L 50.055911 124.888189 
L 50.73973 129.077099 
L 50.876494 128.874483 
L 51.013258 129.613621 
L 51.286785 132.057364 
L 51.423549 132.24744 
L 51.697077 133.545832 
L 52.51766 137.533693 
L 52.791187 138.419405 
L 53.338242 141.392812 
L 53.475006 141.488046 
L 53.61177 142.566577 
L 53.748534 142.26422 
L 54.022061 144.591174 
L 54.432353 146.024578 
L 54.842644 148.811241 
L 54.979408 148.930381 
L 55.936755 153.416554 
L 56.210282 154.212519 
L 57.167629 158.456884 
L 57.851448 161.106771 
L 58.808794 164.782673 
L 59.35585 167.150582 
L 59.492613 167.315968 
L 59.766141 168.254 
L 60.44996 170.810025 
L 60.586724 171.179986 
L 60.860251 172.385691 
L 62.227889 177.004133 
L 62.364653 177.182255 
L 62.638181 178.375615 
L 62.911708 179.021872 
L 63.185236 180.273234 
L 63.322 180.388455 
L 63.595527 181.343731 
L 64.142582 182.839645 
L 65.099929 186.027621 
L 65.373457 186.506141 
L 65.646984 187.061279 
L 67.835205 192.600352 
L 67.971969 192.637916 
L 68.655788 194.433169 
L 69.749898 196.309351 
L 70.433717 197.588833 
L 71.391064 199.214233 
L 71.527828 199.309819 
L 71.938119 200.021328 
L 72.074883 200.066574 
L 72.621938 201.041661 
L 73.442521 201.832238 
L 73.852812 202.504066 
L 73.989576 202.543982 
L 74.12634 202.825549 
L 74.399867 202.902108 
L 74.673395 203.375161 
L 74.810159 203.244224 
L 75.22045 203.871336 
L 75.357214 203.900964 
L 75.493978 204.17483 
L 75.767505 204.253877 
L 75.904269 204.525803 
L 76.31456 204.61798 
L 76.451324 204.881597 
L 76.588088 204.894608 
L 76.998379 205.196475 
L 77.271907 205.305387 
L 77.545435 205.732077 
L 77.682198 205.598534 
L 77.955726 205.834208 
L 78.776309 206.285431 
L 78.913073 206.232935 
L 79.049836 206.315334 
L 79.1866 206.54317 
L 79.460128 206.586769 
L 79.733655 206.865553 
L 80.143947 206.841608 
L 80.417474 207.113233 
L 80.827766 207.190569 
L 81.101293 207.37956 
L 81.238057 207.451264 
L 81.511585 207.222491 
L 81.785112 207.472421 
L 82.332168 207.573224 
L 82.605695 207.760438 
L 82.879223 207.831458 
L 83.15275 208.012521 
L 84.520388 208.107573 
L 85.204207 208.196691 
L 85.477735 208.376277 
L 87.1189 208.434414 
L 87.392428 208.608561 
L 87.665956 208.470899 
L 87.93962 208.644297 
L 88.076384 208.644297 
L 88.349911 208.47365 
L 88.486675 208.625233 
L 88.760203 208.478379 
L 89.03373 208.482713 
L 89.307258 208.65666 
L 92.042534 208.749191 
L 92.316062 208.919566 
L 92.863117 208.897379 
L 93.136644 208.72784 
L 93.6837 208.745527 
L 93.8206 40.232505 
L 96.419112 40.426303 
L 97.239695 40.709065 
L 97.78675 41.107832 
L 98.333805 41.580865 
L 99.70158 43.270773 
L 100.385399 44.592091 
L 101.889801 48.202937 
L 103.257439 52.707921 
L 104.761841 58.921036 
L 105.172132 60.521785 
L 105.582423 62.547558 
L 106.266379 65.349897 
L 106.950198 68.505737 
L 107.634017 71.80482 
L 108.044309 73.909759 
L 109.275183 79.369823 
L 109.411947 79.834038 
L 109.822238 82.053414 
L 109.959002 82.329709 
L 112.010595 91.478412 
L 112.147359 91.739423 
L 113.24147 96.778382 
L 113.514997 97.805573 
L 116.250273 109.153273 
L 116.387037 109.545377 
L 116.797328 111.374805 
L 117.20762 112.983783 
L 117.618048 114.720524 
L 118.712158 118.481471 
L 119.395977 121.474473 
L 119.806269 122.78619 
L 120.21656 124.376357 
L 121.037143 127.236698 
L 121.447434 129.149798 
L 121.584198 129.293432 
L 121.857726 130.146224 
L 121.994489 130.364713 
L 122.678308 132.958557 
L 122.951836 133.882677 
L 123.225364 134.658067 
L 123.362127 134.851278 
L 123.772556 136.45477 
L 124.593138 139.792259 
L 126.09754 144.493981 
L 127.738706 149.864494 
L 128.148997 150.755497 
L 128.559289 151.792095 
L 128.696052 152.038409 
L 129.379871 154.582089 
L 129.516635 154.781766 
L 129.927063 156.115625 
L 130.610882 158.100444 
L 132.252048 163.032216 
L 132.799103 164.343736 
L 133.209394 165.224158 
L 133.893213 167.328117 
L 134.166741 168.014544 
L 134.577032 169.136969 
L 134.85056 169.502227 
L 135.944807 172.861468 
L 136.081571 173.038218 
L 136.628626 174.457514 
L 137.585973 176.667679 
L 138.269792 178.44949 
L 138.543319 179.041859 
L 139.227138 180.545023 
L 139.63743 181.573977 
L 141.278595 184.746278 
L 141.415359 184.886973 
L 141.688887 185.618469 
L 141.825787 185.75407 
L 142.64637 187.771613 
L 142.783134 187.878604 
L 143.466953 189.177191 
L 144.150772 190.371335 
L 144.287536 190.479365 
L 144.834591 191.581704 
L 145.108118 191.863682 
L 145.51841 192.548502 
L 148.664114 197.287025 
L 149.62146 198.468059 
L 150.305279 199.192482 
L 153.724374 202.557013 
L 153.861275 202.601103 
L 154.271566 203.011294 
L 157.417134 204.954472 
L 159.742255 206.028477 
L 162.887822 207.030135 
L 163.024586 207.064549 
L 163.16135 206.905273 
L 163.434877 207.022983 
L 166.169743 207.545874 
L 168.631492 208.025927 
L 172.18735 208.469739 
L 178.343089 208.842038 
L 188.600374 208.949006 
L 188.600374 208.949006 
" clip-path="url(#p6316fc46c2)" style="fill: none; stroke: #ff0000; stroke-width: 1.5; stroke-linecap: square"/>
   </g>
   <g id="patch_3">
    <path d="M 21.19875 217.794062 
L 21.19875 23.229937 
" style="fill: none; stroke: #000000; stroke-width: 0.8; stroke-linejoin: miter; stroke-linecap: square"/>
   </g>
   <g id="patch_4">
    <path d="M 195.028272 217.794062 
L 195.028272 23.229937 
" style="fill: none; stroke: #000000; stroke-width: 0.8; stroke-linejoin: miter; stroke-linecap: square"/>
   </g>
   <g id="patch_5">
    <path d="M 21.19875 217.794062 
L 195.028272 217.794062 
" style="fill: none; stroke: #000000; stroke-width: 0.8; stroke-linejoin: miter; stroke-linecap: square"/>
   </g>
   <g id="patch_6">
    <path d="M 21.19875 23.229937 
L 195.028272 23.229937 
" style="fill: none; stroke: #000000; stroke-width: 0.8; stroke-linejoin: miter; stroke-linecap: square"/>
   </g>
   <g id="text_12">
    <!-- Drone 1 (Leader) -->
    <g transform="translate(52.008355 17.229937) scale(0.132 -0.132)">
     <defs>
      <path id="DejaVuSans-44" d="M 1259 4147 
L 1259 519 
L 2022 519 
Q 2988 519 3436 956 
Q 3884 1394 3884 2338 
Q 3884 3275 3436 3711 
Q 2988 4147 2022 4147 
L 1259 4147 
z
M 628 4666 
L 1925 4666 
Q 3281 4666 3915 4102 
Q 4550 3538 4550 2338 
Q 4550 1131 3912 565 
Q 3275 0 1925 0 
L 628 0 
L 628 4666 
z
" transform="scale(0.015625)"/>
      <path id="DejaVuSans-72" d="M 2631 2963 
Q 2534 3019 2420 3045 
Q 2306 3072 2169 3072 
Q 1681 3072 1420 2755 
Q 1159 2438 1159 1844 
L 1159 0 
L 581 0 
L 581 3500 
L 1159 3500 
L 1159 2956 
Q 1341 3275 1631 3429 
Q 1922 3584 2338 3584 
Q 2397 3584 2469 3576 
Q 2541 3569 2628 3553 
L 2631 2963 
z
" transform="scale(0.015625)"/>
      <path id="DejaVuSans-6f" d="M 1959 3097 
Q 1497 3097 1228 2736 
Q 959 2375 959 1747 
Q 959 1119 1226 758 
Q 1494 397 1959 397 
Q 2419 397 2687 759 
Q 2956 1122 2956 1747 
Q 2956 2369 2687 2733 
Q 2419 3097 1959 3097 
z
M 1959 3584 
Q 2709 3584 3137 3096 
Q 3566 2609 3566 1747 
Q 3566 888 3137 398 
Q 2709 -91 1959 -91 
Q 1206 -91 779 398 
Q 353 888 353 1747 
Q 353 2609 779 3096 
Q 1206 3584 1959 3584 
z
" transform="scale(0.015625)"/>
      <path id="DejaVuSans-6e" d="M 3513 2113 
L 3513 0 
L 2938 0 
L 2938 2094 
Q 2938 2591 2744 2837 
Q 2550 3084 2163 3084 
Q 1697 3084 1428 2787 
Q 1159 2491 1159 1978 
L 1159 0 
L 581 0 
L 581 3500 
L 1159 3500 
L 1159 2956 
Q 1366 3272 1645 3428 
Q 1925 3584 2291 3584 
Q 2894 3584 3203 3211 
Q 3513 2838 3513 2113 
z
" transform="scale(0.015625)"/>
      <path id="DejaVuSans-65" d="M 3597 1894 
L 3597 1613 
L 953 1613 
Q 991 1019 1311 708 
Q 1631 397 2203 397 
Q 2534 397 2845 478 
Q 3156 559 3463 722 
L 3463 178 
Q 3153 47 2828 -22 
Q 2503 -91 2169 -91 
Q 1331 -91 842 396 
Q 353 884 353 1716 
Q 353 2575 817 3079 
Q 1281 3584 2069 3584 
Q 2775 3584 3186 3129 
Q 3597 2675 3597 1894 
z
M 3022 2063 
Q 3016 2534 2758 2815 
Q 2500 3097 2075 3097 
Q 1594 3097 1305 2825 
Q 1016 2553 972 2059 
L 3022 2063 
z
" transform="scale(0.015625)"/>
      <path id="DejaVuSans-20" transform="scale(0.015625)"/>
      <path id="DejaVuSans-28" d="M 1984 4856 
Q 1566 4138 1362 3434 
Q 1159 2731 1159 2009 
Q 1159 1288 1364 580 
Q 1569 -128 1984 -844 
L 1484 -844 
Q 1016 -109 783 600 
Q 550 1309 550 2009 
Q 550 2706 781 3412 
Q 1013 4119 1484 4856 
L 1984 4856 
z
" transform="scale(0.015625)"/>
      <path id="DejaVuSans-4c" d="M 628 4666 
L 1259 4666 
L 1259 531 
L 3531 531 
L 3531 0 
L 628 0 
L 628 4666 
z
" transform="scale(0.015625)"/>
      <path id="DejaVuSans-61" d="M 2194 1759 
Q 1497 1759 1228 1600 
Q 959 1441 959 1056 
Q 959 750 1161 570 
Q 1363 391 1709 391 
Q 2188 391 2477 730 
Q 2766 1069 2766 1631 
L 2766 1759 
L 2194 1759 
z
M 3341 1997 
L 3341 0 
L 2766 0 
L 2766 531 
Q 2569 213 2275 61 
Q 1981 -91 1556 -91 
Q 1019 -91 701 211 
Q 384 513 384 1019 
Q 384 1609 779 1909 
Q 1175 2209 1959 2209 
L 2766 2209 
L 2766 2266 
Q 2766 2663 2505 2880 
Q 2244 3097 1772 3097 
Q 1472 3097 1187 3025 
Q 903 2953 641 2809 
L 641 3341 
Q 956 3463 1253 3523 
Q 1550 3584 1831 3584 
Q 2591 3584 2966 3190 
Q 3341 2797 3341 1997 
z
" transform="scale(0.015625)"/>
      <path id="DejaVuSans-64" d="M 2906 2969 
L 2906 4863 
L 3481 4863 
L 3481 0 
L 2906 0 
L 2906 525 
Q 2725 213 2448 61 
Q 2172 -91 1784 -91 
Q 1150 -91 751 415 
Q 353 922 353 1747 
Q 353 2572 751 3078 
Q 1150 3584 1784 3584 
Q 2172 3584 2448 3432 
Q 2725 3281 2906 2969 
z
M 947 1747 
Q 947 1113 1208 752 
Q 1469 391 1925 391 
Q 2381 391 2643 752 
Q 2906 1113 2906 1747 
Q 2906 2381 2643 2742 
Q 2381 3103 1925 3103 
Q 1469 3103 1208 2742 
Q 947 2381 947 1747 
z
" transform="scale(0.015625)"/>
      <path id="DejaVuSans-29" d="M 513 4856 
L 1013 4856 
Q 1481 4119 1714 3412 
Q 1947 2706 1947 2009 
Q 1947 1309 1714 600 
Q 1481 -109 1013 -844 
L 513 -844 
Q 928 -128 1133 580 
Q 1338 1288 1338 2009 
Q 1338 2731 1133 3434 
Q 928 4138 513 4856 
z
" transform="scale(0.015625)"/>
     </defs>
     <use xlink:href="#DejaVuSans-44"/>
     <use xlink:href="#DejaVuSans-72" x="77.001953"/>
     <use xlink:href="#DejaVuSans-6f" x="115.865234"/>
     <use xlink:href="#DejaVuSans-6e" x="177.046875"/>
     <use xlink:href="#DejaVuSans-65" x="240.425781"/>
     <use xlink:href="#DejaVuSans-20" x="301.949219"/>
     <use xlink:href="#DejaVuSans-31" x="333.736328"/>
     <use xlink:href="#DejaVuSans-20" x="397.359375"/>
     <use xlink:href="#DejaVuSans-28" x="429.146484"/>
     <use xlink:href="#DejaVuSans-4c" x="468.160156"/>
     <use xlink:href="#DejaVuSans-65" x="522.123047"/>
     <use xlink:href="#DejaVuSans-61" x="583.646484"/>
     <use xlink:href="#DejaVuSans-64" x="644.925781"/>
     <use xlink:href="#DejaVuSans-65" x="708.402344"/>
     <use xlink:href="#DejaVuSans-72" x="769.925781"/>
     <use xlink:href="#DejaVuSans-29" x="811.039062"/>
    </g>
   </g>
  </g>
  <g id="axes_2">
   <g id="patch_7">
    <path d="M 236.852422 217.794062 
L 410.681944 217.794062 
L 410.681944 23.229937 
L 236.852422 23.229937 
L 236.852422 217.794062 
z
" style="fill: none"/>
   </g>
   <g id="matplotlib.axis_3">
    <g id="xtick_7">
     <g id="line2d_13">
      <g>
       <use xlink:href="#me9307164a6" x="243.690612" y="217.794062" style="stroke: #000000; stroke-width: 0.8"/>
      </g>
     </g>
     <g id="text_13">
      <!-- 0.0 -->
      <g transform="translate(234.943893 233.152344) scale(0.11 -0.11)">
       <use xlink:href="#DejaVuSans-30"/>
       <use xlink:href="#DejaVuSans-2e" x="63.623047"/>
       <use xlink:href="#DejaVuSans-30" x="95.410156"/>
      </g>
     </g>
    </g>
    <g id="xtick_8">
     <g id="line2d_14">
      <g>
       <use xlink:href="#me9307164a6" x="275.72124" y="217.794062" style="stroke: #000000; stroke-width: 0.8"/>
      </g>
     </g>
     <g id="text_14">
      <!-- 2.3 -->
      <g transform="translate(266.974521 233.152344) scale(0.11 -0.11)">
       <use xlink:href="#DejaVuSans-32"/>
       <use xlink:href="#DejaVuSans-2e" x="63.623047"/>
       <use xlink:href="#DejaVuSans-33" x="95.410156"/>
      </g>
     </g>
    </g>
    <g id="xtick_9">
     <g id="line2d_15">
      <g>
       <use xlink:href="#me9307164a6" x="307.751869" y="217.794062" style="stroke: #000000; stroke-width: 0.8"/>
      </g>
     </g>
     <g id="text_15">
      <!-- 4.7 -->
      <g transform="translate(299.00515 233.152344) scale(0.11 -0.11)">
       <use xlink:href="#DejaVuSans-34"/>
       <use xlink:href="#DejaVuSans-2e" x="63.623047"/>
       <use xlink:href="#DejaVuSans-37" x="95.410156"/>
      </g>
     </g>
    </g>
    <g id="xtick_10">
     <g id="line2d_16">
      <g>
       <use xlink:href="#me9307164a6" x="339.782497" y="217.794062" style="stroke: #000000; stroke-width: 0.8"/>
      </g>
     </g>
     <g id="text_16">
      <!-- 7.0 -->
      <g transform="translate(331.035778 233.152344) scale(0.11 -0.11)">
       <use xlink:href="#DejaVuSans-37"/>
       <use xlink:href="#DejaVuSans-2e" x="63.623047"/>
       <use xlink:href="#DejaVuSans-30" x="95.410156"/>
      </g>
     </g>
    </g>
    <g id="xtick_11">
     <g id="line2d_17">
      <g>
       <use xlink:href="#me9307164a6" x="371.813126" y="217.794062" style="stroke: #000000; stroke-width: 0.8"/>
      </g>
     </g>
     <g id="text_17">
      <!-- 9.4 -->
      <g transform="translate(363.066407 233.152344) scale(0.11 -0.11)">
       <use xlink:href="#DejaVuSans-39"/>
       <use xlink:href="#DejaVuSans-2e" x="63.623047"/>
       <use xlink:href="#DejaVuSans-34" x="95.410156"/>
      </g>
     </g>
    </g>
    <g id="xtick_12">
     <g id="line2d_18">
      <g>
       <use xlink:href="#me9307164a6" x="403.843754" y="217.794062" style="stroke: #000000; stroke-width: 0.8"/>
      </g>
     </g>
     <g id="text_18">
      <!-- 11.7 -->
      <g transform="translate(391.59766 233.152344) scale(0.11 -0.11)">
       <use xlink:href="#DejaVuSans-31"/>
       <use xlink:href="#DejaVuSans-31" x="63.623047"/>
       <use xlink:href="#DejaVuSans-2e" x="127.246094"/>
       <use xlink:href="#DejaVuSans-37" x="159.033203"/>
      </g>
     </g>
    </g>
   </g>
   <g id="matplotlib.axis_4">
    <g id="ytick_6">
     <g id="line2d_19">
      <g>
       <use xlink:href="#m2e398b64d1" x="236.852422" y="209.022419" style="stroke: #000000; stroke-width: 0.8"/>
      </g>
     </g>
     <g id="text_19">
      <!-- 0 -->
      <g transform="translate(222.853672 213.201559) scale(0.11 -0.11)">
       <use xlink:href="#DejaVuSans-30"/>
      </g>
     </g>
    </g>
    <g id="ytick_7">
     <g id="line2d_20">
      <g>
       <use xlink:href="#m2e398b64d1" x="236.852422" y="169.54557" style="stroke: #000000; stroke-width: 0.8"/>
      </g>
     </g>
     <g id="text_20">
      <!-- 2 -->
      <g transform="translate(222.853672 173.724711) scale(0.11 -0.11)">
       <use xlink:href="#DejaVuSans-32"/>
      </g>
     </g>
    </g>
    <g id="ytick_8">
     <g id="line2d_21">
      <g>
       <use xlink:href="#m2e398b64d1" x="236.852422" y="130.068722" style="stroke: #000000; stroke-width: 0.8"/>
      </g>
     </g>
     <g id="text_21">
      <!-- 4 -->
      <g transform="translate(222.853672 134.247862) scale(0.11 -0.11)">
       <use xlink:href="#DejaVuSans-34"/>
      </g>
     </g>
    </g>
    <g id="ytick_9">
     <g id="line2d_22">
      <g>
       <use xlink:href="#m2e398b64d1" x="236.852422" y="90.591873" style="stroke: #000000; stroke-width: 0.8"/>
      </g>
     </g>
     <g id="text_22">
      <!-- 6 -->
      <g transform="translate(222.853672 94.771014) scale(0.11 -0.11)">
       <use xlink:href="#DejaVuSans-36"/>
      </g>
     </g>
    </g>
    <g id="ytick_10">
     <g id="line2d_23">
      <g>
       <use xlink:href="#m2e398b64d1" x="236.852422" y="51.115024" style="stroke: #000000; stroke-width: 0.8"/>
      </g>
     </g>
     <g id="text_23">
      <!-- 8 -->
      <g transform="translate(222.853672 55.294165) scale(0.11 -0.11)">
       <use xlink:href="#DejaVuSans-38"/>
      </g>
     </g>
    </g>
   </g>
   <g id="line2d_24">
    <path d="M 243.690612 32.073761 
L 243.964139 33.884564 
L 244.100903 33.924633 
L 244.237667 35.033143 
L 244.374431 34.82589 
L 244.511195 34.988732 
L 244.647958 35.772347 
L 244.784722 35.479232 
L 246.289124 35.527788 
L 246.699415 36.512933 
L 246.836179 36.751571 
L 247.383234 36.649325 
L 247.519998 37.294575 
L 247.656762 37.341947 
L 247.793526 36.903754 
L 247.930289 37.429783 
L 248.067053 37.47676 
L 248.203817 37.037975 
L 248.340581 37.489393 
L 248.477345 38.815223 
L 248.750872 37.830275 
L 248.887636 38.948062 
L 249.0244 39.079915 
L 249.161164 38.884307 
L 249.297927 39.694372 
L 249.571455 39.783195 
L 249.844983 41.211073 
L 249.981746 41.265946 
L 250.11851 41.468462 
L 250.255274 42.596315 
L 250.528802 42.511045 
L 250.665565 43.139912 
L 250.802329 44.515088 
L 251.075857 44.795176 
L 251.622912 46.511037 
L 251.89644 48.74444 
L 252.033203 48.528896 
L 252.169967 49.540096 
L 252.306731 49.170987 
L 252.717022 51.818305 
L 252.853786 51.858176 
L 253.947897 58.843605 
L 254.08466 58.904596 
L 254.221424 60.369779 
L 254.358188 60.355568 
L 254.494952 61.077007 
L 254.768479 62.808659 
L 255.315521 65.895354 
L 255.725812 68.616296 
L 256.136104 71.015896 
L 256.272867 71.509554 
L 256.683159 74.771921 
L 256.819923 75.101355 
L 259.008157 89.376973 
L 259.144921 89.605347 
L 259.691976 93.248468 
L 259.82874 93.792656 
L 260.239031 96.522875 
L 260.92285 101.174827 
L 261.333142 103.131299 
L 262.290488 108.529363 
L 262.427252 108.552655 
L 262.70078 110.580383 
L 263.521362 115.881927 
L 263.658126 116.096681 
L 264.205181 119.134819 
L 264.615473 121.647915 
L 264.752237 121.731606 
L 265.709583 127.001963 
L 265.846347 127.532334 
L 266.256638 129.998058 
L 266.393402 130.286436 
L 266.803694 132.464966 
L 267.077221 133.428004 
L 267.350749 135.591927 
L 267.487513 135.842211 
L 269.265442 144.020235 
L 269.53897 145.52075 
L 271.043371 152.23063 
L 271.180135 152.24642 
L 271.590426 154.649771 
L 271.863954 155.745253 
L 273.50512 162.419999 
L 273.641883 162.447633 
L 274.052175 164.443977 
L 276.924215 174.910671 
L 279.249199 182.12546 
L 279.522727 182.797159 
L 279.933018 184.246551 
L 280.069782 184.410183 
L 280.34331 185.258738 
L 281.43742 188.00909 
L 282.121239 189.686974 
L 282.394766 190.489104 
L 283.762404 193.560067 
L 283.899168 193.606433 
L 284.30946 194.709574 
L 284.719751 195.28712 
L 285.130042 196.047109 
L 285.540334 196.707616 
L 286.634444 198.755319 
L 286.771208 198.801468 
L 287.044736 199.32651 
L 287.865318 200.405531 
L 288.002082 200.525856 
L 288.549137 201.480248 
L 288.822665 201.623056 
L 289.096193 202.072756 
L 289.916775 202.889078 
L 290.053539 202.902086 
L 290.327067 203.231343 
L 290.463831 203.245673 
L 290.737358 203.760569 
L 290.874122 203.673799 
L 291.14765 203.962414 
L 291.831469 204.60717 
L 291.968232 204.631093 
L 292.24176 205.007327 
L 292.378524 205.019506 
L 292.515288 205.252992 
L 292.788815 205.217956 
L 293.062343 205.450238 
L 293.199107 205.461528 
L 293.33587 205.692685 
L 293.472634 205.60473 
L 294.019689 206.103757 
L 294.156453 206.026659 
L 294.703508 206.394208 
L 294.840272 206.404196 
L 294.977036 206.568005 
L 295.1138 206.479715 
L 295.387327 206.705503 
L 295.524091 206.714997 
L 295.660855 206.96832 
L 295.797619 206.751 
L 296.071146 207.013323 
L 296.344674 207.022344 
L 296.618201 207.164163 
L 296.754965 207.164163 
L 297.028493 207.329896 
L 297.165257 207.304625 
L 297.438784 207.473697 
L 297.712312 207.475988 
L 300.447588 208.119439 
L 300.857879 208.156794 
L 301.131407 208.287743 
L 301.404934 208.25868 
L 301.678462 208.391563 
L 302.772572 208.466026 
L 302.909336 208.55958 
L 303.182864 208.44563 
L 303.730056 208.515228 
L 304.550638 208.618199 
L 304.824166 208.705799 
L 306.602095 208.805142 
L 306.738859 208.840288 
L 307.012387 208.722797 
L 307.149151 208.797355 
L 307.422678 208.712393 
L 308.653552 208.808472 
L 308.92708 208.899522 
L 309.200608 208.865548 
L 309.337371 208.780662 
L 309.474272 37.359119 
L 310.431619 37.320235 
L 312.756603 37.803629 
L 313.987477 38.807327 
L 314.80806 39.852082 
L 315.492016 41.137054 
L 315.62878 41.195479 
L 316.449362 42.993847 
L 316.996418 44.356193 
L 318.090528 47.982734 
L 318.774347 50.359635 
L 319.184638 51.929827 
L 319.868457 54.664783 
L 320.141985 56.123255 
L 320.68904 58.396727 
L 321.50976 62.214138 
L 323.014161 69.100085 
L 323.561217 72.230401 
L 324.655327 77.365155 
L 325.612674 81.46522 
L 326.706784 86.741301 
L 326.980312 87.898565 
L 327.527504 90.517459 
L 327.801031 91.468456 
L 328.48485 94.630552 
L 329.442197 98.890499 
L 330.399543 103.266902 
L 330.673071 104.372451 
L 331.35689 106.866993 
L 332.314236 110.793953 
L 334.639358 119.875602 
L 335.323177 122.842484 
L 336.827579 128.736575 
L 337.101106 129.639016 
L 337.23787 129.861468 
L 338.058453 132.715052 
L 338.605508 134.765874 
L 339.015799 135.661999 
L 339.562991 137.896783 
L 340.520338 141.346665 
L 341.340921 144.105899 
L 342.02474 146.29114 
L 342.298267 147.416625 
L 343.802669 152.065419 
L 344.21296 152.881208 
L 345.170307 156.111796 
L 345.443971 156.967654 
L 345.854263 158.274338 
L 346.264554 159.303697 
L 346.948373 161.449461 
L 347.221901 161.863178 
L 347.768956 163.643387 
L 349.410121 168.172565 
L 349.683649 169.101456 
L 350.367468 170.796789 
L 351.051287 172.459159 
L 351.461715 173.92296 
L 351.872007 174.818098 
L 352.145534 175.384591 
L 352.692589 176.602057 
L 353.102881 177.54733 
L 354.88081 181.715098 
L 356.932267 186.008798 
L 357.479459 186.67418 
L 357.752987 187.352984 
L 358.573569 189.359435 
L 360.351499 192.223046 
L 360.625026 192.747575 
L 361.035318 193.412424 
L 361.172082 193.52515 
L 361.582373 194.203955 
L 363.086775 196.45149 
L 363.360302 196.782523 
L 364.044258 197.630506 
L 364.728077 198.65716 
L 364.864841 198.720146 
L 365.54866 199.559483 
L 366.232479 200.17163 
L 366.779534 200.768224 
L 367.189825 201.203002 
L 369.514947 203.145481 
L 371.019349 204.201427 
L 371.292876 204.314548 
L 371.976695 204.714369 
L 373.070806 205.327524 
L 373.891388 205.70287 
L 377.31062 206.931626 
L 377.857675 207.103423 
L 378.131203 207.591144 
L 379.225313 207.717138 
L 379.498841 207.796781 
L 385.926329 208.43813 
L 390.029243 208.662704 
L 393.586469 208.796015 
L 404.937864 208.950239 
L 404.937864 208.950239 
" clip-path="url(#pfd53a307dd)" style="fill: none; stroke: #ff0000; stroke-width: 1.5; stroke-linecap: square"/>
   </g>
   <g id="patch_8">
    <path d="M 236.852422 217.794062 
L 236.852422 23.229937 
" style="fill: none; stroke: #000000; stroke-width: 0.8; stroke-linejoin: miter; stroke-linecap: square"/>
   </g>
   <g id="patch_9">
    <path d="M 410.681944 217.794062 
L 410.681944 23.229937 
" style="fill: none; stroke: #000000; stroke-width: 0.8; stroke-linejoin: miter; stroke-linecap: square"/>
   </g>
   <g id="patch_10">
    <path d="M 236.852422 217.794062 
L 410.681944 217.794062 
" style="fill: none; stroke: #000000; stroke-width: 0.8; stroke-linejoin: miter; stroke-linecap: square"/>
   </g>
   <g id="patch_11">
    <path d="M 236.852422 23.229937 
L 410.681944 23.229937 
" style="fill: none; stroke: #000000; stroke-width: 0.8; stroke-linejoin: miter; stroke-linecap: square"/>
   </g>
   <g id="text_24">
    <!-- Drone 2 (Leader) -->
    <g transform="translate(267.662027 17.229937) scale(0.132 -0.132)">
     <use xlink:href="#DejaVuSans-44"/>
     <use xlink:href="#DejaVuSans-72" x="77.001953"/>
     <use xlink:href="#DejaVuSans-6f" x="115.865234"/>
     <use xlink:href="#DejaVuSans-6e" x="177.046875"/>
     <use xlink:href="#DejaVuSans-65" x="240.425781"/>
     <use xlink:href="#DejaVuSans-20" x="301.949219"/>
     <use xlink:href="#DejaVuSans-32" x="333.736328"/>
     <use xlink:href="#DejaVuSans-20" x="397.359375"/>
     <use xlink:href="#DejaVuSans-28" x="429.146484"/>
     <use xlink:href="#DejaVuSans-4c" x="468.160156"/>
     <use xlink:href="#DejaVuSans-65" x="522.123047"/>
     <use xlink:href="#DejaVuSans-61" x="583.646484"/>
     <use xlink:href="#DejaVuSans-64" x="644.925781"/>
     <use xlink:href="#DejaVuSans-65" x="708.402344"/>
     <use xlink:href="#DejaVuSans-72" x="769.925781"/>
     <use xlink:href="#DejaVuSans-29" x="811.039062"/>
    </g>
   </g>
  </g>
  <g id="axes_3">
   <g id="patch_12">
    <path d="M 452.506094 217.794062 
L 626.335616 217.794062 
L 626.335616 23.229937 
L 452.506094 23.229937 
L 452.506094 217.794062 
z
" style="fill: none"/>
   </g>
   <g id="matplotlib.axis_5">
    <g id="xtick_13">
     <g id="line2d_25">
      <g>
       <use xlink:href="#me9307164a6" x="459.344284" y="217.794062" style="stroke: #000000; stroke-width: 0.8"/>
      </g>
     </g>
     <g id="text_25">
      <!-- 0.0 -->
      <g transform="translate(450.597565 233.152344) scale(0.11 -0.11)">
       <use xlink:href="#DejaVuSans-30"/>
       <use xlink:href="#DejaVuSans-2e" x="63.623047"/>
       <use xlink:href="#DejaVuSans-30" x="95.410156"/>
      </g>
     </g>
    </g>
    <g id="xtick_14">
     <g id="line2d_26">
      <g>
       <use xlink:href="#me9307164a6" x="491.374912" y="217.794062" style="stroke: #000000; stroke-width: 0.8"/>
      </g>
     </g>
     <g id="text_26">
      <!-- 2.3 -->
      <g transform="translate(482.628193 233.152344) scale(0.11 -0.11)">
       <use xlink:href="#DejaVuSans-32"/>
       <use xlink:href="#DejaVuSans-2e" x="63.623047"/>
       <use xlink:href="#DejaVuSans-33" x="95.410156"/>
      </g>
     </g>
    </g>
    <g id="xtick_15">
     <g id="line2d_27">
      <g>
       <use xlink:href="#me9307164a6" x="523.405541" y="217.794062" style="stroke: #000000; stroke-width: 0.8"/>
      </g>
     </g>
     <g id="text_27">
      <!-- 4.7 -->
      <g transform="translate(514.658822 233.152344) scale(0.11 -0.11)">
       <use xlink:href="#DejaVuSans-34"/>
       <use xlink:href="#DejaVuSans-2e" x="63.623047"/>
       <use xlink:href="#DejaVuSans-37" x="95.410156"/>
      </g>
     </g>
    </g>
    <g id="xtick_16">
     <g id="line2d_28">
      <g>
       <use xlink:href="#me9307164a6" x="555.436169" y="217.794062" style="stroke: #000000; stroke-width: 0.8"/>
      </g>
     </g>
     <g id="text_28">
      <!-- 7.0 -->
      <g transform="translate(546.68945 233.152344) scale(0.11 -0.11)">
       <use xlink:href="#DejaVuSans-37"/>
       <use xlink:href="#DejaVuSans-2e" x="63.623047"/>
       <use xlink:href="#DejaVuSans-30" x="95.410156"/>
      </g>
     </g>
    </g>
    <g id="xtick_17">
     <g id="line2d_29">
      <g>
       <use xlink:href="#me9307164a6" x="587.466797" y="217.794062" style="stroke: #000000; stroke-width: 0.8"/>
      </g>
     </g>
     <g id="text_29">
      <!-- 9.4 -->
      <g transform="translate(578.720079 233.152344) scale(0.11 -0.11)">
       <use xlink:href="#DejaVuSans-39"/>
       <use xlink:href="#DejaVuSans-2e" x="63.623047"/>
       <use xlink:href="#DejaVuSans-34" x="95.410156"/>
      </g>
     </g>
    </g>
    <g id="xtick_18">
     <g id="line2d_30">
      <g>
       <use xlink:href="#me9307164a6" x="619.497426" y="217.794062" style="stroke: #000000; stroke-width: 0.8"/>
      </g>
     </g>
     <g id="text_30">
      <!-- 11.7 -->
      <g transform="translate(607.251332 233.152344) scale(0.11 -0.11)">
       <use xlink:href="#DejaVuSans-31"/>
       <use xlink:href="#DejaVuSans-31" x="63.623047"/>
       <use xlink:href="#DejaVuSans-2e" x="127.246094"/>
       <use xlink:href="#DejaVuSans-37" x="159.033203"/>
      </g>
     </g>
    </g>
   </g>
   <g id="matplotlib.axis_6">
    <g id="ytick_11">
     <g id="line2d_31">
      <g>
       <use xlink:href="#m2e398b64d1" x="452.506094" y="209.10236" style="stroke: #000000; stroke-width: 0.8"/>
      </g>
     </g>
     <g id="text_31">
      <!-- 0.0 -->
      <g transform="translate(428.012656 213.281501) scale(0.11 -0.11)">
       <use xlink:href="#DejaVuSans-30"/>
       <use xlink:href="#DejaVuSans-2e" x="63.623047"/>
       <use xlink:href="#DejaVuSans-30" x="95.410156"/>
      </g>
     </g>
    </g>
    <g id="ytick_12">
     <g id="line2d_32">
      <g>
       <use xlink:href="#m2e398b64d1" x="452.506094" y="178.311779" style="stroke: #000000; stroke-width: 0.8"/>
      </g>
     </g>
     <g id="text_32">
      <!-- 0.1 -->
      <g transform="translate(428.012656 182.49092) scale(0.11 -0.11)">
       <use xlink:href="#DejaVuSans-30"/>
       <use xlink:href="#DejaVuSans-2e" x="63.623047"/>
       <use xlink:href="#DejaVuSans-31" x="95.410156"/>
      </g>
     </g>
    </g>
    <g id="ytick_13">
     <g id="line2d_33">
      <g>
       <use xlink:href="#m2e398b64d1" x="452.506094" y="147.521198" style="stroke: #000000; stroke-width: 0.8"/>
      </g>
     </g>
     <g id="text_33">
      <!-- 0.2 -->
      <g transform="translate(428.012656 151.700338) scale(0.11 -0.11)">
       <use xlink:href="#DejaVuSans-30"/>
       <use xlink:href="#DejaVuSans-2e" x="63.623047"/>
       <use xlink:href="#DejaVuSans-32" x="95.410156"/>
      </g>
     </g>
    </g>
    <g id="ytick_14">
     <g id="line2d_34">
      <g>
       <use xlink:href="#m2e398b64d1" x="452.506094" y="116.730617" style="stroke: #000000; stroke-width: 0.8"/>
      </g>
     </g>
     <g id="text_34">
      <!-- 0.3 -->
      <g transform="translate(428.012656 120.909757) scale(0.11 -0.11)">
       <use xlink:href="#DejaVuSans-30"/>
       <use xlink:href="#DejaVuSans-2e" x="63.623047"/>
       <use xlink:href="#DejaVuSans-33" x="95.410156"/>
      </g>
     </g>
    </g>
    <g id="ytick_15">
     <g id="line2d_35">
      <g>
       <use xlink:href="#m2e398b64d1" x="452.506094" y="85.940036" style="stroke: #000000; stroke-width: 0.8"/>
      </g>
     </g>
     <g id="text_35">
      <!-- 0.4 -->
      <g transform="translate(428.012656 90.119176) scale(0.11 -0.11)">
       <use xlink:href="#DejaVuSans-30"/>
       <use xlink:href="#DejaVuSans-2e" x="63.623047"/>
       <use xlink:href="#DejaVuSans-34" x="95.410156"/>
      </g>
     </g>
    </g>
    <g id="ytick_16">
     <g id="line2d_36">
      <g>
       <use xlink:href="#m2e398b64d1" x="452.506094" y="55.149454" style="stroke: #000000; stroke-width: 0.8"/>
      </g>
     </g>
     <g id="text_36">
      <!-- 0.5 -->
      <g transform="translate(428.012656 59.328595) scale(0.11 -0.11)">
       <defs>
        <path id="DejaVuSans-35" d="M 691 4666 
L 3169 4666 
L 3169 4134 
L 1269 4134 
L 1269 2991 
Q 1406 3038 1543 3061 
Q 1681 3084 1819 3084 
Q 2600 3084 3056 2656 
Q 3513 2228 3513 1497 
Q 3513 744 3044 326 
Q 2575 -91 1722 -91 
Q 1428 -91 1123 -41 
Q 819 9 494 109 
L 494 744 
Q 775 591 1075 516 
Q 1375 441 1709 441 
Q 2250 441 2565 725 
Q 2881 1009 2881 1497 
Q 2881 1984 2565 2268 
Q 2250 2553 1709 2553 
Q 1456 2553 1204 2497 
Q 953 2441 691 2322 
L 691 4666 
z
" transform="scale(0.015625)"/>
       </defs>
       <use xlink:href="#DejaVuSans-30"/>
       <use xlink:href="#DejaVuSans-2e" x="63.623047"/>
       <use xlink:href="#DejaVuSans-35" x="95.410156"/>
      </g>
     </g>
    </g>
    <g id="ytick_17">
     <g id="line2d_37">
      <g>
       <use xlink:href="#m2e398b64d1" x="452.506094" y="24.358873" style="stroke: #000000; stroke-width: 0.8"/>
      </g>
     </g>
     <g id="text_37">
      <!-- 0.6 -->
      <g transform="translate(428.012656 28.538014) scale(0.11 -0.11)">
       <use xlink:href="#DejaVuSans-30"/>
       <use xlink:href="#DejaVuSans-2e" x="63.623047"/>
       <use xlink:href="#DejaVuSans-36" x="95.410156"/>
      </g>
     </g>
    </g>
   </g>
   <g id="line2d_38">
    <path d="M 459.344284 34.353804 
L 459.481047 34.356883 
L 459.754575 36.800731 
L 460.028103 32.073761 
L 460.164866 32.419847 
L 460.575158 34.587504 
L 460.711922 34.648778 
L 460.985449 34.368275 
L 461.258977 34.56318 
L 462.216323 35.66733 
L 462.900142 36.974698 
L 463.994253 40.978705 
L 465.772182 52.250829 
L 466.182474 55.596842 
L 467.276584 65.979426 
L 469.464805 91.262188 
L 471.926539 120.59545 
L 473.157427 133.513947 
L 473.97801 141.863429 
L 474.798593 147.771217 
L 475.755939 154.407511 
L 476.029467 155.906705 
L 476.439758 158.973447 
L 476.85005 160.221081 
L 477.397105 162.267731 
L 477.670633 163.341706 
L 478.080924 164.037573 
L 478.217688 163.921801 
L 478.491215 165.606969 
L 478.627979 165.765233 
L 479.03827 166.790867 
L 479.175034 166.791175 
L 479.448562 167.443628 
L 479.585326 167.008557 
L 479.858853 168.247262 
L 479.995617 168.152427 
L 480.405908 168.518219 
L 480.952964 168.698036 
L 481.089727 168.874774 
L 481.226491 168.811345 
L 481.363255 169.252574 
L 481.500019 168.886782 
L 481.636783 169.270125 
L 481.773546 169.307689 
L 481.91031 168.97238 
L 482.183838 169.217781 
L 482.320602 169.106627 
L 482.594129 169.301531 
L 482.867657 168.9576 
L 483.004421 169.299068 
L 483.551476 168.665706 
L 483.68824 168.948055 
L 483.825003 168.923115 
L 483.961767 168.682333 
L 484.098531 169.150965 
L 484.372059 168.605048 
L 484.508822 168.921883 
L 484.645586 168.714663 
L 484.78235 168.825817 
L 484.919114 168.436624 
L 485.329405 168.492971 
L 485.466169 168.803648 
L 485.602933 167.959678 
L 485.739697 167.95783 
L 486.013224 168.541928 
L 486.423516 167.739833 
L 486.560279 168.109936 
L 486.833807 167.94459 
L 486.970571 167.858069 
L 487.107335 167.494432 
L 487.244098 167.822968 
L 488.064681 167.398673 
L 488.201445 167.437162 
L 488.338209 167.310612 
L 488.474973 167.524299 
L 488.611736 167.376196 
L 488.7485 167.398673 
L 489.022028 167.151117 
L 489.158792 167.271816 
L 489.295555 166.953442 
L 489.705847 167.204693 
L 489.842611 167.440549 
L 489.979374 166.952826 
L 490.116138 167.012559 
L 490.252902 166.950978 
L 490.389666 166.701575 
L 490.526429 166.840132 
L 490.663193 166.638146 
L 490.799957 166.85368 
L 490.936721 166.649538 
L 491.073485 166.77578 
L 491.210248 166.682484 
L 491.347012 166.736368 
L 491.483776 166.601197 
L 491.62054 166.688335 
L 491.757304 166.378273 
L 492.167595 166.625522 
L 492.304359 166.484501 
L 492.441123 166.622135 
L 492.577886 166.406601 
L 492.988178 166.345943 
L 493.261705 166.342556 
L 493.398469 166.399519 
L 493.945524 166.078065 
L 494.082288 166.130101 
L 494.219052 166.414298 
L 494.49258 166.343172 
L 495.039635 165.993083 
L 495.313162 166.329932 
L 495.449926 166.217547 
L 495.58669 166.347791 
L 495.996981 166.076218 
L 496.133745 166.343788 
L 496.270509 165.927807 
L 496.407273 166.350562 
L 496.544037 165.991236 
L 496.6808 166.231094 
L 496.954328 166.082376 
L 497.227856 165.916107 
L 497.364619 166.170129 
L 497.774911 166.10085 
L 498.185202 166.345943 
L 498.45873 166.181214 
L 498.595494 166.109164 
L 499.005785 166.281283 
L 499.416076 166.263425 
L 499.55284 166.026953 
L 499.689604 166.03619 
L 499.963132 166.519602 
L 500.099895 166.566712 
L 500.373423 166.244027 
L 500.510187 166.2391 
L 500.646951 166.538692 
L 501.057242 166.320387 
L 501.33077 166.511905 
L 501.467533 166.615361 
L 501.604297 166.476803 
L 502.288116 166.781322 
L 502.698407 166.772701 
L 503.792518 167.06829 
L 503.929282 167.366959 
L 504.339573 167.21393 
L 504.476337 167.360185 
L 504.613101 167.316462 
L 504.886628 167.531381 
L 505.160156 167.715508 
L 505.29692 167.619442 
L 505.433683 167.833128 
L 505.570447 167.695802 
L 506.39103 168.220782 
L 506.527794 168.411991 
L 506.664558 168.366729 
L 506.801321 168.541312 
L 506.938085 168.486505 
L 507.074849 168.760233 
L 507.48514 168.832283 
L 508.032196 169.410838 
L 508.168959 169.405603 
L 508.852778 170.003249 
L 508.989542 170.030036 
L 509.810125 170.993474 
L 509.946889 171.084306 
L 510.493944 171.857457 
L 510.904235 172.343333 
L 511.314527 173.023497 
L 512.13511 174.289913 
L 512.955692 175.795881 
L 514.733622 179.782183 
L 517.332134 186.957743 
L 518.699772 194.403183 
L 520.614602 202.603515 
L 521.708712 205.415711 
L 522.119004 206.370084 
L 523.760169 208.150645 
L 524.991043 208.905376 
L 525.264708 208.809931 
L 526.222054 208.651481 
L 527.726456 208.167173 
L 528.683803 207.342272 
L 528.95733 206.732889 
L 529.094094 206.629144 
L 529.777913 205.183243 
L 530.324968 203.882741 
L 530.872023 202.551664 
L 531.145688 201.344766 
L 531.555979 200.478811 
L 531.96627 198.861505 
L 533.470672 193.64518 
L 533.607436 193.726652 
L 533.880964 192.547527 
L 534.428019 190.794712 
L 534.975074 188.969877 
L 535.522129 187.527739 
L 535.658893 187.576572 
L 535.795657 187.502614 
L 536.61624 184.749258 
L 536.889767 184.934617 
L 537.300195 183.233407 
L 537.710487 182.755938 
L 537.847251 183.131336 
L 537.984014 183.12641 
L 538.257542 182.172025 
L 538.394306 182.265567 
L 538.941361 181.390406 
L 539.214889 181.73289 
L 539.351652 181.610436 
L 539.62518 180.969684 
L 540.035471 181.055004 
L 540.172235 180.869399 
L 540.445763 179.548544 
L 540.582526 179.533211 
L 540.856054 180.431372 
L 540.992818 179.822119 
L 541.129582 180.82155 
L 541.403109 178.881312 
L 541.539873 178.629969 
L 541.813401 178.964385 
L 542.086928 179.447859 
L 542.360456 179.759183 
L 542.633983 179.314905 
L 542.907511 178.631324 
L 543.044412 179.077233 
L 543.181175 179.138044 
L 543.317939 178.698324 
L 543.454703 179.173053 
L 543.591467 178.980581 
L 543.728231 178.463731 
L 543.864994 178.564754 
L 544.001758 178.807477 
L 544.138522 178.63274 
L 544.41205 179.346496 
L 544.548813 179.292675 
L 544.685577 179.062053 
L 544.822341 178.043901 
L 544.959105 177.868703 
L 545.095869 177.956456 
L 545.369396 179.706531 
L 545.642924 180.210203 
L 545.779688 180.170483 
L 545.916451 179.497863 
L 546.053215 179.474924 
L 546.463507 180.176611 
L 546.60027 180.322435 
L 547.284089 178.609031 
L 547.420853 178.91278 
L 547.557617 178.915952 
L 547.694381 178.765417 
L 547.967908 179.140723 
L 548.3782 179.309209 
L 548.651727 178.817668 
L 548.788491 178.73983 
L 549.062155 179.068889 
L 549.198919 179.008601 
L 549.472447 178.500833 
L 549.609211 178.616975 
L 549.882738 178.342785 
L 550.019502 178.470043 
L 550.156266 178.059912 
L 550.29303 178.260667 
L 550.429793 178.794914 
L 550.566557 178.836081 
L 550.840085 179.04869 
L 550.976849 178.980489 
L 551.113612 179.036528 
L 551.250376 178.951946 
L 551.38714 178.608569 
L 552.070959 178.528668 
L 552.344487 178.374684 
L 552.618014 178.869212 
L 552.754778 178.85748 
L 552.891542 178.671105 
L 553.165069 178.742262 
L 553.301833 178.684099 
L 553.575361 178.241884 
L 553.712125 178.322925 
L 553.848888 178.206475 
L 554.122416 178.817637 
L 554.943136 178.817637 
L 555.216663 178.13966 
L 555.353427 178.386692 
L 555.490191 178.386692 
L 555.763718 179.186047 
L 564.790266 179.186047 
L 565.063793 180.295862 
L 565.337321 180.126206 
L 565.610849 179.355734 
L 565.884376 179.199441 
L 566.02114 179.241193 
L 566.294668 179.913382 
L 567.115387 180.962325 
L 567.525678 180.741525 
L 567.93597 181.521204 
L 568.346261 182.00006 
L 568.619789 182.067645 
L 570.944773 183.109444 
L 571.218301 183.288522 
L 572.175648 183.634146 
L 572.722703 183.999661 
L 572.859467 183.917635 
L 573.543422 184.337896 
L 573.81695 184.204296 
L 574.090477 184.145547 
L 574.364005 184.230067 
L 574.500769 184.361636 
L 574.637533 184.33494 
L 574.774296 184.434209 
L 574.91106 184.710862 
L 575.047824 184.717883 
L 575.184588 184.562144 
L 575.458115 184.866324 
L 576.141934 185.316883 
L 576.962517 185.732986 
L 577.919864 187.332711 
L 578.056628 187.405993 
L 578.87721 188.694825 
L 579.287639 190.270317 
L 579.424402 190.640297 
L 579.561166 190.640297 
L 579.834694 191.057817 
L 579.971458 191.514503 
L 580.108221 191.514503 
L 580.518513 192.571113 
L 580.655277 192.619977 
L 581.065568 193.775425 
L 581.202332 193.919186 
L 581.749387 195.006001 
L 582.022915 195.424845 
L 582.296442 195.906564 
L 582.433206 196.097342 
L 582.843497 196.080592 
L 583.117025 196.95563 
L 583.66408 197.666369 
L 584.211135 198.048511 
L 584.347899 198.486753 
L 584.484663 198.54584 
L 584.621427 198.777262 
L 584.75819 198.777262 
L 585.305382 199.494714 
L 585.442146 199.494714 
L 585.715674 199.834457 
L 586.262729 200.213951 
L 586.946548 201.144411 
L 587.630367 201.591737 
L 587.767131 201.615199 
L 588.314186 202.164318 
L 588.45095 202.198157 
L 588.587714 202.367074 
L 588.724477 202.277258 
L 588.998005 202.520442 
L 589.134769 202.548031 
L 589.271533 202.439063 
L 589.54506 202.993139 
L 589.818588 203.251719 
L 590.639171 203.839111 
L 590.775934 203.835816 
L 591.596654 204.723755 
L 591.870181 205.004811 
L 592.554 205.29298 
L 592.690764 205.283989 
L 592.964292 205.536318 
L 593.374583 205.85654 
L 593.648111 205.685591 
L 593.921638 205.956271 
L 594.195166 205.897307 
L 594.468694 206.462206 
L 594.605457 206.767064 
L 595.152513 206.692966 
L 595.42604 206.598689 
L 595.699568 206.84336 
L 595.973095 206.734475 
L 596.51974 206.555135 
L 596.656504 206.684859 
L 598.981489 205.898477 
L 599.255016 206.007753 
L 600.759418 206.589843 
L 601.306473 207.006353 
L 601.716765 207.449743 
L 602.400584 207.570218 
L 603.084403 207.944114 
L 603.221166 207.932256 
L 603.35793 208.097131 
L 603.631458 208.029025 
L 603.768222 208.074965 
L 604.041749 208.422787 
L 604.178513 208.153145 
L 604.862332 208.147002 
L 605.272623 208.266066 
L 605.819679 208.409427 
L 606.094574 208.272649 
L 606.231338 208.489738 
L 607.05192 208.563987 
L 607.325448 208.824044 
L 607.598976 208.721773 
L 607.872503 208.8672 
L 608.009267 208.829707 
L 608.146031 208.637604 
L 609.103377 208.702344 
L 609.240141 208.75071 
L 609.376905 208.925706 
L 609.92396 208.931987 
L 610.060724 208.932944 
L 610.197488 208.626455 
L 610.607779 208.564809 
L 610.744543 208.499693 
L 610.881307 208.595658 
L 611.018071 208.445554 
L 611.565126 208.457919 
L 612.112181 208.393733 
L 612.796 208.829253 
L 612.932764 208.708659 
L 613.206291 208.770428 
L 613.479819 208.607817 
L 613.616583 208.59103 
L 613.753346 208.727947 
L 613.89011 208.700306 
L 614.300402 208.935768 
L 615.120984 208.160415 
L 615.394512 208.12668 
L 615.66804 208.453289 
L 615.941567 208.637358 
L 616.215095 208.913272 
L 616.488622 208.557675 
L 616.625386 208.4079 
L 617.035678 208.458329 
L 617.445969 208.474383 
L 617.719497 208.847521 
L 617.85626 208.943056 
L 618.266552 208.239787 
L 618.403316 208.237585 
L 618.676843 207.979554 
L 618.950371 207.948893 
L 619.087135 208.066488 
L 619.360662 208.421303 
L 619.63419 208.684914 
L 619.770954 208.784352 
L 620.318009 208.499554 
L 620.454773 208.209763 
L 620.865064 208.27179 
L 620.865064 208.27179 
" clip-path="url(#pa90c2faefc)" style="fill: none; stroke: #ff0000; stroke-width: 1.5; stroke-linecap: square"/>
   </g>
   <g id="patch_13">
    <path d="M 452.506094 217.794062 
L 452.506094 23.229937 
" style="fill: none; stroke: #000000; stroke-width: 0.8; stroke-linejoin: miter; stroke-linecap: square"/>
   </g>
   <g id="patch_14">
    <path d="M 626.335616 217.794062 
L 626.335616 23.229937 
" style="fill: none; stroke: #000000; stroke-width: 0.8; stroke-linejoin: miter; stroke-linecap: square"/>
   </g>
   <g id="patch_15">
    <path d="M 452.506094 217.794062 
L 626.335616 217.794062 
" style="fill: none; stroke: #000000; stroke-width: 0.8; stroke-linejoin: miter; stroke-linecap: square"/>
   </g>
   <g id="patch_16">
    <path d="M 452.506094 23.229937 
L 626.335616 23.229937 
" style="fill: none; stroke: #000000; stroke-width: 0.8; stroke-linejoin: miter; stroke-linecap: square"/>
   </g>
   <g id="text_38">
    <!-- Drone 3 (Follower) -->
    <g transform="translate(478.475011 17.229937) scale(0.132 -0.132)">
     <defs>
      <path id="DejaVuSans-46" d="M 628 4666 
L 3309 4666 
L 3309 4134 
L 1259 4134 
L 1259 2759 
L 3109 2759 
L 3109 2228 
L 1259 2228 
L 1259 0 
L 628 0 
L 628 4666 
z
" transform="scale(0.015625)"/>
      <path id="DejaVuSans-6c" d="M 603 4863 
L 1178 4863 
L 1178 0 
L 603 0 
L 603 4863 
z
" transform="scale(0.015625)"/>
      <path id="DejaVuSans-77" d="M 269 3500 
L 844 3500 
L 1563 769 
L 2278 3500 
L 2956 3500 
L 3675 769 
L 4391 3500 
L 4966 3500 
L 4050 0 
L 3372 0 
L 2619 2869 
L 1863 0 
L 1184 0 
L 269 3500 
z
" transform="scale(0.015625)"/>
     </defs>
     <use xlink:href="#DejaVuSans-44"/>
     <use xlink:href="#DejaVuSans-72" x="77.001953"/>
     <use xlink:href="#DejaVuSans-6f" x="115.865234"/>
     <use xlink:href="#DejaVuSans-6e" x="177.046875"/>
     <use xlink:href="#DejaVuSans-65" x="240.425781"/>
     <use xlink:href="#DejaVuSans-20" x="301.949219"/>
     <use xlink:href="#DejaVuSans-33" x="333.736328"/>
     <use xlink:href="#DejaVuSans-20" x="397.359375"/>
     <use xlink:href="#DejaVuSans-28" x="429.146484"/>
     <use xlink:href="#DejaVuSans-46" x="468.160156"/>
     <use xlink:href="#DejaVuSans-6f" x="522.054688"/>
     <use xlink:href="#DejaVuSans-6c" x="583.236328"/>
     <use xlink:href="#DejaVuSans-6c" x="611.019531"/>
     <use xlink:href="#DejaVuSans-6f" x="638.802734"/>
     <use xlink:href="#DejaVuSans-77" x="699.984375"/>
     <use xlink:href="#DejaVuSans-65" x="781.771484"/>
     <use xlink:href="#DejaVuSans-72" x="843.294922"/>
     <use xlink:href="#DejaVuSans-29" x="884.408203"/>
    </g>
   </g>
  </g>
  <g id="axes_4">
   <g id="patch_17">
    <path d="M 668.159766 217.794062 
L 841.989288 217.794062 
L 841.989288 23.229937 
L 668.159766 23.229937 
L 668.159766 217.794062 
z
" style="fill: none"/>
   </g>
   <g id="matplotlib.axis_7">
    <g id="xtick_19">
     <g id="line2d_39">
      <g>
       <use xlink:href="#me9307164a6" x="674.997956" y="217.794062" style="stroke: #000000; stroke-width: 0.8"/>
      </g>
     </g>
     <g id="text_39">
      <!-- 0.0 -->
      <g transform="translate(666.251237 233.152344) scale(0.11 -0.11)">
       <use xlink:href="#DejaVuSans-30"/>
       <use xlink:href="#DejaVuSans-2e" x="63.623047"/>
       <use xlink:href="#DejaVuSans-30" x="95.410156"/>
      </g>
     </g>
    </g>
    <g id="xtick_20">
     <g id="line2d_40">
      <g>
       <use xlink:href="#me9307164a6" x="707.028584" y="217.794062" style="stroke: #000000; stroke-width: 0.8"/>
      </g>
     </g>
     <g id="text_40">
      <!-- 2.3 -->
      <g transform="translate(698.281865 233.152344) scale(0.11 -0.11)">
       <use xlink:href="#DejaVuSans-32"/>
       <use xlink:href="#DejaVuSans-2e" x="63.623047"/>
       <use xlink:href="#DejaVuSans-33" x="95.410156"/>
      </g>
     </g>
    </g>
    <g id="xtick_21">
     <g id="line2d_41">
      <g>
       <use xlink:href="#me9307164a6" x="739.059212" y="217.794062" style="stroke: #000000; stroke-width: 0.8"/>
      </g>
     </g>
     <g id="text_41">
      <!-- 4.7 -->
      <g transform="translate(730.312494 233.152344) scale(0.11 -0.11)">
       <use xlink:href="#DejaVuSans-34"/>
       <use xlink:href="#DejaVuSans-2e" x="63.623047"/>
       <use xlink:href="#DejaVuSans-37" x="95.410156"/>
      </g>
     </g>
    </g>
    <g id="xtick_22">
     <g id="line2d_42">
      <g>
       <use xlink:href="#me9307164a6" x="771.089841" y="217.794062" style="stroke: #000000; stroke-width: 0.8"/>
      </g>
     </g>
     <g id="text_42">
      <!-- 7.0 -->
      <g transform="translate(762.343122 233.152344) scale(0.11 -0.11)">
       <use xlink:href="#DejaVuSans-37"/>
       <use xlink:href="#DejaVuSans-2e" x="63.623047"/>
       <use xlink:href="#DejaVuSans-30" x="95.410156"/>
      </g>
     </g>
    </g>
    <g id="xtick_23">
     <g id="line2d_43">
      <g>
       <use xlink:href="#me9307164a6" x="803.120469" y="217.794062" style="stroke: #000000; stroke-width: 0.8"/>
      </g>
     </g>
     <g id="text_43">
      <!-- 9.4 -->
      <g transform="translate(794.373751 233.152344) scale(0.11 -0.11)">
       <use xlink:href="#DejaVuSans-39"/>
       <use xlink:href="#DejaVuSans-2e" x="63.623047"/>
       <use xlink:href="#DejaVuSans-34" x="95.410156"/>
      </g>
     </g>
    </g>
    <g id="xtick_24">
     <g id="line2d_44">
      <g>
       <use xlink:href="#me9307164a6" x="835.151098" y="217.794062" style="stroke: #000000; stroke-width: 0.8"/>
      </g>
     </g>
     <g id="text_44">
      <!-- 11.7 -->
      <g transform="translate(822.905004 233.152344) scale(0.11 -0.11)">
       <use xlink:href="#DejaVuSans-31"/>
       <use xlink:href="#DejaVuSans-31" x="63.623047"/>
       <use xlink:href="#DejaVuSans-2e" x="127.246094"/>
       <use xlink:href="#DejaVuSans-37" x="159.033203"/>
      </g>
     </g>
    </g>
   </g>
   <g id="matplotlib.axis_8">
    <g id="ytick_18">
     <g id="line2d_45">
      <g>
       <use xlink:href="#m2e398b64d1" x="668.159766" y="208.984731" style="stroke: #000000; stroke-width: 0.8"/>
      </g>
     </g>
     <g id="text_45">
      <!-- 0.0 -->
      <g transform="translate(643.666328 213.163872) scale(0.11 -0.11)">
       <use xlink:href="#DejaVuSans-30"/>
       <use xlink:href="#DejaVuSans-2e" x="63.623047"/>
       <use xlink:href="#DejaVuSans-30" x="95.410156"/>
      </g>
     </g>
    </g>
    <g id="ytick_19">
     <g id="line2d_46">
      <g>
       <use xlink:href="#m2e398b64d1" x="668.159766" y="178.205027" style="stroke: #000000; stroke-width: 0.8"/>
      </g>
     </g>
     <g id="text_46">
      <!-- 0.2 -->
      <g transform="translate(643.666328 182.384167) scale(0.11 -0.11)">
       <use xlink:href="#DejaVuSans-30"/>
       <use xlink:href="#DejaVuSans-2e" x="63.623047"/>
       <use xlink:href="#DejaVuSans-32" x="95.410156"/>
      </g>
     </g>
    </g>
    <g id="ytick_20">
     <g id="line2d_47">
      <g>
       <use xlink:href="#m2e398b64d1" x="668.159766" y="147.425322" style="stroke: #000000; stroke-width: 0.8"/>
      </g>
     </g>
     <g id="text_47">
      <!-- 0.4 -->
      <g transform="translate(643.666328 151.604463) scale(0.11 -0.11)">
       <use xlink:href="#DejaVuSans-30"/>
       <use xlink:href="#DejaVuSans-2e" x="63.623047"/>
       <use xlink:href="#DejaVuSans-34" x="95.410156"/>
      </g>
     </g>
    </g>
    <g id="ytick_21">
     <g id="line2d_48">
      <g>
       <use xlink:href="#m2e398b64d1" x="668.159766" y="116.645617" style="stroke: #000000; stroke-width: 0.8"/>
      </g>
     </g>
     <g id="text_48">
      <!-- 0.6 -->
      <g transform="translate(643.666328 120.824758) scale(0.11 -0.11)">
       <use xlink:href="#DejaVuSans-30"/>
       <use xlink:href="#DejaVuSans-2e" x="63.623047"/>
       <use xlink:href="#DejaVuSans-36" x="95.410156"/>
      </g>
     </g>
    </g>
    <g id="ytick_22">
     <g id="line2d_49">
      <g>
       <use xlink:href="#m2e398b64d1" x="668.159766" y="85.865912" style="stroke: #000000; stroke-width: 0.8"/>
      </g>
     </g>
     <g id="text_49">
      <!-- 0.8 -->
      <g transform="translate(643.666328 90.045053) scale(0.11 -0.11)">
       <use xlink:href="#DejaVuSans-30"/>
       <use xlink:href="#DejaVuSans-2e" x="63.623047"/>
       <use xlink:href="#DejaVuSans-38" x="95.410156"/>
      </g>
     </g>
    </g>
    <g id="ytick_23">
     <g id="line2d_50">
      <g>
       <use xlink:href="#m2e398b64d1" x="668.159766" y="55.086208" style="stroke: #000000; stroke-width: 0.8"/>
      </g>
     </g>
     <g id="text_50">
      <!-- 1.0 -->
      <g transform="translate(643.666328 59.265348) scale(0.11 -0.11)">
       <use xlink:href="#DejaVuSans-31"/>
       <use xlink:href="#DejaVuSans-2e" x="63.623047"/>
       <use xlink:href="#DejaVuSans-30" x="95.410156"/>
      </g>
     </g>
    </g>
    <g id="ytick_24">
     <g id="line2d_51">
      <g>
       <use xlink:href="#m2e398b64d1" x="668.159766" y="24.306503" style="stroke: #000000; stroke-width: 0.8"/>
      </g>
     </g>
     <g id="text_51">
      <!-- 1.2 -->
      <g transform="translate(643.666328 28.485643) scale(0.11 -0.11)">
       <use xlink:href="#DejaVuSans-31"/>
       <use xlink:href="#DejaVuSans-2e" x="63.623047"/>
       <use xlink:href="#DejaVuSans-32" x="95.410156"/>
      </g>
     </g>
    </g>
   </g>
   <g id="line2d_52">
    <path d="M 674.997956 33.883608 
L 675.271483 37.327857 
L 675.681774 32.073761 
L 675.818538 32.286141 
L 676.092066 33.791269 
L 676.22883 34.292978 
L 676.365593 34.165242 
L 676.502357 33.846672 
L 676.775885 33.948245 
L 677.459704 34.726972 
L 678.006759 35.561102 
L 678.964106 38.291262 
L 679.374397 40.090335 
L 681.015563 50.767815 
L 681.28909 53.159398 
L 682.109673 60.549605 
L 682.656728 66.937625 
L 682.930256 69.261493 
L 686.486101 109.208317 
L 686.896392 109.208317 
L 687.16992 116.69548 
L 687.306684 116.69548 
L 687.580211 120.856742 
L 688.127266 126.630246 
L 688.537558 126.630246 
L 688.674322 131.04544 
L 688.811099 131.04544 
L 688.947863 133.859167 
L 689.084627 133.859167 
L 689.358154 137.723097 
L 689.494918 137.723097 
L 689.631682 140.322289 
L 690.178737 140.322289 
L 690.315501 145.896494 
L 690.589028 147.683718 
L 690.99932 147.683718 
L 691.272847 152.860094 
L 691.409611 153.718848 
L 692.09343 153.718848 
L 692.230194 159.777525 
L 692.366958 159.777525 
L 692.640485 162.215278 
L 694.281651 170.302645 
L 694.828706 173.212405 
L 696.880163 179.740318 
L 697.974274 182.321043 
L 699.615439 184.716935 
L 699.888967 184.987027 
L 700.162494 185.323603 
L 701.666896 186.457219 
L 702.213951 186.551559 
L 702.624243 186.747164 
L 702.89777 186.835194 
L 704.538936 187.051114 
L 704.6757 186.962776 
L 704.812463 187.125909 
L 704.949227 187.023258 
L 705.496282 187.142068 
L 707.000684 187.097283 
L 707.274212 187.138836 
L 707.547739 187.063272 
L 707.684503 187.193932 
L 707.821267 187.016025 
L 707.958031 187.252259 
L 708.231558 187.119291 
L 708.64185 187.152533 
L 710.556543 187.081124 
L 710.83007 186.990632 
L 711.103598 187.09913 
L 711.240362 187.198856 
L 711.513889 187.097745 
L 711.787417 187.128371 
L 712.197708 187.061117 
L 712.334472 187.164845 
L 712.744764 187.021873 
L 713.838874 187.170385 
L 714.112402 187.106671 
L 714.932984 187.109749 
L 715.343276 187.060194 
L 715.753567 187.2144 
L 716.163859 187.048651 
L 716.710914 187.188545 
L 716.984441 187.175464 
L 717.531497 187.183928 
L 717.805024 187.237947 
L 718.215316 187.173771 
L 718.488843 187.125601 
L 718.625607 187.300122 
L 718.899135 187.238408 
L 719.172662 187.26611 
L 719.309426 187.11729 
L 719.582954 187.338135 
L 719.856481 187.318436 
L 720.403536 187.280269 
L 720.677064 187.292735 
L 720.950592 187.31228 
L 721.634411 187.277345 
L 722.318229 187.430012 
L 725.053505 187.80337 
L 725.327033 187.865083 
L 726.147616 188.089005 
L 726.421143 188.185962 
L 727.515254 188.632575 
L 728.4726 189.007164 
L 728.609364 189.007164 
L 728.882892 189.442389 
L 729.703475 190.043978 
L 730.113766 190.425955 
L 730.25053 190.477203 
L 730.797585 191.084332 
L 733.12257 194.197099 
L 735.721218 198.646336 
L 736.268274 200.333464 
L 738.319731 205.257078 
L 739.00355 206.390079 
L 740.09766 207.793155 
L 740.507951 208.057998 
L 740.91838 208.467465 
L 741.465435 208.363229 
L 742.286017 208.529715 
L 742.559545 208.599222 
L 743.1066 208.566087 
L 743.790419 208.404931 
L 745.294821 207.419199 
L 746.662596 205.880198 
L 747.346415 204.964994 
L 749.261108 202.077766 
L 749.671399 201.279417 
L 750.218455 200.393839 
L 750.902273 199.654326 
L 751.996384 198.034174 
L 752.133148 198.064523 
L 753.227395 197.003331 
L 753.500922 196.995159 
L 753.77445 196.660061 
L 754.184741 196.38943 
L 754.458269 196.207276 
L 754.595033 196.209261 
L 754.731797 196.048806 
L 754.86856 196.092113 
L 755.415616 195.693732 
L 755.689143 195.560271 
L 755.962671 195.203719 
L 756.099435 195.136188 
L 756.509726 195.292364 
L 756.920017 195.057715 
L 757.056781 194.886596 
L 757.193545 194.941491 
L 757.330309 194.815741 
L 757.7406 194.845274 
L 758.287655 194.68148 
L 758.561183 194.536122 
L 758.698083 194.688066 
L 759.65543 194.48095 
L 760.065721 194.510314 
L 760.202485 194.424115 
L 760.476013 194.453094 
L 760.612777 194.345134 
L 760.886304 194.451263 
L 761.433359 194.310246 
L 761.843651 194.377899 
L 770.049615 194.095142 
L 773.058556 194.117611 
L 773.19532 193.899475 
L 773.332083 193.899475 
L 773.605611 193.784405 
L 774.015902 193.842194 
L 779.896882 193.842194 
L 780.033646 194.578229 
L 781.401284 194.828407 
L 781.948339 195.121999 
L 782.221867 195.036093 
L 782.495531 195.164644 
L 782.769059 195.044403 
L 783.17935 195.411697 
L 785.230807 195.775852 
L 786.05139 196.081525 
L 786.324918 196.005976 
L 786.598445 196.098439 
L 786.735209 196.116075 
L 787.008737 196.301169 
L 787.1455 196.301169 
L 787.419028 196.576078 
L 787.692556 196.653581 
L 788.376375 196.71354 
L 789.470622 196.70603 
L 789.607386 196.884044 
L 789.880913 196.929706 
L 791.111787 197.627205 
L 791.248551 197.618294 
L 791.658843 197.888325 
L 792.205898 198.130453 
L 792.342662 198.130453 
L 792.479425 198.733397 
L 792.616189 198.737521 
L 792.752953 198.965984 
L 792.889717 198.965984 
L 793.300008 199.507276 
L 793.573536 199.604801 
L 793.7103 199.604801 
L 794.120591 200.559418 
L 794.530882 200.761641 
L 794.804547 201.01348 
L 794.94131 201.01348 
L 795.351602 201.504478 
L 796.308948 202.083352 
L 796.445712 202.083352 
L 796.71924 202.564147 
L 797.266295 202.979934 
L 797.539823 202.931348 
L 797.676586 202.931348 
L 797.950114 203.261861 
L 798.223642 203.317603 
L 798.360405 203.608918 
L 798.907461 203.763309 
L 800.822291 204.783671 
L 801.095818 204.716187 
L 801.369346 205.063428 
L 801.642873 205.214279 
L 801.916401 205.418164 
L 802.189928 205.474799 
L 802.326692 205.450052 
L 802.873747 205.700414 
L 803.284039 205.709232 
L 803.557566 206.037713 
L 803.831094 206.010812 
L 804.378149 206.040345 
L 804.514913 206.040345 
L 804.788441 206.462719 
L 805.882551 206.78843 
L 806.156079 206.966583 
L 806.840034 207.16956 
L 806.976798 207.128869 
L 807.250326 207.265439 
L 807.797381 207.459145 
L 808.344436 207.632225 
L 808.4812 207.585146 
L 808.754728 207.635001 
L 809.165019 207.651425 
L 809.301783 207.968673 
L 809.57531 207.944199 
L 809.712074 208.068469 
L 809.985602 207.87151 
L 810.942948 207.870471 
L 811.216476 207.80144 
L 811.626767 207.711 
L 812.993995 207.214206 
L 813.267523 207.291063 
L 813.677814 207.305191 
L 815.182216 207.705636 
L 815.455743 207.881161 
L 815.866035 208.027832 
L 816.276326 208.236295 
L 817.233673 208.457455 
L 818.601311 208.557912 
L 819.148366 208.421181 
L 819.421893 208.551655 
L 819.558657 208.465558 
L 819.695421 208.527088 
L 819.832185 208.442596 
L 820.242476 208.669221 
L 821.610114 208.783161 
L 821.885009 208.941404 
L 822.295301 208.950239 
L 822.97912 208.834234 
L 823.526175 208.823227 
L 824.483522 208.81878 
L 824.757049 208.714481 
L 825.577632 208.595316 
L 825.714396 208.561301 
L 825.987923 208.662226 
L 826.261451 208.69668 
L 826.671742 208.741921 
L 827.218798 208.80781 
L 827.492325 208.895371 
L 827.629089 208.762022 
L 827.765853 208.871757 
L 828.586436 208.635754 
L 829.270255 208.890389 
L 829.543782 208.83971 
L 829.680546 208.798671 
L 829.81731 208.334269 
L 829.954074 208.334269 
L 830.227601 208.574892 
L 830.637893 208.497649 
L 831.184948 208.705693 
L 831.458475 208.800366 
L 832.689349 208.644987 
L 832.826113 208.806269 
L 833.236405 208.78274 
L 833.373168 208.485488 
L 833.509932 208.485488 
L 833.646696 208.84894 
L 834.87757 208.745273 
L 835.151098 208.706645 
L 835.151098 208.706645 
" clip-path="url(#p7328644138)" style="fill: none; stroke: #ff0000; stroke-width: 1.5; stroke-linecap: square"/>
   </g>
   <g id="patch_18">
    <path d="M 668.159766 217.794062 
L 668.159766 23.229937 
" style="fill: none; stroke: #000000; stroke-width: 0.8; stroke-linejoin: miter; stroke-linecap: square"/>
   </g>
   <g id="patch_19">
    <path d="M 841.989288 217.794062 
L 841.989288 23.229937 
" style="fill: none; stroke: #000000; stroke-width: 0.8; stroke-linejoin: miter; stroke-linecap: square"/>
   </g>
   <g id="patch_20">
    <path d="M 668.159766 217.794062 
L 841.989288 217.794062 
" style="fill: none; stroke: #000000; stroke-width: 0.8; stroke-linejoin: miter; stroke-linecap: square"/>
   </g>
   <g id="patch_21">
    <path d="M 668.159766 23.229937 
L 841.989288 23.229937 
" style="fill: none; stroke: #000000; stroke-width: 0.8; stroke-linejoin: miter; stroke-linecap: square"/>
   </g>
   <g id="text_52">
    <!-- Drone 4 (Follower) -->
    <g transform="translate(694.128683 17.229937) scale(0.132 -0.132)">
     <use xlink:href="#DejaVuSans-44"/>
     <use xlink:href="#DejaVuSans-72" x="77.001953"/>
     <use xlink:href="#DejaVuSans-6f" x="115.865234"/>
     <use xlink:href="#DejaVuSans-6e" x="177.046875"/>
     <use xlink:href="#DejaVuSans-65" x="240.425781"/>
     <use xlink:href="#DejaVuSans-20" x="301.949219"/>
     <use xlink:href="#DejaVuSans-34" x="333.736328"/>
     <use xlink:href="#DejaVuSans-20" x="397.359375"/>
     <use xlink:href="#DejaVuSans-28" x="429.146484"/>
     <use xlink:href="#DejaVuSans-46" x="468.160156"/>
     <use xlink:href="#DejaVuSans-6f" x="522.054688"/>
     <use xlink:href="#DejaVuSans-6c" x="583.236328"/>
     <use xlink:href="#DejaVuSans-6c" x="611.019531"/>
     <use xlink:href="#DejaVuSans-6f" x="638.802734"/>
     <use xlink:href="#DejaVuSans-77" x="699.984375"/>
     <use xlink:href="#DejaVuSans-65" x="781.771484"/>
     <use xlink:href="#DejaVuSans-72" x="843.294922"/>
     <use xlink:href="#DejaVuSans-29" x="884.408203"/>
    </g>
   </g>
   <g id="legend_1">
    <g id="patch_22">
     <path d="M 772.281944 48.175875 
L 834.289288 48.175875 
Q 836.489288 48.175875 836.489288 45.975875 
L 836.489288 30.929937 
Q 836.489288 28.729937 834.289288 28.729937 
L 772.281944 28.729937 
Q 770.081944 28.729937 770.081944 30.929937 
L 770.081944 45.975875 
Q 770.081944 48.175875 772.281944 48.175875 
z
" style="fill: #ffffff; opacity: 0.8; stroke: #cccccc; stroke-linejoin: miter"/>
    </g>
    <g id="line2d_53">
     <path d="M 774.481944 37.638219 
L 785.481944 37.638219 
L 796.481944 37.638219 
" style="fill: none; stroke: #ff0000; stroke-width: 1.5; stroke-linecap: square"/>
    </g>
    <g id="text_53">
     <!-- Error -->
     <g transform="translate(805.281944 41.488219) scale(0.11 -0.11)">
      <defs>
       <path id="DejaVuSans-45" d="M 628 4666 
L 3578 4666 
L 3578 4134 
L 1259 4134 
L 1259 2753 
L 3481 2753 
L 3481 2222 
L 1259 2222 
L 1259 531 
L 3634 531 
L 3634 0 
L 628 0 
L 628 4666 
z
" transform="scale(0.015625)"/>
      </defs>
      <use xlink:href="#DejaVuSans-45"/>
      <use xlink:href="#DejaVuSans-72" x="63.183594"/>
      <use xlink:href="#DejaVuSans-72" x="102.546875"/>
      <use xlink:href="#DejaVuSans-6f" x="141.410156"/>
      <use xlink:href="#DejaVuSans-72" x="202.591797"/>
     </g>
    </g>
   </g>
  </g>
 </g>
 <defs>
  <clipPath id="p6316fc46c2">
   <rect x="21.19875" y="23.229937" width="173.829522" height="194.564125"/>
  </clipPath>
  <clipPath id="pfd53a307dd">
   <rect x="236.852422" y="23.229937" width="173.829522" height="194.564125"/>
  </clipPath>
  <clipPath id="pa90c2faefc">
   <rect x="452.506094" y="23.229937" width="173.829522" height="194.564125"/>
  </clipPath>
  <clipPath id="p7328644138">
   <rect x="668.159766" y="23.229937" width="173.829522" height="194.564125"/>
  </clipPath>
 </defs>
</svg>
