<?xml version="1.0" encoding="utf-8" standalone="no"?>
<!DOCTYPE svg PUBLIC "-//W3C//DTD SVG 1.1//EN"
  "http://www.w3.org/Graphics/SVG/1.1/DTD/svg11.dtd">
<svg xmlns:xlink="http://www.w3.org/1999/xlink" width="854.64pt" height="242.64pt" viewBox="0 0 854.64 242.64" xmlns="http://www.w3.org/2000/svg" version="1.1">
 <metadata>
  <rdf:RDF xmlns:dc="http://purl.org/dc/elements/1.1/" xmlns:cc="http://creativecommons.org/ns#" xmlns:rdf="http://www.w3.org/1999/02/22-rdf-syntax-ns#">
   <cc:Work>
    <dc:type rdf:resource="http://purl.org/dc/dcmitype/StillImage"/>
    <dc:date>2023-10-10T15:35:14.640116</dc:date>
    <dc:format>image/svg+xml</dc:format>
    <dc:creator>
     <cc:Agent>
      <dc:title>Matplotlib v3.7.1, https://matplotlib.org/</dc:title>
     </cc:Agent>
    </dc:creator>
   </cc:Work>
  </rdf:RDF>
 </metadata>
 <defs>
  <style type="text/css">*{stroke-linejoin: round; stroke-linecap: butt}</style>
 </defs>
 <g id="figure_1">
  <g id="patch_1">
   <path d="M 0 242.64 
L 854.64 242.64 
L 854.64 0 
L 0 0 
L 0 242.64 
z
" style="fill: none"/>
  </g>
  <g id="axes_1">
   <g id="patch_2">
    <path d="M 47.909844 217.794062 
L 424.879375 217.794062 
L 424.879375 23.229937 
L 47.909844 23.229937 
L 47.909844 217.794062 
z
" style="fill: none"/>
   </g>
   <g id="matplotlib.axis_1">
    <g id="xtick_1">
     <g id="line2d_1">
      <defs>
       <path id="m9ee53eaf74" d="M 0 0 
L 0 3.5 
" style="stroke: #000000; stroke-width: 0.8"/>
      </defs>
      <g>
       <use xlink:href="#m9ee53eaf74" x="62.739254" y="217.794062" style="stroke: #000000; stroke-width: 0.8"/>
      </g>
     </g>
     <g id="text_1">
      <!-- 0.0 -->
      <g transform="translate(53.992535 233.152344) scale(0.11 -0.11)">
       <defs>
        <path id="DejaVuSans-30" d="M 2034 4250 
Q 1547 4250 1301 3770 
Q 1056 3291 1056 2328 
Q 1056 1369 1301 889 
Q 1547 409 2034 409 
Q 2525 409 2770 889 
Q 3016 1369 3016 2328 
Q 3016 3291 2770 3770 
Q 2525 4250 2034 4250 
z
M 2034 4750 
Q 2819 4750 3233 4129 
Q 3647 3509 3647 2328 
Q 3647 1150 3233 529 
Q 2819 -91 2034 -91 
Q 1250 -91 836 529 
Q 422 1150 422 2328 
Q 422 3509 836 4129 
Q 1250 4750 2034 4750 
z
" transform="scale(0.015625)"/>
        <path id="DejaVuSans-2e" d="M 684 794 
L 1344 794 
L 1344 0 
L 684 0 
L 684 794 
z
" transform="scale(0.015625)"/>
       </defs>
       <use xlink:href="#DejaVuSans-30"/>
       <use xlink:href="#DejaVuSans-2e" x="63.623047"/>
       <use xlink:href="#DejaVuSans-30" x="95.410156"/>
      </g>
     </g>
    </g>
    <g id="xtick_2">
     <g id="line2d_2">
      <g>
       <use xlink:href="#m9ee53eaf74" x="101.329333" y="217.794062" style="stroke: #000000; stroke-width: 0.8"/>
      </g>
     </g>
     <g id="text_2">
      <!-- 1.3 -->
      <g transform="translate(92.582614 233.152344) scale(0.11 -0.11)">
       <defs>
        <path id="DejaVuSans-31" d="M 794 531 
L 1825 531 
L 1825 4091 
L 703 3866 
L 703 4441 
L 1819 4666 
L 2450 4666 
L 2450 531 
L 3481 531 
L 3481 0 
L 794 0 
L 794 531 
z
" transform="scale(0.015625)"/>
        <path id="DejaVuSans-33" d="M 2597 2516 
Q 3050 2419 3304 2112 
Q 3559 1806 3559 1356 
Q 3559 666 3084 287 
Q 2609 -91 1734 -91 
Q 1441 -91 1130 -33 
Q 819 25 488 141 
L 488 750 
Q 750 597 1062 519 
Q 1375 441 1716 441 
Q 2309 441 2620 675 
Q 2931 909 2931 1356 
Q 2931 1769 2642 2001 
Q 2353 2234 1838 2234 
L 1294 2234 
L 1294 2753 
L 1863 2753 
Q 2328 2753 2575 2939 
Q 2822 3125 2822 3475 
Q 2822 3834 2567 4026 
Q 2313 4219 1838 4219 
Q 1578 4219 1281 4162 
Q 984 4106 628 3988 
L 628 4550 
Q 988 4650 1302 4700 
Q 1616 4750 1894 4750 
Q 2613 4750 3031 4423 
Q 3450 4097 3450 3541 
Q 3450 3153 3228 2886 
Q 3006 2619 2597 2516 
z
" transform="scale(0.015625)"/>
       </defs>
       <use xlink:href="#DejaVuSans-31"/>
       <use xlink:href="#DejaVuSans-2e" x="63.623047"/>
       <use xlink:href="#DejaVuSans-33" x="95.410156"/>
      </g>
     </g>
    </g>
    <g id="xtick_3">
     <g id="line2d_3">
      <g>
       <use xlink:href="#m9ee53eaf74" x="139.919412" y="217.794062" style="stroke: #000000; stroke-width: 0.8"/>
      </g>
     </g>
     <g id="text_3">
      <!-- 2.6 -->
      <g transform="translate(131.172693 233.152344) scale(0.11 -0.11)">
       <defs>
        <path id="DejaVuSans-32" d="M 1228 531 
L 3431 531 
L 3431 0 
L 469 0 
L 469 531 
Q 828 903 1448 1529 
Q 2069 2156 2228 2338 
Q 2531 2678 2651 2914 
Q 2772 3150 2772 3378 
Q 2772 3750 2511 3984 
Q 2250 4219 1831 4219 
Q 1534 4219 1204 4116 
Q 875 4013 500 3803 
L 500 4441 
Q 881 4594 1212 4672 
Q 1544 4750 1819 4750 
Q 2544 4750 2975 4387 
Q 3406 4025 3406 3419 
Q 3406 3131 3298 2873 
Q 3191 2616 2906 2266 
Q 2828 2175 2409 1742 
Q 1991 1309 1228 531 
z
" transform="scale(0.015625)"/>
        <path id="DejaVuSans-36" d="M 2113 2584 
Q 1688 2584 1439 2293 
Q 1191 2003 1191 1497 
Q 1191 994 1439 701 
Q 1688 409 2113 409 
Q 2538 409 2786 701 
Q 3034 994 3034 1497 
Q 3034 2003 2786 2293 
Q 2538 2584 2113 2584 
z
M 3366 4563 
L 3366 3988 
Q 3128 4100 2886 4159 
Q 2644 4219 2406 4219 
Q 1781 4219 1451 3797 
Q 1122 3375 1075 2522 
Q 1259 2794 1537 2939 
Q 1816 3084 2150 3084 
Q 2853 3084 3261 2657 
Q 3669 2231 3669 1497 
Q 3669 778 3244 343 
Q 2819 -91 2113 -91 
Q 1303 -91 875 529 
Q 447 1150 447 2328 
Q 447 3434 972 4092 
Q 1497 4750 2381 4750 
Q 2619 4750 2861 4703 
Q 3103 4656 3366 4563 
z
" transform="scale(0.015625)"/>
       </defs>
       <use xlink:href="#DejaVuSans-32"/>
       <use xlink:href="#DejaVuSans-2e" x="63.623047"/>
       <use xlink:href="#DejaVuSans-36" x="95.410156"/>
      </g>
     </g>
    </g>
    <g id="xtick_4">
     <g id="line2d_4">
      <g>
       <use xlink:href="#m9ee53eaf74" x="178.509491" y="217.794062" style="stroke: #000000; stroke-width: 0.8"/>
      </g>
     </g>
     <g id="text_4">
      <!-- 3.9 -->
      <g transform="translate(169.762772 233.152344) scale(0.11 -0.11)">
       <defs>
        <path id="DejaVuSans-39" d="M 703 97 
L 703 672 
Q 941 559 1184 500 
Q 1428 441 1663 441 
Q 2288 441 2617 861 
Q 2947 1281 2994 2138 
Q 2813 1869 2534 1725 
Q 2256 1581 1919 1581 
Q 1219 1581 811 2004 
Q 403 2428 403 3163 
Q 403 3881 828 4315 
Q 1253 4750 1959 4750 
Q 2769 4750 3195 4129 
Q 3622 3509 3622 2328 
Q 3622 1225 3098 567 
Q 2575 -91 1691 -91 
Q 1453 -91 1209 -44 
Q 966 3 703 97 
z
M 1959 2075 
Q 2384 2075 2632 2365 
Q 2881 2656 2881 3163 
Q 2881 3666 2632 3958 
Q 2384 4250 1959 4250 
Q 1534 4250 1286 3958 
Q 1038 3666 1038 3163 
Q 1038 2656 1286 2365 
Q 1534 2075 1959 2075 
z
" transform="scale(0.015625)"/>
       </defs>
       <use xlink:href="#DejaVuSans-33"/>
       <use xlink:href="#DejaVuSans-2e" x="63.623047"/>
       <use xlink:href="#DejaVuSans-39" x="95.410156"/>
      </g>
     </g>
    </g>
    <g id="xtick_5">
     <g id="line2d_5">
      <g>
       <use xlink:href="#m9ee53eaf74" x="217.09957" y="217.794062" style="stroke: #000000; stroke-width: 0.8"/>
      </g>
     </g>
     <g id="text_5">
      <!-- 5.2 -->
      <g transform="translate(208.352851 233.152344) scale(0.11 -0.11)">
       <defs>
        <path id="DejaVuSans-35" d="M 691 4666 
L 3169 4666 
L 3169 4134 
L 1269 4134 
L 1269 2991 
Q 1406 3038 1543 3061 
Q 1681 3084 1819 3084 
Q 2600 3084 3056 2656 
Q 3513 2228 3513 1497 
Q 3513 744 3044 326 
Q 2575 -91 1722 -91 
Q 1428 -91 1123 -41 
Q 819 9 494 109 
L 494 744 
Q 775 591 1075 516 
Q 1375 441 1709 441 
Q 2250 441 2565 725 
Q 2881 1009 2881 1497 
Q 2881 1984 2565 2268 
Q 2250 2553 1709 2553 
Q 1456 2553 1204 2497 
Q 953 2441 691 2322 
L 691 4666 
z
" transform="scale(0.015625)"/>
       </defs>
       <use xlink:href="#DejaVuSans-35"/>
       <use xlink:href="#DejaVuSans-2e" x="63.623047"/>
       <use xlink:href="#DejaVuSans-32" x="95.410156"/>
      </g>
     </g>
    </g>
    <g id="xtick_6">
     <g id="line2d_6">
      <g>
       <use xlink:href="#m9ee53eaf74" x="255.689649" y="217.794062" style="stroke: #000000; stroke-width: 0.8"/>
      </g>
     </g>
     <g id="text_6">
      <!-- 6.5 -->
      <g transform="translate(246.94293 233.152344) scale(0.11 -0.11)">
       <use xlink:href="#DejaVuSans-36"/>
       <use xlink:href="#DejaVuSans-2e" x="63.623047"/>
       <use xlink:href="#DejaVuSans-35" x="95.410156"/>
      </g>
     </g>
    </g>
    <g id="xtick_7">
     <g id="line2d_7">
      <g>
       <use xlink:href="#m9ee53eaf74" x="294.279728" y="217.794062" style="stroke: #000000; stroke-width: 0.8"/>
      </g>
     </g>
     <g id="text_7">
      <!-- 7.8 -->
      <g transform="translate(285.533009 233.152344) scale(0.11 -0.11)">
       <defs>
        <path id="DejaVuSans-37" d="M 525 4666 
L 3525 4666 
L 3525 4397 
L 1831 0 
L 1172 0 
L 2766 4134 
L 525 4134 
L 525 4666 
z
" transform="scale(0.015625)"/>
        <path id="DejaVuSans-38" d="M 2034 2216 
Q 1584 2216 1326 1975 
Q 1069 1734 1069 1313 
Q 1069 891 1326 650 
Q 1584 409 2034 409 
Q 2484 409 2743 651 
Q 3003 894 3003 1313 
Q 3003 1734 2745 1975 
Q 2488 2216 2034 2216 
z
M 1403 2484 
Q 997 2584 770 2862 
Q 544 3141 544 3541 
Q 544 4100 942 4425 
Q 1341 4750 2034 4750 
Q 2731 4750 3128 4425 
Q 3525 4100 3525 3541 
Q 3525 3141 3298 2862 
Q 3072 2584 2669 2484 
Q 3125 2378 3379 2068 
Q 3634 1759 3634 1313 
Q 3634 634 3220 271 
Q 2806 -91 2034 -91 
Q 1263 -91 848 271 
Q 434 634 434 1313 
Q 434 1759 690 2068 
Q 947 2378 1403 2484 
z
M 1172 3481 
Q 1172 3119 1398 2916 
Q 1625 2713 2034 2713 
Q 2441 2713 2670 2916 
Q 2900 3119 2900 3481 
Q 2900 3844 2670 4047 
Q 2441 4250 2034 4250 
Q 1625 4250 1398 4047 
Q 1172 3844 1172 3481 
z
" transform="scale(0.015625)"/>
       </defs>
       <use xlink:href="#DejaVuSans-37"/>
       <use xlink:href="#DejaVuSans-2e" x="63.623047"/>
       <use xlink:href="#DejaVuSans-38" x="95.410156"/>
      </g>
     </g>
    </g>
    <g id="xtick_8">
     <g id="line2d_8">
      <g>
       <use xlink:href="#m9ee53eaf74" x="332.869807" y="217.794062" style="stroke: #000000; stroke-width: 0.8"/>
      </g>
     </g>
     <g id="text_8">
      <!-- 9.1 -->
      <g transform="translate(324.123088 233.152344) scale(0.11 -0.11)">
       <use xlink:href="#DejaVuSans-39"/>
       <use xlink:href="#DejaVuSans-2e" x="63.623047"/>
       <use xlink:href="#DejaVuSans-31" x="95.410156"/>
      </g>
     </g>
    </g>
    <g id="xtick_9">
     <g id="line2d_9">
      <g>
       <use xlink:href="#m9ee53eaf74" x="371.459886" y="217.794062" style="stroke: #000000; stroke-width: 0.8"/>
      </g>
     </g>
     <g id="text_9">
      <!-- 10.4 -->
      <g transform="translate(359.213792 233.152344) scale(0.11 -0.11)">
       <defs>
        <path id="DejaVuSans-34" d="M 2419 4116 
L 825 1625 
L 2419 1625 
L 2419 4116 
z
M 2253 4666 
L 3047 4666 
L 3047 1625 
L 3713 1625 
L 3713 1100 
L 3047 1100 
L 3047 0 
L 2419 0 
L 2419 1100 
L 313 1100 
L 313 1709 
L 2253 4666 
z
" transform="scale(0.015625)"/>
       </defs>
       <use xlink:href="#DejaVuSans-31"/>
       <use xlink:href="#DejaVuSans-30" x="63.623047"/>
       <use xlink:href="#DejaVuSans-2e" x="127.246094"/>
       <use xlink:href="#DejaVuSans-34" x="159.033203"/>
      </g>
     </g>
    </g>
    <g id="xtick_10">
     <g id="line2d_10">
      <g>
       <use xlink:href="#m9ee53eaf74" x="410.049965" y="217.794062" style="stroke: #000000; stroke-width: 0.8"/>
      </g>
     </g>
     <g id="text_10">
      <!-- 11.7 -->
      <g transform="translate(397.803871 233.152344) scale(0.11 -0.11)">
       <use xlink:href="#DejaVuSans-31"/>
       <use xlink:href="#DejaVuSans-31" x="63.623047"/>
       <use xlink:href="#DejaVuSans-2e" x="127.246094"/>
       <use xlink:href="#DejaVuSans-37" x="159.033203"/>
      </g>
     </g>
    </g>
   </g>
   <g id="matplotlib.axis_2">
    <g id="ytick_1">
     <g id="line2d_11">
      <defs>
       <path id="mc412ba7bef" d="M 0 0 
L -3.5 0 
" style="stroke: #000000; stroke-width: 0.8"/>
      </defs>
      <g>
       <use xlink:href="#mc412ba7bef" x="47.909844" y="195.854113" style="stroke: #000000; stroke-width: 0.8"/>
      </g>
     </g>
     <g id="text_11">
      <!-- −0.20 -->
      <g transform="translate(7.2 200.033253) scale(0.11 -0.11)">
       <defs>
        <path id="DejaVuSans-2212" d="M 678 2272 
L 4684 2272 
L 4684 1741 
L 678 1741 
L 678 2272 
z
" transform="scale(0.015625)"/>
       </defs>
       <use xlink:href="#DejaVuSans-2212"/>
       <use xlink:href="#DejaVuSans-30" x="83.789062"/>
       <use xlink:href="#DejaVuSans-2e" x="147.412109"/>
       <use xlink:href="#DejaVuSans-32" x="179.199219"/>
       <use xlink:href="#DejaVuSans-30" x="242.822266"/>
      </g>
     </g>
    </g>
    <g id="ytick_2">
     <g id="line2d_12">
      <g>
       <use xlink:href="#mc412ba7bef" x="47.909844" y="157.612783" style="stroke: #000000; stroke-width: 0.8"/>
      </g>
     </g>
     <g id="text_12">
      <!-- −0.15 -->
      <g transform="translate(7.2 161.791923) scale(0.11 -0.11)">
       <use xlink:href="#DejaVuSans-2212"/>
       <use xlink:href="#DejaVuSans-30" x="83.789062"/>
       <use xlink:href="#DejaVuSans-2e" x="147.412109"/>
       <use xlink:href="#DejaVuSans-31" x="179.199219"/>
       <use xlink:href="#DejaVuSans-35" x="242.822266"/>
      </g>
     </g>
    </g>
    <g id="ytick_3">
     <g id="line2d_13">
      <g>
       <use xlink:href="#mc412ba7bef" x="47.909844" y="119.371452" style="stroke: #000000; stroke-width: 0.8"/>
      </g>
     </g>
     <g id="text_13">
      <!-- −0.10 -->
      <g transform="translate(7.2 123.550593) scale(0.11 -0.11)">
       <use xlink:href="#DejaVuSans-2212"/>
       <use xlink:href="#DejaVuSans-30" x="83.789062"/>
       <use xlink:href="#DejaVuSans-2e" x="147.412109"/>
       <use xlink:href="#DejaVuSans-31" x="179.199219"/>
       <use xlink:href="#DejaVuSans-30" x="242.822266"/>
      </g>
     </g>
    </g>
    <g id="ytick_4">
     <g id="line2d_14">
      <g>
       <use xlink:href="#mc412ba7bef" x="47.909844" y="81.130122" style="stroke: #000000; stroke-width: 0.8"/>
      </g>
     </g>
     <g id="text_14">
      <!-- −0.05 -->
      <g transform="translate(7.2 85.309263) scale(0.11 -0.11)">
       <use xlink:href="#DejaVuSans-2212"/>
       <use xlink:href="#DejaVuSans-30" x="83.789062"/>
       <use xlink:href="#DejaVuSans-2e" x="147.412109"/>
       <use xlink:href="#DejaVuSans-30" x="179.199219"/>
       <use xlink:href="#DejaVuSans-35" x="242.822266"/>
      </g>
     </g>
    </g>
    <g id="ytick_5">
     <g id="line2d_15">
      <g>
       <use xlink:href="#mc412ba7bef" x="47.909844" y="42.888792" style="stroke: #000000; stroke-width: 0.8"/>
      </g>
     </g>
     <g id="text_15">
      <!-- 0.00 -->
      <g transform="translate(16.417656 47.067933) scale(0.11 -0.11)">
       <use xlink:href="#DejaVuSans-30"/>
       <use xlink:href="#DejaVuSans-2e" x="63.623047"/>
       <use xlink:href="#DejaVuSans-30" x="95.410156"/>
       <use xlink:href="#DejaVuSans-30" x="159.033203"/>
      </g>
     </g>
    </g>
   </g>
   <g id="line2d_16">
    <path d="M 62.739254 42.888792 
L 410.93973 42.888792 
L 410.93973 42.888792 
" clip-path="url(#p1357edd8c3)" style="fill: none; stroke: #ff0000; stroke-width: 1.5; stroke-linecap: square"/>
   </g>
   <g id="line2d_17">
    <path d="M 62.739254 42.888792 
L 410.93973 42.888792 
L 410.93973 42.888792 
" clip-path="url(#p1357edd8c3)" style="fill: none; stroke: #008000; stroke-width: 1.5; stroke-linecap: square"/>
   </g>
   <g id="line2d_18">
    <path d="M 62.739254 42.888792 
L 410.93973 42.888792 
L 410.93973 42.888792 
" clip-path="url(#p1357edd8c3)" style="fill: none; stroke: #0000ff; stroke-width: 1.5; stroke-linecap: square"/>
   </g>
   <g id="line2d_19">
    <path d="M 62.739254 42.888792 
L 65.111959 42.800281 
L 66.5949 42.53268 
L 67.781253 42.124372 
L 68.967606 41.500525 
L 70.153959 40.649387 
L 71.933488 39.045821 
L 75.492546 35.622886 
L 76.085723 35.403663 
L 76.382311 42.724922 
L 81.42431 42.873607 
L 88.838985 43.275959 
L 90.025338 45.050008 
L 91.508279 47.628721 
L 95.067367 54.765402 
L 106.337719 79.047882 
L 106.634307 79.870682 
L 107.227483 80.890502 
L 108.117248 82.888229 
L 119.387599 107.455607 
L 119.980776 109.148015 
L 120.573952 110.198199 
L 121.463717 112.496961 
L 122.056893 113.720378 
L 129.768186 131.335635 
L 130.657951 133.423612 
L 132.140892 136.699364 
L 133.327245 139.487157 
L 133.920421 140.712409 
L 135.403362 144.245908 
L 136.886303 147.487243 
L 138.072656 150.227617 
L 138.665832 151.34044 
L 140.148773 154.933595 
L 141.335126 157.2732 
L 142.224891 159.418538 
L 142.521479 159.934796 
L 142.818067 160.847999 
L 143.114655 161.1524 
L 143.411243 162.10002 
L 143.707832 162.526029 
L 145.190773 165.790309 
L 148.156655 172.126132 
L 150.52936 176.981251 
L 151.122537 178.109371 
L 152.012301 180.214938 
L 152.308889 180.53693 
L 153.198654 182.627966 
L 154.088419 184.184388 
L 154.681595 185.470827 
L 155.274771 186.454394 
L 155.867948 187.579454 
L 157.054301 189.961889 
L 157.944065 191.41047 
L 158.537242 192.632663 
L 159.130418 193.675122 
L 159.427006 193.779903 
L 160.316771 195.778395 
L 161.799712 197.843427 
L 162.392888 199.08627 
L 162.689476 199.304246 
L 163.282653 200.547089 
L 164.765594 202.453801 
L 165.062182 202.597589 
L 165.35877 203.244632 
L 165.655358 203.51997 
L 165.951947 204.06835 
L 166.248535 204.045406 
L 167.138299 205.515402 
L 167.434887 205.620184 
L 167.731476 205.971239 
L 168.324652 206.272581 
L 168.62124 206.73989 
L 168.917828 206.885207 
L 169.214417 207.185019 
L 169.511005 207.189608 
L 170.104181 207.86189 
L 170.400769 208.317727 
L 171.587122 208.425568 
L 171.88371 208.682549 
L 172.180299 208.745265 
L 172.476887 208.950239 
L 173.070063 208.580063 
L 173.959828 208.684844 
L 174.256416 208.493637 
L 174.553004 208.7032 
L 174.849592 208.209122 
L 175.146181 208.506639 
L 175.442769 207.834357 
L 175.739357 207.883306 
L 176.035945 207.546017 
L 176.332533 207.572021 
L 176.629122 207.036642 
L 176.92571 207.214082 
L 177.222298 206.570863 
L 177.518886 206.323059 
L 177.815474 206.47373 
L 178.112063 205.859574 
L 178.408651 204.693214 
L 178.705239 204.962433 
L 179.001827 203.992633 
L 179.298415 203.548268 
L 179.595004 202.663364 
L 179.891592 202.303131 
L 180.484768 200.950917 
L 180.781356 200.860668 
L 181.671121 197.227741 
L 182.264297 195.720268 
L 182.560886 195.478583 
L 183.747238 191.626151 
L 184.043827 189.950416 
L 184.340415 189.151172 
L 185.526768 183.07233 
L 185.823356 182.351864 
L 186.416532 179.900595 
L 187.009709 176.233251 
L 187.306297 174.666886 
L 187.602885 43.279772 
L 211.033946 42.906466 
L 222.601182 43.103506 
L 232.685477 43.287594 
L 235.058183 46.67281 
L 239.507006 53.743058 
L 241.583123 57.355487 
L 244.549302 62.356535 
L 244.84589 63.000213 
L 245.439066 63.890854 
L 246.328831 65.490183 
L 247.218596 66.927675 
L 248.998125 69.803193 
L 249.887889 70.864696 
L 252.557183 75.623065 
L 253.446948 77.429126 
L 254.040124 78.359385 
L 255.523065 80.915665 
L 256.116242 82.016786 
L 257.006303 83.610608 
L 257.599479 84.634711 
L 259.972185 89.139004 
L 260.268773 89.364322 
L 263.234655 94.593594 
L 264.12442 96.338699 
L 264.421008 96.338699 
L 265.014184 97.005475 
L 266.497125 99.705542 
L 267.090302 100.980279 
L 267.980066 102.309089 
L 268.276654 102.583279 
L 270.05648 102.583279 
L 270.649656 104.312475 
L 271.242833 104.379933 
L 271.539421 104.244559 
L 271.836009 104.450985 
L 291.411127 104.450985 
L 291.707715 99.864932 
L 292.004303 100.420502 
L 292.300891 100.475876 
L 292.59748 100.773164 
L 293.190656 100.641996 
L 293.783832 101.207203 
L 296.156835 104.88296 
L 296.453423 105.758074 
L 296.750011 106.116319 
L 297.046599 106.259494 
L 297.343187 107.091779 
L 297.639776 107.302794 
L 298.826128 109.899457 
L 299.122717 110.533957 
L 299.419305 110.533957 
L 299.715893 111.10643 
L 300.012481 111.430411 
L 300.309069 112.034012 
L 302.385187 114.093613 
L 302.978363 114.655684 
L 303.274951 115.221274 
L 303.868128 115.962008 
L 304.461304 116.698689 
L 304.757892 116.805765 
L 305.054481 116.780985 
L 305.351069 117.088368 
L 305.647657 116.974409 
L 306.240833 117.296248 
L 306.83401 118.094727 
L 307.130598 118.753549 
L 308.020363 119.647555 
L 308.613539 119.582544 
L 308.910127 120.147751 
L 309.206715 120.127866 
L 309.5036 120.481216 
L 309.800188 121.031126 
L 310.393365 120.916402 
L 310.689953 121.205507 
L 310.986541 121.275106 
L 311.579718 121.224627 
L 311.876306 121.392889 
L 312.469482 122.195192 
L 313.062659 122.403225 
L 313.655835 123.073213 
L 314.5456 123.321782 
L 315.138776 124.473611 
L 315.435364 124.760421 
L 316.028541 124.938625 
L 316.325129 43.2819 
L 332.341188 43.080901 
L 343.01866 42.996496 
L 384.246792 42.891027 
L 413.015847 42.896061 
L 413.015847 42.896061 
" clip-path="url(#p1357edd8c3)" style="fill: none; stroke: #ff0000; stroke-width: 1.5; stroke-linecap: square"/>
   </g>
   <g id="line2d_20">
    <path d="M 62.739254 42.888792 
L 64.518783 42.972665 
L 65.705136 43.2529 
L 66.5949 43.667462 
L 67.484665 44.310329 
L 68.374429 45.225896 
L 69.264194 46.453335 
L 70.153959 48.026981 
L 71.043723 49.972494 
L 72.230076 53.183282 
L 73.416429 57.125045 
L 74.602782 61.786893 
L 76.085723 68.606469 
L 77.865252 78.043129 
L 79.941369 90.304753 
L 84.390192 116.8411 
L 86.169721 125.809763 
L 86.762898 128.013993 
L 87.652633 131.392997 
L 88.838985 134.339874 
L 89.432162 135.762451 
L 89.72875 135.886353 
L 90.321926 136.661887 
L 90.915103 136.889806 
L 91.211691 136.662652 
L 91.508279 136.814088 
L 91.804867 136.342955 
L 92.101456 136.329953 
L 92.694662 135.371625 
L 94.177603 132.01939 
L 94.474191 130.929512 
L 94.770779 130.309238 
L 95.363955 127.880913 
L 95.660544 127.811314 
L 95.957132 126.963121 
L 96.25372 126.744381 
L 96.846896 124.576097 
L 97.440073 121.972628 
L 97.736661 121.489257 
L 98.923014 117.352922 
L 99.51619 113.81384 
L 99.812778 112.008314 
L 100.109367 111.310409 
L 100.999131 107.815305 
L 101.295719 107.145699 
L 101.888896 103.984594 
L 102.482072 101.378906 
L 103.371837 98.405873 
L 103.668425 97.411063 
L 103.965013 43.262383 
L 120.87054 42.825849 
L 184.933591 42.792734 
L 202.136003 42.888166 
L 223.490947 42.918345 
L 237.727477 42.937041 
L 256.709418 42.903588 
L 259.379008 42.900573 
L 297.936364 42.883325 
L 306.83401 42.882626 
L 353.399543 42.880812 
L 370.304181 42.881432 
L 413.015847 42.892088 
L 413.015847 42.892088 
" clip-path="url(#p1357edd8c3)" style="fill: none; stroke: #008000; stroke-width: 1.5; stroke-linecap: square"/>
   </g>
   <g id="line2d_21">
    <path d="M 62.739254 42.888792 
L 65.408547 42.775535 
L 66.891488 42.47334 
L 68.077841 42.041135 
L 69.264194 41.395606 
L 70.747135 40.260274 
L 72.230076 38.840228 
L 72.823252 38.118171 
L 74.602782 36.005154 
L 75.789134 34.438529 
L 76.085723 34.212675 
L 76.678899 33.495039 
L 77.272075 32.92509 
L 77.568664 32.481032 
L 78.16184 32.073761 
L 78.458428 42.681268 
L 89.72875 42.871928 
L 90.915103 42.905363 
L 94.474191 42.93615 
L 96.25372 42.977689 
L 99.219602 42.973502 
L 100.109367 42.958329 
L 142.224891 43.010793 
L 143.707832 42.995987 
L 146.377125 42.996926 
L 149.046419 42.994279 
L 150.825948 42.971669 
L 157.944065 42.961848 
L 161.503124 42.945255 
L 165.655358 42.907105 
L 167.138299 42.925457 
L 169.807593 42.894678 
L 221.118241 43.003839 
L 230.312475 43.100756 
L 233.278654 43.086747 
L 235.651359 43.089005 
L 237.727477 43.065835 
L 242.1763 43.063274 
L 245.439066 43.053204 
L 246.625419 43.052852 
L 247.811772 43.023924 
L 248.701537 43.082743 
L 249.591301 42.980872 
L 252.557183 42.986417 
L 254.336712 43.023007 
L 255.819653 42.962414 
L 257.006303 42.981029 
L 259.379008 42.994832 
L 260.268773 42.964143 
L 266.200537 42.926141 
L 274.505303 42.89888 
L 291.411127 42.89888 
L 291.707715 42.688921 
L 292.894068 42.652161 
L 294.377009 42.640543 
L 305.054481 42.848139 
L 309.5036 42.801874 
L 310.689953 42.788178 
L 313.952423 42.750543 
L 318.994422 42.805355 
L 326.409424 42.740686 
L 344.205012 42.808959 
L 350.730249 42.846603 
L 371.193945 42.871515 
L 379.498415 42.880348 
L 413.015847 42.903161 
L 413.015847 42.903161 
" clip-path="url(#p1357edd8c3)" style="fill: none; stroke: #0000ff; stroke-width: 1.5; stroke-linecap: square"/>
   </g>
   <g id="patch_3">
    <path d="M 47.909844 217.794062 
L 47.909844 23.229937 
" style="fill: none; stroke: #000000; stroke-width: 0.8; stroke-linejoin: miter; stroke-linecap: square"/>
   </g>
   <g id="patch_4">
    <path d="M 424.879375 217.794062 
L 424.879375 23.229937 
" style="fill: none; stroke: #000000; stroke-width: 0.8; stroke-linejoin: miter; stroke-linecap: square"/>
   </g>
   <g id="patch_5">
    <path d="M 47.909844 217.794062 
L 424.879375 217.794062 
" style="fill: none; stroke: #000000; stroke-width: 0.8; stroke-linejoin: miter; stroke-linecap: square"/>
   </g>
   <g id="patch_6">
    <path d="M 47.909844 23.229937 
L 424.879375 23.229937 
" style="fill: none; stroke: #000000; stroke-width: 0.8; stroke-linejoin: miter; stroke-linecap: square"/>
   </g>
   <g id="text_16">
    <!-- Drone 3 (Follower) -->
    <g transform="translate(175.448766 17.229937) scale(0.132 -0.132)">
     <defs>
      <path id="DejaVuSans-44" d="M 1259 4147 
L 1259 519 
L 2022 519 
Q 2988 519 3436 956 
Q 3884 1394 3884 2338 
Q 3884 3275 3436 3711 
Q 2988 4147 2022 4147 
L 1259 4147 
z
M 628 4666 
L 1925 4666 
Q 3281 4666 3915 4102 
Q 4550 3538 4550 2338 
Q 4550 1131 3912 565 
Q 3275 0 1925 0 
L 628 0 
L 628 4666 
z
" transform="scale(0.015625)"/>
      <path id="DejaVuSans-72" d="M 2631 2963 
Q 2534 3019 2420 3045 
Q 2306 3072 2169 3072 
Q 1681 3072 1420 2755 
Q 1159 2438 1159 1844 
L 1159 0 
L 581 0 
L 581 3500 
L 1159 3500 
L 1159 2956 
Q 1341 3275 1631 3429 
Q 1922 3584 2338 3584 
Q 2397 3584 2469 3576 
Q 2541 3569 2628 3553 
L 2631 2963 
z
" transform="scale(0.015625)"/>
      <path id="DejaVuSans-6f" d="M 1959 3097 
Q 1497 3097 1228 2736 
Q 959 2375 959 1747 
Q 959 1119 1226 758 
Q 1494 397 1959 397 
Q 2419 397 2687 759 
Q 2956 1122 2956 1747 
Q 2956 2369 2687 2733 
Q 2419 3097 1959 3097 
z
M 1959 3584 
Q 2709 3584 3137 3096 
Q 3566 2609 3566 1747 
Q 3566 888 3137 398 
Q 2709 -91 1959 -91 
Q 1206 -91 779 398 
Q 353 888 353 1747 
Q 353 2609 779 3096 
Q 1206 3584 1959 3584 
z
" transform="scale(0.015625)"/>
      <path id="DejaVuSans-6e" d="M 3513 2113 
L 3513 0 
L 2938 0 
L 2938 2094 
Q 2938 2591 2744 2837 
Q 2550 3084 2163 3084 
Q 1697 3084 1428 2787 
Q 1159 2491 1159 1978 
L 1159 0 
L 581 0 
L 581 3500 
L 1159 3500 
L 1159 2956 
Q 1366 3272 1645 3428 
Q 1925 3584 2291 3584 
Q 2894 3584 3203 3211 
Q 3513 2838 3513 2113 
z
" transform="scale(0.015625)"/>
      <path id="DejaVuSans-65" d="M 3597 1894 
L 3597 1613 
L 953 1613 
Q 991 1019 1311 708 
Q 1631 397 2203 397 
Q 2534 397 2845 478 
Q 3156 559 3463 722 
L 3463 178 
Q 3153 47 2828 -22 
Q 2503 -91 2169 -91 
Q 1331 -91 842 396 
Q 353 884 353 1716 
Q 353 2575 817 3079 
Q 1281 3584 2069 3584 
Q 2775 3584 3186 3129 
Q 3597 2675 3597 1894 
z
M 3022 2063 
Q 3016 2534 2758 2815 
Q 2500 3097 2075 3097 
Q 1594 3097 1305 2825 
Q 1016 2553 972 2059 
L 3022 2063 
z
" transform="scale(0.015625)"/>
      <path id="DejaVuSans-20" transform="scale(0.015625)"/>
      <path id="DejaVuSans-28" d="M 1984 4856 
Q 1566 4138 1362 3434 
Q 1159 2731 1159 2009 
Q 1159 1288 1364 580 
Q 1569 -128 1984 -844 
L 1484 -844 
Q 1016 -109 783 600 
Q 550 1309 550 2009 
Q 550 2706 781 3412 
Q 1013 4119 1484 4856 
L 1984 4856 
z
" transform="scale(0.015625)"/>
      <path id="DejaVuSans-46" d="M 628 4666 
L 3309 4666 
L 3309 4134 
L 1259 4134 
L 1259 2759 
L 3109 2759 
L 3109 2228 
L 1259 2228 
L 1259 0 
L 628 0 
L 628 4666 
z
" transform="scale(0.015625)"/>
      <path id="DejaVuSans-6c" d="M 603 4863 
L 1178 4863 
L 1178 0 
L 603 0 
L 603 4863 
z
" transform="scale(0.015625)"/>
      <path id="DejaVuSans-77" d="M 269 3500 
L 844 3500 
L 1563 769 
L 2278 3500 
L 2956 3500 
L 3675 769 
L 4391 3500 
L 4966 3500 
L 4050 0 
L 3372 0 
L 2619 2869 
L 1863 0 
L 1184 0 
L 269 3500 
z
" transform="scale(0.015625)"/>
      <path id="DejaVuSans-29" d="M 513 4856 
L 1013 4856 
Q 1481 4119 1714 3412 
Q 1947 2706 1947 2009 
Q 1947 1309 1714 600 
Q 1481 -109 1013 -844 
L 513 -844 
Q 928 -128 1133 580 
Q 1338 1288 1338 2009 
Q 1338 2731 1133 3434 
Q 928 4138 513 4856 
z
" transform="scale(0.015625)"/>
     </defs>
     <use xlink:href="#DejaVuSans-44"/>
     <use xlink:href="#DejaVuSans-72" x="77.001953"/>
     <use xlink:href="#DejaVuSans-6f" x="115.865234"/>
     <use xlink:href="#DejaVuSans-6e" x="177.046875"/>
     <use xlink:href="#DejaVuSans-65" x="240.425781"/>
     <use xlink:href="#DejaVuSans-20" x="301.949219"/>
     <use xlink:href="#DejaVuSans-33" x="333.736328"/>
     <use xlink:href="#DejaVuSans-20" x="397.359375"/>
     <use xlink:href="#DejaVuSans-28" x="429.146484"/>
     <use xlink:href="#DejaVuSans-46" x="468.160156"/>
     <use xlink:href="#DejaVuSans-6f" x="522.054688"/>
     <use xlink:href="#DejaVuSans-6c" x="583.236328"/>
     <use xlink:href="#DejaVuSans-6c" x="611.019531"/>
     <use xlink:href="#DejaVuSans-6f" x="638.802734"/>
     <use xlink:href="#DejaVuSans-77" x="699.984375"/>
     <use xlink:href="#DejaVuSans-65" x="781.771484"/>
     <use xlink:href="#DejaVuSans-72" x="843.294922"/>
     <use xlink:href="#DejaVuSans-29" x="884.408203"/>
    </g>
   </g>
  </g>
  <g id="axes_2">
   <g id="patch_7">
    <path d="M 470.470469 217.794062 
L 847.44 217.794062 
L 847.44 23.229937 
L 470.470469 23.229937 
L 470.470469 217.794062 
z
" style="fill: none"/>
   </g>
   <g id="matplotlib.axis_3">
    <g id="xtick_11">
     <g id="line2d_22">
      <g>
       <use xlink:href="#m9ee53eaf74" x="485.299879" y="217.794062" style="stroke: #000000; stroke-width: 0.8"/>
      </g>
     </g>
     <g id="text_17">
      <!-- 0.0 -->
      <g transform="translate(476.55316 233.152344) scale(0.11 -0.11)">
       <use xlink:href="#DejaVuSans-30"/>
       <use xlink:href="#DejaVuSans-2e" x="63.623047"/>
       <use xlink:href="#DejaVuSans-30" x="95.410156"/>
      </g>
     </g>
    </g>
    <g id="xtick_12">
     <g id="line2d_23">
      <g>
       <use xlink:href="#m9ee53eaf74" x="523.889958" y="217.794062" style="stroke: #000000; stroke-width: 0.8"/>
      </g>
     </g>
     <g id="text_18">
      <!-- 1.3 -->
      <g transform="translate(515.143239 233.152344) scale(0.11 -0.11)">
       <use xlink:href="#DejaVuSans-31"/>
       <use xlink:href="#DejaVuSans-2e" x="63.623047"/>
       <use xlink:href="#DejaVuSans-33" x="95.410156"/>
      </g>
     </g>
    </g>
    <g id="xtick_13">
     <g id="line2d_24">
      <g>
       <use xlink:href="#m9ee53eaf74" x="562.480037" y="217.794062" style="stroke: #000000; stroke-width: 0.8"/>
      </g>
     </g>
     <g id="text_19">
      <!-- 2.6 -->
      <g transform="translate(553.733318 233.152344) scale(0.11 -0.11)">
       <use xlink:href="#DejaVuSans-32"/>
       <use xlink:href="#DejaVuSans-2e" x="63.623047"/>
       <use xlink:href="#DejaVuSans-36" x="95.410156"/>
      </g>
     </g>
    </g>
    <g id="xtick_14">
     <g id="line2d_25">
      <g>
       <use xlink:href="#m9ee53eaf74" x="601.070116" y="217.794062" style="stroke: #000000; stroke-width: 0.8"/>
      </g>
     </g>
     <g id="text_20">
      <!-- 3.9 -->
      <g transform="translate(592.323397 233.152344) scale(0.11 -0.11)">
       <use xlink:href="#DejaVuSans-33"/>
       <use xlink:href="#DejaVuSans-2e" x="63.623047"/>
       <use xlink:href="#DejaVuSans-39" x="95.410156"/>
      </g>
     </g>
    </g>
    <g id="xtick_15">
     <g id="line2d_26">
      <g>
       <use xlink:href="#m9ee53eaf74" x="639.660195" y="217.794062" style="stroke: #000000; stroke-width: 0.8"/>
      </g>
     </g>
     <g id="text_21">
      <!-- 5.2 -->
      <g transform="translate(630.913476 233.152344) scale(0.11 -0.11)">
       <use xlink:href="#DejaVuSans-35"/>
       <use xlink:href="#DejaVuSans-2e" x="63.623047"/>
       <use xlink:href="#DejaVuSans-32" x="95.410156"/>
      </g>
     </g>
    </g>
    <g id="xtick_16">
     <g id="line2d_27">
      <g>
       <use xlink:href="#m9ee53eaf74" x="678.250274" y="217.794062" style="stroke: #000000; stroke-width: 0.8"/>
      </g>
     </g>
     <g id="text_22">
      <!-- 6.5 -->
      <g transform="translate(669.503555 233.152344) scale(0.11 -0.11)">
       <use xlink:href="#DejaVuSans-36"/>
       <use xlink:href="#DejaVuSans-2e" x="63.623047"/>
       <use xlink:href="#DejaVuSans-35" x="95.410156"/>
      </g>
     </g>
    </g>
    <g id="xtick_17">
     <g id="line2d_28">
      <g>
       <use xlink:href="#m9ee53eaf74" x="716.840353" y="217.794062" style="stroke: #000000; stroke-width: 0.8"/>
      </g>
     </g>
     <g id="text_23">
      <!-- 7.8 -->
      <g transform="translate(708.093634 233.152344) scale(0.11 -0.11)">
       <use xlink:href="#DejaVuSans-37"/>
       <use xlink:href="#DejaVuSans-2e" x="63.623047"/>
       <use xlink:href="#DejaVuSans-38" x="95.410156"/>
      </g>
     </g>
    </g>
    <g id="xtick_18">
     <g id="line2d_29">
      <g>
       <use xlink:href="#m9ee53eaf74" x="755.430432" y="217.794062" style="stroke: #000000; stroke-width: 0.8"/>
      </g>
     </g>
     <g id="text_24">
      <!-- 9.1 -->
      <g transform="translate(746.683713 233.152344) scale(0.11 -0.11)">
       <use xlink:href="#DejaVuSans-39"/>
       <use xlink:href="#DejaVuSans-2e" x="63.623047"/>
       <use xlink:href="#DejaVuSans-31" x="95.410156"/>
      </g>
     </g>
    </g>
    <g id="xtick_19">
     <g id="line2d_30">
      <g>
       <use xlink:href="#m9ee53eaf74" x="794.020511" y="217.794062" style="stroke: #000000; stroke-width: 0.8"/>
      </g>
     </g>
     <g id="text_25">
      <!-- 10.4 -->
      <g transform="translate(781.774417 233.152344) scale(0.11 -0.11)">
       <use xlink:href="#DejaVuSans-31"/>
       <use xlink:href="#DejaVuSans-30" x="63.623047"/>
       <use xlink:href="#DejaVuSans-2e" x="127.246094"/>
       <use xlink:href="#DejaVuSans-34" x="159.033203"/>
      </g>
     </g>
    </g>
    <g id="xtick_20">
     <g id="line2d_31">
      <g>
       <use xlink:href="#m9ee53eaf74" x="832.61059" y="217.794062" style="stroke: #000000; stroke-width: 0.8"/>
      </g>
     </g>
     <g id="text_26">
      <!-- 11.7 -->
      <g transform="translate(820.364496 233.152344) scale(0.11 -0.11)">
       <use xlink:href="#DejaVuSans-31"/>
       <use xlink:href="#DejaVuSans-31" x="63.623047"/>
       <use xlink:href="#DejaVuSans-2e" x="127.246094"/>
       <use xlink:href="#DejaVuSans-37" x="159.033203"/>
      </g>
     </g>
    </g>
   </g>
   <g id="matplotlib.axis_4">
    <g id="ytick_6">
     <g id="line2d_32">
      <g>
       <use xlink:href="#mc412ba7bef" x="470.470469" y="204.833525" style="stroke: #000000; stroke-width: 0.8"/>
      </g>
     </g>
     <g id="text_27">
      <!-- −0.2 -->
      <g transform="translate(436.759375 209.012666) scale(0.11 -0.11)">
       <use xlink:href="#DejaVuSans-2212"/>
       <use xlink:href="#DejaVuSans-30" x="83.789062"/>
       <use xlink:href="#DejaVuSans-2e" x="147.412109"/>
       <use xlink:href="#DejaVuSans-32" x="179.199219"/>
      </g>
     </g>
    </g>
    <g id="ytick_7">
     <g id="line2d_33">
      <g>
       <use xlink:href="#mc412ba7bef" x="470.470469" y="156.298821" style="stroke: #000000; stroke-width: 0.8"/>
      </g>
     </g>
     <g id="text_28">
      <!-- −0.1 -->
      <g transform="translate(436.759375 160.477962) scale(0.11 -0.11)">
       <use xlink:href="#DejaVuSans-2212"/>
       <use xlink:href="#DejaVuSans-30" x="83.789062"/>
       <use xlink:href="#DejaVuSans-2e" x="147.412109"/>
       <use xlink:href="#DejaVuSans-31" x="179.199219"/>
      </g>
     </g>
    </g>
    <g id="ytick_8">
     <g id="line2d_34">
      <g>
       <use xlink:href="#mc412ba7bef" x="470.470469" y="107.764117" style="stroke: #000000; stroke-width: 0.8"/>
      </g>
     </g>
     <g id="text_29">
      <!-- 0.0 -->
      <g transform="translate(445.977031 111.943258) scale(0.11 -0.11)">
       <use xlink:href="#DejaVuSans-30"/>
       <use xlink:href="#DejaVuSans-2e" x="63.623047"/>
       <use xlink:href="#DejaVuSans-30" x="95.410156"/>
      </g>
     </g>
    </g>
    <g id="ytick_9">
     <g id="line2d_35">
      <g>
       <use xlink:href="#mc412ba7bef" x="470.470469" y="59.229414" style="stroke: #000000; stroke-width: 0.8"/>
      </g>
     </g>
     <g id="text_30">
      <!-- 0.1 -->
      <g transform="translate(445.977031 63.408554) scale(0.11 -0.11)">
       <use xlink:href="#DejaVuSans-30"/>
       <use xlink:href="#DejaVuSans-2e" x="63.623047"/>
       <use xlink:href="#DejaVuSans-31" x="95.410156"/>
      </g>
     </g>
    </g>
   </g>
   <g id="line2d_36">
    <path d="M 485.299879 107.764117 
L 834.983296 107.764117 
L 834.983296 107.764117 
" clip-path="url(#p4b6aab570a)" style="fill: none; stroke: #ff0000; stroke-width: 1.5; stroke-linecap: square"/>
   </g>
   <g id="line2d_37">
    <path d="M 485.299879 107.764117 
L 834.983296 107.764117 
L 834.983296 107.764117 
" clip-path="url(#p4b6aab570a)" style="fill: none; stroke: #008000; stroke-width: 1.5; stroke-linecap: square"/>
   </g>
   <g id="line2d_38">
    <path d="M 485.299879 107.764117 
L 834.983296 107.764117 
L 834.983296 107.764117 
" clip-path="url(#p4b6aab570a)" style="fill: none; stroke: #0000ff; stroke-width: 1.5; stroke-linecap: square"/>
   </g>
   <g id="line2d_39">
    <path d="M 485.299879 107.764117 
L 487.375996 107.683993 
L 488.562349 107.469798 
L 489.748702 107.042528 
L 490.935054 106.337857 
L 492.121407 105.305509 
L 493.30776 103.916839 
L 494.494113 102.153263 
L 495.977054 99.493027 
L 497.459995 96.422382 
L 499.239524 92.557272 
L 500.425877 90.227704 
L 501.019053 89.247594 
L 501.315641 88.917315 
L 501.61223 88.391684 
L 501.908818 88.119308 
L 502.501994 87.332754 
L 503.095171 86.817461 
L 503.688347 86.981363 
L 504.281523 87.298343 
L 504.578112 87.208651 
L 504.8747 87.298052 
L 505.171288 87.686572 
L 505.764464 89.208766 
L 506.061052 89.69984 
L 506.950817 93.350524 
L 507.247405 107.590276 
L 515.255287 108.042643 
L 515.551875 108.364128 
L 515.848463 108.364128 
L 516.441639 109.066104 
L 516.738228 109.066104 
L 517.034816 109.468865 
L 518.221169 109.468865 
L 519.110933 110.785903 
L 520.000698 110.785903 
L 520.890462 112.173335 
L 522.373403 112.173335 
L 522.669992 112.784402 
L 522.96658 112.784402 
L 525.932462 117.303128 
L 526.22905 117.303128 
L 528.305167 120.48948 
L 531.567638 125.354356 
L 532.75399 127.077241 
L 540.168695 137.280886 
L 543.431165 141.518548 
L 545.507283 144.248819 
L 546.693636 145.650501 
L 549.362929 149.095883 
L 549.659518 149.364037 
L 549.956106 149.892046 
L 550.549282 150.595023 
L 553.218576 154.062294 
L 554.701517 155.93947 
L 555.294693 156.750194 
L 555.88787 157.413178 
L 556.184458 157.95434 
L 556.481046 158.128094 
L 556.777634 158.775062 
L 557.370811 159.325445 
L 558.260575 160.525223 
L 558.557164 160.525223 
L 559.15034 161.161999 
L 560.040105 162.253544 
L 560.336693 162.253544 
L 562.709398 165.140388 
L 563.302575 165.140388 
L 563.895751 166.15622 
L 564.192339 166.332886 
L 566.565045 169.274089 
L 566.861633 169.476964 
L 568.641162 172.072115 
L 568.93775 172.244413 
L 569.234339 172.774897 
L 570.420691 174.128045 
L 571.310456 175.342868 
L 571.607044 175.550111 
L 572.496809 176.638745 
L 572.793397 176.961986 
L 573.683162 178.366095 
L 574.572926 179.180507 
L 576.945632 182.293038 
L 577.24222 182.59735 
L 577.835396 183.683557 
L 579.614926 185.669112 
L 579.911514 186.368982 
L 580.50469 187.051866 
L 581.097867 187.816773 
L 581.394455 187.908503 
L 581.987631 189.126239 
L 582.284219 189.361632 
L 582.877396 190.131878 
L 583.173984 190.388626 
L 584.656925 192.50474 
L 585.250101 193.075993 
L 585.54669 193.49145 
L 585.843278 193.705003 
L 587.622807 196.247251 
L 592.368218 202.03647 
L 592.664806 202.1481 
L 592.961394 202.698483 
L 593.257983 202.934847 
L 593.554571 203.426504 
L 593.851159 203.642483 
L 594.147747 204.12783 
L 594.444335 204.284598 
L 595.927276 205.75714 
L 597.113629 206.712303 
L 598.003394 207.488373 
L 598.893158 207.901889 
L 599.189747 208.192612 
L 599.486335 208.241147 
L 599.782923 208.568271 
L 600.079511 208.624571 
L 600.376099 208.796384 
L 600.672688 208.806576 
L 600.969276 208.950239 
L 601.562452 208.950239 
L 601.85904 208.588655 
L 602.452217 208.618261 
L 602.748805 208.506146 
L 603.045393 208.763865 
L 603.341981 208.460523 
L 603.935158 208.456155 
L 604.528334 208.130487 
L 604.824922 208.14796 
L 605.121511 207.687851 
L 605.418099 207.836367 
L 605.714687 207.621358 
L 606.011275 207.188914 
L 606.307863 207.150086 
L 606.604452 206.897706 
L 607.197628 206.140079 
L 607.494216 205.837223 
L 608.680569 203.831769 
L 609.570334 202.07821 
L 610.16351 200.792526 
L 611.349863 198.310946 
L 611.646451 197.47081 
L 611.943039 197.073797 
L 613.722568 192.237313 
L 614.019157 190.800201 
L 614.315745 190.186722 
L 614.612333 189.285918 
L 615.205806 186.829577 
L 615.502394 108.011673 
L 635.3741 107.783007 
L 656.432455 108.017368 
L 659.101749 110.463142 
L 666.516454 118.043234 
L 667.703103 119.343478 
L 667.999691 119.638618 
L 668.592868 119.638618 
L 669.482632 120.659982 
L 670.372397 121.558845 
L 673.338279 124.757864 
L 674.228044 125.819658 
L 675.710985 127.13126 
L 679.270043 131.10766 
L 680.160104 131.960609 
L 682.829398 134.922924 
L 684.015751 136.40828 
L 684.312339 136.548594 
L 686.091868 138.46489 
L 686.685045 139.15782 
L 687.278221 139.910981 
L 689.947515 142.417944 
L 690.540691 143.262739 
L 692.32022 145.067988 
L 697.955693 145.067988 
L 698.252281 145.84134 
L 698.548869 145.84134 
L 698.845457 146.321202 
L 699.142045 146.321202 
L 699.438634 146.559362 
L 712.785399 146.559362 
L 713.081987 144.253284 
L 714.564928 145.244314 
L 714.861516 145.530232 
L 715.454693 145.773391 
L 716.344457 146.399004 
L 717.234222 147.074801 
L 717.827398 148.059327 
L 718.420871 148.515068 
L 719.014048 149.23906 
L 719.903812 149.754693 
L 720.793577 150.426607 
L 722.276518 151.696324 
L 722.573106 152.033397 
L 723.166283 152.270538 
L 723.759459 152.695217 
L 724.352635 152.948956 
L 725.2424 153.444156 
L 725.538988 153.488516 
L 726.428753 154.073214 
L 727.021929 154.375925 
L 728.208282 154.94611 
L 728.50487 154.94611 
L 728.801458 154.525751 
L 729.098047 154.723919 
L 730.877576 154.794925 
L 731.174164 154.919611 
L 731.76734 154.919611 
L 732.360813 155.233048 
L 732.657402 155.574538 
L 734.140343 156.154188 
L 735.326695 156.488592 
L 735.623284 156.440543 
L 735.919872 156.510433 
L 736.21646 108.014576 
L 786.636454 107.794077 
L 831.127649 107.761211 
L 832.61059 107.767415 
L 832.61059 107.767415 
" clip-path="url(#p4b6aab570a)" style="fill: none; stroke: #ff0000; stroke-width: 1.5; stroke-linecap: square"/>
   </g>
   <g id="line2d_40">
    <path d="M 485.299879 107.764117 
L 487.375996 107.674142 
L 488.562349 107.43282 
L 489.748702 106.949758 
L 490.638466 106.383145 
L 491.528231 105.608812 
L 492.417995 104.601489 
L 493.604348 102.859152 
L 494.790701 100.62374 
L 495.977054 97.870464 
L 497.163407 94.589615 
L 498.646348 89.763906 
L 500.129289 84.170864 
L 501.908818 76.629978 
L 504.578112 64.093707 
L 507.543993 49.964624 
L 507.840582 49.964624 
L 508.433758 46.617671 
L 510.213258 39.244279 
L 511.103022 39.244279 
L 511.39961 37.568375 
L 511.696199 36.606903 
L 511.992787 36.606903 
L 512.882551 34.037961 
L 513.772316 32.073761 
L 514.662081 32.073761 
L 514.958669 32.380501 
L 515.255287 32.380501 
L 515.551875 32.687725 
L 516.145051 32.764896 
L 516.441639 32.549887 
L 516.738228 32.549887 
L 517.034816 32.957578 
L 518.221169 32.957578 
L 518.517757 34.985358 
L 519.110933 34.329169 
L 520.000698 34.329169 
L 520.297286 36.506436 
L 522.373403 36.389467 
L 522.669992 40.826025 
L 522.96658 40.826025 
L 523.263168 41.498716 
L 524.449521 42.439803 
L 524.746109 42.913987 
L 525.635874 43.293529 
L 525.932462 43.825955 
L 526.22905 43.825955 
L 526.525638 45.299468 
L 527.118815 46.071655 
L 527.415403 46.911306 
L 527.711991 47.221442 
L 528.008579 47.872293 
L 528.601756 49.604982 
L 528.898344 50.085475 
L 530.084697 52.849041 
L 530.677873 53.726063 
L 531.271049 55.507287 
L 531.567638 55.946526 
L 533.643755 61.428958 
L 534.533519 64.523579 
L 535.423284 66.770202 
L 536.313049 69.742904 
L 536.609637 70.371671 
L 536.906225 107.521243 
L 555.294693 107.821317 
L 643.678866 107.742245 
L 654.356338 107.706479 
L 676.304161 107.749171 
L 706.260459 107.747995 
L 713.378576 107.855557 
L 718.123987 107.831481 
L 732.657402 107.783185 
L 772.994286 107.769785 
L 832.61059 107.757949 
L 832.61059 107.757949 
" clip-path="url(#p4b6aab570a)" style="fill: none; stroke: #008000; stroke-width: 1.5; stroke-linecap: square"/>
   </g>
   <g id="line2d_41">
    <path d="M 485.299879 107.764117 
L 487.375996 107.678144 
L 488.562349 107.44793 
L 489.748702 106.98763 
L 490.935054 106.225169 
L 491.824819 105.417178 
L 493.011172 103.983332 
L 494.197525 102.104825 
L 495.383877 99.758172 
L 496.57023 96.945392 
L 498.053171 92.765875 
L 499.8327 86.926276 
L 502.205406 78.10587 
L 506.061052 63.26158 
L 507.543993 58.749405 
L 507.840582 58.749405 
L 508.13717 57.492356 
L 510.213258 52.751487 
L 511.103022 52.751487 
L 511.39961 53.039783 
L 511.696199 52.727705 
L 511.992787 52.727705 
L 512.289375 53.19655 
L 512.585963 53.085891 
L 513.17914 53.115012 
L 513.475728 52.794682 
L 513.772316 53.655203 
L 514.662081 53.655203 
L 514.958669 55.645126 
L 515.255287 55.645126 
L 515.551875 56.485747 
L 515.848463 56.485747 
L 516.145051 58.097584 
L 516.441639 58.812986 
L 516.738228 58.812986 
L 517.034816 60.225831 
L 518.221169 60.225831 
L 518.517757 64.785472 
L 519.110933 66.832763 
L 520.000698 66.832763 
L 520.297286 68.861077 
L 520.890462 70.750776 
L 522.373403 70.750776 
L 522.669992 76.78592 
L 522.96658 76.78592 
L 523.559756 80.506542 
L 523.856344 79.533033 
L 524.152933 80.030805 
L 524.449521 80.777512 
L 524.746109 107.525316 
L 529.788108 107.683172 
L 530.974461 107.692982 
L 535.719872 107.786065 
L 548.769753 107.875313 
L 625.586393 107.773067 
L 644.272042 107.809236 
L 671.262162 107.82101 
L 675.414396 107.839817 
L 681.939633 107.817496 
L 688.464574 107.783158 
L 691.133867 107.768885 
L 714.564928 107.764677 
L 716.344457 107.774951 
L 739.775518 107.719504 
L 741.555047 107.709565 
L 746.597343 107.713417 
L 783.670572 107.755573 
L 792.271629 107.760909 
L 814.222122 107.758623 
L 832.61059 107.764253 
L 832.61059 107.764253 
" clip-path="url(#p4b6aab570a)" style="fill: none; stroke: #0000ff; stroke-width: 1.5; stroke-linecap: square"/>
   </g>
   <g id="patch_8">
    <path d="M 470.470469 217.794062 
L 470.470469 23.229937 
" style="fill: none; stroke: #000000; stroke-width: 0.8; stroke-linejoin: miter; stroke-linecap: square"/>
   </g>
   <g id="patch_9">
    <path d="M 847.44 217.794062 
L 847.44 23.229937 
" style="fill: none; stroke: #000000; stroke-width: 0.8; stroke-linejoin: miter; stroke-linecap: square"/>
   </g>
   <g id="patch_10">
    <path d="M 470.470469 217.794062 
L 847.44 217.794062 
" style="fill: none; stroke: #000000; stroke-width: 0.8; stroke-linejoin: miter; stroke-linecap: square"/>
   </g>
   <g id="patch_11">
    <path d="M 470.470469 23.229937 
L 847.44 23.229937 
" style="fill: none; stroke: #000000; stroke-width: 0.8; stroke-linejoin: miter; stroke-linecap: square"/>
   </g>
   <g id="text_31">
    <!-- Drone 4 (Follower) -->
    <g transform="translate(598.009391 17.229937) scale(0.132 -0.132)">
     <use xlink:href="#DejaVuSans-44"/>
     <use xlink:href="#DejaVuSans-72" x="77.001953"/>
     <use xlink:href="#DejaVuSans-6f" x="115.865234"/>
     <use xlink:href="#DejaVuSans-6e" x="177.046875"/>
     <use xlink:href="#DejaVuSans-65" x="240.425781"/>
     <use xlink:href="#DejaVuSans-20" x="301.949219"/>
     <use xlink:href="#DejaVuSans-34" x="333.736328"/>
     <use xlink:href="#DejaVuSans-20" x="397.359375"/>
     <use xlink:href="#DejaVuSans-28" x="429.146484"/>
     <use xlink:href="#DejaVuSans-46" x="468.160156"/>
     <use xlink:href="#DejaVuSans-6f" x="522.054688"/>
     <use xlink:href="#DejaVuSans-6c" x="583.236328"/>
     <use xlink:href="#DejaVuSans-6c" x="611.019531"/>
     <use xlink:href="#DejaVuSans-6f" x="638.802734"/>
     <use xlink:href="#DejaVuSans-77" x="699.984375"/>
     <use xlink:href="#DejaVuSans-65" x="781.771484"/>
     <use xlink:href="#DejaVuSans-72" x="843.294922"/>
     <use xlink:href="#DejaVuSans-29" x="884.408203"/>
    </g>
   </g>
   <g id="legend_1">
    <g id="patch_12">
     <path d="M 796.4 81.590094 
L 839.74 81.590094 
Q 841.94 81.590094 841.94 79.390094 
L 841.94 30.929937 
Q 841.94 28.729937 839.74 28.729937 
L 796.4 28.729937 
Q 794.2 28.729937 794.2 30.929937 
L 794.2 79.390094 
Q 794.2 81.590094 796.4 81.590094 
z
" style="fill: #ffffff; opacity: 0.8; stroke: #cccccc; stroke-linejoin: miter"/>
    </g>
    <g id="line2d_42">
     <path d="M 798.6 37.638219 
L 809.6 37.638219 
L 820.6 37.638219 
" style="fill: none; stroke: #ff0000; stroke-width: 1.5; stroke-linecap: square"/>
    </g>
    <g id="text_32">
     <!-- $I_x$ -->
     <g transform="translate(829.4 41.488219) scale(0.11 -0.11)">
      <defs>
       <path id="DejaVuSans-Oblique-49" d="M 1081 4666 
L 1716 4666 
L 806 0 
L 172 0 
L 1081 4666 
z
" transform="scale(0.015625)"/>
       <path id="DejaVuSans-Oblique-78" d="M 3841 3500 
L 2234 1784 
L 3219 0 
L 2559 0 
L 1819 1388 
L 531 0 
L -166 0 
L 1556 1844 
L 641 3500 
L 1300 3500 
L 1972 2234 
L 3144 3500 
L 3841 3500 
z
" transform="scale(0.015625)"/>
      </defs>
      <use xlink:href="#DejaVuSans-Oblique-49" transform="translate(0 0.09375)"/>
      <use xlink:href="#DejaVuSans-Oblique-78" transform="translate(29.492188 -16.3125) scale(0.7)"/>
     </g>
    </g>
    <g id="line2d_43">
     <path d="M 798.6 53.784156 
L 809.6 53.784156 
L 820.6 53.784156 
" style="fill: none; stroke: #008000; stroke-width: 1.5; stroke-linecap: square"/>
    </g>
    <g id="text_33">
     <!-- $I_y$ -->
     <g transform="translate(829.4 57.634156) scale(0.11 -0.11)">
      <defs>
       <path id="DejaVuSans-Oblique-79" d="M 1588 -325 
Q 1188 -997 936 -1164 
Q 684 -1331 294 -1331 
L -159 -1331 
L -63 -850 
L 269 -850 
Q 509 -850 678 -719 
Q 847 -588 1056 -206 
L 1234 128 
L 459 3500 
L 1069 3500 
L 1650 819 
L 3256 3500 
L 3859 3500 
L 1588 -325 
z
" transform="scale(0.015625)"/>
      </defs>
      <use xlink:href="#DejaVuSans-Oblique-49" transform="translate(0 0.09375)"/>
      <use xlink:href="#DejaVuSans-Oblique-79" transform="translate(29.492188 -16.3125) scale(0.7)"/>
     </g>
    </g>
    <g id="line2d_44">
     <path d="M 798.6 71.052437 
L 809.6 71.052437 
L 820.6 71.052437 
" style="fill: none; stroke: #0000ff; stroke-width: 1.5; stroke-linecap: square"/>
    </g>
    <g id="text_34">
     <!-- $I_z$ -->
     <g transform="translate(829.4 74.902437) scale(0.11 -0.11)">
      <defs>
       <path id="DejaVuSans-Oblique-7a" d="M 744 3500 
L 3475 3500 
L 3372 2975 
L 738 459 
L 2913 459 
L 2822 0 
L -19 0 
L 84 525 
L 2719 3041 
L 653 3041 
L 744 3500 
z
" transform="scale(0.015625)"/>
      </defs>
      <use xlink:href="#DejaVuSans-Oblique-49" transform="translate(0 0.09375)"/>
      <use xlink:href="#DejaVuSans-Oblique-7a" transform="translate(29.492188 -16.3125) scale(0.7)"/>
     </g>
    </g>
   </g>
  </g>
 </g>
 <defs>
  <clipPath id="p1357edd8c3">
   <rect x="47.909844" y="23.229937" width="376.969531" height="194.564125"/>
  </clipPath>
  <clipPath id="p4b6aab570a">
   <rect x="470.470469" y="23.229937" width="376.969531" height="194.564125"/>
  </clipPath>
 </defs>
</svg>
