<?xml version="1.0" encoding="utf-8" standalone="no"?>
<!DOCTYPE svg PUBLIC "-//W3C//DTD SVG 1.1//EN"
  "http://www.w3.org/Graphics/SVG/1.1/DTD/svg11.dtd">
<svg xmlns:xlink="http://www.w3.org/1999/xlink" width="854.600351pt" height="242.64pt" viewBox="0 0 854.600351 242.64" xmlns="http://www.w3.org/2000/svg" version="1.1">
 <metadata>
  <rdf:RDF xmlns:dc="http://purl.org/dc/elements/1.1/" xmlns:cc="http://creativecommons.org/ns#" xmlns:rdf="http://www.w3.org/1999/02/22-rdf-syntax-ns#">
   <cc:Work>
    <dc:type rdf:resource="http://purl.org/dc/dcmitype/StillImage"/>
    <dc:date>2023-10-10T15:35:11.948194</dc:date>
    <dc:format>image/svg+xml</dc:format>
    <dc:creator>
     <cc:Agent>
      <dc:title>Matplotlib v3.7.1, https://matplotlib.org/</dc:title>
     </cc:Agent>
    </dc:creator>
   </cc:Work>
  </rdf:RDF>
 </metadata>
 <defs>
  <style type="text/css">*{stroke-linejoin: round; stroke-linecap: butt}</style>
 </defs>
 <g id="figure_1">
  <g id="patch_1">
   <path d="M 0 242.64 
L 854.600351 242.64 
L 854.600351 0 
L 0 0 
L 0 242.64 
z
" style="fill: none"/>
  </g>
  <g id="axes_1">
   <g id="patch_2">
    <path d="M 31.693437 217.794062 
L 202.795139 217.794062 
L 202.795139 23.229937 
L 31.693437 23.229937 
L 31.693437 217.794062 
z
" style="fill: none"/>
   </g>
   <g id="matplotlib.axis_1">
    <g id="xtick_1">
     <g id="line2d_1">
      <defs>
       <path id="m0a627a6ad7" d="M 0 0 
L 0 3.5 
" style="stroke: #000000; stroke-width: 0.8"/>
      </defs>
      <g>
       <use xlink:href="#m0a627a6ad7" x="38.424319" y="217.794062" style="stroke: #000000; stroke-width: 0.8"/>
      </g>
     </g>
     <g id="text_1">
      <!-- 0.0 -->
      <g transform="translate(29.6776 233.152344) scale(0.11 -0.11)">
       <defs>
        <path id="DejaVuSans-30" d="M 2034 4250 
Q 1547 4250 1301 3770 
Q 1056 3291 1056 2328 
Q 1056 1369 1301 889 
Q 1547 409 2034 409 
Q 2525 409 2770 889 
Q 3016 1369 3016 2328 
Q 3016 3291 2770 3770 
Q 2525 4250 2034 4250 
z
M 2034 4750 
Q 2819 4750 3233 4129 
Q 3647 3509 3647 2328 
Q 3647 1150 3233 529 
Q 2819 -91 2034 -91 
Q 1250 -91 836 529 
Q 422 1150 422 2328 
Q 422 3509 836 4129 
Q 1250 4750 2034 4750 
z
" transform="scale(0.015625)"/>
        <path id="DejaVuSans-2e" d="M 684 794 
L 1344 794 
L 1344 0 
L 684 0 
L 684 794 
z
" transform="scale(0.015625)"/>
       </defs>
       <use xlink:href="#DejaVuSans-30"/>
       <use xlink:href="#DejaVuSans-2e" x="63.623047"/>
       <use xlink:href="#DejaVuSans-30" x="95.410156"/>
      </g>
     </g>
    </g>
    <g id="xtick_2">
     <g id="line2d_2">
      <g>
       <use xlink:href="#m0a627a6ad7" x="69.952307" y="217.794062" style="stroke: #000000; stroke-width: 0.8"/>
      </g>
     </g>
     <g id="text_2">
      <!-- 2.3 -->
      <g transform="translate(61.205588 233.152344) scale(0.11 -0.11)">
       <defs>
        <path id="DejaVuSans-32" d="M 1228 531 
L 3431 531 
L 3431 0 
L 469 0 
L 469 531 
Q 828 903 1448 1529 
Q 2069 2156 2228 2338 
Q 2531 2678 2651 2914 
Q 2772 3150 2772 3378 
Q 2772 3750 2511 3984 
Q 2250 4219 1831 4219 
Q 1534 4219 1204 4116 
Q 875 4013 500 3803 
L 500 4441 
Q 881 4594 1212 4672 
Q 1544 4750 1819 4750 
Q 2544 4750 2975 4387 
Q 3406 4025 3406 3419 
Q 3406 3131 3298 2873 
Q 3191 2616 2906 2266 
Q 2828 2175 2409 1742 
Q 1991 1309 1228 531 
z
" transform="scale(0.015625)"/>
        <path id="DejaVuSans-33" d="M 2597 2516 
Q 3050 2419 3304 2112 
Q 3559 1806 3559 1356 
Q 3559 666 3084 287 
Q 2609 -91 1734 -91 
Q 1441 -91 1130 -33 
Q 819 25 488 141 
L 488 750 
Q 750 597 1062 519 
Q 1375 441 1716 441 
Q 2309 441 2620 675 
Q 2931 909 2931 1356 
Q 2931 1769 2642 2001 
Q 2353 2234 1838 2234 
L 1294 2234 
L 1294 2753 
L 1863 2753 
Q 2328 2753 2575 2939 
Q 2822 3125 2822 3475 
Q 2822 3834 2567 4026 
Q 2313 4219 1838 4219 
Q 1578 4219 1281 4162 
Q 984 4106 628 3988 
L 628 4550 
Q 988 4650 1302 4700 
Q 1616 4750 1894 4750 
Q 2613 4750 3031 4423 
Q 3450 4097 3450 3541 
Q 3450 3153 3228 2886 
Q 3006 2619 2597 2516 
z
" transform="scale(0.015625)"/>
       </defs>
       <use xlink:href="#DejaVuSans-32"/>
       <use xlink:href="#DejaVuSans-2e" x="63.623047"/>
       <use xlink:href="#DejaVuSans-33" x="95.410156"/>
      </g>
     </g>
    </g>
    <g id="xtick_3">
     <g id="line2d_3">
      <g>
       <use xlink:href="#m0a627a6ad7" x="101.480294" y="217.794062" style="stroke: #000000; stroke-width: 0.8"/>
      </g>
     </g>
     <g id="text_3">
      <!-- 4.7 -->
      <g transform="translate(92.733576 233.152344) scale(0.11 -0.11)">
       <defs>
        <path id="DejaVuSans-34" d="M 2419 4116 
L 825 1625 
L 2419 1625 
L 2419 4116 
z
M 2253 4666 
L 3047 4666 
L 3047 1625 
L 3713 1625 
L 3713 1100 
L 3047 1100 
L 3047 0 
L 2419 0 
L 2419 1100 
L 313 1100 
L 313 1709 
L 2253 4666 
z
" transform="scale(0.015625)"/>
        <path id="DejaVuSans-37" d="M 525 4666 
L 3525 4666 
L 3525 4397 
L 1831 0 
L 1172 0 
L 2766 4134 
L 525 4134 
L 525 4666 
z
" transform="scale(0.015625)"/>
       </defs>
       <use xlink:href="#DejaVuSans-34"/>
       <use xlink:href="#DejaVuSans-2e" x="63.623047"/>
       <use xlink:href="#DejaVuSans-37" x="95.410156"/>
      </g>
     </g>
    </g>
    <g id="xtick_4">
     <g id="line2d_4">
      <g>
       <use xlink:href="#m0a627a6ad7" x="133.008282" y="217.794062" style="stroke: #000000; stroke-width: 0.8"/>
      </g>
     </g>
     <g id="text_4">
      <!-- 7.0 -->
      <g transform="translate(124.261563 233.152344) scale(0.11 -0.11)">
       <use xlink:href="#DejaVuSans-37"/>
       <use xlink:href="#DejaVuSans-2e" x="63.623047"/>
       <use xlink:href="#DejaVuSans-30" x="95.410156"/>
      </g>
     </g>
    </g>
    <g id="xtick_5">
     <g id="line2d_5">
      <g>
       <use xlink:href="#m0a627a6ad7" x="164.53627" y="217.794062" style="stroke: #000000; stroke-width: 0.8"/>
      </g>
     </g>
     <g id="text_5">
      <!-- 9.4 -->
      <g transform="translate(155.789551 233.152344) scale(0.11 -0.11)">
       <defs>
        <path id="DejaVuSans-39" d="M 703 97 
L 703 672 
Q 941 559 1184 500 
Q 1428 441 1663 441 
Q 2288 441 2617 861 
Q 2947 1281 2994 2138 
Q 2813 1869 2534 1725 
Q 2256 1581 1919 1581 
Q 1219 1581 811 2004 
Q 403 2428 403 3163 
Q 403 3881 828 4315 
Q 1253 4750 1959 4750 
Q 2769 4750 3195 4129 
Q 3622 3509 3622 2328 
Q 3622 1225 3098 567 
Q 2575 -91 1691 -91 
Q 1453 -91 1209 -44 
Q 966 3 703 97 
z
M 1959 2075 
Q 2384 2075 2632 2365 
Q 2881 2656 2881 3163 
Q 2881 3666 2632 3958 
Q 2384 4250 1959 4250 
Q 1534 4250 1286 3958 
Q 1038 3666 1038 3163 
Q 1038 2656 1286 2365 
Q 1534 2075 1959 2075 
z
" transform="scale(0.015625)"/>
       </defs>
       <use xlink:href="#DejaVuSans-39"/>
       <use xlink:href="#DejaVuSans-2e" x="63.623047"/>
       <use xlink:href="#DejaVuSans-34" x="95.410156"/>
      </g>
     </g>
    </g>
    <g id="xtick_6">
     <g id="line2d_6">
      <g>
       <use xlink:href="#m0a627a6ad7" x="196.064258" y="217.794062" style="stroke: #000000; stroke-width: 0.8"/>
      </g>
     </g>
     <g id="text_6">
      <!-- 11.7 -->
      <g transform="translate(183.818164 233.152344) scale(0.11 -0.11)">
       <defs>
        <path id="DejaVuSans-31" d="M 794 531 
L 1825 531 
L 1825 4091 
L 703 3866 
L 703 4441 
L 1819 4666 
L 2450 4666 
L 2450 531 
L 3481 531 
L 3481 0 
L 794 0 
L 794 531 
z
" transform="scale(0.015625)"/>
       </defs>
       <use xlink:href="#DejaVuSans-31"/>
       <use xlink:href="#DejaVuSans-31" x="63.623047"/>
       <use xlink:href="#DejaVuSans-2e" x="127.246094"/>
       <use xlink:href="#DejaVuSans-37" x="159.033203"/>
      </g>
     </g>
    </g>
   </g>
   <g id="matplotlib.axis_2">
    <g id="ytick_1">
     <g id="line2d_7">
      <defs>
       <path id="m14328f3ea5" d="M 0 0 
L -3.5 0 
" style="stroke: #000000; stroke-width: 0.8"/>
      </defs>
      <g>
       <use xlink:href="#m14328f3ea5" x="31.693437" y="210.218064" style="stroke: #000000; stroke-width: 0.8"/>
      </g>
     </g>
     <g id="text_7">
      <!-- 0.0 -->
      <g transform="translate(7.2 214.397204) scale(0.11 -0.11)">
       <use xlink:href="#DejaVuSans-30"/>
       <use xlink:href="#DejaVuSans-2e" x="63.623047"/>
       <use xlink:href="#DejaVuSans-30" x="95.410156"/>
      </g>
     </g>
    </g>
    <g id="ytick_2">
     <g id="line2d_8">
      <g>
       <use xlink:href="#m14328f3ea5" x="31.693437" y="181.795922" style="stroke: #000000; stroke-width: 0.8"/>
      </g>
     </g>
     <g id="text_8">
      <!-- 0.2 -->
      <g transform="translate(7.2 185.975062) scale(0.11 -0.11)">
       <use xlink:href="#DejaVuSans-30"/>
       <use xlink:href="#DejaVuSans-2e" x="63.623047"/>
       <use xlink:href="#DejaVuSans-32" x="95.410156"/>
      </g>
     </g>
    </g>
    <g id="ytick_3">
     <g id="line2d_9">
      <g>
       <use xlink:href="#m14328f3ea5" x="31.693437" y="153.373779" style="stroke: #000000; stroke-width: 0.8"/>
      </g>
     </g>
     <g id="text_9">
      <!-- 0.4 -->
      <g transform="translate(7.2 157.55292) scale(0.11 -0.11)">
       <use xlink:href="#DejaVuSans-30"/>
       <use xlink:href="#DejaVuSans-2e" x="63.623047"/>
       <use xlink:href="#DejaVuSans-34" x="95.410156"/>
      </g>
     </g>
    </g>
    <g id="ytick_4">
     <g id="line2d_10">
      <g>
       <use xlink:href="#m14328f3ea5" x="31.693437" y="124.951637" style="stroke: #000000; stroke-width: 0.8"/>
      </g>
     </g>
     <g id="text_10">
      <!-- 0.6 -->
      <g transform="translate(7.2 129.130778) scale(0.11 -0.11)">
       <defs>
        <path id="DejaVuSans-36" d="M 2113 2584 
Q 1688 2584 1439 2293 
Q 1191 2003 1191 1497 
Q 1191 994 1439 701 
Q 1688 409 2113 409 
Q 2538 409 2786 701 
Q 3034 994 3034 1497 
Q 3034 2003 2786 2293 
Q 2538 2584 2113 2584 
z
M 3366 4563 
L 3366 3988 
Q 3128 4100 2886 4159 
Q 2644 4219 2406 4219 
Q 1781 4219 1451 3797 
Q 1122 3375 1075 2522 
Q 1259 2794 1537 2939 
Q 1816 3084 2150 3084 
Q 2853 3084 3261 2657 
Q 3669 2231 3669 1497 
Q 3669 778 3244 343 
Q 2819 -91 2113 -91 
Q 1303 -91 875 529 
Q 447 1150 447 2328 
Q 447 3434 972 4092 
Q 1497 4750 2381 4750 
Q 2619 4750 2861 4703 
Q 3103 4656 3366 4563 
z
" transform="scale(0.015625)"/>
       </defs>
       <use xlink:href="#DejaVuSans-30"/>
       <use xlink:href="#DejaVuSans-2e" x="63.623047"/>
       <use xlink:href="#DejaVuSans-36" x="95.410156"/>
      </g>
     </g>
    </g>
    <g id="ytick_5">
     <g id="line2d_11">
      <g>
       <use xlink:href="#m14328f3ea5" x="31.693437" y="96.529495" style="stroke: #000000; stroke-width: 0.8"/>
      </g>
     </g>
     <g id="text_11">
      <!-- 0.8 -->
      <g transform="translate(7.2 100.708636) scale(0.11 -0.11)">
       <defs>
        <path id="DejaVuSans-38" d="M 2034 2216 
Q 1584 2216 1326 1975 
Q 1069 1734 1069 1313 
Q 1069 891 1326 650 
Q 1584 409 2034 409 
Q 2484 409 2743 651 
Q 3003 894 3003 1313 
Q 3003 1734 2745 1975 
Q 2488 2216 2034 2216 
z
M 1403 2484 
Q 997 2584 770 2862 
Q 544 3141 544 3541 
Q 544 4100 942 4425 
Q 1341 4750 2034 4750 
Q 2731 4750 3128 4425 
Q 3525 4100 3525 3541 
Q 3525 3141 3298 2862 
Q 3072 2584 2669 2484 
Q 3125 2378 3379 2068 
Q 3634 1759 3634 1313 
Q 3634 634 3220 271 
Q 2806 -91 2034 -91 
Q 1263 -91 848 271 
Q 434 634 434 1313 
Q 434 1759 690 2068 
Q 947 2378 1403 2484 
z
M 1172 3481 
Q 1172 3119 1398 2916 
Q 1625 2713 2034 2713 
Q 2441 2713 2670 2916 
Q 2900 3119 2900 3481 
Q 2900 3844 2670 4047 
Q 2441 4250 2034 4250 
Q 1625 4250 1398 4047 
Q 1172 3844 1172 3481 
z
" transform="scale(0.015625)"/>
       </defs>
       <use xlink:href="#DejaVuSans-30"/>
       <use xlink:href="#DejaVuSans-2e" x="63.623047"/>
       <use xlink:href="#DejaVuSans-38" x="95.410156"/>
      </g>
     </g>
    </g>
    <g id="ytick_6">
     <g id="line2d_12">
      <g>
       <use xlink:href="#m14328f3ea5" x="31.693437" y="68.107353" style="stroke: #000000; stroke-width: 0.8"/>
      </g>
     </g>
     <g id="text_12">
      <!-- 1.0 -->
      <g transform="translate(7.2 72.286494) scale(0.11 -0.11)">
       <use xlink:href="#DejaVuSans-31"/>
       <use xlink:href="#DejaVuSans-2e" x="63.623047"/>
       <use xlink:href="#DejaVuSans-30" x="95.410156"/>
      </g>
     </g>
    </g>
    <g id="ytick_7">
     <g id="line2d_13">
      <g>
       <use xlink:href="#m14328f3ea5" x="31.693437" y="39.685211" style="stroke: #000000; stroke-width: 0.8"/>
      </g>
     </g>
     <g id="text_13">
      <!-- 1.2 -->
      <g transform="translate(7.2 43.864352) scale(0.11 -0.11)">
       <use xlink:href="#DejaVuSans-31"/>
       <use xlink:href="#DejaVuSans-2e" x="63.623047"/>
       <use xlink:href="#DejaVuSans-32" x="95.410156"/>
      </g>
     </g>
    </g>
   </g>
   <g id="line2d_14">
    <path d="M 38.424319 32.346614 
L 38.558937 32.322455 
L 38.693554 32.073761 
L 39.097407 33.014534 
L 39.232025 33.064273 
L 39.635878 32.898003 
L 41.116672 32.994639 
L 41.385907 33.099801 
L 41.78976 33.264649 
L 42.32823 33.413865 
L 42.462848 33.401075 
L 42.732083 33.580135 
L 42.866701 33.580135 
L 43.135936 33.756352 
L 43.270554 33.744983 
L 44.07826 34.435641 
L 44.212877 34.471169 
L 46.366759 37.118692 
L 47.039847 38.382056 
L 47.309083 38.710332 
L 48.251406 40.650143 
L 48.386024 41.271167 
L 48.520641 41.315221 
L 48.789877 42.008721 
L 49.19373 42.936704 
L 49.732187 44.421761 
L 49.866804 44.56103 
L 50.13604 45.516013 
L 52.693788 53.201361 
L 53.097641 54.88253 
L 53.770729 56.471328 
L 54.982288 60.784388 
L 55.386141 62.512454 
L 55.655376 63.079476 
L 57.943876 71.579828 
L 58.751581 74.658799 
L 59.020817 75.516437 
L 59.42467 77.208976 
L 59.828522 78.589155 
L 60.636228 82.112506 
L 61.713169 86.673975 
L 61.982405 87.670314 
L 62.117022 87.967609 
L 63.328581 93.774111 
L 63.732434 95.045007 
L 64.136287 97.272166 
L 64.54014 99.245373 
L 64.943992 100.956812 
L 66.020933 106.054039 
L 66.694022 109.148642 
L 67.636345 113.915604 
L 68.444051 117.986081 
L 70.732551 129.551761 
L 71.136403 132.147982 
L 72.213344 137.494613 
L 73.02105 141.971953 
L 78.809608 171.42994 
L 79.348079 173.736823 
L 80.021167 176.652935 
L 80.155785 176.956341 
L 80.42502 178.646748 
L 81.098108 181.37769 
L 81.232726 181.690191 
L 81.636579 183.451653 
L 82.175049 185.347268 
L 82.578902 186.882774 
L 84.059696 191.478919 
L 85.54049 195.879946 
L 85.809725 196.282275 
L 86.348196 197.604942 
L 88.098225 201.071108 
L 88.232843 201.198155 
L 88.502078 201.79843 
L 89.040548 202.524886 
L 89.444401 203.164924 
L 92.136754 206.01315 
L 92.271372 206.01315 
L 92.540607 206.339465 
L 92.809842 206.339465 
L 93.079077 206.660947 
L 93.617548 206.950839 
L 93.752165 206.9257 
L 94.156018 207.383111 
L 94.559871 207.449307 
L 95.098342 207.674282 
L 95.636812 207.790358 
L 95.77143 207.790358 
L 96.040665 208.118051 
L 96.579136 208.167705 
L 96.982989 208.281422 
L 98.194682 208.459898 
L 98.86777 208.531679 
L 99.002388 208.740084 
L 100.348564 208.712458 
L 102.098593 208.796961 
L 102.367828 208.950239 
L 103.040917 208.90238 
L 103.175669 91.015173 
L 103.848757 91.18329 
L 107.214198 92.835896 
L 107.752668 93.247306 
L 108.425757 93.738015 
L 109.63745 94.794039 
L 110.310538 95.521504 
L 111.118244 96.425612 
L 113.137508 99.446602 
L 114.214449 101.335111 
L 114.349067 101.526818 
L 114.75292 102.419842 
L 115.426143 103.474304 
L 115.829995 104.339331 
L 117.310789 107.297366 
L 117.84926 108.387781 
L 118.253113 109.067781 
L 118.791583 110.122811 
L 119.060819 110.60414 
L 119.599289 111.637995 
L 120.272377 113.032954 
L 121.214835 114.669501 
L 122.291776 116.917977 
L 122.695629 117.652973 
L 123.099482 118.482189 
L 123.2341 118.590194 
L 123.77257 119.797424 
L 124.041806 120.53441 
L 124.311041 120.922372 
L 124.714894 121.689628 
L 124.984129 122.133156 
L 125.5226 123.226129 
L 128.484322 128.906436 
L 128.753557 129.399845 
L 129.022793 130.019163 
L 130.234351 132.365837 
L 130.503586 132.837929 
L 130.907439 133.482259 
L 131.98438 135.527943 
L 132.253616 135.826517 
L 132.522986 136.54304 
L 133.061456 137.720995 
L 134.00378 139.739536 
L 135.619191 142.862561 
L 136.023044 143.737963 
L 136.292279 144.271873 
L 136.426897 144.438426 
L 136.83075 145.201419 
L 136.965367 145.373515 
L 137.234603 145.92732 
L 138.984766 149.253279 
L 139.388619 150.230148 
L 140.196325 151.669446 
L 140.600178 152.775493 
L 141.138649 153.770695 
L 141.407884 154.183242 
L 141.677119 154.625917 
L 142.080972 155.654514 
L 142.619443 156.546259 
L 142.888678 156.927542 
L 143.157913 157.432319 
L 143.427148 158.201138 
L 143.561766 158.376787 
L 144.100236 159.739629 
L 144.369606 159.943416 
L 145.446547 162.355318 
L 145.715783 162.716138 
L 146.254253 163.939142 
L 146.523488 164.26685 
L 146.792724 164.869968 
L 147.061959 165.21757 
L 147.331194 166.088567 
L 147.869665 167.136207 
L 148.1389 167.573624 
L 148.273518 167.696976 
L 149.215841 169.751755 
L 149.485076 170.085999 
L 149.888929 170.815311 
L 150.023547 170.966517 
L 150.292782 171.732352 
L 150.427534 171.764042 
L 151.100623 173.050997 
L 151.369858 173.560464 
L 151.504475 173.768798 
L 151.773711 174.650169 
L 152.042946 174.804075 
L 152.446799 175.724099 
L 152.581416 175.834946 
L 152.850652 176.394151 
L 152.985269 176.713474 
L 153.119887 176.738628 
L 153.792975 177.839559 
L 153.927593 177.977833 
L 154.196828 178.788717 
L 154.466063 178.980282 
L 154.735299 179.666677 
L 155.004534 179.771981 
L 155.273769 180.402242 
L 155.81224 181.330509 
L 156.081475 181.956365 
L 156.216093 181.995019 
L 156.350845 182.195963 
L 156.62008 182.805902 
L 156.889315 183.086003 
L 157.158551 183.556389 
L 157.293168 183.674341 
L 157.697021 184.30915 
L 157.966256 184.662721 
L 158.370109 185.299235 
L 158.504727 185.445467 
L 158.773962 185.99842 
L 159.177815 186.273262 
L 159.581668 186.866716 
L 160.120138 187.71398 
L 160.793227 188.500989 
L 161.062462 188.919505 
L 161.73555 189.657202 
L 162.139403 190.294284 
L 162.274155 190.354255 
L 162.54339 190.680967 
L 162.812626 190.940035 
L 163.216479 191.379868 
L 166.043449 194.260736 
L 167.524243 195.508184 
L 168.197466 196.07009 
L 168.735936 196.464532 
L 169.139789 196.66758 
L 169.678259 197.104997 
L 170.082112 197.391364 
L 170.351348 197.6864 
L 170.889818 197.957917 
L 171.293671 198.283223 
L 171.428289 197.887188 
L 171.966759 198.365888 
L 173.447149 199.494318 
L 174.658708 200.594511 
L 175.062561 200.816943 
L 175.735649 201.411165 
L 176.004884 201.567969 
L 176.677972 202.137421 
L 179.63956 203.728081 
L 181.658825 204.574549 
L 183.948671 205.305993 
L 192.429581 206.904795 
L 194.044993 207.115233 
L 196.46811 207.379175 
L 196.46811 207.379175 
" clip-path="url(#p2ea08bf723)" style="fill: none; stroke: #ff0000; stroke-width: 1.5; stroke-linecap: square"/>
   </g>
   <g id="patch_3">
    <path d="M 31.693437 217.794062 
L 31.693437 23.229937 
" style="fill: none; stroke: #000000; stroke-width: 0.8; stroke-linejoin: miter; stroke-linecap: square"/>
   </g>
   <g id="patch_4">
    <path d="M 202.795139 217.794062 
L 202.795139 23.229937 
" style="fill: none; stroke: #000000; stroke-width: 0.8; stroke-linejoin: miter; stroke-linecap: square"/>
   </g>
   <g id="patch_5">
    <path d="M 31.693437 217.794062 
L 202.795139 217.794062 
" style="fill: none; stroke: #000000; stroke-width: 0.8; stroke-linejoin: miter; stroke-linecap: square"/>
   </g>
   <g id="patch_6">
    <path d="M 31.693437 23.229937 
L 202.795139 23.229937 
" style="fill: none; stroke: #000000; stroke-width: 0.8; stroke-linejoin: miter; stroke-linecap: square"/>
   </g>
   <g id="text_14">
    <!-- Drone 1 (Leader) -->
    <g transform="translate(61.139132 17.229937) scale(0.132 -0.132)">
     <defs>
      <path id="DejaVuSans-44" d="M 1259 4147 
L 1259 519 
L 2022 519 
Q 2988 519 3436 956 
Q 3884 1394 3884 2338 
Q 3884 3275 3436 3711 
Q 2988 4147 2022 4147 
L 1259 4147 
z
M 628 4666 
L 1925 4666 
Q 3281 4666 3915 4102 
Q 4550 3538 4550 2338 
Q 4550 1131 3912 565 
Q 3275 0 1925 0 
L 628 0 
L 628 4666 
z
" transform="scale(0.015625)"/>
      <path id="DejaVuSans-72" d="M 2631 2963 
Q 2534 3019 2420 3045 
Q 2306 3072 2169 3072 
Q 1681 3072 1420 2755 
Q 1159 2438 1159 1844 
L 1159 0 
L 581 0 
L 581 3500 
L 1159 3500 
L 1159 2956 
Q 1341 3275 1631 3429 
Q 1922 3584 2338 3584 
Q 2397 3584 2469 3576 
Q 2541 3569 2628 3553 
L 2631 2963 
z
" transform="scale(0.015625)"/>
      <path id="DejaVuSans-6f" d="M 1959 3097 
Q 1497 3097 1228 2736 
Q 959 2375 959 1747 
Q 959 1119 1226 758 
Q 1494 397 1959 397 
Q 2419 397 2687 759 
Q 2956 1122 2956 1747 
Q 2956 2369 2687 2733 
Q 2419 3097 1959 3097 
z
M 1959 3584 
Q 2709 3584 3137 3096 
Q 3566 2609 3566 1747 
Q 3566 888 3137 398 
Q 2709 -91 1959 -91 
Q 1206 -91 779 398 
Q 353 888 353 1747 
Q 353 2609 779 3096 
Q 1206 3584 1959 3584 
z
" transform="scale(0.015625)"/>
      <path id="DejaVuSans-6e" d="M 3513 2113 
L 3513 0 
L 2938 0 
L 2938 2094 
Q 2938 2591 2744 2837 
Q 2550 3084 2163 3084 
Q 1697 3084 1428 2787 
Q 1159 2491 1159 1978 
L 1159 0 
L 581 0 
L 581 3500 
L 1159 3500 
L 1159 2956 
Q 1366 3272 1645 3428 
Q 1925 3584 2291 3584 
Q 2894 3584 3203 3211 
Q 3513 2838 3513 2113 
z
" transform="scale(0.015625)"/>
      <path id="DejaVuSans-65" d="M 3597 1894 
L 3597 1613 
L 953 1613 
Q 991 1019 1311 708 
Q 1631 397 2203 397 
Q 2534 397 2845 478 
Q 3156 559 3463 722 
L 3463 178 
Q 3153 47 2828 -22 
Q 2503 -91 2169 -91 
Q 1331 -91 842 396 
Q 353 884 353 1716 
Q 353 2575 817 3079 
Q 1281 3584 2069 3584 
Q 2775 3584 3186 3129 
Q 3597 2675 3597 1894 
z
M 3022 2063 
Q 3016 2534 2758 2815 
Q 2500 3097 2075 3097 
Q 1594 3097 1305 2825 
Q 1016 2553 972 2059 
L 3022 2063 
z
" transform="scale(0.015625)"/>
      <path id="DejaVuSans-20" transform="scale(0.015625)"/>
      <path id="DejaVuSans-28" d="M 1984 4856 
Q 1566 4138 1362 3434 
Q 1159 2731 1159 2009 
Q 1159 1288 1364 580 
Q 1569 -128 1984 -844 
L 1484 -844 
Q 1016 -109 783 600 
Q 550 1309 550 2009 
Q 550 2706 781 3412 
Q 1013 4119 1484 4856 
L 1984 4856 
z
" transform="scale(0.015625)"/>
      <path id="DejaVuSans-4c" d="M 628 4666 
L 1259 4666 
L 1259 531 
L 3531 531 
L 3531 0 
L 628 0 
L 628 4666 
z
" transform="scale(0.015625)"/>
      <path id="DejaVuSans-61" d="M 2194 1759 
Q 1497 1759 1228 1600 
Q 959 1441 959 1056 
Q 959 750 1161 570 
Q 1363 391 1709 391 
Q 2188 391 2477 730 
Q 2766 1069 2766 1631 
L 2766 1759 
L 2194 1759 
z
M 3341 1997 
L 3341 0 
L 2766 0 
L 2766 531 
Q 2569 213 2275 61 
Q 1981 -91 1556 -91 
Q 1019 -91 701 211 
Q 384 513 384 1019 
Q 384 1609 779 1909 
Q 1175 2209 1959 2209 
L 2766 2209 
L 2766 2266 
Q 2766 2663 2505 2880 
Q 2244 3097 1772 3097 
Q 1472 3097 1187 3025 
Q 903 2953 641 2809 
L 641 3341 
Q 956 3463 1253 3523 
Q 1550 3584 1831 3584 
Q 2591 3584 2966 3190 
Q 3341 2797 3341 1997 
z
" transform="scale(0.015625)"/>
      <path id="DejaVuSans-64" d="M 2906 2969 
L 2906 4863 
L 3481 4863 
L 3481 0 
L 2906 0 
L 2906 525 
Q 2725 213 2448 61 
Q 2172 -91 1784 -91 
Q 1150 -91 751 415 
Q 353 922 353 1747 
Q 353 2572 751 3078 
Q 1150 3584 1784 3584 
Q 2172 3584 2448 3432 
Q 2725 3281 2906 2969 
z
M 947 1747 
Q 947 1113 1208 752 
Q 1469 391 1925 391 
Q 2381 391 2643 752 
Q 2906 1113 2906 1747 
Q 2906 2381 2643 2742 
Q 2381 3103 1925 3103 
Q 1469 3103 1208 2742 
Q 947 2381 947 1747 
z
" transform="scale(0.015625)"/>
      <path id="DejaVuSans-29" d="M 513 4856 
L 1013 4856 
Q 1481 4119 1714 3412 
Q 1947 2706 1947 2009 
Q 1947 1309 1714 600 
Q 1481 -109 1013 -844 
L 513 -844 
Q 928 -128 1133 580 
Q 1338 1288 1338 2009 
Q 1338 2731 1133 3434 
Q 928 4138 513 4856 
z
" transform="scale(0.015625)"/>
     </defs>
     <use xlink:href="#DejaVuSans-44"/>
     <use xlink:href="#DejaVuSans-72" x="77.001953"/>
     <use xlink:href="#DejaVuSans-6f" x="115.865234"/>
     <use xlink:href="#DejaVuSans-6e" x="177.046875"/>
     <use xlink:href="#DejaVuSans-65" x="240.425781"/>
     <use xlink:href="#DejaVuSans-20" x="301.949219"/>
     <use xlink:href="#DejaVuSans-31" x="333.736328"/>
     <use xlink:href="#DejaVuSans-20" x="397.359375"/>
     <use xlink:href="#DejaVuSans-28" x="429.146484"/>
     <use xlink:href="#DejaVuSans-4c" x="468.160156"/>
     <use xlink:href="#DejaVuSans-65" x="522.123047"/>
     <use xlink:href="#DejaVuSans-61" x="583.646484"/>
     <use xlink:href="#DejaVuSans-64" x="644.925781"/>
     <use xlink:href="#DejaVuSans-65" x="708.402344"/>
     <use xlink:href="#DejaVuSans-72" x="769.925781"/>
     <use xlink:href="#DejaVuSans-29" x="811.039062"/>
    </g>
   </g>
  </g>
  <g id="axes_2">
   <g id="patch_7">
    <path d="M 244.723438 217.794062 
L 415.825139 217.794062 
L 415.825139 23.229937 
L 244.723438 23.229937 
L 244.723438 217.794062 
z
" style="fill: none"/>
   </g>
   <g id="matplotlib.axis_3">
    <g id="xtick_7">
     <g id="line2d_15">
      <g>
       <use xlink:href="#m0a627a6ad7" x="251.454319" y="217.794062" style="stroke: #000000; stroke-width: 0.8"/>
      </g>
     </g>
     <g id="text_15">
      <!-- 0.0 -->
      <g transform="translate(242.7076 233.152344) scale(0.11 -0.11)">
       <use xlink:href="#DejaVuSans-30"/>
       <use xlink:href="#DejaVuSans-2e" x="63.623047"/>
       <use xlink:href="#DejaVuSans-30" x="95.410156"/>
      </g>
     </g>
    </g>
    <g id="xtick_8">
     <g id="line2d_16">
      <g>
       <use xlink:href="#m0a627a6ad7" x="282.982307" y="217.794062" style="stroke: #000000; stroke-width: 0.8"/>
      </g>
     </g>
     <g id="text_16">
      <!-- 2.3 -->
      <g transform="translate(274.235588 233.152344) scale(0.11 -0.11)">
       <use xlink:href="#DejaVuSans-32"/>
       <use xlink:href="#DejaVuSans-2e" x="63.623047"/>
       <use xlink:href="#DejaVuSans-33" x="95.410156"/>
      </g>
     </g>
    </g>
    <g id="xtick_9">
     <g id="line2d_17">
      <g>
       <use xlink:href="#m0a627a6ad7" x="314.510294" y="217.794062" style="stroke: #000000; stroke-width: 0.8"/>
      </g>
     </g>
     <g id="text_17">
      <!-- 4.7 -->
      <g transform="translate(305.763576 233.152344) scale(0.11 -0.11)">
       <use xlink:href="#DejaVuSans-34"/>
       <use xlink:href="#DejaVuSans-2e" x="63.623047"/>
       <use xlink:href="#DejaVuSans-37" x="95.410156"/>
      </g>
     </g>
    </g>
    <g id="xtick_10">
     <g id="line2d_18">
      <g>
       <use xlink:href="#m0a627a6ad7" x="346.038282" y="217.794062" style="stroke: #000000; stroke-width: 0.8"/>
      </g>
     </g>
     <g id="text_18">
      <!-- 7.0 -->
      <g transform="translate(337.291563 233.152344) scale(0.11 -0.11)">
       <use xlink:href="#DejaVuSans-37"/>
       <use xlink:href="#DejaVuSans-2e" x="63.623047"/>
       <use xlink:href="#DejaVuSans-30" x="95.410156"/>
      </g>
     </g>
    </g>
    <g id="xtick_11">
     <g id="line2d_19">
      <g>
       <use xlink:href="#m0a627a6ad7" x="377.56627" y="217.794062" style="stroke: #000000; stroke-width: 0.8"/>
      </g>
     </g>
     <g id="text_19">
      <!-- 9.4 -->
      <g transform="translate(368.819551 233.152344) scale(0.11 -0.11)">
       <use xlink:href="#DejaVuSans-39"/>
       <use xlink:href="#DejaVuSans-2e" x="63.623047"/>
       <use xlink:href="#DejaVuSans-34" x="95.410156"/>
      </g>
     </g>
    </g>
    <g id="xtick_12">
     <g id="line2d_20">
      <g>
       <use xlink:href="#m0a627a6ad7" x="409.094258" y="217.794062" style="stroke: #000000; stroke-width: 0.8"/>
      </g>
     </g>
     <g id="text_20">
      <!-- 11.7 -->
      <g transform="translate(396.848164 233.152344) scale(0.11 -0.11)">
       <use xlink:href="#DejaVuSans-31"/>
       <use xlink:href="#DejaVuSans-31" x="63.623047"/>
       <use xlink:href="#DejaVuSans-2e" x="127.246094"/>
       <use xlink:href="#DejaVuSans-37" x="159.033203"/>
      </g>
     </g>
    </g>
   </g>
   <g id="matplotlib.axis_4">
    <g id="ytick_8">
     <g id="line2d_21">
      <g>
       <use xlink:href="#m14328f3ea5" x="244.723438" y="211.721781" style="stroke: #000000; stroke-width: 0.8"/>
      </g>
     </g>
     <g id="text_21">
      <!-- 0.0 -->
      <g transform="translate(220.23 215.900921) scale(0.11 -0.11)">
       <use xlink:href="#DejaVuSans-30"/>
       <use xlink:href="#DejaVuSans-2e" x="63.623047"/>
       <use xlink:href="#DejaVuSans-30" x="95.410156"/>
      </g>
     </g>
    </g>
    <g id="ytick_9">
     <g id="line2d_22">
      <g>
       <use xlink:href="#m14328f3ea5" x="244.723438" y="182.995333" style="stroke: #000000; stroke-width: 0.8"/>
      </g>
     </g>
     <g id="text_22">
      <!-- 0.2 -->
      <g transform="translate(220.23 187.174474) scale(0.11 -0.11)">
       <use xlink:href="#DejaVuSans-30"/>
       <use xlink:href="#DejaVuSans-2e" x="63.623047"/>
       <use xlink:href="#DejaVuSans-32" x="95.410156"/>
      </g>
     </g>
    </g>
    <g id="ytick_10">
     <g id="line2d_23">
      <g>
       <use xlink:href="#m14328f3ea5" x="244.723438" y="154.268886" style="stroke: #000000; stroke-width: 0.8"/>
      </g>
     </g>
     <g id="text_23">
      <!-- 0.4 -->
      <g transform="translate(220.23 158.448027) scale(0.11 -0.11)">
       <use xlink:href="#DejaVuSans-30"/>
       <use xlink:href="#DejaVuSans-2e" x="63.623047"/>
       <use xlink:href="#DejaVuSans-34" x="95.410156"/>
      </g>
     </g>
    </g>
    <g id="ytick_11">
     <g id="line2d_24">
      <g>
       <use xlink:href="#m14328f3ea5" x="244.723438" y="125.542439" style="stroke: #000000; stroke-width: 0.8"/>
      </g>
     </g>
     <g id="text_24">
      <!-- 0.6 -->
      <g transform="translate(220.23 129.72158) scale(0.11 -0.11)">
       <use xlink:href="#DejaVuSans-30"/>
       <use xlink:href="#DejaVuSans-2e" x="63.623047"/>
       <use xlink:href="#DejaVuSans-36" x="95.410156"/>
      </g>
     </g>
    </g>
    <g id="ytick_12">
     <g id="line2d_25">
      <g>
       <use xlink:href="#m14328f3ea5" x="244.723438" y="96.815992" style="stroke: #000000; stroke-width: 0.8"/>
      </g>
     </g>
     <g id="text_25">
      <!-- 0.8 -->
      <g transform="translate(220.23 100.995132) scale(0.11 -0.11)">
       <use xlink:href="#DejaVuSans-30"/>
       <use xlink:href="#DejaVuSans-2e" x="63.623047"/>
       <use xlink:href="#DejaVuSans-38" x="95.410156"/>
      </g>
     </g>
    </g>
    <g id="ytick_13">
     <g id="line2d_26">
      <g>
       <use xlink:href="#m14328f3ea5" x="244.723438" y="68.089545" style="stroke: #000000; stroke-width: 0.8"/>
      </g>
     </g>
     <g id="text_26">
      <!-- 1.0 -->
      <g transform="translate(220.23 72.268685) scale(0.11 -0.11)">
       <use xlink:href="#DejaVuSans-31"/>
       <use xlink:href="#DejaVuSans-2e" x="63.623047"/>
       <use xlink:href="#DejaVuSans-30" x="95.410156"/>
      </g>
     </g>
    </g>
    <g id="ytick_14">
     <g id="line2d_27">
      <g>
       <use xlink:href="#m14328f3ea5" x="244.723438" y="39.363097" style="stroke: #000000; stroke-width: 0.8"/>
      </g>
     </g>
     <g id="text_27">
      <!-- 1.2 -->
      <g transform="translate(220.23 43.542238) scale(0.11 -0.11)">
       <use xlink:href="#DejaVuSans-31"/>
       <use xlink:href="#DejaVuSans-2e" x="63.623047"/>
       <use xlink:href="#DejaVuSans-32" x="95.410156"/>
      </g>
     </g>
    </g>
   </g>
   <g id="line2d_28">
    <path d="M 251.454319 32.241811 
L 251.723554 32.073761 
L 251.99279 33.100732 
L 252.127407 33.395178 
L 252.396642 33.274527 
L 252.665878 33.113659 
L 254.012054 33.211329 
L 254.415907 33.436831 
L 254.685142 33.350652 
L 254.954377 33.501466 
L 255.35823 33.74995 
L 256.031319 33.996997 
L 256.165936 34.275644 
L 256.300554 34.254099 
L 256.704407 34.662014 
L 256.973642 34.684995 
L 257.10826 34.781229 
L 257.377495 35.100093 
L 258.185201 36.102646 
L 258.992906 37.425498 
L 259.127524 37.521732 
L 259.396759 38.097697 
L 259.665995 38.505613 
L 260.608318 40.484865 
L 261.012171 41.546307 
L 261.281406 42.219943 
L 261.685259 43.163606 
L 264.108363 50.405544 
L 264.646833 52.279944 
L 264.781451 52.459485 
L 265.319935 54.497626 
L 266.531494 58.820956 
L 266.666111 58.937298 
L 268.550758 66.065766 
L 268.954611 67.45469 
L 269.627699 69.896438 
L 269.896935 70.495097 
L 270.16617 72.0469 
L 270.570023 73.527748 
L 270.973876 75.446388 
L 274.473934 89.172171 
L 274.743169 90.760888 
L 275.147022 91.906067 
L 277.031669 100.495706 
L 277.300904 101.344429 
L 277.839375 104.156604 
L 277.973992 104.515398 
L 278.781698 108.460975 
L 279.858639 113.009952 
L 280.127874 114.592779 
L 281.070198 118.60098 
L 282.281757 124.408462 
L 282.416374 124.78679 
L 282.954845 127.713584 
L 284.301021 134.254883 
L 284.974109 137.147493 
L 286.185668 143.17545 
L 286.589521 144.889414 
L 287.262609 148.22082 
L 288.204932 152.593129 
L 290.762667 163.805061 
L 291.031903 164.695437 
L 292.108844 169.293249 
L 292.243461 169.512145 
L 293.993491 176.335107 
L 294.262726 177.07036 
L 294.801196 179.001352 
L 295.070432 179.655166 
L 295.339667 180.898303 
L 295.878137 182.344679 
L 296.685843 184.857669 
L 298.301255 189.088644 
L 298.57049 189.637463 
L 300.85899 194.476145 
L 300.993607 194.53604 
L 302.205166 196.844497 
L 302.339784 196.899796 
L 303.012872 197.943528 
L 303.147489 197.943528 
L 304.359048 199.6749 
L 305.301372 200.804266 
L 305.570607 201.028318 
L 307.051401 202.646952 
L 307.186018 202.646952 
L 307.455254 202.834479 
L 307.589871 202.93212 
L 307.724489 203.264111 
L 307.859107 203.296529 
L 308.128342 203.578594 
L 308.397577 203.617475 
L 310.282359 204.897899 
L 310.416976 204.91334 
L 310.686211 205.082395 
L 311.224682 205.56612 
L 311.763152 205.58324 
L 312.167005 205.983831 
L 312.436241 206.050261 
L 312.705476 206.136268 
L 312.974711 206.208342 
L 313.378564 206.454384 
L 313.647799 206.559351 
L 314.18627 206.666486 
L 314.590123 206.993522 
L 314.859358 206.993522 
L 315.128593 207.189006 
L 315.263211 207.189006 
L 315.667064 207.388454 
L 316.070917 207.437317 
L 316.205669 89.508558 
L 317.013375 89.587556 
L 319.705727 90.165532 
L 321.186521 90.808573 
L 321.724992 91.132608 
L 321.994362 91.315883 
L 323.879008 92.794002 
L 325.49442 94.754151 
L 326.167508 95.713471 
L 326.975214 97.053272 
L 327.244449 97.445675 
L 327.78292 98.397814 
L 328.05229 98.774705 
L 329.398466 101.134869 
L 329.533084 101.314266 
L 329.936937 102.288524 
L 330.87926 103.952647 
L 332.225436 106.393389 
L 332.763907 107.609236 
L 333.70623 109.230126 
L 334.110218 110.097808 
L 334.514071 110.820997 
L 334.917923 111.67963 
L 335.725629 113.274379 
L 336.129482 114.036635 
L 336.2641 114.13488 
L 336.937188 116.004828 
L 337.206423 116.367212 
L 340.168146 122.264177 
L 340.437381 122.643653 
L 342.052793 126.259307 
L 342.591263 127.44729 
L 343.264351 129.170302 
L 343.802822 129.988144 
L 344.341292 131.171674 
L 344.879763 132.406336 
L 345.418233 133.387488 
L 345.822221 134.377401 
L 347.168397 137.480576 
L 347.437632 137.839513 
L 347.706868 138.704323 
L 348.649191 140.961503 
L 349.187662 142.418939 
L 350.129985 144.19409 
L 352.553237 149.950008 
L 353.091708 151.269127 
L 353.360943 151.560413 
L 353.764796 152.726994 
L 354.572501 154.737558 
L 354.707119 154.863236 
L 356.053295 158.321182 
L 356.322531 158.860234 
L 357.938077 162.841433 
L 358.072695 163.034043 
L 358.476547 164.091608 
L 361.438135 171.175119 
L 361.976606 172.2571 
L 362.515076 173.651195 
L 363.053547 174.556796 
L 363.457534 175.177862 
L 363.72677 176.017105 
L 364.534475 177.978259 
L 364.669093 178.167423 
L 365.207564 179.422338 
L 365.880652 180.823183 
L 366.284505 181.522959 
L 366.55374 182.088152 
L 366.822975 182.638264 
L 367.09221 182.899243 
L 367.496063 183.799099 
L 368.034534 184.882948 
L 368.84224 186.384336 
L 369.111475 186.632533 
L 369.784698 187.884 
L 372.342433 191.693558 
L 374.092462 193.851776 
L 374.496315 194.32921 
L 376.515714 196.426671 
L 377.188802 197.006084 
L 377.592655 197.319489 
L 378.400361 197.892941 
L 378.804214 198.298544 
L 380.554243 199.514506 
L 381.092848 199.838411 
L 382.304407 200.546388 
L 383.515965 201.188108 
L 383.650583 199.41122 
L 383.919818 199.680544 
L 384.458289 199.890779 
L 384.862142 200.290479 
L 384.996759 200.700865 
L 385.400612 200.887644 
L 386.073296 201.313973 
L 388.092561 202.765305 
L 389.169502 203.340007 
L 389.977208 203.846526 
L 390.515678 204.204744 
L 393.208031 205.379599 
L 394.015737 205.680293 
L 395.631148 206.214691 
L 396.305583 206.401901 
L 397.920994 206.852504 
L 399.940259 207.321033 
L 403.978788 208.088144 
L 410.171199 208.950239 
L 410.171199 208.950239 
" clip-path="url(#pc68ceba140)" style="fill: none; stroke: #ff0000; stroke-width: 1.5; stroke-linecap: square"/>
   </g>
   <g id="patch_8">
    <path d="M 244.723438 217.794062 
L 244.723438 23.229937 
" style="fill: none; stroke: #000000; stroke-width: 0.8; stroke-linejoin: miter; stroke-linecap: square"/>
   </g>
   <g id="patch_9">
    <path d="M 415.825139 217.794062 
L 415.825139 23.229937 
" style="fill: none; stroke: #000000; stroke-width: 0.8; stroke-linejoin: miter; stroke-linecap: square"/>
   </g>
   <g id="patch_10">
    <path d="M 244.723438 217.794062 
L 415.825139 217.794062 
" style="fill: none; stroke: #000000; stroke-width: 0.8; stroke-linejoin: miter; stroke-linecap: square"/>
   </g>
   <g id="patch_11">
    <path d="M 244.723438 23.229937 
L 415.825139 23.229937 
" style="fill: none; stroke: #000000; stroke-width: 0.8; stroke-linejoin: miter; stroke-linecap: square"/>
   </g>
   <g id="text_28">
    <!-- Drone 2 (Leader) -->
    <g transform="translate(274.169132 17.229937) scale(0.132 -0.132)">
     <use xlink:href="#DejaVuSans-44"/>
     <use xlink:href="#DejaVuSans-72" x="77.001953"/>
     <use xlink:href="#DejaVuSans-6f" x="115.865234"/>
     <use xlink:href="#DejaVuSans-6e" x="177.046875"/>
     <use xlink:href="#DejaVuSans-65" x="240.425781"/>
     <use xlink:href="#DejaVuSans-20" x="301.949219"/>
     <use xlink:href="#DejaVuSans-32" x="333.736328"/>
     <use xlink:href="#DejaVuSans-20" x="397.359375"/>
     <use xlink:href="#DejaVuSans-28" x="429.146484"/>
     <use xlink:href="#DejaVuSans-4c" x="468.160156"/>
     <use xlink:href="#DejaVuSans-65" x="522.123047"/>
     <use xlink:href="#DejaVuSans-61" x="583.646484"/>
     <use xlink:href="#DejaVuSans-64" x="644.925781"/>
     <use xlink:href="#DejaVuSans-65" x="708.402344"/>
     <use xlink:href="#DejaVuSans-72" x="769.925781"/>
     <use xlink:href="#DejaVuSans-29" x="811.039062"/>
    </g>
   </g>
  </g>
  <g id="axes_3">
   <g id="patch_12">
    <path d="M 457.753438 217.794062 
L 628.855139 217.794062 
L 628.855139 23.229937 
L 457.753438 23.229937 
L 457.753438 217.794062 
z
" style="fill: none"/>
   </g>
   <g id="matplotlib.axis_5">
    <g id="xtick_13">
     <g id="line2d_29">
      <g>
       <use xlink:href="#m0a627a6ad7" x="464.484319" y="217.794062" style="stroke: #000000; stroke-width: 0.8"/>
      </g>
     </g>
     <g id="text_29">
      <!-- 0.0 -->
      <g transform="translate(455.7376 233.152344) scale(0.11 -0.11)">
       <use xlink:href="#DejaVuSans-30"/>
       <use xlink:href="#DejaVuSans-2e" x="63.623047"/>
       <use xlink:href="#DejaVuSans-30" x="95.410156"/>
      </g>
     </g>
    </g>
    <g id="xtick_14">
     <g id="line2d_30">
      <g>
       <use xlink:href="#m0a627a6ad7" x="496.012307" y="217.794062" style="stroke: #000000; stroke-width: 0.8"/>
      </g>
     </g>
     <g id="text_30">
      <!-- 2.3 -->
      <g transform="translate(487.265588 233.152344) scale(0.11 -0.11)">
       <use xlink:href="#DejaVuSans-32"/>
       <use xlink:href="#DejaVuSans-2e" x="63.623047"/>
       <use xlink:href="#DejaVuSans-33" x="95.410156"/>
      </g>
     </g>
    </g>
    <g id="xtick_15">
     <g id="line2d_31">
      <g>
       <use xlink:href="#m0a627a6ad7" x="527.540294" y="217.794062" style="stroke: #000000; stroke-width: 0.8"/>
      </g>
     </g>
     <g id="text_31">
      <!-- 4.7 -->
      <g transform="translate(518.793576 233.152344) scale(0.11 -0.11)">
       <use xlink:href="#DejaVuSans-34"/>
       <use xlink:href="#DejaVuSans-2e" x="63.623047"/>
       <use xlink:href="#DejaVuSans-37" x="95.410156"/>
      </g>
     </g>
    </g>
    <g id="xtick_16">
     <g id="line2d_32">
      <g>
       <use xlink:href="#m0a627a6ad7" x="559.068282" y="217.794062" style="stroke: #000000; stroke-width: 0.8"/>
      </g>
     </g>
     <g id="text_32">
      <!-- 7.0 -->
      <g transform="translate(550.321563 233.152344) scale(0.11 -0.11)">
       <use xlink:href="#DejaVuSans-37"/>
       <use xlink:href="#DejaVuSans-2e" x="63.623047"/>
       <use xlink:href="#DejaVuSans-30" x="95.410156"/>
      </g>
     </g>
    </g>
    <g id="xtick_17">
     <g id="line2d_33">
      <g>
       <use xlink:href="#m0a627a6ad7" x="590.59627" y="217.794062" style="stroke: #000000; stroke-width: 0.8"/>
      </g>
     </g>
     <g id="text_33">
      <!-- 9.4 -->
      <g transform="translate(581.849551 233.152344) scale(0.11 -0.11)">
       <use xlink:href="#DejaVuSans-39"/>
       <use xlink:href="#DejaVuSans-2e" x="63.623047"/>
       <use xlink:href="#DejaVuSans-34" x="95.410156"/>
      </g>
     </g>
    </g>
    <g id="xtick_18">
     <g id="line2d_34">
      <g>
       <use xlink:href="#m0a627a6ad7" x="622.124258" y="217.794062" style="stroke: #000000; stroke-width: 0.8"/>
      </g>
     </g>
     <g id="text_34">
      <!-- 11.7 -->
      <g transform="translate(609.878164 233.152344) scale(0.11 -0.11)">
       <use xlink:href="#DejaVuSans-31"/>
       <use xlink:href="#DejaVuSans-31" x="63.623047"/>
       <use xlink:href="#DejaVuSans-2e" x="127.246094"/>
       <use xlink:href="#DejaVuSans-37" x="159.033203"/>
      </g>
     </g>
    </g>
   </g>
   <g id="matplotlib.axis_6">
    <g id="ytick_15">
     <g id="line2d_35">
      <g>
       <use xlink:href="#m14328f3ea5" x="457.753438" y="209.516476" style="stroke: #000000; stroke-width: 0.8"/>
      </g>
     </g>
     <g id="text_35">
      <!-- 0.0 -->
      <g transform="translate(433.26 213.695616) scale(0.11 -0.11)">
       <use xlink:href="#DejaVuSans-30"/>
       <use xlink:href="#DejaVuSans-2e" x="63.623047"/>
       <use xlink:href="#DejaVuSans-30" x="95.410156"/>
      </g>
     </g>
    </g>
    <g id="ytick_16">
     <g id="line2d_36">
      <g>
       <use xlink:href="#m14328f3ea5" x="457.753438" y="183.092239" style="stroke: #000000; stroke-width: 0.8"/>
      </g>
     </g>
     <g id="text_36">
      <!-- 0.2 -->
      <g transform="translate(433.26 187.271379) scale(0.11 -0.11)">
       <use xlink:href="#DejaVuSans-30"/>
       <use xlink:href="#DejaVuSans-2e" x="63.623047"/>
       <use xlink:href="#DejaVuSans-32" x="95.410156"/>
      </g>
     </g>
    </g>
    <g id="ytick_17">
     <g id="line2d_37">
      <g>
       <use xlink:href="#m14328f3ea5" x="457.753438" y="156.668002" style="stroke: #000000; stroke-width: 0.8"/>
      </g>
     </g>
     <g id="text_37">
      <!-- 0.4 -->
      <g transform="translate(433.26 160.847143) scale(0.11 -0.11)">
       <use xlink:href="#DejaVuSans-30"/>
       <use xlink:href="#DejaVuSans-2e" x="63.623047"/>
       <use xlink:href="#DejaVuSans-34" x="95.410156"/>
      </g>
     </g>
    </g>
    <g id="ytick_18">
     <g id="line2d_38">
      <g>
       <use xlink:href="#m14328f3ea5" x="457.753438" y="130.243765" style="stroke: #000000; stroke-width: 0.8"/>
      </g>
     </g>
     <g id="text_38">
      <!-- 0.6 -->
      <g transform="translate(433.26 134.422906) scale(0.11 -0.11)">
       <use xlink:href="#DejaVuSans-30"/>
       <use xlink:href="#DejaVuSans-2e" x="63.623047"/>
       <use xlink:href="#DejaVuSans-36" x="95.410156"/>
      </g>
     </g>
    </g>
    <g id="ytick_19">
     <g id="line2d_39">
      <g>
       <use xlink:href="#m14328f3ea5" x="457.753438" y="103.819528" style="stroke: #000000; stroke-width: 0.8"/>
      </g>
     </g>
     <g id="text_39">
      <!-- 0.8 -->
      <g transform="translate(433.26 107.998669) scale(0.11 -0.11)">
       <use xlink:href="#DejaVuSans-30"/>
       <use xlink:href="#DejaVuSans-2e" x="63.623047"/>
       <use xlink:href="#DejaVuSans-38" x="95.410156"/>
      </g>
     </g>
    </g>
    <g id="ytick_20">
     <g id="line2d_40">
      <g>
       <use xlink:href="#m14328f3ea5" x="457.753438" y="77.395291" style="stroke: #000000; stroke-width: 0.8"/>
      </g>
     </g>
     <g id="text_40">
      <!-- 1.0 -->
      <g transform="translate(433.26 81.574432) scale(0.11 -0.11)">
       <use xlink:href="#DejaVuSans-31"/>
       <use xlink:href="#DejaVuSans-2e" x="63.623047"/>
       <use xlink:href="#DejaVuSans-30" x="95.410156"/>
      </g>
     </g>
    </g>
    <g id="ytick_21">
     <g id="line2d_41">
      <g>
       <use xlink:href="#m14328f3ea5" x="457.753438" y="50.971054" style="stroke: #000000; stroke-width: 0.8"/>
      </g>
     </g>
     <g id="text_41">
      <!-- 1.2 -->
      <g transform="translate(433.26 55.150195) scale(0.11 -0.11)">
       <use xlink:href="#DejaVuSans-31"/>
       <use xlink:href="#DejaVuSans-2e" x="63.623047"/>
       <use xlink:href="#DejaVuSans-32" x="95.410156"/>
      </g>
     </g>
    </g>
    <g id="ytick_22">
     <g id="line2d_42">
      <g>
       <use xlink:href="#m14328f3ea5" x="457.753438" y="24.546817" style="stroke: #000000; stroke-width: 0.8"/>
      </g>
     </g>
     <g id="text_42">
      <!-- 1.4 -->
      <g transform="translate(433.26 28.725958) scale(0.11 -0.11)">
       <use xlink:href="#DejaVuSans-31"/>
       <use xlink:href="#DejaVuSans-2e" x="63.623047"/>
       <use xlink:href="#DejaVuSans-34" x="95.410156"/>
      </g>
     </g>
    </g>
   </g>
   <g id="line2d_43">
    <path d="M 464.484319 33.314379 
L 464.618937 33.314379 
L 464.753554 33.7081 
L 464.888172 35.827324 
L 465.292025 32.079046 
L 465.56126 32.89027 
L 465.695878 33.561446 
L 465.830495 33.599761 
L 466.099731 33.449143 
L 466.503584 33.792658 
L 466.907436 34.385882 
L 467.176672 34.883979 
L 467.84976 36.534173 
L 468.253613 38.324415 
L 468.792083 41.186159 
L 469.330554 44.586959 
L 469.734407 47.596679 
L 470.945965 58.264144 
L 472.96523 78.284995 
L 473.234465 80.748659 
L 475.657582 103.028386 
L 475.926804 104.837522 
L 476.73451 110.580698 
L 478.349935 119.310076 
L 478.61917 120.101747 
L 479.157641 122.640059 
L 479.426876 123.185719 
L 480.3692 125.391086 
L 480.503817 125.467452 
L 481.176905 126.671605 
L 481.446141 126.787343 
L 481.580758 126.898985 
L 481.984611 126.762768 
L 482.119229 126.884055 
L 482.253846 126.846797 
L 482.388464 127.108794 
L 482.926935 126.845872 
L 483.061552 126.498262 
L 483.19617 126.802801 
L 483.330787 126.829754 
L 483.465405 126.736608 
L 483.600023 126.82143 
L 484.003876 126.134928 
L 484.273111 126.16994 
L 484.542346 125.698532 
L 484.676964 125.753627 
L 485.619287 124.561497 
L 485.753905 124.305314 
L 485.888522 124.343101 
L 486.02314 123.965895 
L 486.157758 123.9544 
L 486.292375 123.597541 
L 486.426993 123.587764 
L 486.965463 122.592231 
L 487.100081 122.475832 
L 487.907787 121.022499 
L 488.177022 120.648596 
L 488.446257 120.13438 
L 488.984728 119.265552 
L 489.253963 118.560553 
L 489.523198 118.207657 
L 489.792434 117.656976 
L 490.60014 116.024883 
L 490.734757 115.896461 
L 491.13861 114.784529 
L 491.273228 114.928013 
L 492.080933 113.211759 
L 492.619404 112.294706 
L 493.96558 110.028827 
L 494.369433 109.277058 
L 494.504051 109.208355 
L 495.311757 107.646682 
L 495.446374 107.588021 
L 496.388698 105.833451 
L 496.657933 105.677152 
L 496.792551 105.596822 
L 497.061786 105.010601 
L 497.465639 104.237956 
L 497.869492 103.756506 
L 498.004109 103.687935 
L 498.273344 103.205825 
L 499.08105 102.194702 
L 499.484903 101.515995 
L 499.619521 101.385724 
L 499.754138 101.444782 
L 499.888756 101.372512 
L 500.157991 101.077485 
L 500.561844 100.490603 
L 500.965697 100.170473 
L 501.100315 99.891037 
L 501.36955 99.830261 
L 501.638785 99.680436 
L 501.908021 99.503658 
L 502.177256 99.304022 
L 502.446491 99.237433 
L 502.984962 98.806058 
L 503.523432 98.792317 
L 503.792667 98.622013 
L 504.600373 98.625052 
L 505.273461 98.83671 
L 505.542697 98.787693 
L 505.946549 99.234791 
L 506.215785 99.285261 
L 506.48502 99.557563 
L 506.754255 99.862895 
L 506.888873 99.84017 
L 507.158108 100.179325 
L 507.561961 100.868734 
L 508.100432 101.287029 
L 508.638902 102.466871 
L 508.77352 102.540595 
L 510.523549 106.426808 
L 510.927402 108.019661 
L 511.196637 108.557394 
L 512.946666 115.126591 
L 514.023607 119.796679 
L 515.639019 128.333293 
L 517.792901 141.222243 
L 518.331372 144.810918 
L 518.735224 147.742159 
L 519.00446 149.104328 
L 521.427577 166.11427 
L 521.562195 166.788881 
L 523.177606 185.650898 
L 524.523917 197.086541 
L 525.197005 200.655531 
L 526.408564 205.53939 
L 526.947035 206.781303 
L 528.158593 208.693761 
L 528.427828 208.835951 
L 528.966299 208.785469 
L 529.100917 208.862642 
L 529.504904 208.785469 
L 529.908757 208.950239 
L 531.524169 208.006516 
L 531.793404 208.079037 
L 532.466492 208.432214 
L 532.735727 208.535726 
L 532.870345 208.44877 
L 533.13958 208.672383 
L 533.274198 208.7157 
L 533.408815 208.611288 
L 533.947286 207.356202 
L 534.216521 206.647808 
L 534.485757 206.056737 
L 534.889609 204.594618 
L 537.312861 193.237296 
L 538.120567 189.170606 
L 538.659038 186.709585 
L 539.062891 184.242354 
L 540.409067 178.303903 
L 540.678302 177.24112 
L 541.351525 175.13022 
L 541.62076 173.934787 
L 541.889995 173.579117 
L 542.428466 171.879114 
L 542.697701 171.354064 
L 542.966937 170.219011 
L 543.101554 170.049896 
L 543.774642 168.416482 
L 544.043878 168.245649 
L 544.313113 167.299662 
L 544.716966 167.060654 
L 544.851583 166.572995 
L 544.986201 166.982306 
L 545.255436 165.428165 
L 545.659289 164.900473 
L 545.793907 164.825824 
L 546.063142 164.898887 
L 546.19776 164.850135 
L 546.73623 163.910093 
L 546.870982 164.021206 
L 547.0056 163.948011 
L 547.140218 163.46709 
L 547.274835 163.816947 
L 547.678688 163.069934 
L 547.813306 163.077993 
L 547.947923 162.842025 
L 548.217159 163.106003 
L 548.351776 163.106003 
L 548.486394 162.95697 
L 548.755629 162.03265 
L 548.890247 162.38581 
L 549.159482 163.545702 
L 549.428717 164.297736 
L 549.563335 164.2544 
L 549.83257 163.765156 
L 549.967188 163.783785 
L 550.236423 163.533679 
L 550.371041 163.672142 
L 550.774894 162.75575 
L 551.044129 162.425975 
L 551.313364 162.440376 
L 551.5826 162.125003 
L 551.717217 162.192781 
L 552.255688 161.761538 
L 552.524923 161.394373 
L 552.794293 161.669846 
L 553.063528 161.141097 
L 553.332763 161.209668 
L 553.467381 160.851883 
L 553.736616 160.785955 
L 554.005851 160.297239 
L 554.140469 160.714081 
L 554.544322 160.715931 
L 556.159734 159.811429 
L 556.428969 159.829265 
L 556.563586 159.606113 
L 556.832822 159.702561 
L 557.102057 159.435809 
L 557.371292 159.507683 
L 557.50591 159.336982 
L 558.04438 159.53556 
L 558.582986 159.53556 
L 558.852221 158.547426 
L 558.986838 159.275281 
L 559.121456 159.275281 
L 559.390691 160.115176 
L 568.27559 160.115176 
L 568.410207 161.924047 
L 568.679443 162.300196 
L 569.083295 162.313672 
L 569.756384 162.824056 
L 570.160236 163.179727 
L 570.294989 163.139826 
L 570.429606 163.278685 
L 570.698842 163.089488 
L 570.833459 163.207076 
L 570.968077 162.984584 
L 571.237312 163.344217 
L 571.37193 163.255168 
L 571.641165 163.427586 
L 571.9104 163.474753 
L 572.045018 163.446611 
L 572.448871 163.679145 
L 572.583488 163.679145 
L 572.718106 163.826592 
L 572.852724 164.176581 
L 572.987341 163.954353 
L 574.333518 165.029952 
L 574.468135 165.408743 
L 574.602753 165.409932 
L 575.141223 165.938153 
L 575.410459 165.878962 
L 575.679694 166.019143 
L 575.814312 166.084675 
L 576.083547 166.632053 
L 576.218164 166.46743 
L 576.487534 166.640773 
L 576.622152 166.744753 
L 576.891387 167.281165 
L 577.026005 167.135435 
L 577.429858 167.380388 
L 577.833711 167.661541 
L 577.968328 167.702895 
L 578.372181 168.106129 
L 578.506799 168.179721 
L 578.776034 168.54715 
L 579.179887 168.721418 
L 580.12221 169.944463 
L 580.256828 170.029549 
L 580.660681 170.982936 
L 581.333769 173.831733 
L 582.006857 176.731396 
L 582.141475 176.961419 
L 582.68008 179.957664 
L 582.814698 179.957664 
L 583.218551 182.429123 
L 583.353168 182.429123 
L 583.622403 184.055534 
L 584.699344 186.9404 
L 584.96858 187.455145 
L 585.103197 187.493988 
L 585.776286 188.914819 
L 586.045521 188.914819 
L 586.314756 190.109723 
L 586.449374 190.214628 
L 587.79555 192.909107 
L 587.930168 192.909107 
L 588.468773 193.774633 
L 588.60339 193.774633 
L 588.872626 194.441713 
L 589.141861 194.90123 
L 589.814949 195.725138 
L 589.949567 195.774419 
L 590.218802 196.179503 
L 590.89189 196.919989 
L 591.026508 197.05219 
L 591.295743 197.534538 
L 591.564978 197.714288 
L 591.834214 197.976787 
L 592.238066 198.414187 
L 592.372684 198.378951 
L 592.641919 198.642757 
L 592.911155 198.99408 
L 593.71886 199.577329 
L 594.122848 200.054749 
L 595.738259 201.006207 
L 595.872877 201.037665 
L 596.142112 201.25688 
L 596.815201 201.560045 
L 596.949818 201.796384 
L 597.219053 201.775654 
L 598.026759 202.302091 
L 598.161377 202.747934 
L 598.295994 202.729543 
L 598.430612 202.942852 
L 598.56523 202.880821 
L 598.834465 202.994538 
L 599.237914 203.230969 
L 599.507149 203.394627 
L 599.911002 203.720451 
L 600.314855 204.03963 
L 600.449473 204.013668 
L 600.987943 204.371677 
L 601.930267 204.982684 
L 602.064884 205.183561 
L 602.33412 205.229024 
L 602.737972 205.468362 
L 603.007208 205.955255 
L 603.545678 206.28018 
L 603.680296 206.641611 
L 603.949531 206.654031 
L 604.353384 207.291211 
L 604.488002 207.299231 
L 604.757237 207.527933 
L 605.026472 207.610244 
L 605.295707 207.81778 
L 605.564943 207.960048 
L 605.834178 208.066697 
L 606.641884 208.042334 
L 606.776501 207.07736 
L 606.911119 207.228071 
L 607.045737 207.849529 
L 607.44959 207.715968 
L 607.718825 207.648005 
L 608.391913 207.67682 
L 608.661148 207.527933 
L 608.795766 207.58242 
L 608.93173 207.38943 
L 609.335583 207.483633 
L 610.143288 207.143989 
L 610.412524 207.041106 
L 611.893318 206.814069 
L 612.027935 207.0628 
L 612.431788 207.019623 
L 612.566406 207.114143 
L 612.701023 206.840559 
L 612.835641 206.840559 
L 613.104876 206.963181 
L 613.912582 206.598553 
L 614.316435 206.66649 
L 615.124141 206.629231 
L 615.258758 206.998312 
L 615.527994 206.956218 
L 616.335699 206.736091 
L 616.604935 206.880803 
L 616.739552 206.660253 
L 617.008788 206.635415 
L 617.816493 206.177245 
L 618.489581 206.369468 
L 618.758817 206.807476 
L 619.028052 206.768315 
L 619.16267 206.984201 
L 619.297287 206.853904 
L 619.566523 206.935435 
L 620.104993 206.887568 
L 620.374228 206.580294 
L 620.508846 206.691606 
L 620.912699 206.198648 
L 621.047316 206.225601 
L 621.316552 206.14539 
L 621.855022 206.140106 
L 622.124258 206.484783 
L 622.52811 206.532162 
L 622.662728 206.814069 
L 623.066581 206.807476 
L 623.470434 206.827281 
L 623.470434 206.827281 
" clip-path="url(#paaa924378a)" style="fill: none; stroke: #ff0000; stroke-width: 1.5; stroke-linecap: square"/>
   </g>
   <g id="patch_13">
    <path d="M 457.753438 217.794062 
L 457.753438 23.229937 
" style="fill: none; stroke: #000000; stroke-width: 0.8; stroke-linejoin: miter; stroke-linecap: square"/>
   </g>
   <g id="patch_14">
    <path d="M 628.855139 217.794062 
L 628.855139 23.229937 
" style="fill: none; stroke: #000000; stroke-width: 0.8; stroke-linejoin: miter; stroke-linecap: square"/>
   </g>
   <g id="patch_15">
    <path d="M 457.753438 217.794062 
L 628.855139 217.794062 
" style="fill: none; stroke: #000000; stroke-width: 0.8; stroke-linejoin: miter; stroke-linecap: square"/>
   </g>
   <g id="patch_16">
    <path d="M 457.753438 23.229937 
L 628.855139 23.229937 
" style="fill: none; stroke: #000000; stroke-width: 0.8; stroke-linejoin: miter; stroke-linecap: square"/>
   </g>
   <g id="text_43">
    <!-- Drone 3 (Follower) -->
    <g transform="translate(482.358445 17.229937) scale(0.132 -0.132)">
     <defs>
      <path id="DejaVuSans-46" d="M 628 4666 
L 3309 4666 
L 3309 4134 
L 1259 4134 
L 1259 2759 
L 3109 2759 
L 3109 2228 
L 1259 2228 
L 1259 0 
L 628 0 
L 628 4666 
z
" transform="scale(0.015625)"/>
      <path id="DejaVuSans-6c" d="M 603 4863 
L 1178 4863 
L 1178 0 
L 603 0 
L 603 4863 
z
" transform="scale(0.015625)"/>
      <path id="DejaVuSans-77" d="M 269 3500 
L 844 3500 
L 1563 769 
L 2278 3500 
L 2956 3500 
L 3675 769 
L 4391 3500 
L 4966 3500 
L 4050 0 
L 3372 0 
L 2619 2869 
L 1863 0 
L 1184 0 
L 269 3500 
z
" transform="scale(0.015625)"/>
     </defs>
     <use xlink:href="#DejaVuSans-44"/>
     <use xlink:href="#DejaVuSans-72" x="77.001953"/>
     <use xlink:href="#DejaVuSans-6f" x="115.865234"/>
     <use xlink:href="#DejaVuSans-6e" x="177.046875"/>
     <use xlink:href="#DejaVuSans-65" x="240.425781"/>
     <use xlink:href="#DejaVuSans-20" x="301.949219"/>
     <use xlink:href="#DejaVuSans-33" x="333.736328"/>
     <use xlink:href="#DejaVuSans-20" x="397.359375"/>
     <use xlink:href="#DejaVuSans-28" x="429.146484"/>
     <use xlink:href="#DejaVuSans-46" x="468.160156"/>
     <use xlink:href="#DejaVuSans-6f" x="522.054688"/>
     <use xlink:href="#DejaVuSans-6c" x="583.236328"/>
     <use xlink:href="#DejaVuSans-6c" x="611.019531"/>
     <use xlink:href="#DejaVuSans-6f" x="638.802734"/>
     <use xlink:href="#DejaVuSans-77" x="699.984375"/>
     <use xlink:href="#DejaVuSans-65" x="781.771484"/>
     <use xlink:href="#DejaVuSans-72" x="843.294922"/>
     <use xlink:href="#DejaVuSans-29" x="884.408203"/>
    </g>
   </g>
  </g>
  <g id="axes_4">
   <g id="patch_17">
    <path d="M 670.783438 217.794062 
L 841.885139 217.794062 
L 841.885139 23.229937 
L 670.783438 23.229937 
L 670.783438 217.794062 
z
" style="fill: none"/>
   </g>
   <g id="matplotlib.axis_7">
    <g id="xtick_19">
     <g id="line2d_44">
      <g>
       <use xlink:href="#m0a627a6ad7" x="677.514319" y="217.794062" style="stroke: #000000; stroke-width: 0.8"/>
      </g>
     </g>
     <g id="text_44">
      <!-- 0.0 -->
      <g transform="translate(668.7676 233.152344) scale(0.11 -0.11)">
       <use xlink:href="#DejaVuSans-30"/>
       <use xlink:href="#DejaVuSans-2e" x="63.623047"/>
       <use xlink:href="#DejaVuSans-30" x="95.410156"/>
      </g>
     </g>
    </g>
    <g id="xtick_20">
     <g id="line2d_45">
      <g>
       <use xlink:href="#m0a627a6ad7" x="709.042307" y="217.794062" style="stroke: #000000; stroke-width: 0.8"/>
      </g>
     </g>
     <g id="text_45">
      <!-- 2.3 -->
      <g transform="translate(700.295588 233.152344) scale(0.11 -0.11)">
       <use xlink:href="#DejaVuSans-32"/>
       <use xlink:href="#DejaVuSans-2e" x="63.623047"/>
       <use xlink:href="#DejaVuSans-33" x="95.410156"/>
      </g>
     </g>
    </g>
    <g id="xtick_21">
     <g id="line2d_46">
      <g>
       <use xlink:href="#m0a627a6ad7" x="740.570294" y="217.794062" style="stroke: #000000; stroke-width: 0.8"/>
      </g>
     </g>
     <g id="text_46">
      <!-- 4.7 -->
      <g transform="translate(731.823576 233.152344) scale(0.11 -0.11)">
       <use xlink:href="#DejaVuSans-34"/>
       <use xlink:href="#DejaVuSans-2e" x="63.623047"/>
       <use xlink:href="#DejaVuSans-37" x="95.410156"/>
      </g>
     </g>
    </g>
    <g id="xtick_22">
     <g id="line2d_47">
      <g>
       <use xlink:href="#m0a627a6ad7" x="772.098282" y="217.794062" style="stroke: #000000; stroke-width: 0.8"/>
      </g>
     </g>
     <g id="text_47">
      <!-- 7.0 -->
      <g transform="translate(763.351563 233.152344) scale(0.11 -0.11)">
       <use xlink:href="#DejaVuSans-37"/>
       <use xlink:href="#DejaVuSans-2e" x="63.623047"/>
       <use xlink:href="#DejaVuSans-30" x="95.410156"/>
      </g>
     </g>
    </g>
    <g id="xtick_23">
     <g id="line2d_48">
      <g>
       <use xlink:href="#m0a627a6ad7" x="803.62627" y="217.794062" style="stroke: #000000; stroke-width: 0.8"/>
      </g>
     </g>
     <g id="text_48">
      <!-- 9.4 -->
      <g transform="translate(794.879551 233.152344) scale(0.11 -0.11)">
       <use xlink:href="#DejaVuSans-39"/>
       <use xlink:href="#DejaVuSans-2e" x="63.623047"/>
       <use xlink:href="#DejaVuSans-34" x="95.410156"/>
      </g>
     </g>
    </g>
    <g id="xtick_24">
     <g id="line2d_49">
      <g>
       <use xlink:href="#m0a627a6ad7" x="835.154258" y="217.794062" style="stroke: #000000; stroke-width: 0.8"/>
      </g>
     </g>
     <g id="text_49">
      <!-- 11.7 -->
      <g transform="translate(822.908164 233.152344) scale(0.11 -0.11)">
       <use xlink:href="#DejaVuSans-31"/>
       <use xlink:href="#DejaVuSans-31" x="63.623047"/>
       <use xlink:href="#DejaVuSans-2e" x="127.246094"/>
       <use xlink:href="#DejaVuSans-37" x="159.033203"/>
      </g>
     </g>
    </g>
   </g>
   <g id="matplotlib.axis_8">
    <g id="ytick_23">
     <g id="line2d_50">
      <g>
       <use xlink:href="#m14328f3ea5" x="670.783438" y="209.168897" style="stroke: #000000; stroke-width: 0.8"/>
      </g>
     </g>
     <g id="text_50">
      <!-- 0.0 -->
      <g transform="translate(646.29 213.348038) scale(0.11 -0.11)">
       <use xlink:href="#DejaVuSans-30"/>
       <use xlink:href="#DejaVuSans-2e" x="63.623047"/>
       <use xlink:href="#DejaVuSans-30" x="95.410156"/>
      </g>
     </g>
    </g>
    <g id="ytick_24">
     <g id="line2d_51">
      <g>
       <use xlink:href="#m14328f3ea5" x="670.783438" y="174.943647" style="stroke: #000000; stroke-width: 0.8"/>
      </g>
     </g>
     <g id="text_51">
      <!-- 0.5 -->
      <g transform="translate(646.29 179.122787) scale(0.11 -0.11)">
       <defs>
        <path id="DejaVuSans-35" d="M 691 4666 
L 3169 4666 
L 3169 4134 
L 1269 4134 
L 1269 2991 
Q 1406 3038 1543 3061 
Q 1681 3084 1819 3084 
Q 2600 3084 3056 2656 
Q 3513 2228 3513 1497 
Q 3513 744 3044 326 
Q 2575 -91 1722 -91 
Q 1428 -91 1123 -41 
Q 819 9 494 109 
L 494 744 
Q 775 591 1075 516 
Q 1375 441 1709 441 
Q 2250 441 2565 725 
Q 2881 1009 2881 1497 
Q 2881 1984 2565 2268 
Q 2250 2553 1709 2553 
Q 1456 2553 1204 2497 
Q 953 2441 691 2322 
L 691 4666 
z
" transform="scale(0.015625)"/>
       </defs>
       <use xlink:href="#DejaVuSans-30"/>
       <use xlink:href="#DejaVuSans-2e" x="63.623047"/>
       <use xlink:href="#DejaVuSans-35" x="95.410156"/>
      </g>
     </g>
    </g>
    <g id="ytick_25">
     <g id="line2d_52">
      <g>
       <use xlink:href="#m14328f3ea5" x="670.783438" y="140.718396" style="stroke: #000000; stroke-width: 0.8"/>
      </g>
     </g>
     <g id="text_52">
      <!-- 1.0 -->
      <g transform="translate(646.29 144.897537) scale(0.11 -0.11)">
       <use xlink:href="#DejaVuSans-31"/>
       <use xlink:href="#DejaVuSans-2e" x="63.623047"/>
       <use xlink:href="#DejaVuSans-30" x="95.410156"/>
      </g>
     </g>
    </g>
    <g id="ytick_26">
     <g id="line2d_53">
      <g>
       <use xlink:href="#m14328f3ea5" x="670.783438" y="106.493146" style="stroke: #000000; stroke-width: 0.8"/>
      </g>
     </g>
     <g id="text_53">
      <!-- 1.5 -->
      <g transform="translate(646.29 110.672286) scale(0.11 -0.11)">
       <use xlink:href="#DejaVuSans-31"/>
       <use xlink:href="#DejaVuSans-2e" x="63.623047"/>
       <use xlink:href="#DejaVuSans-35" x="95.410156"/>
      </g>
     </g>
    </g>
    <g id="ytick_27">
     <g id="line2d_54">
      <g>
       <use xlink:href="#m14328f3ea5" x="670.783438" y="72.267895" style="stroke: #000000; stroke-width: 0.8"/>
      </g>
     </g>
     <g id="text_54">
      <!-- 2.0 -->
      <g transform="translate(646.29 76.447036) scale(0.11 -0.11)">
       <use xlink:href="#DejaVuSans-32"/>
       <use xlink:href="#DejaVuSans-2e" x="63.623047"/>
       <use xlink:href="#DejaVuSans-30" x="95.410156"/>
      </g>
     </g>
    </g>
    <g id="ytick_28">
     <g id="line2d_55">
      <g>
       <use xlink:href="#m14328f3ea5" x="670.783438" y="38.042645" style="stroke: #000000; stroke-width: 0.8"/>
      </g>
     </g>
     <g id="text_55">
      <!-- 2.5 -->
      <g transform="translate(646.29 42.221786) scale(0.11 -0.11)">
       <use xlink:href="#DejaVuSans-32"/>
       <use xlink:href="#DejaVuSans-2e" x="63.623047"/>
       <use xlink:href="#DejaVuSans-35" x="95.410156"/>
      </g>
     </g>
    </g>
   </g>
   <g id="line2d_56">
    <path d="M 677.514319 34.201887 
L 677.783554 38.531382 
L 678.187407 32.073761 
L 678.322025 32.375628 
L 678.59126 34.251172 
L 678.725878 34.56536 
L 679.129731 34.271707 
L 679.398966 34.629019 
L 680.745142 37.822234 
L 681.014377 39.020118 
L 681.283613 40.67046 
L 681.822083 44.184024 
L 683.437495 59.331435 
L 683.70673 62.590364 
L 684.514436 71.673745 
L 685.052906 78.786437 
L 685.322142 81.323212 
L 687.610641 105.628616 
L 687.745259 105.628616 
L 688.149112 109.48854 
L 688.822187 114.682564 
L 689.22604 114.682564 
L 689.495275 119.463147 
L 689.629892 119.463147 
L 689.899128 122.031409 
L 690.437598 125.388222 
L 690.841451 125.388222 
L 690.976069 127.941426 
L 691.1107 127.941426 
L 691.245317 129.522632 
L 691.379935 129.522632 
L 691.64917 131.536446 
L 691.783788 131.536446 
L 691.918406 132.876022 
L 692.456876 132.876022 
L 692.726111 136.165069 
L 692.860729 136.597676 
L 693.264582 136.597676 
L 693.533817 139.021508 
L 693.668435 139.46849 
L 694.341523 139.46849 
L 694.476141 142.164276 
L 694.610758 142.164276 
L 694.879993 143.189801 
L 697.033876 147.360696 
L 697.168493 147.467205 
L 697.437728 147.870857 
L 697.572346 147.962307 
L 697.841581 148.29395 
L 698.649287 149.009463 
L 699.322375 149.363147 
L 701.072405 149.896992 
L 701.34164 149.855511 
L 701.88011 149.850377 
L 702.014728 149.930738 
L 702.418581 149.862425 
L 703.360904 149.675486 
L 703.899375 149.41955 
L 704.16861 149.286482 
L 705.918639 148.574118 
L 706.45711 148.248088 
L 707.130198 147.87031 
L 708.476374 147.026726 
L 708.610992 147.029738 
L 709.014845 146.693235 
L 709.822551 146.262476 
L 710.091786 146.053154 
L 712.649521 144.62295 
L 712.918756 144.62295 
L 713.322609 144.268855 
L 716.014962 143.373523 
L 716.149579 143.42575 
L 716.418814 143.304525 
L 716.822667 143.258184 
L 717.091903 143.129907 
L 717.361138 143.19603 
L 717.630373 143.221836 
L 718.303461 143.183025 
L 718.841932 143.245109 
L 719.111167 143.324307 
L 720.457343 143.76239 
L 720.995814 144.042147 
L 721.130432 144.002309 
L 721.668902 144.510622 
L 721.80352 144.502408 
L 723.688167 146.28794 
L 724.361255 147.248642 
L 724.765108 147.674062 
L 726.515137 150.687048 
L 727.322843 152.396052 
L 727.592078 153.11485 
L 728.399784 155.075683 
L 729.207489 157.173828 
L 729.611342 158.307711 
L 730.149813 159.402919 
L 730.28443 159.402919 
L 730.553666 161.269906 
L 731.361372 164.00245 
L 731.765224 165.487826 
L 733.246018 171.335415 
L 734.322959 176.145706 
L 735.130665 179.329749 
L 735.669136 181.570408 
L 735.803753 181.978099 
L 736.072989 183.258466 
L 737.015447 187.328806 
L 737.4193 189.944232 
L 737.823152 192.625095 
L 739.034711 199.461931 
L 739.707799 202.291128 
L 740.515505 204.819874 
L 741.457828 206.943318 
L 742.400287 208.437134 
L 743.207992 208.670282 
L 743.34261 208.512924 
L 743.477228 208.929368 
L 745.361874 208.498506 
L 746.304198 208.362529 
L 746.438815 208.143303 
L 746.573433 208.147978 
L 747.381139 207.046685 
L 747.784992 206.346607 
L 750.208244 200.515522 
L 751.01595 197.924328 
L 751.419802 196.904963 
L 751.55442 196.766967 
L 752.092891 195.425816 
L 752.362126 194.828243 
L 753.035214 193.07064 
L 753.439067 192.217952 
L 754.11229 190.949085 
L 754.65076 190.112072 
L 755.054613 189.607455 
L 755.862319 188.400604 
L 756.131554 188.051781 
L 756.535407 187.453934 
L 757.612348 186.538135 
L 757.881583 186.395758 
L 758.420054 185.907842 
L 758.823907 185.445254 
L 759.093142 185.398776 
L 759.631613 185.215192 
L 759.900982 185.098552 
L 760.170218 184.985746 
L 760.574071 184.809691 
L 761.247159 184.7934 
L 761.381776 184.674227 
L 761.651012 184.707015 
L 761.785629 184.543624 
L 761.920247 184.623711 
L 762.3241 184.557177 
L 762.86257 184.435677 
L 763.535658 184.312261 
L 763.804894 184.370444 
L 767.574322 183.89396 
L 767.70894 183.795597 
L 767.843557 183.893207 
L 768.112793 183.786014 
L 769.593586 183.687856 
L 770.132057 183.753842 
L 772.824544 183.717906 
L 774.036103 183.717906 
L 774.170721 183.147028 
L 774.305338 183.147028 
L 774.574573 183.008348 
L 777.401544 183.002872 
L 780.767119 183.002872 
L 780.901737 184.590033 
L 781.440207 185.06597 
L 781.574825 185.079454 
L 782.113295 185.516306 
L 782.517148 185.648894 
L 782.786384 185.69503 
L 783.594224 185.577226 
L 783.998077 185.85096 
L 784.671165 185.980126 
L 785.075018 186.086772 
L 785.209636 186.068906 
L 785.478871 186.292329 
L 785.613488 186.260773 
L 786.017341 186.563324 
L 786.421194 186.735683 
L 786.69043 187.002434 
L 786.825047 186.972658 
L 787.2289 187.197381 
L 787.632753 187.426827 
L 787.901988 187.479945 
L 788.171223 188.053629 
L 788.978929 188.06198 
L 789.248164 188.18875 
L 790.056005 188.293616 
L 790.459858 188.479733 
L 792.61374 190.375059 
L 792.748358 190.825942 
L 793.017593 190.825942 
L 793.286828 192.124312 
L 793.421446 192.572868 
L 793.556063 192.572868 
L 793.690681 193.276881 
L 793.825299 193.236632 
L 794.094534 194.093906 
L 794.363769 194.093906 
L 794.633004 195.417465 
L 795.036857 195.595573 
L 795.306093 196.147147 
L 796.652403 197.91495 
L 797.056256 197.97505 
L 797.325492 198.596169 
L 797.594727 198.799399 
L 797.863962 199.168826 
L 797.99858 199.066561 
L 798.671668 199.834507 
L 798.806286 199.834507 
L 799.075521 200.261228 
L 799.344756 200.273549 
L 799.613991 200.665976 
L 800.017844 201.055596 
L 800.152462 201.055596 
L 800.421697 201.307562 
L 801.364155 201.859752 
L 801.63339 201.871526 
L 802.037243 202.403236 
L 802.171861 202.418089 
L 802.441096 202.57864 
L 803.518037 203.027005 
L 803.787273 202.84596 
L 804.056508 203.443588 
L 804.191125 203.324573 
L 804.729596 203.382947 
L 804.998831 203.382947 
L 805.268066 203.757851 
L 805.671919 203.922946 
L 806.075772 203.970554 
L 806.614243 204.263953 
L 806.74886 204.242555 
L 807.018096 204.431547 
L 807.287466 204.405379 
L 807.422083 204.197152 
L 807.691318 204.220282 
L 807.825936 204.561507 
L 807.960554 204.527385 
L 808.229789 204.62735 
L 808.768259 204.729567 
L 808.902877 204.712365 
L 809.037495 204.887462 
L 809.30673 204.848555 
L 809.710583 205.04676 
L 809.845201 204.784834 
L 809.979818 204.784834 
L 810.249053 205.360243 
L 810.518289 205.343958 
L 810.787524 205.442732 
L 810.922142 205.442732 
L 811.056759 205.654018 
L 811.460612 205.76037 
L 811.729847 205.76037 
L 811.999083 206.109262 
L 813.07562 206.453671 
L 813.344855 206.453671 
L 813.883326 206.734037 
L 814.152561 206.791659 
L 814.825649 207.150607 
L 815.90259 207.751835 
L 816.306443 207.924282 
L 816.441061 207.951464 
L 816.710296 208.097701 
L 816.979531 208.138655 
L 817.248766 208.225882 
L 817.383384 208.176474 
L 817.652619 208.246383 
L 818.19109 208.350756 
L 818.998796 208.267349 
L 819.537266 208.171669 
L 821.01806 207.963306 
L 822.365583 207.879009 
L 822.634818 207.792919 
L 823.038671 207.824556 
L 823.442524 207.775655 
L 826.134876 207.695596 
L 826.673347 207.550241 
L 827.346435 207.580058 
L 827.61567 207.663492 
L 828.423376 207.695596 
L 829.365699 207.7152 
L 829.769552 207.682672 
L 829.90417 207.230358 
L 830.038788 207.230358 
L 830.173405 207.500786 
L 830.577258 207.469552 
L 830.711876 207.469552 
L 830.846493 207.61351 
L 831.115729 207.641424 
L 831.384964 207.702099 
L 832.865758 207.622758 
L 833.134993 207.526783 
L 833.269611 207.526783 
L 833.404228 207.198556 
L 833.538846 207.198556 
L 833.673464 207.544347 
L 834.481169 207.544347 
L 834.750405 207.735064 
L 835.154258 207.748467 
L 835.154258 207.748467 
" clip-path="url(#p7042e42f9f)" style="fill: none; stroke: #ff0000; stroke-width: 1.5; stroke-linecap: square"/>
   </g>
   <g id="patch_18">
    <path d="M 670.783438 217.794062 
L 670.783438 23.229937 
" style="fill: none; stroke: #000000; stroke-width: 0.8; stroke-linejoin: miter; stroke-linecap: square"/>
   </g>
   <g id="patch_19">
    <path d="M 841.885139 217.794062 
L 841.885139 23.229937 
" style="fill: none; stroke: #000000; stroke-width: 0.8; stroke-linejoin: miter; stroke-linecap: square"/>
   </g>
   <g id="patch_20">
    <path d="M 670.783438 217.794062 
L 841.885139 217.794062 
" style="fill: none; stroke: #000000; stroke-width: 0.8; stroke-linejoin: miter; stroke-linecap: square"/>
   </g>
   <g id="patch_21">
    <path d="M 670.783438 23.229937 
L 841.885139 23.229937 
" style="fill: none; stroke: #000000; stroke-width: 0.8; stroke-linejoin: miter; stroke-linecap: square"/>
   </g>
   <g id="text_56">
    <!-- Drone 4 (Follower) -->
    <g transform="translate(695.388445 17.229937) scale(0.132 -0.132)">
     <use xlink:href="#DejaVuSans-44"/>
     <use xlink:href="#DejaVuSans-72" x="77.001953"/>
     <use xlink:href="#DejaVuSans-6f" x="115.865234"/>
     <use xlink:href="#DejaVuSans-6e" x="177.046875"/>
     <use xlink:href="#DejaVuSans-65" x="240.425781"/>
     <use xlink:href="#DejaVuSans-20" x="301.949219"/>
     <use xlink:href="#DejaVuSans-34" x="333.736328"/>
     <use xlink:href="#DejaVuSans-20" x="397.359375"/>
     <use xlink:href="#DejaVuSans-28" x="429.146484"/>
     <use xlink:href="#DejaVuSans-46" x="468.160156"/>
     <use xlink:href="#DejaVuSans-6f" x="522.054688"/>
     <use xlink:href="#DejaVuSans-6c" x="583.236328"/>
     <use xlink:href="#DejaVuSans-6c" x="611.019531"/>
     <use xlink:href="#DejaVuSans-6f" x="638.802734"/>
     <use xlink:href="#DejaVuSans-77" x="699.984375"/>
     <use xlink:href="#DejaVuSans-65" x="781.771484"/>
     <use xlink:href="#DejaVuSans-72" x="843.294922"/>
     <use xlink:href="#DejaVuSans-29" x="884.408203"/>
    </g>
   </g>
   <g id="legend_1">
    <g id="patch_22">
     <path d="M 746.604514 48.175875 
L 834.185139 48.175875 
Q 836.385139 48.175875 836.385139 45.975875 
L 836.385139 30.929937 
Q 836.385139 28.729937 834.185139 28.729937 
L 746.604514 28.729937 
Q 744.404514 28.729937 744.404514 30.929937 
L 744.404514 45.975875 
Q 744.404514 48.175875 746.604514 48.175875 
z
" style="fill: #ffffff; opacity: 0.8; stroke: #cccccc; stroke-linejoin: miter"/>
    </g>
    <g id="line2d_57">
     <path d="M 748.804514 37.638219 
L 759.804514 37.638219 
L 770.804514 37.638219 
" style="fill: none; stroke: #ff0000; stroke-width: 1.5; stroke-linecap: square"/>
    </g>
    <g id="text_57">
     <!-- Error (px) -->
     <g transform="translate(779.604514 41.488219) scale(0.11 -0.11)">
      <defs>
       <path id="DejaVuSans-45" d="M 628 4666 
L 3578 4666 
L 3578 4134 
L 1259 4134 
L 1259 2753 
L 3481 2753 
L 3481 2222 
L 1259 2222 
L 1259 531 
L 3634 531 
L 3634 0 
L 628 0 
L 628 4666 
z
" transform="scale(0.015625)"/>
       <path id="DejaVuSans-70" d="M 1159 525 
L 1159 -1331 
L 581 -1331 
L 581 3500 
L 1159 3500 
L 1159 2969 
Q 1341 3281 1617 3432 
Q 1894 3584 2278 3584 
Q 2916 3584 3314 3078 
Q 3713 2572 3713 1747 
Q 3713 922 3314 415 
Q 2916 -91 2278 -91 
Q 1894 -91 1617 61 
Q 1341 213 1159 525 
z
M 3116 1747 
Q 3116 2381 2855 2742 
Q 2594 3103 2138 3103 
Q 1681 3103 1420 2742 
Q 1159 2381 1159 1747 
Q 1159 1113 1420 752 
Q 1681 391 2138 391 
Q 2594 391 2855 752 
Q 3116 1113 3116 1747 
z
" transform="scale(0.015625)"/>
       <path id="DejaVuSans-78" d="M 3513 3500 
L 2247 1797 
L 3578 0 
L 2900 0 
L 1881 1375 
L 863 0 
L 184 0 
L 1544 1831 
L 300 3500 
L 978 3500 
L 1906 2253 
L 2834 3500 
L 3513 3500 
z
" transform="scale(0.015625)"/>
      </defs>
      <use xlink:href="#DejaVuSans-45"/>
      <use xlink:href="#DejaVuSans-72" x="63.183594"/>
      <use xlink:href="#DejaVuSans-72" x="102.546875"/>
      <use xlink:href="#DejaVuSans-6f" x="141.410156"/>
      <use xlink:href="#DejaVuSans-72" x="202.591797"/>
      <use xlink:href="#DejaVuSans-20" x="243.705078"/>
      <use xlink:href="#DejaVuSans-28" x="275.492188"/>
      <use xlink:href="#DejaVuSans-70" x="314.505859"/>
      <use xlink:href="#DejaVuSans-78" x="377.982422"/>
      <use xlink:href="#DejaVuSans-29" x="437.162109"/>
     </g>
    </g>
   </g>
  </g>
 </g>
 <defs>
  <clipPath id="p2ea08bf723">
   <rect x="31.693437" y="23.229937" width="171.101702" height="194.564125"/>
  </clipPath>
  <clipPath id="pc68ceba140">
   <rect x="244.723438" y="23.229937" width="171.101702" height="194.564125"/>
  </clipPath>
  <clipPath id="paaa924378a">
   <rect x="457.753438" y="23.229937" width="171.101702" height="194.564125"/>
  </clipPath>
  <clipPath id="p7042e42f9f">
   <rect x="670.783438" y="23.229937" width="171.101702" height="194.564125"/>
  </clipPath>
 </defs>
</svg>
