<?xml version="1.0" encoding="UTF-8" standalone="no"?>
<!-- Created with Inkscape (http://www.inkscape.org/) -->

<svg
   width="8.5in"
   height="11in"
   viewBox="0 0 215.9 279.4"
   version="1.1"
   id="svg5"
   xml:space="preserve"
   inkscape:version="1.2.2 (732a01da63, 2022-12-09)"
   sodipodi:docname="ARUCO PRINT.svg"
   xmlns:inkscape="http://www.inkscape.org/namespaces/inkscape"
   xmlns:sodipodi="http://sodipodi.sourceforge.net/DTD/sodipodi-0.dtd"
   xmlns="http://www.w3.org/2000/svg"
   xmlns:svg="http://www.w3.org/2000/svg"><sodipodi:namedview
     id="namedview7"
     pagecolor="#ffffff"
     bordercolor="#000000"
     borderopacity="0.25"
     inkscape:showpageshadow="2"
     inkscape:pageopacity="0.0"
     inkscape:pagecheckerboard="0"
     inkscape:deskcolor="#d1d1d1"
     inkscape:document-units="mm"
     showgrid="false"
     inkscape:zoom="0.35590942"
     inkscape:cx="182.63074"
     inkscape:cy="396.16821"
     inkscape:window-width="1366"
     inkscape:window-height="745"
     inkscape:window-x="-8"
     inkscape:window-y="-8"
     inkscape:window-maximized="1"
     inkscape:current-layer="layer1" /><defs
     id="defs2" /><g
     inkscape:label="Capa 1"
     inkscape:groupmode="layer"
     id="layer1"><g
       style="shape-rendering:crispEdges"
       id="g174"
       transform="matrix(8.3333333,0,0,8.3333333,23.50884,41.065939)"><rect
         x="0"
         y="0"
         width="6"
         height="6"
         fill="#000000"
         id="rect132" /><rect
         width="1.5"
         height="1"
         x="1"
         y="2"
         fill="#ffffff"
         id="rect134" /><rect
         width="1"
         height="1.5"
         x="1"
         y="2"
         fill="#ffffff"
         id="rect136" /><rect
         width="1.5"
         height="1"
         x="2"
         y="2"
         fill="#ffffff"
         id="rect138" /><rect
         width="1.5"
         height="1"
         x="3"
         y="2"
         fill="#ffffff"
         id="rect140" /><rect
         width="1"
         height="1"
         x="4"
         y="2"
         fill="#ffffff"
         id="rect142" /><rect
         width="1"
         height="1.5"
         x="4"
         y="2"
         fill="#ffffff"
         id="rect144" /><rect
         width="1"
         height="1"
         x="1"
         y="3"
         fill="#ffffff"
         id="rect146" /><rect
         width="1"
         height="1.5"
         x="1"
         y="3"
         fill="#ffffff"
         id="rect148" /><rect
         width="1"
         height="1"
         x="4"
         y="3"
         fill="#ffffff"
         id="rect150" /><rect
         width="1"
         height="1"
         x="1"
         y="4"
         fill="#ffffff"
         id="rect152" /><rect
         width="1"
         height="1"
         x="3"
         y="4"
         fill="#ffffff"
         id="rect154" /></g><g
       style="shape-rendering:crispEdges"
       id="g1176"
       transform="matrix(8.3333333,0,0,8.3333333,84.0517,40.136688)"><rect
         x="0"
         y="0"
         width="6"
         height="6"
         fill="#000000"
         id="rect1134" /><rect
         width="1.5"
         height="1"
         x="3"
         y="1"
         fill="#ffffff"
         id="rect1136" /><rect
         width="1"
         height="1.5"
         x="3"
         y="1"
         fill="#ffffff"
         id="rect1138" /><rect
         width="1"
         height="1"
         x="4"
         y="1"
         fill="#ffffff"
         id="rect1140" /><rect
         width="1"
         height="1.5"
         x="4"
         y="1"
         fill="#ffffff"
         id="rect1142" /><rect
         width="1.5"
         height="1"
         x="3"
         y="2"
         fill="#ffffff"
         id="rect1144" /><rect
         width="1"
         height="1.5"
         x="3"
         y="2"
         fill="#ffffff"
         id="rect1146" /><rect
         width="1"
         height="1"
         x="4"
         y="2"
         fill="#ffffff"
         id="rect1148" /><rect
         width="1"
         height="1"
         x="3"
         y="3"
         fill="#ffffff"
         id="rect1150" /><rect
         width="1.5"
         height="1"
         x="1"
         y="4"
         fill="#ffffff"
         id="rect1152" /><rect
         width="1"
         height="1"
         x="2"
         y="4"
         fill="#ffffff"
         id="rect1154" /><rect
         width="1"
         height="1"
         x="4"
         y="4"
         fill="#ffffff"
         id="rect1156" /></g><g
       style="shape-rendering:crispEdges"
       id="g1217"
       transform="matrix(8.3333333,0,0,8.3333333,144.87871,38.779141)"><rect
         x="0"
         y="0"
         width="6"
         height="6"
         fill="#000000"
         id="rect1178" /><rect
         width="1"
         height="1"
         x="1"
         y="1"
         fill="#ffffff"
         id="rect1180" /><rect
         width="1"
         height="1.5"
         x="1"
         y="1"
         fill="#ffffff"
         id="rect1182" /><rect
         width="1"
         height="1"
         x="4"
         y="1"
         fill="#ffffff"
         id="rect1184" /><rect
         width="1"
         height="1.5"
         x="4"
         y="1"
         fill="#ffffff"
         id="rect1186" /><rect
         width="1"
         height="1"
         x="1"
         y="2"
         fill="#ffffff"
         id="rect1188" /><rect
         width="1"
         height="1"
         x="4"
         y="2"
         fill="#ffffff"
         id="rect1190" /><rect
         width="1"
         height="1"
         x="2"
         y="3"
         fill="#ffffff"
         id="rect1192" /><rect
         width="1"
         height="1.5"
         x="2"
         y="3"
         fill="#ffffff"
         id="rect1194" /><rect
         width="1.5"
         height="1"
         x="2"
         y="4"
         fill="#ffffff"
         id="rect1196" /><rect
         width="1"
         height="1"
         x="3"
         y="4"
         fill="#ffffff"
         id="rect1198" /></g><g
       style="shape-rendering:crispEdges"
       id="g1258"
       transform="matrix(8.3333333,0,0,8.3333333,23.164049,99.80179)"><rect
         x="0"
         y="0"
         width="6"
         height="6"
         fill="#000000"
         id="rect1219" /><rect
         width="1"
         height="1"
         x="2"
         y="1"
         fill="#ffffff"
         id="rect1221" /><rect
         width="1"
         height="1.5"
         x="2"
         y="1"
         fill="#ffffff"
         id="rect1223" /><rect
         width="1"
         height="1"
         x="4"
         y="1"
         fill="#ffffff"
         id="rect1225" /><rect
         width="1"
         height="1"
         x="2"
         y="2"
         fill="#ffffff"
         id="rect1227" /><rect
         width="1"
         height="1"
         x="1"
         y="3"
         fill="#ffffff"
         id="rect1229" /><rect
         width="1"
         height="1.5"
         x="1"
         y="3"
         fill="#ffffff"
         id="rect1231" /><rect
         width="1"
         height="1"
         x="4"
         y="3"
         fill="#ffffff"
         id="rect1233" /><rect
         width="1.5"
         height="1"
         x="1"
         y="4"
         fill="#ffffff"
         id="rect1235" /><rect
         width="1.5"
         height="1"
         x="2"
         y="4"
         fill="#ffffff"
         id="rect1237" /><rect
         width="1"
         height="1"
         x="3"
         y="4"
         fill="#ffffff"
         id="rect1239" /></g><g
       style="shape-rendering:crispEdges"
       id="g1311"
       transform="matrix(8.3333333,0,0,8.3333333,85.188937,99.144825)"><rect
         x="0"
         y="0"
         width="6"
         height="6"
         fill="#000000"
         id="rect1260" /><rect
         width="1.5"
         height="1"
         x="2"
         y="1"
         fill="#ffffff"
         id="rect1262" /><rect
         width="1.5"
         height="1"
         x="3"
         y="1"
         fill="#ffffff"
         id="rect1264" /><rect
         width="1"
         height="1"
         x="4"
         y="1"
         fill="#ffffff"
         id="rect1266" /><rect
         width="1"
         height="1.5"
         x="4"
         y="1"
         fill="#ffffff"
         id="rect1268" /><rect
         width="1"
         height="1"
         x="1"
         y="2"
         fill="#ffffff"
         id="rect1270" /><rect
         width="1"
         height="1.5"
         x="1"
         y="2"
         fill="#ffffff"
         id="rect1272" /><rect
         width="1"
         height="1"
         x="4"
         y="2"
         fill="#ffffff"
         id="rect1274" /><rect
         width="1.5"
         height="1"
         x="1"
         y="3"
         fill="#ffffff"
         id="rect1276" /><rect
         width="1"
         height="1.5"
         x="1"
         y="3"
         fill="#ffffff"
         id="rect1278" /><rect
         width="1"
         height="1"
         x="2"
         y="3"
         fill="#ffffff"
         id="rect1280" /><rect
         width="1"
         height="1.5"
         x="2"
         y="3"
         fill="#ffffff"
         id="rect1282" /><rect
         width="1.5"
         height="1"
         x="1"
         y="4"
         fill="#ffffff"
         id="rect1284" /><rect
         width="1"
         height="1"
         x="2"
         y="4"
         fill="#ffffff"
         id="rect1286" /><rect
         width="1"
         height="1"
         x="4"
         y="4"
         fill="#ffffff"
         id="rect1288" /></g><g
       style="shape-rendering:crispEdges"
       id="g1352"
       transform="matrix(8.3333333,0,0,8.3333333,85.740236,166.79471)"><rect
         x="0"
         y="0"
         width="6"
         height="6"
         fill="#000000"
         id="rect1313" /><rect
         width="1.5"
         height="1"
         x="2"
         y="1"
         fill="#ffffff"
         id="rect1315" /><rect
         width="1"
         height="1"
         x="3"
         y="1"
         fill="#ffffff"
         id="rect1317" /><rect
         width="1"
         height="1"
         x="1"
         y="2"
         fill="#ffffff"
         id="rect1319" /><rect
         width="1"
         height="1.5"
         x="1"
         y="2"
         fill="#ffffff"
         id="rect1321" /><rect
         width="1"
         height="1"
         x="4"
         y="2"
         fill="#ffffff"
         id="rect1323" /><rect
         width="1.5"
         height="1"
         x="1"
         y="3"
         fill="#ffffff"
         id="rect1325" /><rect
         width="1.5"
         height="1"
         x="2"
         y="3"
         fill="#ffffff"
         id="rect1327" /><rect
         width="1"
         height="1.5"
         x="2"
         y="3"
         fill="#ffffff"
         id="rect1329" /><rect
         width="1"
         height="1"
         x="3"
         y="3"
         fill="#ffffff"
         id="rect1331" /><rect
         width="1"
         height="1"
         x="2"
         y="4"
         fill="#ffffff"
         id="rect1333" /></g><g
       style="shape-rendering:crispEdges"
       id="g1390"
       transform="matrix(8.3333333,0,0,8.3333333,145.21227,165.30792)"><rect
         x="0"
         y="0"
         width="6"
         height="6"
         fill="#000000"
         id="rect1354" /><rect
         width="1.5"
         height="1"
         x="2"
         y="1"
         fill="#ffffff"
         id="rect1356" /><rect
         width="1.5"
         height="1"
         x="3"
         y="1"
         fill="#ffffff"
         id="rect1358" /><rect
         width="1"
         height="1"
         x="4"
         y="1"
         fill="#ffffff"
         id="rect1360" /><rect
         width="1.5"
         height="1"
         x="1"
         y="3"
         fill="#ffffff"
         id="rect1362" /><rect
         width="1"
         height="1"
         x="2"
         y="3"
         fill="#ffffff"
         id="rect1364" /><rect
         width="1"
         height="1.5"
         x="2"
         y="3"
         fill="#ffffff"
         id="rect1366" /><rect
         width="1.5"
         height="1"
         x="2"
         y="4"
         fill="#ffffff"
         id="rect1368" /><rect
         width="1.5"
         height="1"
         x="3"
         y="4"
         fill="#ffffff"
         id="rect1370" /><rect
         width="1"
         height="1"
         x="4"
         y="4"
         fill="#ffffff"
         id="rect1372" /></g><g
       style="shape-rendering:crispEdges"
       id="g1440"
       transform="matrix(8.3333333,0,0,8.3333333,145.95567,98.401742)"><rect
         x="0"
         y="0"
         width="6"
         height="6"
         fill="#000000"
         id="rect1392" /><rect
         width="1"
         height="1"
         x="2"
         y="1"
         fill="#ffffff"
         id="rect1394" /><rect
         width="1"
         height="1.5"
         x="2"
         y="1"
         fill="#ffffff"
         id="rect1396" /><rect
         width="1.5"
         height="1"
         x="1"
         y="2"
         fill="#ffffff"
         id="rect1398" /><rect
         width="1.5"
         height="1"
         x="2"
         y="2"
         fill="#ffffff"
         id="rect1400" /><rect
         width="1.5"
         height="1"
         x="3"
         y="2"
         fill="#ffffff"
         id="rect1402" /><rect
         width="1"
         height="1.5"
         x="3"
         y="2"
         fill="#ffffff"
         id="rect1404" /><rect
         width="1"
         height="1"
         x="4"
         y="2"
         fill="#ffffff"
         id="rect1406" /><rect
         width="1"
         height="1.5"
         x="4"
         y="2"
         fill="#ffffff"
         id="rect1408" /><rect
         width="1.5"
         height="1"
         x="3"
         y="3"
         fill="#ffffff"
         id="rect1410" /><rect
         width="1"
         height="1.5"
         x="3"
         y="3"
         fill="#ffffff"
         id="rect1412" /><rect
         width="1"
         height="1"
         x="4"
         y="3"
         fill="#ffffff"
         id="rect1414" /><rect
         width="1.5"
         height="1"
         x="2"
         y="4"
         fill="#ffffff"
         id="rect1416" /><rect
         width="1"
         height="1"
         x="3"
         y="4"
         fill="#ffffff"
         id="rect1418" /></g><g
       style="shape-rendering:crispEdges"
       id="g1496"
       transform="matrix(8.3333333,0,0,8.3333333,22.551175,167.90981)"><rect
         x="0"
         y="0"
         width="6"
         height="6"
         fill="#000000"
         id="rect1442" /><rect
         width="1"
         height="1"
         x="2"
         y="1"
         fill="#ffffff"
         id="rect1444" /><rect
         width="1"
         height="1.5"
         x="2"
         y="1"
         fill="#ffffff"
         id="rect1446" /><rect
         width="1.5"
         height="1"
         x="1"
         y="2"
         fill="#ffffff"
         id="rect1448" /><rect
         width="1"
         height="1.5"
         x="1"
         y="2"
         fill="#ffffff"
         id="rect1450" /><rect
         width="1.5"
         height="1"
         x="2"
         y="2"
         fill="#ffffff"
         id="rect1452" /><rect
         width="1"
         height="1.5"
         x="2"
         y="2"
         fill="#ffffff"
         id="rect1454" /><rect
         width="1.5"
         height="1"
         x="3"
         y="2"
         fill="#ffffff"
         id="rect1456" /><rect
         width="1"
         height="1"
         x="4"
         y="2"
         fill="#ffffff"
         id="rect1458" /><rect
         width="1"
         height="1.5"
         x="4"
         y="2"
         fill="#ffffff"
         id="rect1460" /><rect
         width="1.5"
         height="1"
         x="1"
         y="3"
         fill="#ffffff"
         id="rect1462" /><rect
         width="1"
         height="1"
         x="2"
         y="3"
         fill="#ffffff"
         id="rect1464" /><rect
         width="1"
         height="1"
         x="4"
         y="3"
         fill="#ffffff"
         id="rect1466" /><rect
         width="1"
         height="1.5"
         x="4"
         y="3"
         fill="#ffffff"
         id="rect1468" /><rect
         width="1.5"
         height="1"
         x="3"
         y="4"
         fill="#ffffff"
         id="rect1470" /><rect
         width="1"
         height="1"
         x="4"
         y="4"
         fill="#ffffff"
         id="rect1472" /></g></g></svg>
